<?xml version="1.0" encoding="utf-8"?>
<!-- Generator: Adobe Illustrator 17.0.0, SVG Export Plug-In . SVG Version: 6.00 Build 0)  -->
<!DOCTYPE svg PUBLIC "-//W3C//DTD SVG 1.1//EN" "http://www.w3.org/Graphics/SVG/1.1/DTD/svg11.dtd">
<svg version="1.1" id="Layer_1" xmlns="http://www.w3.org/2000/svg" xmlns:xlink="http://www.w3.org/1999/xlink" x="0px" y="0px"
	 width="150px" height="150px" viewBox="0 0 150 150" enable-background="new 0 0 150 150" xml:space="preserve">
<g>
	<path fill="#FEECBA" d="M-75,0c-41.355,0-75,33.645-75,75s33.645,75,75,75S0,116.355,0,75S-33.645,0-75,0z"/>
</g>
<g>
	<path fill="#FEECBA" d="M75,0C33.645,0,0,33.645,0,75s33.645,75,75,75s75-33.645,75-75S116.355,0,75,0z"/>
	<path fill="#FED771" d="M8.496,83c1.721,14.391,8.084,28.333,19.128,39.376c26.165,26.165,68.587,26.165,94.752,0
		C133.42,111.333,139.783,97.391,141.504,83H8.496z"/>
	<path fill="#00617D" d="M57.979,101.072c0-1.037,0.82-1.856,1.856-1.856c1.036,0,1.856,0.82,1.856,1.856v5.665l6.847-6.798
		c0.458-0.458,0.917-0.723,1.567-0.723c1.037,0,1.711,0.795,1.711,1.712c0,0.578-0.265,1.012-0.675,1.398l-4.749,4.436l5.183,6.509
		c0.29,0.362,0.506,0.747,0.506,1.302c0,1.037-0.795,1.808-1.88,1.808c-0.723,0-1.157-0.362-1.567-0.892l-4.821-6.316l-2.122,1.977
		v3.375c0,1.037-0.82,1.856-1.856,1.856c-1.037,0-1.856-0.82-1.856-1.856V101.072z"/>
	<path fill="#00617D" d="M75.145,101.12c0-1.037,0.82-1.856,1.856-1.856h0.411c0.795,0,1.349,0.41,1.687,0.964l4.484,7.304
		l4.507-7.328c0.386-0.627,0.917-0.94,1.664-0.94h0.409c1.037,0,1.857,0.82,1.857,1.856v13.403c0,1.037-0.82,1.856-1.857,1.856
		c-1.012,0-1.832-0.844-1.832-1.856v-8.413l-3.255,5.014c-0.386,0.579-0.867,0.94-1.542,0.94c-0.675,0-1.157-0.362-1.544-0.94
		l-3.206-4.942v8.389c0,1.013-0.82,1.808-1.833,1.808c-1.012,0-1.807-0.795-1.807-1.808V101.12z"/>
	<path fill="#00617D" d="M61.774,69.769c-0.848-0.678-1.413-1.582-1.413-2.712c0-1.808,1.526-3.334,3.334-3.334
		c0.848,0,1.469,0.226,2.034,0.678c2.712,2.204,5.481,3.334,8.588,3.334c4.464,0,7.684-2.655,7.684-6.837v-0.113
		c0-4.068-3.39-6.554-8.192-6.554c-3.843,0-5.707,1.356-6.781,1.356s-1.921-0.396-3.277-1.356c-1.018-0.735-1.413-1.752-1.356-3.051
		l0.848-14.239c0.113-1.808,1.469-3.108,3.164-3.108h17.912c1.695,0,3.108,1.413,3.108,3.108c0,1.695-1.413,3.051-3.108,3.051
		H69.458l-0.621,9.267c1.864-0.678,3.616-1.13,6.271-1.13c7.741,0,13.786,4.068,13.786,12.43v0.113
		c0,8.023-5.989,13.391-14.465,13.391C69.063,74.063,64.994,72.255,61.774,69.769z"/>
</g>
<g>
	<path fill="#FEECBA" d="M225,0c-41.355,0-75,33.645-75,75s33.645,75,75,75s75-33.645,75-75S266.355,0,225,0z"/>
</g>
</svg>
