<?xml version="1.0" encoding="utf-8"?>
<!-- Generator: Adobe Illustrator 17.0.0, SVG Export Plug-In . SVG Version: 6.00 Build 0)  -->
<!DOCTYPE svg PUBLIC "-//W3C//DTD SVG 1.1//EN" "http://www.w3.org/Graphics/SVG/1.1/DTD/svg11.dtd">
<svg version="1.1" id="Layer_1" xmlns="http://www.w3.org/2000/svg" xmlns:xlink="http://www.w3.org/1999/xlink" x="0px" y="0px"
	 width="150px" height="150px" viewBox="0 0 150 150" enable-background="new 0 0 150 150" xml:space="preserve">
<g>
	<path fill="#FEECBA" d="M-75,0c-41.355,0-75,33.645-75,75s33.645,75,75,75S0,116.355,0,75S-33.645,0-75,0z"/>
</g>
<g>
	<path fill="#FEECBA" d="M75,0C33.645,0,0,33.645,0,75s33.645,75,75,75s75-33.645,75-75S116.355,0,75,0z"/>
	<path fill="#FED771" d="M8.496,83c1.721,14.391,8.084,28.333,19.128,39.376c26.165,26.165,68.587,26.165,94.752,0
		C133.42,111.333,139.783,97.391,141.504,83H8.496z"/>
	<g>
		<path fill="#58864A" d="M39.259,101.12c0-1.037,0.82-1.856,1.856-1.856h0.41c0.795,0,1.35,0.41,1.687,0.965l4.484,7.304
			l4.508-7.329c0.386-0.627,0.916-0.94,1.664-0.94h0.41c1.036,0,1.856,0.82,1.856,1.856v13.404c0,1.036-0.82,1.856-1.856,1.856
			c-1.012,0-1.832-0.843-1.832-1.856v-8.414l-3.255,5.015c-0.386,0.578-0.868,0.94-1.542,0.94c-0.675,0-1.158-0.362-1.544-0.94
			l-3.206-4.943v8.39c0,1.013-0.82,1.808-1.832,1.808c-1.012,0-1.808-0.795-1.808-1.808V101.12z"/>
		<path fill="#58864A" d="M60.354,101.072c0-1.036,0.82-1.856,1.857-1.856c1.036,0,1.856,0.82,1.856,1.856v13.452
			c0,1.036-0.82,1.856-1.856,1.856c-1.037,0-1.857-0.82-1.857-1.856V101.072z"/>
		<path fill="#58864A" d="M68.286,101.072c0-1.036,0.82-1.856,1.856-1.856c1.037,0,1.856,0.82,1.856,1.856v11.789h6.871
			c0.94,0,1.687,0.747,1.687,1.687s-0.747,1.688-1.687,1.688h-8.727c-1.036,0-1.856-0.82-1.856-1.856V101.072z"/>
		<path fill="#58864A" d="M83.209,114.379v-13.162c0-1.037,0.82-1.856,1.857-1.856h9.353c0.917,0,1.664,0.748,1.664,1.664
			c0,0.916-0.748,1.639-1.664,1.639h-7.521v3.423h6.436c0.915,0,1.663,0.748,1.663,1.663c0,0.917-0.748,1.639-1.663,1.639h-6.436
			v3.544h7.641c0.917,0,1.663,0.748,1.663,1.664c0,0.916-0.746,1.639-1.663,1.639h-9.473
			C84.028,116.235,83.209,115.416,83.209,114.379z"/>
		<path fill="#58864A" d="M99.024,114.452c-0.409-0.29-0.699-0.82-0.699-1.399c0-0.965,0.771-1.712,1.736-1.712
			c0.481,0,0.82,0.169,1.059,0.338c1.279,0.94,2.677,1.519,4.316,1.519c1.519,0,2.435-0.603,2.435-1.591v-0.048
			c0-0.94-0.58-1.423-3.399-2.145c-3.399-0.868-5.593-1.808-5.593-5.159v-0.049c0-3.062,2.459-5.087,5.907-5.087
			c2.048,0,3.832,0.53,5.352,1.495c0.409,0.241,0.82,0.748,0.82,1.47c0,0.965-0.773,1.712-1.736,1.712
			c-0.362,0-0.65-0.096-0.94-0.266c-1.229-0.722-2.387-1.133-3.543-1.133c-1.423,0-2.17,0.651-2.17,1.471v0.049
			c0,1.109,0.724,1.471,3.64,2.218c3.423,0.892,5.352,2.121,5.352,5.063v0.049c0,3.351-2.554,5.231-6.195,5.231
			C103.147,116.477,100.905,115.801,99.024,114.452z"/>
	</g>
	<g>
		<path fill="#58864A" d="M41.319,69.769c-0.848-0.678-1.413-1.582-1.413-2.712c0-1.808,1.526-3.334,3.334-3.334
			c0.848,0,1.469,0.226,2.034,0.678c2.712,2.204,5.481,3.334,8.588,3.334c4.464,0,7.684-2.655,7.684-6.837v-0.113
			c0-4.068-3.39-6.554-8.192-6.554c-3.843,0-5.707,1.356-6.781,1.356c-1.073,0-1.921-0.396-3.277-1.356
			c-1.018-0.735-1.413-1.752-1.356-3.051l0.848-14.239c0.113-1.808,1.469-3.108,3.164-3.108h17.912c1.695,0,3.108,1.413,3.108,3.108
			s-1.413,3.051-3.108,3.051H49.003l-0.621,9.267c1.864-0.678,3.616-1.13,6.271-1.13c7.741,0,13.786,4.068,13.786,12.43v0.113
			c0,8.023-5.989,13.391-14.465,13.391C48.608,74.063,44.54,72.255,41.319,69.769z"/>
		<path fill="#58864A" d="M74.995,53.722v-0.113c0-11.3,6.894-20.454,17.29-20.454c10.34,0,17.177,9.04,17.177,20.34v0.113
			c0,11.3-6.894,20.454-17.29,20.454C81.775,74.063,74.995,65.023,74.995,53.722z M102.286,53.722v-0.113
			c0-7.797-4.011-14.182-10.114-14.182s-10.001,6.216-10.001,14.069v0.113c0,7.797,3.955,14.182,10.114,14.182
			C98.444,67.791,102.286,61.463,102.286,53.722z"/>
	</g>
</g>
<g>
	<path fill="#FEECBA" d="M225,0c-41.355,0-75,33.645-75,75s33.645,75,75,75s75-33.645,75-75S266.355,0,225,0z"/>
</g>
</svg>
