<?xml version="1.0" standalone="no"?>
<!DOCTYPE svg PUBLIC "-//W3C//DTD SVG 1.1//EN" "http://www.w3.org/Graphics/SVG/1.1/DTD/svg11.dtd" >
<svg xmlns="http://www.w3.org/2000/svg">
<metadata>Generated by IcoMoon</metadata>
<defs>
<font id="rnd-icons" horiz-adv-x="512">
<font-face units-per-em="512" ascent="480" descent="-32" />
<missing-glyph horiz-adv-x="512" />
<glyph unicode="&#x20;" d="" horiz-adv-x="256" />
<glyph unicode="&#xe600;" d="M360.048 305.28c-2.64 3.216-6.576 5.088-10.704 5.088h-58.944v41.184c0 0.080 0.016 0.128 0.016 0.192v-0.016c0 0 0 0.016 0 0.048 0.096 1.44 0.464 2.864 5.488 2.864h32.592c7.68 0 13.92 6.288 13.936 14.064l0.208 54.256c0.016 3.76-1.44 7.36-4.080 10.016-2.608 2.656-6.16 4.144-9.872 4.144h-35.936c-0.64 0.048-1.68 0.096-3.104 0.096h-15.824c-33.552 0-72.704-19.68-72.704-75.088v-19.312c0-15.152 0-25.44 0-32.448h-42.304c-3.696 0-7.248-1.504-9.856-4.144-2.624-2.656-4.080-6.272-4.064-10.016l0.096-54.128c0.016-7.792 6.272-14.096 13.952-14.096h42.176l0.016-200.048c0-7.808 6.24-14.128 13.936-14.128h60.752c7.696 0 13.936 6.304 13.952 14.096l0.4 200.064h49.376c6.72 0 12.496 4.864 13.728 11.552l9.808 54.144c0.704 4.144-0.384 8.4-3.040 11.616v0zM339.504 242.112h-63.264l-0.448-214.16h-60.752l-0.016 214.16h-56.112l-0.112 54.128h56.224c0 0 0 51.84 0 65.888 0 57.392 47.072 60.96 58.784 60.96h15.824c1.68 0 2.624-0.080 2.624-0.080h36.4l-0.176-54.24h-32.592c-19.904 0-19.44-17.216-19.44-17.216v-55.312h72.88l-9.824-54.128z" />
<glyph unicode="&#xe601;" d="M325.696 398.48c-49.648 0-90.16-42.192-90.16-94.224v-2.912c-50.912 7.2-97.952 34.736-130.816 77.072-2.512 3.456-6.544 5.392-10.832 5.392l-1.104-0.128c-4.592-0.288-8.752-2.912-10.96-7.056-7.904-14.256-12.064-30.576-12.064-47.040 0-15.36 3.616-30.16 10.128-43.312-1.248-0.272-2.512-0.816-3.744-1.52-4.16-2.336-6.928-6.768-6.928-11.76v-1.248c0-27.664 11.648-53.12 30.512-70.704l-0.288-0.128c-3.184-3.6-4.288-8.72-2.912-13.424 8.032-26.432 26.64-47.328 50.080-57.84-18.592-9.552-39.12-14.384-60.352-14.384-5.552 0-11.104 0.272-16.656 0.976l-1.648 0.128c-5.696 0-10.832-3.6-12.896-8.992-2.224-6.080 0-12.736 5.264-16.336 37.312-25.184 80.464-38.464 124.72-38.464 87.12 0 141.504 43.184 171.888 79.424 37.6 44.832 59.248 104.336 59.248 162.992v3.872c13.872 11.472 25.808 25.184 35.648 40.672 3.328 5.12 2.768 11.904-1.248 16.608-2.624 3.040-6.512 4.704-10.4 4.704-0.832 0-1.664-0.128-2.64-0.272 2.224 4.56 4.16 9.264 5.552 14.112 1.664 5.536-0.128 11.488-4.72 15.072-2.496 1.936-5.408 2.912-8.464 2.912-2.512 0-4.992-0.688-7.216-2.224-11.52-7.184-23.872-12.432-36.896-15.904-16.4 15.36-37.888 23.936-60.096 23.936v0zM325.696 384.64c21.92 0 41.76-9.824 55.76-25.328 17.344 3.616 33.728 10.24 48.432 19.504-5.696-18.8-17.76-34.592-33.568-44.544 15.52 1.936 30.24 6.368 43.84 12.736-10.128-16.192-23.168-30.304-38.016-41.664 0.144-3.44 0.144-6.912 0.144-10.368 0-106.128-76.72-228.576-217.248-228.576-43.152 0-83.248 13.296-117.088 36.112 5.968-0.688 12.064-1.104 18.32-1.104 35.648 0 68.672 12.864 94.736 34.32-33.424 0.688-61.584 23.92-71.312 55.888 4.72-0.976 9.44-1.52 14.432-1.52 6.928 0 13.584 0.976 20.112 2.912-34.944 7.344-61.312 39.856-61.312 78.72v0.976c10.272-5.952 22.064-9.552 34.544-9.968-20.384 14.4-33.984 38.88-33.984 66.832 0 14.656 3.872 28.496 10.4 40.4 37.728-48.72 93.92-80.672 157.456-83.984-1.392 5.952-2.080 12.032-2.080 18.256-0.016 44.432 34.256 80.4 76.432 80.4v0z" />
<glyph unicode="&#xe602;" d="M444.72 300.88h-36.8v-36.816c0-7.84-6.288-14.192-14.048-14.192h-25.408c-7.744 0-14.032 6.336-14.032 14.192v36.816h-36.8c-7.76 0-14.032 6.336-14.032 14.192v26.064c0 7.824 6.272 14.192 14.032 14.192h36.8v36.8c0 7.824 6.288 14.192 14.032 14.192h25.408c7.76 0 14.048-6.352 14.048-14.192v-36.816h36.8c7.76 0 14.032-6.352 14.032-14.192v-26.064c0-7.84-6.272-14.176-14.032-14.176v0zM444.72 341.136h-50.848v50.992h-25.408v-50.992h-50.832v-26.064h50.832v-50.992h25.408v50.992h50.848v26.064zM299.104 395.616l-24.032-25.696c-2.192-2.336-5.104-3.856-8.224-4.288 9.056-13.36 13.84-29.312 13.84-46.96 0-24.304-12.4-46.544-36.928-66.16-14.512-11.424-15.152-13.888-15.184-19.024 1.632-4.288 11.92-15.376 22.304-22.816 31.088-22.272 42.64-44.528 42.64-82.096 0-24.448-11.504-48.768-31.568-66.752-15.44-13.824-43.072-30.288-87.056-30.288-70.368 0-125.488 36.304-125.488 82.64 0 48.176 51.424 89.168 113.84 92.112-1.92 5.344-2.896 10.832-2.896 16.416 0 2.416 0.176 4.752 0.496 7.008-50 4.224-86.656 43.088-86.656 93.696 0 50.32 51.2 96.144 107.456 96.144h107.264c5.616 0 10.672-3.376 12.88-8.56 2.224-5.216 1.168-11.264-2.688-15.376v0zM181.632 405.36c-48.176 0-93.408-39.296-93.408-81.952 0-43.536 32.784-79.888 81.712-79.888 2.784 0 5.456-0.384 8.128-0.384l1.792 0.112c-3.184-6.16-5.472-13.488-5.472-20.56 0-12.208 6.48-22.096 14.624-30.176-6.096 0-12.064-0.272-18.56-0.272-59.616 0-107.008-38.272-107.008-78.096 0-39.184 51.856-68.464 111.456-68.464 67.872 0 104.592 43.664 104.592 82.848 0 31.472-8.384 50.224-36.72 70.512-9.664 6.928-28.224 23.76-28.224 33.648 0 11.696 3.296 17.344 20.576 30.96 17.68 14.128 31.536 32.112 31.536 54.976 0 27.36-13.232 48.16-35.84 61.024h34.048l24.032 25.68-107.264 0.032zM168.96 80.928c-32.080 0-55.472 16.848-55.472 40.096 0 21.888 29.184 41.696 61.28 41.696h0.848c7.024 0 13.808-1.104 20.224-2.96l6.416-4.544c17.2-11.808 25.568-18.080 28.096-28.048 0.496-2.464 0.848-5.040 0.848-7.616 0.016-17.952-7.008-38.624-62.24-38.624v0zM216.688 123.936c-1.44 4.8-8.32 9.936-22.304 19.536l-4.56 3.232c-4.816 1.216-9.584 1.824-14.192 1.824h-0.848c-25.44 0-47.248-15.12-47.248-27.52 0-15.008 17.44-25.904 41.44-25.904 48.224 0 48.224 15.296 48.224 24.448-0.016 1.184-0.192 2.624-0.512 4.384v0zM203.552 283.472c-4.016-3.44-10.816-7.632-20.784-7.632h-0.848c-23.168 0.544-46.448 22.336-50.608 47.488-2.512 13.968 1.232 26.432 9.984 34.16 5.408 4.72 12.208 7.2 20.112 7.2h0.832c21.36-0.544 47.424-19.344 52-46.64 2.336-13.632-1.664-26.624-10.688-34.576v0zM200.4 315.632c-3.36 20.032-22.864 34.4-38.368 34.88h-0.64c-4.48 0-8.032-1.232-10.912-3.744-4.96-4.4-6.944-12.048-5.36-20.928 3.040-18.448 20.736-35.456 37.12-35.824h0.512c4.528 0 8.368 1.408 11.744 4.288 5.136 4.544 7.424 12.576 5.904 21.328v0z" />
<glyph unicode="&#xe603;" d="M464.688 140.032c-5.872-25.568-14.576-42.624-25.872-50.768-17.664-12.608-79.856-18.992-184.864-18.992-100.576 0-160.896 5.616-179.28 16.672-34.72 20.784-38.912 109.136-39.36 135.712 0 0.144 0 0.32 0 0.48 0.928 54.64 11.776 124.32 39.36 140.848 22.992 13.888 110.192 16.816 179.28 16.816 105.040 0 167.232-6.448 184.88-19.152 24.8-17.856 33.824-83.184 33.984-138.464-0.064-31.6-2.88-60.352-8.128-83.152v0zM430.608 350.208c-6.896 4.944-37.92 16.496-176.656 16.496-133.168 0-164.64-10.352-171.984-14.784-17.792-10.672-31.488-64.832-32.56-129.024 1.072-63.088 14.16-112.88 32.512-123.872 7.328-4.416 38.768-14.672 172.032-14.672 138.736 0 169.744 11.44 176.656 16.368 16.896 12.16 27.952 60.224 28.128 122.496-0.192 62.992-11.744 115.216-28.128 126.992v0zM320.608 209.568l-85.424-52.832c-2.784-1.744-6.016-2.656-9.328-2.656-3.008 0-5.984 0.768-8.56 2.208-5.584 3.104-9.056 8.992-9.056 15.392v105.68c0 6.4 3.472 12.288 8.992 15.344 2.624 1.472 5.6 2.256 8.64 2.256 3.28 0 6.496-0.912 9.264-2.64l85.456-52.832c5.168-3.184 8.352-8.896 8.352-14.96 0-6.048-3.2-11.776-8.336-14.96v0zM313.168 227.536l-85.44 52.832c-0.544 0.336-1.2 0.528-1.856 0.528-0.592 0-1.216-0.144-1.728-0.448-1.104-0.624-1.808-1.808-1.808-3.072v-105.68c0-1.28 0.704-2.464 1.808-3.088 0.528-0.288 1.12-0.432 1.712-0.432 0.656 0 1.312 0.176 1.872 0.528l85.44 52.848c1.024 0.64 1.664 1.792 1.664 2.992 0.016 1.2-0.624 2.352-1.664 2.992v0z" />
<glyph unicode="&#xe604;" d="M254.080 273.168c-32.88 0-59.552-26.688-59.552-59.552s26.688-59.552 59.552-59.552c32.88 0 59.552 26.688 59.552 59.552s-26.672 59.552-59.552 59.552v0zM254.080 142.144c-39.424 0-71.456 32.032-71.456 71.456s32.032 71.472 71.456 71.472c39.424 0 71.472-32.048 71.472-71.472s-32.048-71.456-71.472-71.456v0zM254.080 308.896c-52.64 0-95.28-42.64-95.28-95.296 0-52.64 42.64-95.28 95.28-95.28 52.656 0 95.296 42.64 95.296 95.28 0 52.656-42.64 95.296-95.296 95.296v0zM254.080 106.416c-59.2 0-107.2 48-107.2 107.2s48 107.2 107.2 107.2c59.2 0 107.2-48 107.2-107.2s-48-107.2-107.2-107.2v0zM397.008 356.544c0 6.544-5.36 11.92-11.92 11.92h-23.808c-6.544 0-11.904-5.376-11.904-11.92v-23.824c0-6.544 5.36-11.92 11.904-11.92h23.824c6.56 0 11.92 5.376 11.92 11.92v23.824h-0.016zM391.056 308.896h-35.744c-9.888 0-17.872 7.984-17.872 17.872v35.728c0 9.888 7.984 17.872 17.872 17.872h35.744c9.872 0 17.856-7.984 17.856-17.872v-35.728c0-9.888-7.984-17.872-17.856-17.872v0zM373.184 70.688h-238.208c-19.776 0-35.744 15.952-35.744 35.728v166.752h51.808c-2.272-3.808-4.304-7.856-6.080-11.904h-33.808v-154.848c0-13.088 10.72-23.824 23.84-23.824h238.208c13.088 0 23.824 10.72 23.824 23.824v154.848h-33.824c-1.792 4.048-3.824 8.096-6.064 11.904h51.792v-166.752c-0.016-19.76-15.968-35.728-35.744-35.728v0zM432.752 344.624c0 32.88-26.688 59.552-59.552 59.552h-238.224c-32.88 0-59.552-26.672-59.552-59.552v-238.208c0-32.88 26.672-59.552 59.552-59.552h238.208c32.88 0 59.552 26.688 59.552 59.552v238.208h0.016zM373.184 34.96h-238.208c-39.44 0-71.472 32.032-71.472 71.456v238.208c0 39.44 32.032 71.472 71.472 71.472h238.208c39.424 0 71.456-32.032 71.456-71.472v-238.208c0.016-39.424-32.032-71.456-71.456-71.456v0z" />
<glyph unicode="&#xe605;" d="M272.272 419.584h-52.368c-7.152 0-12.992-6.72-12.992-13.968 0-66.096-60.576-76.72-62.896-77.232-5.984-1.44-13.392-7.136-13.392-13.344v-52.896c0-7.248 12.080-10.352 19.36-10.352h32.624v-125.488c0-52.256 45.872-94.832 102.672-94.832 53.024 0 84.352 21.472 85.504 22.384 3.376 2.448 6.752 6.464 6.752 10.736v58.848c0 5.696-5.072 10.736-10.4 12.56-1.44 0.384-3.504 0.64-4.944 0.64-4.032 0-8.192-1.824-10.784-5.168-0.384-0.528-11.44-14.752-34.576-14.752-22.48 0-30.272 17.6-30.272 29.36v105.696h63.68c7.152 0 14.304 1.936 14.304 9.168v55.76c0 7.376-7.152 12.432-14.304 12.432h-63.68v75.68c0.016 7.264-7.008 14.768-14.288 14.768v0zM273.584 406.384v-90.432h77.968v-51.872h-77.968v-118c0-18.496 14.16-42.432 44.56-42.432 30.544 0 46.4 19.792 46.4 19.792v-58.848c0 0-28.208-19.92-77.728-19.92-49.504 0-91.216 37.008-91.216 81.632v137.792h-52v50.944c0 0 76.288 12.432 76.288 91.344h53.696z" />
<glyph unicode="&#xe606;" d="M310.080 105.536c-2.048 0-4.096 0.784-5.664 2.336l-112 112c-3.12 3.12-3.12 8.192 0 11.312l112 112c3.12 3.12 8.192 3.12 11.312 0s3.12-8.192 0-11.312l-106.336-106.336 106.336-106.336c3.12-3.12 3.12-8.192 0-11.312-1.552-1.584-3.6-2.352-5.648-2.352z" />
<glyph unicode="&#xe607;" d="M198.080 105.536c-2.048 0-4.096 0.784-5.664 2.336-3.12 3.12-3.12 8.192 0 11.312l106.336 106.336-106.336 106.336c-3.12 3.12-3.12 8.192 0 11.312s8.192 3.12 11.312 0l112-112c3.12-3.12 3.12-8.192 0-11.312l-112-112c-1.552-1.552-3.6-2.32-5.648-2.32z" />
<glyph unicode="&#xe608;" d="M134.080 169.52c0 2.048 0.784 4.096 2.336 5.664l112 112c3.12 3.12 8.192 3.12 11.312 0l112-112c3.12-3.12 3.12-8.192 0-11.312s-8.192-3.12-11.312 0l-106.336 106.336-106.336-106.336c-3.12-3.12-8.192-3.12-11.312 0-1.568 1.552-2.352 3.6-2.352 5.648z" />
<glyph unicode="&#xe609;" d="M134.080 281.52c0 2.048 0.784 4.096 2.336 5.664 3.12 3.12 8.192 3.12 11.312 0l106.336-106.336 106.336 106.336c3.12 3.12 8.192 3.12 11.312 0s3.12-8.192 0-11.312l-112-112c-3.12-3.12-8.192-3.12-11.312 0l-112 112c-1.536 1.552-2.32 3.6-2.32 5.648z" />
<glyph unicode="&#xe60a;" d="M368.576 217.52h-228.992c-4.416 0-8 3.584-8 8s3.584 8 8 8h228.992c4.416 0 8-3.584 8-8s-3.568-8-8-8z" />
<glyph unicode="&#xe60b;" d="M254.080 97.52c-4.416 0-8 3.584-8 8v240c0 4.416 3.584 8 8 8s8-3.584 8-8v-240c0-4.416-3.584-8-8-8zM374.080 217.52h-240c-4.416 0-8 3.584-8 8s3.584 8 8 8h240c4.416 0 8-3.584 8-8s-3.584-8-8-8z" />
<glyph unicode="&#xe60c;" d="M169.232 132.672c-2.048 0-4.096 0.784-5.664 2.336-3.12 3.12-3.12 8.192 0 11.312l169.712 169.712c3.12 3.12 8.192 3.12 11.312 0s3.12-8.192 0-11.312l-169.712-169.712c-1.552-1.552-3.6-2.336-5.648-2.336zM338.928 132.672c-2.048 0-4.096 0.784-5.664 2.336l-169.696 169.712c-3.12 3.12-3.12 8.192 0 11.312s8.192 3.12 11.312 0l169.696-169.696c3.12-3.12 3.12-8.192 0-11.312-1.552-1.568-3.6-2.352-5.648-2.352z" />
<glyph unicode="&#xe60d;" d="M217.184 120.096c-1.712 0-3.408 0.56-4.8 1.6l-61.104 45.856c-3.536 2.656-4.24 7.664-1.6 11.2 2.656 3.536 7.664 4.24 11.2 1.6l54.464-40.864 130.16 188.016c2.512 3.648 7.488 4.544 11.136 2.016 3.632-2.512 4.544-7.504 2.016-11.136l-134.896-194.864c-1.232-1.792-3.152-2.992-5.296-3.344-0.416-0.048-0.848-0.080-1.28-0.080z" />
<glyph unicode="&#xe60e;" d="M368.576 329.52h-228.992c-4.416 0-8 3.584-8 8s3.584 8 8 8h228.992c4.416 0 8-3.584 8-8s-3.568-8-8-8zM368.576 217.52h-228.992c-4.416 0-8 3.584-8 8s3.584 8 8 8h228.992c4.416 0 8-3.584 8-8s-3.568-8-8-8zM368.576 105.52h-228.992c-4.416 0-8 3.584-8 8s3.584 8 8 8h228.992c4.416 0 8-3.584 8-8s-3.568-8-8-8z" />
<glyph unicode="&#xe60f;" d="M170.448 122.976c-1.456 0-2.912 0.4-4.192 1.184-2.368 1.456-3.808 4.032-3.808 6.816v189.104c0 2.912 1.584 5.6 4.128 7.008 2.576 1.392 5.664 1.328 8.128-0.224l167.264-104.928c2.448-1.536 3.872-4.272 3.744-7.152s-1.824-5.472-4.4-6.784l-167.264-84.176c-1.136-0.56-2.368-0.848-3.6-0.848zM178.448 305.616v-161.664l142.992 71.968-142.992 89.696z" />
<glyph unicode="&#xe610;" d="M207.76 105.52c-1.264 0-2.528 0.304-3.696 0.912-2.656 1.376-4.304 4.112-4.304 7.088v224c0 2.992 1.664 5.712 4.304 7.088s5.84 1.168 8.288-0.544l160-112c2.144-1.504 3.408-3.952 3.408-6.56s-1.28-5.056-3.408-6.56l-160-112c-1.36-0.928-2.976-1.424-4.592-1.424zM215.76 322.16v-193.264l138.048 96.64-138.048 96.624zM254.080 27.68c-52.848 0-102.528 20.592-139.904 57.952-77.136 77.136-77.136 202.656 0 279.792 37.376 37.36 87.056 57.936 139.904 57.936s102.528-20.576 139.904-57.952c77.136-77.136 77.136-202.656 0-279.792-37.376-37.344-87.056-57.936-139.904-57.936zM254.080 407.36c-48.576 0-94.24-18.912-128.592-53.264-70.896-70.912-70.896-186.272 0-257.168 34.336-34.336 80.016-53.264 128.592-53.264s94.24 18.928 128.592 53.264c70.896 70.896 70.896 186.256 0 257.168-34.352 34.352-80.016 53.264-128.592 53.264z" />
<glyph unicode="&#xe611;" d="M343.744 127.856h-179.328c-4.416 0-8 3.584-8 8v179.344c0 4.416 3.584 8 8 8h179.328c4.416 0 8-3.584 8-8v-179.328c0-4.432-3.584-8.016-8-8.016zM172.416 143.856h163.328v163.344h-163.328v-163.344z" />
<glyph unicode="&#xe612;" d="M209.072 91.184h-6c-16 0-28.992 13.008-28.992 28.992v210.704c0 16 13.008 28.992 28.992 28.992h6c16 0 28.992-13.008 28.992-28.992v-210.688c0.016-16-12.992-29.008-28.992-29.008zM203.072 343.872c-7.168 0-12.992-5.824-12.992-12.992v-210.688c0-7.168 5.824-12.992 12.992-12.992h6c7.168 0 12.992 5.824 12.992 12.992v210.688c0 7.168-5.824 12.992-12.992 12.992h-6zM305.072 91.184h-6c-16 0-28.992 13.008-28.992 28.992v210.704c0 16 13.008 28.992 28.992 28.992h6c16 0 28.992-13.008 28.992-28.992v-210.688c0.016-16-12.992-29.008-28.992-29.008zM299.072 343.872c-7.168 0-12.992-5.824-12.992-12.992v-210.688c0-7.168 5.824-12.992 12.992-12.992h6c7.168 0 12.992 5.824 12.992 12.992v210.688c0 7.168-5.824 12.992-12.992 12.992h-6z" />
<glyph unicode="&#xe613;" d="M378.576 124.080h-239.776c-15.28 0-32.272 16.992-32.272 32.272v147.552c0 15.28 16.992 23.056 32.272 23.056h239.776c15.28 0 23.056-7.776 23.056-23.056v-147.552c0-15.28-7.776-32.272-23.056-32.272v0zM383.2 156.352v147.552c0 5.088 0.464 4.624-4.624 4.624h-239.776c-5.088 0-13.824 0.464-13.824-4.624v-147.552c0-5.088 8.736-13.84 13.824-13.84h239.776c5.088 0 4.624 8.752 4.624 13.84v0zM398.448 300.704l-138.336-110.672c-1.728-1.504-3.872-2.24-6.048-2.24-2.144 0-4.304 0.736-6.048 2.24l-138.32 110.672c-3.856 3.328-4.272 9.168-0.928 13.008 3.328 3.856 9.168 4.272 13.008 0.928l132.288-105.44 132.288 105.44c3.84 3.312 9.664 2.928 13.024-0.928 3.344-3.856 2.912-9.68-0.928-13.008v0z" />
<glyph unicode="&#xe614;" d="M246.576 167.104h-47.696v7.76h19.776v64.576c0 2.496 0.128 4.88 0.128 4.88h-0.24c0 0-0.88-1.872-4.368-5.248l-9.408-9.408-5.488 5.632 19.904 19.776h8v-80.224h19.408v-7.744zM283.184 165.6c-17.28 0-27.92 12-27.92 12l5.248 6.64c0 0 9.008-10.384 22.544-10.384 10.496 0 20.144 7.76 20.144 19.024 0 12.384-10.64 18.784-22.16 18.784h-6l-2.144 5.12 22.032 25.776c2.384 2.752 4.64 4.88 4.64 4.88v0.24c0 0-2.496-0.384-7.136-0.384h-33.040v7.776h51.44v-5.76l-26.288-30.304c11.152-0.608 27.552-6.88 27.552-25.904 0-14.992-12.272-27.504-28.912-27.504zM388.864 350.704h-77.072v19.184c0 5.328-4.32 9.632-9.632 9.632-5.328 0-9.632-4.288-9.632-9.632v-19.184h-77.008v19.184c0 5.328-4.32 9.632-9.648 9.632-5.312 0-9.632-4.288-9.632-9.632v-19.184h-76.928c-10.64 0-19.264-8.608-19.264-19.248v-240.672c0-10.64 8.624-19.248 19.264-19.248h269.552c10.64 0 19.248 8.608 19.248 19.248v240.672c0 10.64-8.608 19.248-19.248 19.248zM388.864 90.784h-269.552v240.672h76.928v-9.712c0-5.312 4.32-9.632 9.632-9.632 5.328 0 9.648 4.32 9.648 9.632v9.712h77.008v-9.712c0-5.312 4.288-9.632 9.632-9.632 5.312 0 9.632 4.32 9.632 9.632v9.712h77.072v-240.672z" />
<glyph unicode="&#xe615;" d="M404.864 22.848h-309.712c-3.68 0-6.896 2.512-7.76 6.080l-58.080 236.032c-0.592 2.384-0.048 4.912 1.472 6.848s3.84 3.056 6.304 3.056h434c2.496 0 4.864-1.168 6.368-3.168 1.52-2 2-4.592 1.328-7.008l-66.208-236.032c-0.976-3.424-4.128-5.808-7.712-5.808zM101.424 38.848h297.376l61.712 220.032h-413.232l54.144-220.032zM157.872 259.376c-1.408 0-2.832 0.368-4.128 1.152-3.776 2.288-4.992 7.2-2.72 10.992l92.192 152.832c2.272 3.792 7.184 5.008 10.992 2.72 3.776-2.288 4.992-7.2 2.72-10.992l-92.192-152.832c-1.504-2.496-4.16-3.872-6.864-3.872zM343.248 259.376c-2.688 0-5.328 1.36-6.832 3.84l-93.168 152.832c-2.304 3.776-1.104 8.688 2.672 10.992 3.744 2.32 8.688 1.104 10.992-2.672l93.168-152.832c2.304-3.776 1.104-8.688-2.672-10.992-1.296-0.784-2.736-1.168-4.16-1.168zM447.408 174.72h-383.232c-4.416 0-8 3.584-8 8s3.584 8 8 8h383.232c4.416 0 8-3.584 8-8s-3.568-8-8-8zM424.88 94.192h-347.28c-4.416 0-8 3.584-8 8s3.584 8 8 8h347.296c4.416 0 8-3.584 8-8s-3.584-8-8.016-8z" />
<glyph unicode="&#xe616;" d="M105.136 63.664c-2.128 0-4.208 0.848-5.728 2.416-2 2.048-2.752 5.008-1.968 7.76l19.168 67.904c-15.648 25.44-23.888 54.496-23.888 84.288 0 88.976 72.384 161.36 161.36 161.36s161.36-72.384 161.36-161.36-72.384-161.36-161.36-161.36c-25.776 0-50.544 6.048-73.664 17.984l-73.296-18.72c-0.656-0.192-1.328-0.272-1.984-0.272zM181.424 99.152c1.328 0 2.624-0.336 3.792-0.96 21.552-11.632 44.72-17.536 68.848-17.536 80.144 0 145.36 65.216 145.36 145.36s-65.216 145.36-145.36 145.36-145.36-65.216-145.36-145.36c0-27.92 8.048-55.12 23.28-78.688 1.248-1.936 1.6-4.304 0.992-6.512l-16.368-57.968 62.832 16.048c0.656 0.176 1.328 0.256 1.984 0.256zM249.040 171.152c-4.32 0-7.872 3.44-8 7.776-0.352 12.688 0.032 43.12 11.488 51.392 2.544 1.84 5.936 3.616 9.664 5.504 11.12 5.664 19.040 10.4 19.52 19.936 1.040 20.432-5.296 27.184-12.304 31.44-8.016 4.88-24.896 10.496-37.328 0.576-11.552-9.216-12.928-28.496-12.944-28.688-0.288-4.384-4.24-7.536-8.48-7.488-4.4 0.272-7.744 4.048-7.488 8.448 0.064 1.072 1.744 26.544 18.944 40.24 16.88 13.472 40.096 10 55.6 0.576 14.768-8.976 21.104-23.568 19.984-45.92-0.992-19.52-17.392-27.856-28.256-33.376-2.896-1.472-5.552-2.784-7.52-4.208-2.976-2.976-5.36-21.12-4.88-38 0.128-4.416-3.36-8.096-7.776-8.224-0.064 0.016-0.144 0.016-0.224 0.016zM248.544 129.36c-6.704 0-12.16 5.456-12.16 12.16s5.456 12.16 12.16 12.16 12.176-5.456 12.176-12.16-5.472-12.16-12.176-12.16zM248.544 145.36c-2.112 0-3.824-1.712-3.824-3.84 0-4.24 7.664-4.224 7.664 0 0 2.128-1.728 3.84-3.84 3.84z" />
<glyph unicode="&#xe617;" d="M221.728 176.624c-21.712 0-42.112 8.448-57.456 23.808-15.344 15.344-23.808 35.744-23.808 57.456s8.448 42.112 23.808 57.456c15.344 15.344 35.744 23.808 57.456 23.808 21.696 0 42.112-8.448 57.456-23.808 15.344-15.344 23.808-35.744 23.808-57.456 0-21.696-8.448-42.112-23.808-57.456-15.344-15.36-35.76-23.808-57.456-23.808zM221.728 323.136c-17.44 0-33.824-6.784-46.144-19.12s-19.12-28.704-19.12-46.144c0-17.424 6.784-33.808 19.12-46.144s28.704-19.12 46.144-19.12c17.424 0 33.808 6.784 46.144 19.12s19.12 28.704 19.12 46.144c0 17.44-6.784 33.824-19.12 46.144s-28.72 19.12-46.144 19.12zM372.736 74.896c-8.56 0-16.608 3.328-22.624 9.344l-70.544 70.528c-17.632-9.904-37.536-15.12-57.952-15.12-31.552 0-61.216 12.288-83.536 34.592-46.112 46.112-46.112 121.152 0 167.264 22.336 22.336 52.032 34.64 83.632 34.64 31.584 0 61.296-12.304 83.632-34.64 37.328-37.328 45.056-95.84 19.472-141.472l70.544-70.544c6.016-6.016 9.344-14.064 9.344-22.624s-3.328-16.608-9.344-22.624-14.064-9.344-22.624-9.344zM280.816 172.848c2.064 0 4.112-0.8 5.664-2.336l74.944-74.944c6.016-6 16.608-6 22.624 0 3.008 3.008 4.656 7.024 4.656 11.312s-1.664 8.304-4.656 11.312l-74.944 74.944c-2.656 2.656-3.104 6.784-1.088 9.952 25.504 40.064 19.632 93.52-13.968 127.12-19.328 19.312-44.992 29.952-72.32 29.952s-52.992-10.64-72.32-29.952c-39.872-39.872-39.872-104.752 0-144.64 19.296-19.296 44.944-29.904 72.224-29.904 19.536 0 38.512 5.504 54.896 15.936 1.312 0.832 2.816 1.248 4.288 1.248z" />
<glyph unicode="&#xe618;" d="M221.728 217.344c-4.416 0-8 3.584-8 8v76.336c0 4.416 3.584 8 8 8s8-3.584 8-8v-76.336c0-4.416-3.584-8-8-8zM259.888 255.52h-76.336c-4.416 0-8 3.584-8 8s3.584 8 8 8h76.336c4.416 0 8-3.584 8-8s-3.568-8-8-8zM221.728 176.624c-21.712 0-42.112 8.448-57.456 23.808-15.344 15.344-23.808 35.744-23.808 57.456s8.448 42.112 23.808 57.456c15.344 15.344 35.744 23.808 57.456 23.808 21.696 0 42.112-8.448 57.456-23.808 15.344-15.344 23.808-35.744 23.808-57.456 0-21.696-8.448-42.112-23.808-57.456-15.344-15.36-35.76-23.808-57.456-23.808zM221.728 323.136c-17.44 0-33.824-6.784-46.144-19.12s-19.12-28.704-19.12-46.144c0-17.424 6.784-33.808 19.12-46.144s28.704-19.12 46.144-19.12c17.424 0 33.808 6.784 46.144 19.12s19.12 28.704 19.12 46.144c0 17.44-6.784 33.824-19.12 46.144s-28.72 19.12-46.144 19.12zM372.736 74.896c-8.576 0-16.608 3.328-22.624 9.344l-70.544 70.528c-17.632-9.904-37.536-15.12-57.952-15.12-31.552 0-61.216 12.288-83.536 34.592-46.112 46.112-46.112 121.152 0 167.264 22.336 22.336 52.032 34.64 83.632 34.64 31.584 0 61.296-12.304 83.632-34.64 37.328-37.328 45.056-95.84 19.472-141.472l70.544-70.544c6.016-6.016 9.344-14.064 9.344-22.624s-3.328-16.608-9.344-22.624-14.064-9.344-22.624-9.344zM280.816 172.848c2.064 0 4.112-0.8 5.664-2.336l74.944-74.944c6-6 16.608-6 22.624 0 3.008 3.008 4.656 7.024 4.656 11.312s-1.664 8.304-4.656 11.312l-74.944 74.944c-2.656 2.656-3.104 6.784-1.088 9.952 25.504 40.064 19.632 93.52-13.968 127.12-19.328 19.312-44.992 29.952-72.32 29.952s-52.992-10.64-72.32-29.952c-39.872-39.872-39.872-104.752 0-144.64 19.296-19.296 44.944-29.904 72.224-29.904 19.536 0 38.512 5.504 54.896 15.936 1.312 0.832 2.816 1.248 4.288 1.248z" />
<glyph unicode="&#xe619;" d="M256 319.968c52.928 0 96-43.072 96-96s-43.072-96-96-96-96 43.072-96 96 43.072 96 96 96zM256 335.968c-61.856 0-112-50.144-112-112s50.144-112 112-112c61.856 0 112 50.144 112 112s-50.144 112-112 112v0z" />
<glyph unicode="&#xe61a;" d="M368 224.032c0-61.856-50.144-112-112-112s-112 50.144-112 112c0 61.856 50.144 112 112 112s112-50.144 112-112z" />
</font>
</defs>
</svg>
