<?xml version="1.0" encoding="utf-8"?>
<!-- Generator: Adobe Illustrator 17.1.0, SVG Export Plug-In . SVG Version: 6.00 Build 0)  -->
<!DOCTYPE svg PUBLIC "-//W3C//DTD SVG 1.1//EN" "http://www.w3.org/Graphics/SVG/1.1/DTD/svg11.dtd">
<svg version="1.1" xmlns="http://www.w3.org/2000/svg" xmlns:xlink="http://www.w3.org/1999/xlink" x="0px" y="0px"
	 viewBox="0 0 32 32" enable-background="new 0 0 32 32" xml:space="preserve">
<g id="original" display="none">
	<path id="favorite-icon" display="inline" fill="#E42A33" d="M22.978,8.304c-3.209-1.694-6.594,0.042-7.069,2.314
		c-0.475-2.272-3.86-4.008-7.069-2.314c-4.224,2.229-5.946,10.49,6.721,18.383c0.539,0.336,0.865,0.318,1.281,0.047
		C29.497,18.51,27.22,10.543,22.978,8.304z"/>
</g>
<g id="expanded">
	<g>
		<path fill="#E42A33" d="M15.56,26.083c-2.07,0-4.906-2.313-6.707-4.295c-1.221-1.343-4.061-4.842-4.061-8.306
			c0-3.443,2.801-6.244,6.243-6.244c1.736,0,3.35,0.702,4.525,1.946c1.175-1.244,2.788-1.946,4.524-1.946
			c3.443,0,6.244,2.801,6.244,6.244C26.328,18.426,19.174,26.083,15.56,26.083z"/>
	</g>
</g>
</svg>
