<?xml version="1.0" encoding="utf-8"?>
<!-- Generator: Adobe Illustrator 17.1.0, SVG Export Plug-In . SVG Version: 6.00 Build 0)  -->
<!DOCTYPE svg PUBLIC "-//W3C//DTD SVG 1.1//EN" "http://www.w3.org/Graphics/SVG/1.1/DTD/svg11.dtd">
<svg version="1.1" xmlns="http://www.w3.org/2000/svg" xmlns:xlink="http://www.w3.org/1999/xlink" x="0px" y="0px"
	 viewBox="0 0 32 32" enable-background="new 0 0 32 32" xml:space="preserve">
<g id="original" display="none">
	<g display="inline">
		<circle fill="#E42A33" cx="8.979" cy="5.917" r="2"/>
		<circle fill="#E42A33" cx="8.979" cy="25.917" r="2"/>
		<circle fill="#E42A33" cx="22.979" cy="25.917" r="2"/>
		<rect x="8.979" y="3.917" fill="#E42A33" width="14" height="24"/>
		<rect x="6.979" y="5.917" fill="#E42A33" width="18" height="20"/>
		<g>
			<polygon fill="#FFFFFF" points="19.979,8.917 19.979,6.331 22.565,8.917 			"/>
			<polygon fill="#E42A33" points="18.979,3.917 18.979,9.917 24.979,9.917 18.979,3.917 			"/>
		</g>
		<polyline fill="#EEEEEE" points="18.979,4.917 18.979,9.917 23.979,9.917 		"/>
		<polyline fill="#EEEEEE" points="24.979,8.917 24.979,3.917 19.979,3.917 		"/>
	</g>
</g>
<g id="expanded">
	<g>
		<polygon fill="none" points="21.049,3.377 19.787,2.114 19.787,3.377 19.787,8.426 24.836,8.426 26.099,8.426 24.836,7.164 		"/>
		<path fill="#E42A33" d="M24.836,4.639l-1.262-1.262l-2.525-2.525h-1.262H7.164c-1.394,0-2.525,1.132-2.525,2.525v25.247
			c0,1.394,1.132,2.525,2.525,2.525h17.673c1.393,0,2.525-1.13,2.525-2.525V8.426V7.164L24.836,4.639z M24.836,8.426h-5.049V3.377
			V2.114l1.262,1.262l3.787,3.787l1.262,1.262H24.836z"/>
	</g>
</g>
</svg>
