<?xml version="1.0" encoding="utf-8"?>
<!-- Generator: Adobe Illustrator 17.1.0, SVG Export Plug-In . SVG Version: 6.00 Build 0)  -->
<!DOCTYPE svg PUBLIC "-//W3C//DTD SVG 1.1//EN" "http://www.w3.org/Graphics/SVG/1.1/DTD/svg11.dtd">
<svg version="1.1" xmlns="http://www.w3.org/2000/svg" xmlns:xlink="http://www.w3.org/1999/xlink" x="0px" y="0px"
	 viewBox="0 0 32 32" enable-background="new 0 0 32 32" xml:space="preserve">
<g id="original" display="none">
	
		<text transform="matrix(1 0 0 1 10.8542 27)" display="inline" fill="#E42A33" stroke="#FFFFFF" stroke-width="0.5" stroke-miterlimit="10" font-family="'GothamRounded-Bold'" font-size="32">!</text>
</g>
<g id="expanded">
	<g>
		<g>
			<path fill="#E42A33" d="M16.038,21.938c-1.444,0-2.534,1.062-2.534,2.47v0.064c0,1.408,1.089,2.47,2.534,2.47
				s2.534-1.062,2.534-2.47v-0.064C18.571,23,17.482,21.938,16.038,21.938z M14.47,4.756c-0.309,0-0.569,0.108-0.753,0.312
				c-0.224,0.248-0.322,0.619-0.278,1.044l1.376,12.028c0.081,0.732,0.55,1.187,1.223,1.187s1.142-0.454,1.223-1.186l1.376-12.032
				c0.044-0.423-0.055-0.794-0.278-1.042c-0.184-0.204-0.444-0.312-0.753-0.312H14.47z"/>
		</g>
	</g>
</g>
</svg>
