<?xml version="1.0" encoding="utf-8"?>
<!-- Generator: Adobe Illustrator 17.1.0, SVG Export Plug-In . SVG Version: 6.00 Build 0)  -->
<!DOCTYPE svg PUBLIC "-//W3C//DTD SVG 1.1//EN" "http://www.w3.org/Graphics/SVG/1.1/DTD/svg11.dtd">
<svg version="1.1" xmlns="http://www.w3.org/2000/svg" xmlns:xlink="http://www.w3.org/1999/xlink" x="0px" y="0px"
	 viewBox="0 0 32 32" enable-background="new 0 0 32 32" xml:space="preserve">
<g id="original" display="none">
	<g display="inline">
		<path fill="#E42A33" d="M24.51,15.451"/>
		<polygon fill="#E42A33" stroke="#E42A33" stroke-linecap="round" stroke-linejoin="round" stroke-miterlimit="10" points="
			32,11.292 18.513,16.084 5.027,11.292 18.513,6.5 		"/>
		<path fill="#E42A33" stroke="#E42A33" stroke-linecap="round" stroke-linejoin="round" stroke-miterlimit="10" d="M26.133,22.409
			c0,0.775-0.629,1.404-1.404,1.404H12.508c-0.775,0-1.404-0.629-1.404-1.404l0.029-5.528l7.532,2.676l7.441-2.644L26.133,22.409z"
			/>
		<path fill="none" stroke="#E42A33" stroke-width="2" stroke-linecap="round" stroke-miterlimit="10" d="M17.812,10.951
			c0,0-4.451-0.043-8.771,2.958c-3.958,2.75,1.812,5.312-3.156,8.281"/>
		<g>
			<path fill="#E42A33" d="M7.014,20.867l-4.407,0.748c-0.115,0.009-0.211,0.042-0.287,0.098c-0.159,0.117-0.232,0.353-0.038,0.616
				l2.132,3.017c0.194,0.262,0.441,0.261,0.6,0.144c0.076-0.056,0.136-0.138,0.178-0.246l2.31-3.717
				c0.071-0.179,0.057-0.354-0.037-0.482C7.37,20.916,7.206,20.852,7.014,20.867z"/>
		</g>
		<g>
			<path fill="#E42A33" d="M3.177,9.784"/>
		</g>
	</g>
</g>
<g id="expanded">
	<g>
		<path fill="#E42A33" d="M23.512,15.375"/>
	</g>
	<g>
		<path fill="#E42A33" d="M25.273,17.128c-0.001-0.161-0.08-0.313-0.213-0.406c-0.131-0.093-0.301-0.117-0.455-0.062l-7.274,2.585
			l-7.364-2.617c-0.155-0.056-0.323-0.031-0.455,0.062C9.38,16.782,9.301,16.933,9.3,17.096l-0.029,5.531
			c0,1.05,0.854,1.904,1.904,1.904h12.221c1.05,0,1.904-0.854,1.904-1.907L25.273,17.128z"/>
		<path fill="#E42A33" d="M30.835,11.039L17.348,6.247c-0.108-0.039-0.227-0.039-0.335,0L3.527,11.039
			c-0.199,0.07-0.333,0.259-0.333,0.471s0.133,0.4,0.333,0.471l3.653,1.298c-0.014,0.01-0.028,0.017-0.042,0.027
			c-2.442,1.696-1.985,3.554-1.651,4.909c0.306,1.245,0.477,2.036-1.071,3.085l-3.142,0.533c-0.115,0.009-0.211,0.042-0.287,0.098
			c-0.159,0.117-0.232,0.353-0.038,0.616l2.132,3.017c0.194,0.262,0.441,0.261,0.6,0.144c0.076-0.056,0.135-0.138,0.178-0.246
			l1.469-2.364c2.945-1.891,2.464-3.889,2.102-5.361c-0.308-1.249-0.462-1.877,0.85-2.788c0.438-0.304,0.878-0.57,1.314-0.812
			l7.42,2.636c0.054,0.02,0.111,0.029,0.167,0.029s0.113-0.01,0.167-0.029l13.487-4.792c0.199-0.07,0.333-0.259,0.333-0.471
			S31.034,11.109,30.835,11.039z"/>
	</g>
	<g>
		<g>
			<path fill="#E42A33" d="M2.178,9.708"/>
		</g>
	</g>
</g>
</svg>
