<?xml version="1.0" encoding="utf-8"?>
<!-- Generator: Adobe Illustrator 17.1.0, SVG Export Plug-In . SVG Version: 6.00 Build 0)  -->
<!DOCTYPE svg PUBLIC "-//W3C//DTD SVG 1.1//EN" "http://www.w3.org/Graphics/SVG/1.1/DTD/svg11.dtd">
<svg version="1.1" xmlns="http://www.w3.org/2000/svg" xmlns:xlink="http://www.w3.org/1999/xlink" x="0px" y="0px"
	 viewBox="0 0 30 30" enable-background="new 0 0 30 30" xml:space="preserve">
<g id="original" display="none">
</g>
<g id="expanded">
	<g>
		<path fill="#E42A33" d="M12.25,3.999c0.506,0,0.917-0.411,0.917-0.917V1.249c0-0.506-0.411-0.917-0.917-0.917
			c-0.506,0-0.917,0.411-0.917,0.917v1.833C11.333,3.588,11.744,3.999,12.25,3.999z"/>
		<path fill="#E42A33" d="M19.38,6.415l1.296-1.296c0.358-0.358,0.358-0.938,0-1.296c-0.358-0.358-0.938-0.358-1.296,0l-1.296,1.296
			c-0.358,0.358-0.358,0.938,0,1.296C18.441,6.773,19.022,6.773,19.38,6.415z"/>
		<path fill="#E42A33" d="M1.249,13.167h1.834c0.506,0,0.917-0.411,0.917-0.917s-0.411-0.917-0.917-0.917H1.249
			c-0.506,0-0.917,0.411-0.917,0.917S0.743,13.167,1.249,13.167z"/>
		<path fill="#E42A33" d="M20.5,12.25c0,0.506,0.411,0.917,0.917,0.917h1.833c0.506,0,0.917-0.411,0.917-0.917
			s-0.411-0.917-0.917-0.917h-1.833C20.911,11.333,20.5,11.744,20.5,12.25z"/>
		<path fill="#E42A33" d="M5.119,6.415c0.358,0.358,0.938,0.358,1.296,0c0.358-0.358,0.358-0.938,0-1.296L5.119,3.822
			c-0.358-0.358-0.938-0.358-1.296,0c-0.358,0.358-0.358,0.938,0,1.296L5.119,6.415z"/>
		<path fill="#E42A33" d="M23.251,15c-0.304,0-0.605,0.022-0.905,0.064c-0.961-1.311-2.242-2.311-3.693-2.951
			c-0.074-3.474-2.911-6.281-6.403-6.281c-3.538,0-6.417,2.879-6.417,6.417c0,0.999,0.248,1.934,0.659,2.775
			c-3.416,0.14-6.159,2.944-6.159,6.392c0,3.538,2.879,6.417,6.417,6.417c0.784,0,1.552-0.143,2.275-0.42
			c1.659,1.447,3.77,2.254,5.976,2.254c2.208,0,4.316-0.807,5.976-2.254c0.723,0.277,1.491,0.42,2.275,0.42
			c3.538,0,6.417-2.879,6.417-6.417C29.668,17.879,26.789,15,23.251,15z M12.25,7.666c2.281,0,4.158,1.671,4.51,3.853
			c-0.574-0.115-1.16-0.186-1.759-0.186c-2.632,0-5.071,1.135-6.783,3.051c-0.34-0.64-0.551-1.358-0.551-2.134
			C7.666,9.718,9.718,7.666,12.25,7.666z M23.251,26.001c-0.981,0-1.886-0.315-2.632-0.84c-1.345,1.621-3.348,2.674-5.619,2.674
			c-2.27,0-4.273-1.053-5.619-2.674c-0.745,0.525-1.651,0.84-2.632,0.84c-2.532,0-4.584-2.052-4.584-4.584
			c0-2.532,2.052-4.584,4.584-4.584c0.444,0,0.863,0.084,1.268,0.203c0.161,0.045,0.325,0.081,0.476,0.144
			c0.251-0.491,0.566-0.939,0.916-1.361c1.339-1.611,3.332-2.654,5.591-2.654c0.58,0,1.136,0.084,1.676,0.213
			c0.605,0.143,1.177,0.36,1.709,0.647c1.335,0.709,2.43,1.807,3.12,3.155c0.538-0.222,1.127-0.347,1.745-0.347
			c2.532,0,4.584,2.052,4.584,4.584C27.834,23.949,25.783,26.001,23.251,26.001z"/>
	</g>
</g>
</svg>
