<?xml version="1.0" encoding="utf-8"?>
<!-- Generator: Adobe Illustrator 17.1.0, SVG Export Plug-In . SVG Version: 6.00 Build 0)  -->
<!DOCTYPE svg PUBLIC "-//W3C//DTD SVG 1.1//EN" "http://www.w3.org/Graphics/SVG/1.1/DTD/svg11.dtd">
<svg version="1.1" xmlns="http://www.w3.org/2000/svg" xmlns:xlink="http://www.w3.org/1999/xlink" x="0px" y="0px"
	 viewBox="0 0 32 32" enable-background="new 0 0 32 32" xml:space="preserve">
<g id="original" display="none">
	<path display="inline" fill="#E42A33" d="M29.399,12.378c1.166,0.009,1.758,0.861,1.32,1.903L27.5,27.501
		c-0.313,1.171-1.61,1.858-2.907,1.87H7.405c-1.297-0.012-2.594-0.7-2.907-1.87L1.28,14.281c-0.438-1.042,0.154-1.894,1.32-1.903
		H29.399z"/>
	
		<line display="inline" fill="none" stroke="#E42A33" stroke-width="2" stroke-linecap="round" stroke-linejoin="round" stroke-miterlimit="10" x1="19.094" y1="4.052" x2="24.552" y2="13.635"/>
	
		<line display="inline" fill="none" stroke="#E42A33" stroke-width="2" stroke-linecap="round" stroke-linejoin="round" stroke-miterlimit="10" x1="12.562" y1="4.083" x2="7.104" y2="13.667"/>
	<path display="inline" fill="#FFFFFF" d="M4.865,15.894h22.261c0.267,0,0.484,0.217,0.484,0.484v0.968
		c0,0.267-0.217,0.484-0.484,0.484H4.865c-0.267,0-0.484-0.217-0.484-0.484v-0.968C4.381,16.11,4.598,15.894,4.865,15.894z"/>
	<path display="inline" fill="#FFFFFF" d="M6.801,23.636H25.19c0.267,0,0.484,0.217,0.484,0.484v0.968
		c0,0.267-0.217,0.484-0.484,0.484H6.801c-0.267,0-0.484-0.217-0.484-0.484V24.12C6.317,23.853,6.534,23.636,6.801,23.636z"/>
	<path display="inline" fill="#FFFFFF" d="M5.833,19.765h20.325c0.267,0,0.484,0.217,0.484,0.484v0.968
		c0,0.267-0.217,0.484-0.484,0.484H5.833c-0.267,0-0.484-0.217-0.484-0.484v-0.968C5.349,19.982,5.566,19.765,5.833,19.765z"/>
</g>
<g id="expanded">
	<g>
		<path fill="#E42A33" d="M29.399,12.378h-4.412l-5.024-8.822c-0.274-0.479-0.884-0.647-1.364-0.374
			c-0.479,0.273-0.647,0.884-0.374,1.364l4.46,7.832H8.989l4.443-7.8c0.273-0.48,0.105-1.091-0.374-1.364
			c-0.48-0.273-1.091-0.104-1.364,0.374l-5.007,8.791H2.6c-1.166,0.009-1.758,0.861-1.32,1.903l3.218,13.22
			c0.313,1.171,1.61,1.858,2.907,1.87h17.189c1.297-0.012,2.594-0.7,2.907-1.87l3.218-13.22
			C31.157,13.239,30.565,12.387,29.399,12.378z M25.674,25.452c0,0.267-0.217,0.484-0.484,0.484H6.801
			c-0.267,0-0.484-0.217-0.484-0.484v-0.968C6.317,24.217,6.534,24,6.801,24H25.19c0.267,0,0.484,0.217,0.484,0.484V25.452z
			 M26.642,21.452c0,0.267-0.217,0.484-0.484,0.484H5.833c-0.267,0-0.484-0.217-0.484-0.484v-0.968C5.349,20.217,5.566,20,5.833,20
			h20.325c0.267,0,0.484,0.217,0.484,0.484V21.452z M27.61,17.452c0,0.267-0.217,0.484-0.484,0.484H4.865
			c-0.267,0-0.484-0.217-0.484-0.484v-0.968C4.381,16.217,4.598,16,4.865,16h22.261c0.267,0,0.484,0.217,0.484,0.484V17.452z"/>
	</g>
</g>
</svg>
