<?xml version="1.0" encoding="utf-8"?>
<!-- Generator: Adobe Illustrator 17.1.0, SVG Export Plug-In . SVG Version: 6.00 Build 0)  -->
<!DOCTYPE svg PUBLIC "-//W3C//DTD SVG 1.1//EN" "http://www.w3.org/Graphics/SVG/1.1/DTD/svg11.dtd">
<svg version="1.1" xmlns="http://www.w3.org/2000/svg" xmlns:xlink="http://www.w3.org/1999/xlink" x="0px" y="0px"
	 viewBox="0 0 32 32" enable-background="new 0 0 32 32" xml:space="preserve">
<g id="original" display="none">
	<path display="inline" fill="#E42A33" d="M6.369,17.019l7.506,4.702c0.303,0.189,0.604,0.285,0.895,0.285
		c0.612,0,1.229-0.453,1.229-1.464v-9.584c0-1.011-0.617-1.464-1.229-1.464c-0.291,0-0.593,0.095-0.895,0.285L6.369,14.48
		c-0.506,0.315-0.795,0.778-0.795,1.27C5.573,16.242,5.863,16.705,6.369,17.019z"/>
	
		<path display="inline" fill="none" stroke="#E42A33" stroke-width="3" stroke-linecap="round" stroke-linejoin="round" stroke-miterlimit="10" d="
		M12.993,16.582c4.716-1.829,10.269-0.556,13.684,3.547l0,0"/>
</g>
<g id="expanded">
	<path fill="#E42A33" d="M27.83,19.169c-2.948-3.541-7.406-5.278-11.83-4.828v-3.383c0-1.011-0.617-1.464-1.229-1.464
		c-0.291,0-0.593,0.095-0.895,0.285L6.369,14.48c-0.505,0.315-0.795,0.778-0.795,1.27c0,0.492,0.29,0.955,0.795,1.269l7.506,4.702
		c0.303,0.189,0.604,0.285,0.895,0.285c0.612,0,1.229-0.453,1.229-1.464v-3.19c3.548-0.463,7.159,0.894,9.524,3.737
		c0.296,0.356,0.724,0.54,1.154,0.54c0.338,0,0.678-0.114,0.958-0.347C28.273,20.752,28.36,19.806,27.83,19.169z"/>
</g>
</svg>
