<?xml version="1.0" encoding="utf-8"?>
<!-- Generator: Adobe Illustrator 17.1.0, SVG Export Plug-In . SVG Version: 6.00 Build 0)  -->
<!DOCTYPE svg PUBLIC "-//W3C//DTD SVG 1.1//EN" "http://www.w3.org/Graphics/SVG/1.1/DTD/svg11.dtd">
<svg version="1.1" xmlns="http://www.w3.org/2000/svg" xmlns:xlink="http://www.w3.org/1999/xlink" x="0px" y="0px"
	 viewBox="0 0 32 32" enable-background="new 0 0 32 32" xml:space="preserve">
<g id="original" display="none">
	<g display="inline">
		<g>
			<path fill="none" d="M23.722,17.262H8.278c-0.268,0-0.483,0.282-0.483,0.631c0,0.349,0.216,0.631,0.483,0.631h15.444
				c0.268,0,0.483-0.282,0.483-0.631C24.205,17.545,23.99,17.262,23.722,17.262z"/>
			<path fill="none" d="M23.722,24.836H8.278c-0.268,0-0.483,0.282-0.483,0.631c0,0.349,0.216,0.631,0.483,0.631h15.444
				c0.268,0,0.483-0.282,0.483-0.631C24.205,25.119,23.99,24.836,23.722,24.836z"/>
			<polygon fill="none" points="19.787,8.426 24.836,8.426 26.099,8.426 24.836,7.164 21.049,3.377 19.787,2.114 19.787,3.377 			
				"/>
			<path fill="none" d="M23.722,21.049H8.278c-0.268,0-0.483,0.282-0.483,0.631c0,0.349,0.216,0.631,0.483,0.631h15.444
				c0.268,0,0.483-0.282,0.483-0.631C24.205,21.332,23.99,21.049,23.722,21.049z"/>
			<path fill="none" d="M23.722,13.475H8.278c-0.268,0-0.483,0.282-0.483,0.631c0,0.349,0.216,0.631,0.483,0.631h15.444
				c0.268,0,0.483-0.282,0.483-0.631C24.205,13.758,23.99,13.475,23.722,13.475z"/>
			<g>
				<path fill="#E42A33" d="M24.836,4.639l-1.262-1.262l-2.525-2.525h-1.262H7.164c-1.394,0-2.525,1.132-2.525,2.525v25.247
					c0,1.394,1.132,2.525,2.525,2.525h17.673c1.393,0,2.525-1.13,2.525-2.525V8.426V7.164L24.836,4.639z M24.836,8.426h-5.049V3.377
					V2.114l1.262,1.262l3.787,3.787l1.262,1.262H24.836z"/>
			</g>
		</g>
	</g>
	
		<text transform="matrix(1 0 0 1 7.1934 18.8633)" display="inline" fill="#FFFFFF" font-family="'GothamRounded-Bold'" font-size="7">DOC</text>
</g>
<g id="expanded">
	<g>
		<polygon fill="none" points="21.049,3.377 19.787,2.114 19.787,3.377 19.787,8.426 24.836,8.426 26.099,8.426 24.836,7.164 		"/>
		<path fill="#E42A33" d="M15.637,14.871c-0.869,0-1.471,0.687-1.471,1.526v0.015c0,0.84,0.616,1.541,1.484,1.541
			c0.869,0,1.471-0.687,1.471-1.527v-0.014C17.122,15.571,16.505,14.871,15.637,14.871z"/>
		<path fill="#E42A33" d="M24.836,4.639l-1.262-1.262l-2.525-2.525h-1.262H7.164c-1.394,0-2.525,1.132-2.525,2.525v25.247
			c0,1.394,1.132,2.525,2.525,2.525h17.673c1.393,0,2.525-1.13,2.525-2.525V8.426V7.164L24.836,4.639z M12.299,16.412
			c0,1.38-1.065,2.451-2.605,2.451H8.321c-0.301,0-0.539-0.238-0.539-0.539V14.5c0-0.301,0.238-0.539,0.539-0.539h1.373
			c1.541,0,2.605,1.058,2.605,2.437V16.412z M18.249,16.412c0,1.394-1.1,2.535-2.612,2.535s-2.599-1.128-2.599-2.521v-0.014
			c0-1.394,1.1-2.535,2.612-2.535c1.513,0,2.599,1.127,2.599,2.521V16.412z M23.246,18.331c-0.441,0.385-0.959,0.616-1.744,0.616
			c-1.443,0-2.515-1.113-2.515-2.521v-0.014c0-1.394,1.051-2.535,2.557-2.535c0.735,0,1.232,0.195,1.639,0.497
			c0.112,0.084,0.21,0.238,0.21,0.427c0,0.295-0.238,0.525-0.532,0.525c-0.147,0-0.245-0.056-0.322-0.104
			c-0.301-0.225-0.617-0.351-1.002-0.351c-0.826,0-1.421,0.687-1.421,1.526v0.015c0,0.84,0.581,1.541,1.421,1.541
			c0.456,0,0.756-0.141,1.065-0.386c0.084-0.07,0.196-0.119,0.322-0.119c0.273,0,0.504,0.225,0.504,0.497
			C23.429,18.114,23.345,18.247,23.246,18.331z M24.836,8.426h-5.049V3.377V2.114l1.262,1.262l3.787,3.787l1.262,1.262H24.836z"/>
		<path fill="#E42A33" d="M9.694,14.935H8.86v2.955h0.833c0.882,0,1.478-0.596,1.478-1.464v-0.014
			C11.171,15.544,10.576,14.935,9.694,14.935z"/>
	</g>
</g>
</svg>
