<?xml version="1.0" encoding="utf-8"?>
<!-- Generator: Adobe Illustrator 17.1.0, SVG Export Plug-In . SVG Version: 6.00 Build 0)  -->
<!DOCTYPE svg PUBLIC "-//W3C//DTD SVG 1.1//EN" "http://www.w3.org/Graphics/SVG/1.1/DTD/svg11.dtd">
<svg version="1.1" xmlns="http://www.w3.org/2000/svg" xmlns:xlink="http://www.w3.org/1999/xlink" x="0px" y="0px"
	 viewBox="0 0 30 30" enable-background="new 0 0 30 30" xml:space="preserve">
<g id="original" display="none">
</g>
<g id="expanded">
	<path fill-rule="evenodd" clip-rule="evenodd" fill="#E42A33" d="M12.586,2.703c-5.658,0-10.245,4.586-10.245,10.245
		c0,5.658,4.587,10.244,10.245,10.244c5.658,0,10.244-4.586,10.244-10.244C22.83,7.29,18.244,2.703,12.586,2.703z M12.589,19.422
		c-3.576,0-6.475-2.899-6.475-6.474c0-3.576,2.899-6.474,6.475-6.474c3.576,0,6.474,2.899,6.474,6.474
		C19.063,16.524,16.165,19.422,12.589,19.422z"/>
	<path fill-rule="evenodd" clip-rule="evenodd" fill="#E42A33" d="M20.592,17.398l7.067,7.067l-2.832,2.832L17.76,20.23
		L20.592,17.398z"/>
</g>
</svg>
