<?xml version="1.0" encoding="utf-8"?>
<!-- Generator: Adobe Illustrator 17.1.0, SVG Export Plug-In . SVG Version: 6.00 Build 0)  -->
<!DOCTYPE svg PUBLIC "-//W3C//DTD SVG 1.1//EN" "http://www.w3.org/Graphics/SVG/1.1/DTD/svg11.dtd">
<svg version="1.1" xmlns="http://www.w3.org/2000/svg" xmlns:xlink="http://www.w3.org/1999/xlink" x="0px" y="0px"
	 viewBox="0 0 32 32" enable-background="new 0 0 32 32" xml:space="preserve">
<g id="original" display="none">
	<g display="inline">
		<circle fill-rule="evenodd" clip-rule="evenodd" fill="#E42A33" cx="10.668" cy="7.906" r="1.711"/>
		
			<polyline fill-rule="evenodd" clip-rule="evenodd" fill="none" stroke="#E42A33" stroke-width="2" stroke-linecap="round" stroke-linejoin="round" stroke-miterlimit="10" points="
			5.976,15.188 8.957,11.125 12.379,11.125 15.375,15.188 		"/>
		
			<line fill-rule="evenodd" clip-rule="evenodd" fill="none" stroke="#E42A33" stroke-width="2" stroke-linecap="round" stroke-linejoin="round" stroke-miterlimit="10" x1="9.375" y1="25.938" x2="9.375" y2="11.625"/>
		
			<line fill-rule="evenodd" clip-rule="evenodd" fill="none" stroke="#E42A33" stroke-width="2" stroke-linecap="round" stroke-linejoin="round" stroke-miterlimit="10" x1="12.125" y1="25.938" x2="12.125" y2="11.625"/>
		<rect x="9.942" y="11.917" fill-rule="evenodd" clip-rule="evenodd" fill="#E42A33" width="1.745" height="6.583"/>
	</g>
	<g display="inline">
		<ellipse fill-rule="evenodd" clip-rule="evenodd" fill="#E42A33" cx="22.993" cy="7.65" rx="1.731" ry="1.751"/>
		
			<polyline fill-rule="evenodd" clip-rule="evenodd" fill="none" stroke="#E42A33" stroke-width="2" stroke-linecap="round" stroke-linejoin="round" stroke-miterlimit="10" points="
			18.728,15.188 21.709,11.125 24.131,11.125 27.127,15.188 		"/>
		
			<line fill-rule="evenodd" clip-rule="evenodd" fill="none" stroke="#E42A33" stroke-width="2" stroke-linecap="round" stroke-linejoin="round" stroke-miterlimit="10" x1="21.553" y1="25.938" x2="21.553" y2="18.14"/>
		
			<line fill-rule="evenodd" clip-rule="evenodd" fill="none" stroke="#E42A33" stroke-width="2" stroke-linecap="round" stroke-linejoin="round" stroke-miterlimit="10" x1="24.303" y1="25.938" x2="24.303" y2="18.14"/>
		
			<polygon fill-rule="evenodd" clip-rule="evenodd" fill="#E42A33" stroke="#E42A33" stroke-linecap="round" stroke-linejoin="round" stroke-miterlimit="10" points="
			22.709,11.125 19.484,19.282 26.382,19.282 23.131,11.125 		"/>
	</g>
</g>
<g id="expanded">
	<g>
		<circle fill="#E42A33" cx="10.668" cy="7.906" r="1.711"/>
		<path fill="#E42A33" d="M13.184,10.531c-0.188-0.255-0.487-0.406-0.805-0.406H8.957c-0.318,0-0.618,0.152-0.806,0.408
			l-2.981,4.062c-0.327,0.445-0.23,1.071,0.214,1.398c0.178,0.131,0.386,0.194,0.591,0.194c0.308,0,0.611-0.142,0.807-0.408
			l1.593-2.172v12.33c0,0.553,0.448,1,1,1s1-0.447,1-1V18.5h0.75v7.438c0,0.553,0.448,1,1,1s1-0.447,1-1V13.821l1.445,1.96
			c0.326,0.443,0.953,0.539,1.398,0.211c0.444-0.328,0.539-0.954,0.211-1.398L13.184,10.531z"/>
		<ellipse fill="#E42A33" cx="22.993" cy="7.65" rx="1.731" ry="1.751"/>
		<path fill="#E42A33" d="M27.932,14.594l-2.996-4.062c-0.188-0.255-0.487-0.406-0.805-0.406h-2.422
			c-0.318,0-0.618,0.152-0.806,0.408l-2.981,4.062c-0.327,0.445-0.23,1.071,0.214,1.398c0.178,0.131,0.386,0.194,0.591,0.194
			c0.308,0,0.611-0.142,0.807-0.408l1.729-2.357l-2.244,5.675c-0.061,0.154-0.042,0.328,0.051,0.465
			c0.093,0.137,0.248,0.219,0.414,0.219h1.068v6.156c0,0.553,0.448,1,1,1s1-0.447,1-1v-6.156h0.75v6.156c0,0.553,0.448,1,1,1
			s1-0.447,1-1v-6.156h1.08c0.166,0,0.321-0.082,0.414-0.219c0.093-0.137,0.112-0.312,0.05-0.466l-2.26-5.668l1.735,2.353
			c0.327,0.443,0.953,0.539,1.398,0.211C28.165,15.665,28.26,15.039,27.932,14.594z"/>
	</g>
</g>
</svg>
