<?xml version="1.0" encoding="utf-8"?>
<!-- Generator: Adobe Illustrator 17.1.0, SVG Export Plug-In . SVG Version: 6.00 Build 0)  -->
<!DOCTYPE svg PUBLIC "-//W3C//DTD SVG 1.1//EN" "http://www.w3.org/Graphics/SVG/1.1/DTD/svg11.dtd">
<svg version="1.1" xmlns="http://www.w3.org/2000/svg" xmlns:xlink="http://www.w3.org/1999/xlink" x="0px" y="0px"
	 viewBox="0 0 32 32" enable-background="new 0 0 32 32" xml:space="preserve">
<g id="original" display="none">
	
		<path id="hanger" display="inline" fill-rule="evenodd" clip-rule="evenodd" fill="none" stroke="#E42A33" stroke-width="2" stroke-linecap="round" stroke-linejoin="round" stroke-miterlimit="10" d="
		M18.195,11.44c0,0-0.163-1.304-1.671-1.304s-2.282,1.996-0.489,3.015v1.752L8.458,19.71c0,0-1.304,0.855,0,1.996h15.563
		c0,0,1.915-0.978,0-2.322c-1.915-1.344-7.741-4.4-7.741-4.4"/>
</g>
<g id="expanded">
	<path fill="#E42A33" d="M24.596,18.566c-1.719-1.207-6.339-3.668-7.56-4.313v-1.102c0-0.36-0.193-0.692-0.506-0.87
		c-0.399-0.227-0.587-0.511-0.517-0.78c0.044-0.168,0.205-0.365,0.511-0.365c0.147,0,0.595,0,0.681,0.45
		c0.079,0.537,0.576,0.914,1.113,0.846c0.548-0.068,0.937-0.568,0.868-1.116c-0.094-0.754-0.772-2.18-2.663-2.18
		c-1.151,0-2.156,0.762-2.445,1.854c-0.26,0.983,0.111,1.986,0.956,2.683v0.68l-7.126,4.521c-0.098,0.064-0.956,0.655-1.026,1.676
		c-0.033,0.477,0.099,1.194,0.916,1.909c0.182,0.16,0.417,0.248,0.659,0.248h15.563c0.158,0,0.314-0.037,0.455-0.109
		c0.133-0.068,1.308-0.701,1.391-1.885C25.906,20.167,25.716,19.353,24.596,18.566z M23.725,20.707H8.889
		C8.883,20.7,8.88,20.696,8.878,20.696c0.018-0.041,0.085-0.118,0.115-0.141l7.129-4.522c1.22,0.646,5.73,3.052,7.324,4.17
		c0.297,0.209,0.393,0.348,0.422,0.356C23.842,20.6,23.787,20.655,23.725,20.707z"/>
</g>
</svg>
