<?xml version="1.0" encoding="utf-8"?>
<!-- Generator: Adobe Illustrator 17.1.0, SVG Export Plug-In . SVG Version: 6.00 Build 0)  -->
<!DOCTYPE svg PUBLIC "-//W3C//DTD SVG 1.1//EN" "http://www.w3.org/Graphics/SVG/1.1/DTD/svg11.dtd">
<svg version="1.1" xmlns="http://www.w3.org/2000/svg" xmlns:xlink="http://www.w3.org/1999/xlink" x="0px" y="0px"
	 viewBox="0 0 32 32" enable-background="new 0 0 32 32" xml:space="preserve">
<g id="original" display="none">
	<g id="google-plus-icon_1_" display="inline">
		<g>
			<path fill="#E42A33" d="M28,9.321h-3.183v3.181h-1.59V9.321h-3.182v-1.59h3.182V4.549h1.59v3.182H28V9.321z M19.003,22.482
				c0,2.385-2.178,5.289-7.656,5.289C7.341,27.77,4,26.042,4,23.136c0-2.246,1.42-5.159,8.058-5.159
				c-0.986-0.802-1.229-1.926-0.626-3.142c-3.886,0-5.875-2.284-5.875-5.185c0-2.84,2.111-5.42,6.417-5.42c1.086,0,6.896,0,6.896,0
				l-1.541,1.618h-1.81c1.277,0.733,1.957,2.239,1.957,3.9c0,1.525-0.841,2.761-2.039,3.686c-2.126,1.644-1.582,2.563,0.647,4.187
				C18.278,19.265,19.003,20.536,19.003,22.482z M14.703,9.852c-0.322-2.442-1.912-4.445-3.77-4.5
				C9.075,5.297,7.827,7.163,8.148,9.607c0.322,2.439,2.087,4.146,3.947,4.201C13.953,13.863,15.023,12.293,14.703,9.852z
				 M16.618,22.726c0-2.008-1.832-3.921-4.905-3.921c-2.768-0.031-5.115,1.749-5.115,3.813c0,2.107,2,3.859,4.769,3.859
				C14.908,26.477,16.618,24.831,16.618,22.726z"/>
		</g>
	</g>
</g>
<g id="expanded">
	<g id="google-plus-icon_2_">
		<g>
			<path fill="#E42A33" d="M28,9.321h-3.183v3.181h-1.59V9.321h-3.182v-1.59h3.182V4.549h1.59v3.182H28V9.321z M19.003,22.482
				c0,2.385-2.178,5.289-7.656,5.289C7.341,27.77,4,26.042,4,23.136c0-2.246,1.42-5.159,8.058-5.159
				c-0.986-0.802-1.229-1.926-0.626-3.142c-3.886,0-5.875-2.284-5.875-5.185c0-2.84,2.111-5.42,6.417-5.42c1.086,0,6.896,0,6.896,0
				l-1.541,1.618h-1.81c1.277,0.733,1.957,2.239,1.957,3.9c0,1.525-0.841,2.761-2.039,3.686c-2.126,1.644-1.582,2.563,0.647,4.187
				C18.278,19.265,19.003,20.536,19.003,22.482z M14.703,9.852c-0.322-2.442-1.912-4.445-3.77-4.5
				C9.075,5.297,7.827,7.163,8.148,9.607c0.322,2.439,2.087,4.146,3.947,4.201C13.953,13.863,15.023,12.293,14.703,9.852z
				 M16.618,22.726c0-2.008-1.832-3.921-4.905-3.921c-2.768-0.031-5.115,1.749-5.115,3.813c0,2.107,2,3.859,4.769,3.859
				C14.908,26.477,16.618,24.831,16.618,22.726z"/>
		</g>
	</g>
</g>
</svg>
