<?xml version="1.0" encoding="utf-8"?>
<!-- Generator: Adobe Illustrator 17.1.0, SVG Export Plug-In . SVG Version: 6.00 Build 0)  -->
<!DOCTYPE svg PUBLIC "-//W3C//DTD SVG 1.1//EN" "http://www.w3.org/Graphics/SVG/1.1/DTD/svg11.dtd">
<svg version="1.1" xmlns="http://www.w3.org/2000/svg" xmlns:xlink="http://www.w3.org/1999/xlink" x="0px" y="0px"
	 viewBox="0 0 30 30" enable-background="new 0 0 30 30" xml:space="preserve">
<g id="original" display="none">
</g>
<g id="expanded">
	<circle fill="#E42A33" cx="10.854" cy="11.312" r="2"/>
	<circle fill="#E42A33" cx="19.417" cy="11.312" r="2"/>
	<path fill="#E42A33" d="M15,1.417C7.51,1.417,1.417,7.511,1.417,15S7.51,28.583,15,28.583S28.583,22.489,28.583,15
		S22.49,1.417,15,1.417z M15.083,26.833C8.558,26.833,3.25,21.524,3.25,15S8.558,3.167,15.083,3.167
		c6.525,0,11.833,5.309,11.833,11.833S21.608,26.833,15.083,26.833z"/>
	<path fill="#E42A33" d="M20.583,17.417c-0.553,0-1,0.447-1,1v1.166c0,0.988-0.804,1.792-1.791,1.792
		c-0.988,0-1.792-0.804-1.792-1.792c0-2.091-1.701-3.791-3.792-3.791s-3.791,1.7-3.791,3.791v1.188c0,0.553,0.447,1,1,1s1-0.447,1-1
		v-1.188c0-0.987,0.804-1.791,1.791-1.791c0.988,0,1.792,0.804,1.792,1.791c0,2.091,1.701,3.792,3.792,3.792
		s3.791-1.701,3.791-3.792v-1.166C21.583,17.864,21.136,17.417,20.583,17.417z"/>
</g>
</svg>
