<?xml version="1.0" encoding="utf-8"?>
<!-- Generator: Adobe Illustrator 17.1.0, SVG Export Plug-In . SVG Version: 6.00 Build 0)  -->
<!DOCTYPE svg PUBLIC "-//W3C//DTD SVG 1.1//EN" "http://www.w3.org/Graphics/SVG/1.1/DTD/svg11.dtd">
<svg version="1.1" xmlns="http://www.w3.org/2000/svg" xmlns:xlink="http://www.w3.org/1999/xlink" x="0px" y="0px"
	 viewBox="0 0 32 32" enable-background="new 0 0 32 32" xml:space="preserve">
<g id="original" display="none">
	
		<line display="inline" fill="#E42A33" stroke="#E42A33" stroke-width="3" stroke-linecap="round" stroke-linejoin="round" stroke-miterlimit="10" x1="12.668" y1="23.095" x2="12.668" y2="11.887"/>
	
		<line display="inline" fill="#E42A33" stroke="#E42A33" stroke-width="3" stroke-linecap="round" stroke-linejoin="round" stroke-miterlimit="10" x1="19.485" y1="11.887" x2="19.485" y2="23.095"/>
</g>
<g id="expanded">
	<g>
		<path fill="#E42A33" d="M12.668,10.387c-0.829,0-1.5,0.671-1.5,1.5v11.208c0,0.829,0.671,1.5,1.5,1.5s1.5-0.671,1.5-1.5V11.887
			C14.168,11.058,13.497,10.387,12.668,10.387z"/>
		<path fill="#E42A33" d="M19.484,10.387c-0.829,0-1.5,0.671-1.5,1.5v11.208c0,0.829,0.671,1.5,1.5,1.5s1.5-0.671,1.5-1.5V11.887
			C20.984,11.058,20.313,10.387,19.484,10.387z"/>
	</g>
</g>
</svg>
