<?xml version="1.0" encoding="utf-8"?>
<!-- Generator: Adobe Illustrator 17.0.0, SVG Export Plug-In . SVG Version: 6.00 Build 0)  -->
<!DOCTYPE svg PUBLIC "-//W3C//DTD SVG 1.1//EN" "http://www.w3.org/Graphics/SVG/1.1/DTD/svg11.dtd">
<svg version="1.1" id="Layer_1" xmlns="http://www.w3.org/2000/svg" xmlns:xlink="http://www.w3.org/1999/xlink" x="0px" y="0px"
	 width="72px" height="72px" viewBox="0 0 72 72" enable-background="new 0 0 72 72" xml:space="preserve">
<g>
	
		<rect x="50.594" y="42.001" transform="matrix(0.707 -0.7072 0.7072 0.707 -21.8053 53.907)" fill="#E33038" width="7.116" height="22.533"/>
	
		<rect x="50.594" y="42.001" transform="matrix(0.707 -0.7072 0.7072 0.707 -21.8053 53.907)" fill="#E33038" width="7.116" height="22.533"/>
	<g opacity="0.2">
		<g>
			<defs>
				<rect id="SVGID_115_" x="43.669" y="42.786" width="20.965" height="20.965"/>
			</defs>
			<clipPath id="SVGID_2_">
				<use xlink:href="#SVGID_115_"  overflow="visible"/>
			</clipPath>
			
				<rect x="50.594" y="42.001" transform="matrix(0.707 -0.7072 0.7072 0.707 -21.8053 53.907)" clip-path="url(#SVGID_2_)" width="7.116" height="22.533"/>
		</g>
	</g>
	<path fill="#E33038" d="M64.634,58.718c-1.39-1.39-3.643-1.389-5.031,0c-1.39,1.39-1.39,3.644,0,5.033
		c1.389,1.39,3.642,1.389,5.031,0C66.023,62.362,66.024,60.108,64.634,58.718"/>
	<g opacity="0.2">
		<g>
			<defs>
				<rect id="SVGID_117_" x="58.56" y="57.676" width="7.116" height="7.117"/>
			</defs>
			<clipPath id="SVGID_4_">
				<use xlink:href="#SVGID_117_"  overflow="visible"/>
			</clipPath>
			<path clip-path="url(#SVGID_4_)" d="M64.634,58.718c-1.39-1.39-3.643-1.389-5.031,0c-1.39,1.39-1.39,3.644,0,5.033
				c1.389,1.39,3.642,1.389,5.031,0C66.023,62.362,66.024,60.108,64.634,58.718"/>
		</g>
	</g>
	<path fill="#E33038" d="M30.043,7.207c-13.1,0-23.719,10.619-23.719,23.719c0,13.099,10.619,23.719,23.719,23.719
		s23.719-10.62,23.719-23.719C53.762,17.826,43.143,7.207,30.043,7.207"/>
	<path fill="#FDD05F" d="M30.299,11.95c-10.479,0-18.975,8.496-18.975,18.976s8.496,18.975,18.975,18.975
		s18.975-8.495,18.975-18.975S40.778,11.95,30.299,11.95"/>
	<g opacity="0.5">
		<g>
			<defs>
				<rect id="SVGID_119_" x="19.088" y="46.344" width="22.02" height="3.557"/>
			</defs>
			<clipPath id="SVGID_6_">
				<use xlink:href="#SVGID_119_"  overflow="visible"/>
			</clipPath>
			<path clip-path="url(#SVGID_6_)" fill="#FF9300" d="M41.108,46.344h-22.02c3.106,2.226,6.896,3.558,11.01,3.558
				C34.211,49.902,38.002,48.57,41.108,46.344"/>
		</g>
	</g>
	<path fill="#FDE5A3" d="M30.098,14.322c9.17,0,16.603,7.434,16.603,16.604L30.098,14.322z"/>
</g>
</svg>
