<?xml version="1.0" encoding="utf-8"?>
<!-- Generator: Adobe Illustrator 17.1.0, SVG Export Plug-In . SVG Version: 6.00 Build 0)  -->
<!DOCTYPE svg PUBLIC "-//W3C//DTD SVG 1.1//EN" "http://www.w3.org/Graphics/SVG/1.1/DTD/svg11.dtd">
<svg version="1.1" id="Layer_1" xmlns="http://www.w3.org/2000/svg" xmlns:xlink="http://www.w3.org/1999/xlink" x="0px" y="0px"
	 viewBox="0 0 72 72" enable-background="new 0 0 72 72" xml:space="preserve">
<path fill="#E33038" d="M55.25,45.636c0,4.067-8.059,8.364-18,8.364s-18-4.297-18-8.364s8.059-3.027,18-3.027
	S55.25,41.57,55.25,45.636z"/>
<rect x="19.25" y="34.018" fill="#E33038" width="36" height="12.027"/>
<path opacity="0.1" d="M19.25,34.018v11.618v0.409h0.051C19.822,49.921,27.647,54,37.25,54c9.604,0,17.428-4.079,17.949-7.955h0.051
	v-0.409V34.018H19.25z"/>
<path opacity="0.1" d="M37.25,34.018h-18v12.027h0.051C19.822,49.921,27.647,54,37.25,54V34.018z"/>
<polygon fill="#E33038" points="37.25,41.636 5.25,31.636 37.25,21.636 69.25,31.636 "/>
<path opacity="0.1" d="M36.5,31H7.286L5.25,31.636L9.614,33H36.5c0.552,0,1-0.447,1-1S37.052,31,36.5,31z"/>
<g>
	<path fill="#FFC95A" d="M5.5,44.824c-0.552,0-1-0.447-1-1V31c0-0.553,0.448-1,1-1h31c0.552,0,1,0.447,1,1s-0.448,1-1,1h-30v11.824
		C6.5,44.377,6.052,44.824,5.5,44.824z"/>
</g>
<polygon fill="#E33038" points="5.5,45 8,51 3,51 "/>
<path fill="#E33038" d="M6.818,44.441l0.024,0.048c0.49,0.981-0.223,2.136-1.318,2.136H5.476c-1.096,0-1.808-1.155-1.318-2.136
	l0.024-0.048C4.725,43.353,6.275,43.353,6.818,44.441z"/>
</svg>
