<?xml version="1.0" encoding="utf-8"?>
<!-- Generator: Adobe Illustrator 17.0.0, SVG Export Plug-In . SVG Version: 6.00 Build 0)  -->
<!DOCTYPE svg PUBLIC "-//W3C//DTD SVG 1.1//EN" "http://www.w3.org/Graphics/SVG/1.1/DTD/svg11.dtd">
<svg version="1.1" id="Layer_1" xmlns="http://www.w3.org/2000/svg" xmlns:xlink="http://www.w3.org/1999/xlink" x="0px" y="0px"
	 width="72px" height="72px" viewBox="0 0 72 72" enable-background="new 0 0 72 72" xml:space="preserve">
<g>
	<path fill="#FDE5A3" d="M18.794,8.647c0,1.462-1.186,2.647-2.647,2.647c-1.461,0-2.647-1.185-2.647-2.647
		C13.5,7.185,14.686,6,16.147,6C17.608,6,18.794,7.185,18.794,8.647"/>
	<path fill="#FDE5A3" d="M18.794,63.353c0,1.462-1.186,2.647-2.647,2.647c-1.461,0-2.647-1.185-2.647-2.647
		c0-1.462,1.186-2.647,2.647-2.647C17.608,60.706,18.794,61.891,18.794,63.353"/>
	<rect x="13.5" y="8.647" fill="#FDE5A3" width="5.294" height="54.706"/>
	<path fill="#FDE5A3" d="M58.5,8.647c0,1.462-1.186,2.647-2.647,2.647c-1.461,0-2.647-1.185-2.647-2.647
		C53.206,7.185,54.392,6,55.853,6C57.314,6,58.5,7.185,58.5,8.647"/>
	<path fill="#FDE5A3" d="M58.5,63.353c0,1.462-1.186,2.647-2.647,2.647c-1.461,0-2.647-1.185-2.647-2.647
		c0-1.462,1.186-2.647,2.647-2.647C57.314,60.706,58.5,61.891,58.5,63.353"/>
	<rect x="53.206" y="8.647" fill="#FDE5A3" width="5.294" height="54.706"/>
	<rect x="16.147" y="6" fill="#E33038" width="39.706" height="60"/>
	<rect x="16.147" y="6" fill="#FDE5A3" width="39.706" height="2.647"/>
	<rect x="16.147" y="63.353" fill="#FDE5A3" width="39.706" height="2.647"/>
	<g>
		<defs>
			<rect id="SVGID_127_" x="13.5" y="8.647" width="5.294" height="54.706"/>
		</defs>
		<clipPath id="SVGID_2_">
			<use xlink:href="#SVGID_127_"  overflow="visible"/>
		</clipPath>
		<g clip-path="url(#SVGID_2_)">
			<path fill="#FFFFFF" d="M11.735,36c1.462,0,2.647,1.186,2.647,2.647c0,1.461-1.185,2.647-2.647,2.647
				c-1.462,0-2.647-1.186-2.647-2.647C9.088,37.186,10.273,36,11.735,36"/>
			<path fill="#FFFFFF" d="M11.735,30.706c1.462,0,2.647,1.186,2.647,2.647c0,1.461-1.185,2.647-2.647,2.647
				c-1.462,0-2.647-1.186-2.647-2.647C9.088,31.892,10.273,30.706,11.735,30.706"/>
			<path fill="#FFFFFF" d="M11.735,25.412c1.462,0,2.647,1.186,2.647,2.647c0,1.461-1.185,2.647-2.647,2.647
				c-1.462,0-2.647-1.186-2.647-2.647C9.088,26.597,10.273,25.412,11.735,25.412"/>
			<path fill="#FFFFFF" d="M11.735,20.118c1.462,0,2.647,1.186,2.647,2.647c0,1.461-1.185,2.647-2.647,2.647
				c-1.462,0-2.647-1.186-2.647-2.647C9.088,21.303,10.273,20.118,11.735,20.118"/>
			<path fill="#FFFFFF" d="M11.735,14.823c1.462,0,2.647,1.186,2.647,2.647c0,1.461-1.185,2.647-2.647,2.647
				c-1.462,0-2.647-1.186-2.647-2.647C9.088,16.009,10.273,14.823,11.735,14.823"/>
			<path fill="#FFFFFF" d="M11.735,9.529c1.462,0,2.647,1.186,2.647,2.647c0,1.461-1.185,2.647-2.647,2.647
				c-1.462,0-2.647-1.186-2.647-2.647C9.088,10.715,10.273,9.529,11.735,9.529"/>
			<path fill="#FFFFFF" d="M11.735,57.176c1.462,0,2.647,1.186,2.647,2.647c0,1.461-1.185,2.647-2.647,2.647
				c-1.462,0-2.647-1.186-2.647-2.647C9.088,58.362,10.273,57.176,11.735,57.176"/>
			<path fill="#FFFFFF" d="M11.735,51.882c1.462,0,2.647,1.186,2.647,2.647c0,1.461-1.185,2.647-2.647,2.647
				c-1.462,0-2.647-1.186-2.647-2.647C9.088,53.068,10.273,51.882,11.735,51.882"/>
			<path fill="#FFFFFF" d="M11.735,46.588c1.462,0,2.647,1.186,2.647,2.647c0,1.461-1.185,2.647-2.647,2.647
				c-1.462,0-2.647-1.186-2.647-2.647C9.088,47.774,10.273,46.588,11.735,46.588"/>
			<path fill="#FFFFFF" d="M11.735,41.294c1.462,0,2.647,1.186,2.647,2.647c0,1.461-1.185,2.647-2.647,2.647
				c-1.462,0-2.647-1.186-2.647-2.647C9.088,42.48,10.273,41.294,11.735,41.294"/>
		</g>
	</g>
	<g>
		<defs>
			<rect id="SVGID_129_" x="53.206" y="8.647" width="5.294" height="54.706"/>
		</defs>
		<clipPath id="SVGID_4_">
			<use xlink:href="#SVGID_129_"  overflow="visible"/>
		</clipPath>
		<g clip-path="url(#SVGID_4_)">
			<path fill="#FFFFFF" d="M60.265,36c1.462,0,2.647,1.186,2.647,2.647c0,1.461-1.185,2.647-2.647,2.647
				c-1.462,0-2.647-1.186-2.647-2.647C57.618,37.186,58.803,36,60.265,36"/>
			<path fill="#FFFFFF" d="M60.265,30.706c1.462,0,2.647,1.186,2.647,2.647c0,1.461-1.185,2.647-2.647,2.647
				c-1.462,0-2.647-1.186-2.647-2.647C57.618,31.892,58.803,30.706,60.265,30.706"/>
			<path fill="#FFFFFF" d="M60.265,25.412c1.462,0,2.647,1.186,2.647,2.647c0,1.461-1.185,2.647-2.647,2.647
				c-1.462,0-2.647-1.186-2.647-2.647C57.618,26.597,58.803,25.412,60.265,25.412"/>
			<path fill="#FFFFFF" d="M60.265,20.118c1.462,0,2.647,1.186,2.647,2.647c0,1.461-1.185,2.647-2.647,2.647
				c-1.462,0-2.647-1.186-2.647-2.647C57.618,21.303,58.803,20.118,60.265,20.118"/>
			<path fill="#FFFFFF" d="M60.265,14.823c1.462,0,2.647,1.186,2.647,2.647c0,1.461-1.185,2.647-2.647,2.647
				c-1.462,0-2.647-1.186-2.647-2.647C57.618,16.009,58.803,14.823,60.265,14.823"/>
			<path fill="#FFFFFF" d="M60.265,9.529c1.462,0,2.647,1.186,2.647,2.647c0,1.461-1.185,2.647-2.647,2.647
				c-1.462,0-2.647-1.186-2.647-2.647C57.618,10.715,58.803,9.529,60.265,9.529"/>
			<path fill="#FFFFFF" d="M60.265,57.176c1.462,0,2.647,1.186,2.647,2.647c0,1.461-1.185,2.647-2.647,2.647
				c-1.462,0-2.647-1.186-2.647-2.647C57.618,58.362,58.803,57.176,60.265,57.176"/>
			<path fill="#FFFFFF" d="M60.265,51.882c1.462,0,2.647,1.186,2.647,2.647c0,1.461-1.185,2.647-2.647,2.647
				c-1.462,0-2.647-1.186-2.647-2.647C57.618,53.068,58.803,51.882,60.265,51.882"/>
			<path fill="#FFFFFF" d="M60.265,46.588c1.462,0,2.647,1.186,2.647,2.647c0,1.461-1.185,2.647-2.647,2.647
				c-1.462,0-2.647-1.186-2.647-2.647C57.618,47.774,58.803,46.588,60.265,46.588"/>
			<path fill="#FFFFFF" d="M60.265,41.294c1.462,0,2.647,1.186,2.647,2.647c0,1.461-1.185,2.647-2.647,2.647
				c-1.462,0-2.647-1.186-2.647-2.647C57.618,42.48,58.803,41.294,60.265,41.294"/>
		</g>
	</g>
	<g>
		<defs>
			<rect id="SVGID_131_" x="16.147" y="6" width="39.706" height="2.647"/>
		</defs>
		<clipPath id="SVGID_6_">
			<use xlink:href="#SVGID_131_"  overflow="visible"/>
		</clipPath>
		<path clip-path="url(#SVGID_6_)" fill="#FFFFFF" d="M23.206,4.235c0,1.462-1.186,2.647-2.647,2.647
			c-1.461,0-2.647-1.185-2.647-2.647c0-1.462,1.186-2.647,2.647-2.647C22.02,1.588,23.206,2.773,23.206,4.235"/>
		<path clip-path="url(#SVGID_6_)" fill="#FFFFFF" d="M28.5,4.235c0,1.462-1.186,2.647-2.647,2.647
			c-1.461,0-2.647-1.185-2.647-2.647c0-1.462,1.186-2.647,2.647-2.647C27.314,1.588,28.5,2.773,28.5,4.235"/>
		<path clip-path="url(#SVGID_6_)" fill="#FFFFFF" d="M33.794,4.235c0,1.462-1.186,2.647-2.647,2.647
			c-1.461,0-2.647-1.185-2.647-2.647c0-1.462,1.186-2.647,2.647-2.647C32.608,1.588,33.794,2.773,33.794,4.235"/>
		<path clip-path="url(#SVGID_6_)" fill="#FFFFFF" d="M39.088,4.235c0,1.462-1.186,2.647-2.647,2.647
			c-1.461,0-2.647-1.185-2.647-2.647c0-1.462,1.186-2.647,2.647-2.647C37.903,1.588,39.088,2.773,39.088,4.235"/>
		<path clip-path="url(#SVGID_6_)" fill="#FFFFFF" d="M44.382,4.235c0,1.462-1.186,2.647-2.647,2.647
			c-1.461,0-2.647-1.185-2.647-2.647c0-1.462,1.186-2.647,2.647-2.647C43.197,1.588,44.382,2.773,44.382,4.235"/>
		<path clip-path="url(#SVGID_6_)" fill="#FFFFFF" d="M49.676,4.235c0,1.462-1.186,2.647-2.647,2.647
			c-1.461,0-2.647-1.185-2.647-2.647c0-1.462,1.186-2.647,2.647-2.647C48.491,1.588,49.676,2.773,49.676,4.235"/>
		<path clip-path="url(#SVGID_6_)" fill="#FFFFFF" d="M54.971,4.235c0,1.462-1.186,2.647-2.647,2.647
			c-1.461,0-2.647-1.185-2.647-2.647c0-1.462,1.186-2.647,2.647-2.647C53.785,1.588,54.971,2.773,54.971,4.235"/>
	</g>
	<g>
		<defs>
			<rect id="SVGID_133_" x="16.147" y="63.353" width="39.706" height="2.647"/>
		</defs>
		<clipPath id="SVGID_8_">
			<use xlink:href="#SVGID_133_"  overflow="visible"/>
		</clipPath>
		<g clip-path="url(#SVGID_8_)">
			<path fill="#FFFFFF" d="M23.206,67.765c0,1.462-1.186,2.647-2.647,2.647c-1.461,0-2.647-1.185-2.647-2.647
				c0-1.462,1.186-2.647,2.647-2.647C22.02,65.118,23.206,66.303,23.206,67.765"/>
			<path fill="#FFFFFF" d="M28.5,67.765c0,1.462-1.186,2.647-2.647,2.647c-1.461,0-2.647-1.185-2.647-2.647
				c0-1.462,1.186-2.647,2.647-2.647C27.314,65.118,28.5,66.303,28.5,67.765"/>
			<path fill="#FFFFFF" d="M33.794,67.765c0,1.462-1.186,2.647-2.647,2.647c-1.461,0-2.647-1.185-2.647-2.647
				c0-1.462,1.186-2.647,2.647-2.647C32.608,65.118,33.794,66.303,33.794,67.765"/>
			<path fill="#FFFFFF" d="M39.088,67.765c0,1.462-1.186,2.647-2.647,2.647c-1.461,0-2.647-1.185-2.647-2.647
				c0-1.462,1.186-2.647,2.647-2.647C37.903,65.118,39.088,66.303,39.088,67.765"/>
			<path fill="#FFFFFF" d="M44.382,67.765c0,1.462-1.186,2.647-2.647,2.647c-1.461,0-2.647-1.185-2.647-2.647
				c0-1.462,1.186-2.647,2.647-2.647C43.197,65.118,44.382,66.303,44.382,67.765"/>
			<path fill="#FFFFFF" d="M49.676,67.765c0,1.462-1.186,2.647-2.647,2.647c-1.461,0-2.647-1.185-2.647-2.647
				c0-1.462,1.186-2.647,2.647-2.647C48.491,65.118,49.676,66.303,49.676,67.765"/>
			<path fill="#FFFFFF" d="M54.971,67.765c0,1.462-1.186,2.647-2.647,2.647c-1.461,0-2.647-1.185-2.647-2.647
				c0-1.462,1.186-2.647,2.647-2.647C53.785,65.118,54.971,66.303,54.971,67.765"/>
		</g>
	</g>
	<polygon opacity="0.2" points="16.147,33.353 46.147,63.353 16.147,63.353 	"/>
	<text transform="matrix(1 0 0 1 18.7953 58.9412)"><tspan x="0" y="0" fill="#FDD05F" font-family="'GothamRounded-Bold'" font-size="10.5882">1</tspan><tspan x="5.432" y="-3.529" fill="#FDD05F" font-family="'GothamRounded-Bold'" font-size="7.0588">st</tspan></text>
	<path fill="#FDD05F" d="M47.503,37.303v-1.488l1.667-0.834c0.177-0.047,0.356-0.171,0.445-0.386c0.17-0.41,0.149-1.049-2.256-3.454
		c-0.15-0.155-0.595-0.708-0.003-1.3c0.119-0.118,0.17-0.288,0.137-0.453c-0.093-0.463-0.84-4.104-1.749-5.724
		c0.456-0.269,1.053-0.749,1.315-1.513c0.302-0.88,0.086-1.88-0.612-2.919c-0.024-0.047-0.598-1.169-1.786-1.169
		c-0.477,0-0.969,0.185-1.467,0.553l-1.744-4.361c-0.09-0.224-0.327-0.351-0.561-0.307c-0.236,0.045-0.407,0.252-0.407,0.493v1.798
		l-1.15-1.15c-0.143-0.144-0.358-0.186-0.546-0.109c-0.188,0.077-0.31,0.261-0.31,0.463v1.221c-0.716-0.311-1.792-0.719-2.507-0.719
		c-1.058,0-3.718,0.926-3.921,1.008c-0.31,0.043-7.613,1.114-7.613,5.511c0,0.027-0.024,2.728-1.544,3.574
		c-0.159,0.089-0.258,0.256-0.258,0.438c0,0.995,0.352,2.715,1.569,3.305c-0.886,1.066-2.374,3.225-1.541,4.883
		c0.047,0.137,1.183,3.359,3.276,4.305c0.24,0.108,0.492,0.164,0.75,0.163c0.546,0,1.004-0.238,1.373-0.43
		c0.111-0.058,0.266-0.139,0.363-0.173c0.012,0.028,0.027,0.068,0.043,0.122c0.175,0.607-1.046,2.49-1.775,3.614
		c-0.541,0.835-1.008,1.555-1.218,2.079c-0.057,0.142-0.045,0.303,0.031,0.437c0.077,0.133,0.211,0.224,0.363,0.246
		c0.069,0.01,6.897,1.055,11.722,6.845c0.097,0.117,0.239,0.18,0.385,0.18c0.057,0,0.115-0.01,0.17-0.03
		c0.199-0.072,0.331-0.261,0.331-0.472c0-0.066,0.034-6.581,2.667-8.526c0.971-0.01,4.182-0.121,5.21-1.149
		c0.038-0.038,1.651-2.361,0.648-3.364L47.503,37.303z"/>
</g>
</svg>
