<?xml version="1.0" encoding="utf-8"?>
<!-- Generator: Adobe Illustrator 17.0.0, SVG Export Plug-In . SVG Version: 6.00 Build 0)  -->
<!DOCTYPE svg PUBLIC "-//W3C//DTD SVG 1.1//EN" "http://www.w3.org/Graphics/SVG/1.1/DTD/svg11.dtd">
<svg version="1.1" id="Layer_1" xmlns="http://www.w3.org/2000/svg" xmlns:xlink="http://www.w3.org/1999/xlink" x="0px" y="0px"
	 width="72px" height="72px" viewBox="0 0 72 72" enable-background="new 0 0 72 72" xml:space="preserve">
<path fill="#FF9300" d="M36,6C19.432,6,6,19.432,6,36c0,0.68,0.031,1.352,0.075,2.021c0.996,14.956,12.948,26.908,27.904,27.904
	C34.648,65.969,35.32,66,36,66c16.568,0,30-13.432,30-30C66,19.432,52.568,6,36,6z"/>
<circle fill="#FDD05F" cx="36" cy="36" r="27.5"/>
<g>
	<g>
		<circle fill="#FF9300" cx="26.05" cy="11.979" r="0.5"/>
		<circle fill="#FF9300" cx="45.949" cy="60.021" r="0.5"/>
		<circle fill="#FF9300" cx="60.021" cy="26.05" r="0.5"/>
		<circle fill="#FF9300" cx="11.979" cy="45.95" r="0.5"/>
		<circle fill="#FF9300" cx="45.95" cy="11.979" r="0.5"/>
		<circle fill="#FF9300" cx="26.05" cy="60.021" r="0.5"/>
		<circle fill="#FF9300" cx="60.021" cy="45.95" r="0.5"/>
		<circle fill="#FF9300" cx="11.979" cy="26.05" r="0.5"/>
		<circle fill="#FF9300" cx="36" cy="10" r="0.5"/>
		<circle fill="#FF9300" cx="36" cy="62" r="0.5"/>
		<circle fill="#FF9300" cx="62" cy="36" r="0.5"/>
		<circle fill="#FF9300" cx="10" cy="36" r="0.5"/>
		<circle fill="#FF9300" cx="54.385" cy="17.615" r="0.5"/>
		<circle fill="#FF9300" cx="17.615" cy="54.385" r="0.5"/>
		<circle fill="#FF9300" cx="54.385" cy="54.385" r="0.5"/>
		<circle fill="#FF9300" cx="17.615" cy="17.615" r="0.5"/>
		<circle fill="#FF9300" cx="21.555" cy="14.382" r="0.5"/>
		<circle fill="#FF9300" cx="50.445" cy="57.618" r="0.5"/>
		<circle fill="#FF9300" cx="57.618" cy="21.555" r="0.5"/>
		<circle fill="#FF9300" cx="14.382" cy="50.445" r="0.5"/>
		<circle fill="#FF9300" cx="41.072" cy="10.5" r="0.5"/>
		<circle fill="#FF9300" cx="30.927" cy="61.501" r="0.5"/>
		<circle fill="#FF9300" cx="61.5" cy="41.072" r="0.5"/>
		<circle fill="#FF9300" cx="10.499" cy="30.928" r="0.5"/>
		<circle fill="#FF9300" cx="30.927" cy="10.5" r="0.5"/>
		<circle fill="#FF9300" cx="41.072" cy="61.5" r="0.5"/>
		<circle fill="#FF9300" cx="61.5" cy="30.928" r="0.5"/>
		<circle fill="#FF9300" cx="10.499" cy="41.072" r="0.5"/>
		
			<ellipse transform="matrix(0.8316 0.5554 -0.5554 0.8316 16.5007 -25.5728)" fill="#FF9300" cx="50.418" cy="14.422" rx="0.5" ry="0.482"/>
		<circle fill="#FF9300" cx="21.555" cy="57.618" r="0.5"/>
		<circle fill="#FF9300" cx="57.618" cy="50.445" r="0.5"/>
		<circle fill="#FF9300" cx="14.382" cy="21.555" r="0.5"/>
	</g>
	<circle fill="#FF9300" cx="23.744" cy="13.07" r="0.5"/>
	<circle fill="#FF9300" cx="48.256" cy="58.93" r="0.5"/>
	<circle fill="#FF9300" cx="58.93" cy="23.744" r="0.5"/>
	<circle fill="#FF9300" cx="13.07" cy="48.256" r="0.5"/>
	<circle fill="#FF9300" cx="43.548" cy="11.12" r="0.5"/>
	<circle fill="#FF9300" cx="28.453" cy="60.88" r="0.5"/>
	<circle fill="#FF9300" cx="60.88" cy="43.547" r="0.5"/>
	<circle fill="#FF9300" cx="11.119" cy="28.453" r="0.5"/>
	<circle fill="#FF9300" cx="33.452" cy="10.125" r="0.5"/>
	<circle fill="#FF9300" cx="38.549" cy="61.875" r="0.5"/>
	<circle fill="#FF9300" cx="61.875" cy="33.451" r="0.5"/>
	<circle fill="#FF9300" cx="10.125" cy="38.548" r="0.5"/>
	<circle fill="#FF9300" cx="52.494" cy="15.902" r="0.5"/>
	<circle fill="#FF9300" cx="19.506" cy="56.098" r="0.5"/>
	<circle fill="#FF9300" cx="56.098" cy="52.494" r="0.5"/>
	<circle fill="#FF9300" cx="15.902" cy="19.506" r="0.5"/>
	<circle fill="#FF9300" cx="19.506" cy="15.902" r="0.5"/>
	<circle fill="#FF9300" cx="52.494" cy="56.098" r="0.5"/>
	<circle fill="#FF9300" cx="56.098" cy="19.506" r="0.5"/>
	<circle fill="#FF9300" cx="15.902" cy="52.494" r="0.5"/>
	<circle fill="#FF9300" cx="38.548" cy="10.125" r="0.5"/>
	<circle fill="#FF9300" cx="33.451" cy="61.875" r="0.5"/>
	<circle fill="#FF9300" cx="61.875" cy="38.548" r="0.5"/>
	<circle fill="#FF9300" cx="10.125" cy="33.451" r="0.5"/>
	<circle fill="#FF9300" cx="28.453" cy="11.12" r="0.5"/>
	<circle fill="#FF9300" cx="43.547" cy="60.88" r="0.5"/>
	<circle fill="#FF9300" cx="60.88" cy="28.453" r="0.5"/>
	<circle fill="#FF9300" cx="11.12" cy="43.547" r="0.5"/>
	
		<ellipse transform="matrix(0.882 0.4713 -0.4713 0.882 11.8724 -21.1846)" fill="#FF9300" cx="48.233" cy="13.112" rx="0.5" ry="0.482"/>
	<circle fill="#FF9300" cx="23.744" cy="58.93" r="0.5"/>
	<circle fill="#FF9300" cx="58.93" cy="48.256" r="0.5"/>
	<circle fill="#FF9300" cx="13.07" cy="23.744" r="0.5"/>
</g>
<path fill="#E33038" d="M46.833,40.293v-1.484l1.662-0.831c0.176-0.047,0.355-0.171,0.444-0.385
	c0.169-0.409,0.149-1.046-2.249-3.443c-0.15-0.155-0.593-0.706-0.003-1.296c0.118-0.118,0.169-0.288,0.137-0.452
	c-0.092-0.462-0.837-4.091-1.744-5.707c0.455-0.268,1.05-0.747,1.311-1.508c0.301-0.877,0.085-1.875-0.61-2.911
	c-0.024-0.047-0.596-1.165-1.781-1.165c-0.476,0-0.966,0.185-1.463,0.551l-1.739-4.348c-0.089-0.224-0.326-0.35-0.559-0.306
	c-0.235,0.045-0.405,0.252-0.405,0.491v1.793l-1.146-1.146c-0.143-0.143-0.357-0.185-0.545-0.108
	c-0.187,0.077-0.309,0.26-0.309,0.462v1.217c-0.714-0.31-1.787-0.717-2.5-0.717c-1.055,0-3.707,0.923-3.909,1.005
	c-0.31,0.043-7.591,1.11-7.591,5.495c0,0.027-0.024,2.72-1.539,3.563c-0.159,0.088-0.257,0.255-0.257,0.437
	c0,0.992,0.351,2.707,1.564,3.295c-0.883,1.063-2.367,3.215-1.537,4.869c0.047,0.136,1.18,3.349,3.267,4.292
	c0.239,0.108,0.491,0.163,0.748,0.163c0.544,0,1.001-0.238,1.369-0.429c0.11-0.058,0.265-0.138,0.362-0.173
	c0.012,0.028,0.027,0.067,0.042,0.122c0.174,0.606-1.042,2.482-1.77,3.604c-0.539,0.832-1.005,1.55-1.214,2.073
	c-0.057,0.142-0.045,0.303,0.031,0.435c0.077,0.133,0.21,0.223,0.362,0.245c0.068,0.01,6.876,1.052,11.687,6.825
	c0.097,0.116,0.239,0.18,0.384,0.18c0.057,0,0.114-0.01,0.17-0.03c0.198-0.072,0.33-0.26,0.33-0.47c0-0.066,0.034-6.562,2.659-8.501
	c0.968-0.01,4.169-0.121,5.194-1.145c0.038-0.038,1.646-2.354,0.646-3.354L46.833,40.293z"/>
<path opacity="0.5" fill="#FDE5A3" d="M59.284,33.833c0.168-11.781-9.246-21.468-21.026-21.636L59.284,33.833"/>
<g opacity="0.5">
	<path fill="#FF9300" d="M33.979,65.925L6.075,38.021C7.071,52.977,19.023,64.929,33.979,65.925z"/>
</g>
</svg>
