<?xml version="1.0" encoding="utf-8"?>
<!-- Generator: Adobe Illustrator 17.0.0, SVG Export Plug-In . SVG Version: 6.00 Build 0)  -->
<!DOCTYPE svg PUBLIC "-//W3C//DTD SVG 1.1//EN" "http://www.w3.org/Graphics/SVG/1.1/DTD/svg11.dtd">
<svg version="1.1" id="Layer_1" xmlns="http://www.w3.org/2000/svg" xmlns:xlink="http://www.w3.org/1999/xlink" x="0px" y="0px"
	 width="72px" height="72px" viewBox="0 0 72 72" enable-background="new 0 0 72 72" xml:space="preserve">
<g>
	<path fill="#E33038" d="M19.767,56.536l-0.002-0.001l-4.3-4.3c0,0-0.001-0.001-0.001-0.002c-0.374-0.374-0.994-0.36-1.385,0.03
		c-0.39,0.39-0.404,1.01-0.03,1.384c0.001,0.001,0.002,0.002,0.003,0.003l4.297,4.297c0.001,0.001,0.002,0.002,0.003,0.003
		c0.374,0.374,0.994,0.36,1.384-0.03C20.127,57.53,20.141,56.91,19.767,56.536z"/>
	<path opacity="0.2" d="M19.767,56.536l-0.002-0.001l-4.3-4.3c0,0-0.001-0.001-0.001-0.002c-0.374-0.374-0.994-0.36-1.385,0.03
		c-0.39,0.39-0.404,1.01-0.03,1.384c0.001,0.001,0.002,0.002,0.003,0.003l4.297,4.297c0.001,0.001,0.002,0.002,0.003,0.003
		c0.374,0.374,0.994,0.36,1.384-0.03C20.127,57.53,20.141,56.91,19.767,56.536z"/>
	<path fill="#E33038" d="M57.95,18.352l-0.002-0.001l-4.3-4.3l-0.001-0.002c-0.374-0.374-0.994-0.36-1.385,0.03
		c-0.39,0.39-0.404,1.01-0.03,1.384c0.001,0.001,0.002,0.002,0.003,0.003l4.297,4.297c0.001,0.001,0.002,0.002,0.003,0.003
		c0.374,0.374,0.994,0.36,1.384-0.03C58.311,19.346,58.324,18.726,57.95,18.352z"/>
	<path opacity="0.2" fill="#FFFFFF" d="M57.95,18.352l-0.002-0.001l-4.3-4.3l-0.001-0.002c-0.374-0.374-0.994-0.36-1.385,0.03
		c-0.39,0.39-0.404,1.01-0.03,1.384c0.001,0.001,0.002,0.002,0.003,0.003l4.297,4.297c0.001,0.001,0.002,0.002,0.003,0.003
		c0.374,0.374,0.994,0.36,1.384-0.03C58.311,19.346,58.324,18.726,57.95,18.352z"/>
	<path fill="#E33038" d="M56.536,52.234l-0.001,0.002l-4.3,4.3l-0.002,0.001c-0.374,0.374-0.36,0.994,0.03,1.385
		c0.39,0.39,1.01,0.404,1.384,0.03c0.001-0.001,0.002-0.002,0.003-0.003l4.297-4.297c0.001-0.001,0.002-0.002,0.003-0.003
		c0.374-0.374,0.36-0.994-0.03-1.384C57.53,51.873,56.91,51.86,56.536,52.234z"/>
	<path opacity="0.2" fill="#FFFFFF" d="M56.536,52.234l-0.001,0.002l-4.3,4.3l-0.002,0.001c-0.374,0.374-0.36,0.994,0.03,1.385
		c0.39,0.39,1.01,0.404,1.384,0.03c0.001-0.001,0.002-0.002,0.003-0.003l4.297-4.297c0.001-0.001,0.002-0.002,0.003-0.003
		c0.374-0.374,0.36-0.994-0.03-1.384C57.53,51.873,56.91,51.86,56.536,52.234z"/>
	<path fill="#E33038" d="M18.352,14.05c0,0-0.001,0.001-0.001,0.002l-4.3,4.3l-0.002,0.001c-0.374,0.374-0.36,0.994,0.03,1.385
		c0.39,0.39,1.01,0.404,1.384,0.03c0.001-0.001,0.002-0.002,0.003-0.003l4.297-4.297c0.001-0.001,0.002-0.002,0.003-0.003
		c0.374-0.374,0.36-0.994-0.03-1.384C19.346,13.69,18.726,13.676,18.352,14.05z"/>
	<path opacity="0.2" d="M18.352,14.05c0,0-0.001,0.001-0.001,0.002l-4.3,4.3l-0.002,0.001c-0.374,0.374-0.36,0.994,0.03,1.385
		c0.39,0.39,1.01,0.404,1.384,0.03c0.001-0.001,0.002-0.002,0.003-0.003l4.297-4.297c0.001-0.001,0.002-0.002,0.003-0.003
		c0.374-0.374,0.36-0.994-0.03-1.384C19.346,13.69,18.726,13.676,18.352,14.05z"/>
	<g>
		<path fill="#E33038" d="M45.805,26.195c0.711,0.711,1.323,1.482,1.847,2.294l12.008-3.275c-1.254-2.753-3.011-5.333-5.276-7.599
			c-2.228-2.228-4.761-3.967-7.463-5.217l-2.971,12.256C44.6,25.11,45.225,25.615,45.805,26.195z"/>
		<path fill="#E33038" d="M45.805,45.805c-0.58,0.58-1.205,1.085-1.855,1.541l2.971,12.256c2.703-1.25,5.235-2.989,7.463-5.217
			s3.967-4.761,5.217-7.463l-12.256-2.971C46.891,44.6,46.385,45.225,45.805,45.805z"/>
		<path fill="#E33038" d="M26.195,45.805c-0.58-0.58-1.085-1.205-1.541-1.855l-12.256,2.971c1.25,2.703,2.989,5.235,5.217,7.463
			c2.265,2.265,4.846,4.021,7.599,5.276l3.275-12.008C27.677,47.128,26.906,46.516,26.195,45.805z"/>
		<path fill="#E33038" d="M26.195,26.195c0.711-0.711,1.482-1.323,2.294-1.847l-3.275-12.008c-2.753,1.254-5.333,3.011-7.599,5.276
			s-4.021,4.845-5.276,7.599l12.008,3.275C24.872,27.677,25.484,26.906,26.195,26.195z"/>
		<g>
			<path fill="#FDD05F" d="M46.922,59.602l-2.971-12.256c-4.614,3.24-10.753,3.347-15.462,0.306l-3.275,12.008
				C32.093,62.795,40.057,62.778,46.922,59.602z"/>
			<path fill="#FDD05F" d="M43.951,24.654l2.971-12.256c-6.865-3.176-14.829-3.193-21.708-0.059l3.275,12.008
				C33.197,21.306,39.336,21.413,43.951,24.654z"/>
			<path fill="#FDD05F" d="M47.346,43.951l12.256,2.971c3.176-6.865,3.193-14.829,0.059-21.708l-12.008,3.275
				C50.694,33.197,50.587,39.336,47.346,43.951z"/>
			<path fill="#FDD05F" d="M24.348,28.489l-12.008-3.275c-3.135,6.879-3.117,14.843,0.059,21.708l12.256-2.971
				C21.413,39.336,21.306,33.197,24.348,28.489z"/>
		</g>
	</g>
	<path opacity="0.5" fill="#FDE5A3" d="M59.333,34.333C59.333,22.551,49.782,13,38,13L59.333,34.333"/>
</g>
</svg>
