<?xml version="1.0" encoding="utf-8"?>
<!-- Generator: Adobe Illustrator 17.0.0, SVG Export Plug-In . SVG Version: 6.00 Build 0)  -->
<!DOCTYPE svg PUBLIC "-//W3C//DTD SVG 1.1//EN" "http://www.w3.org/Graphics/SVG/1.1/DTD/svg11.dtd">
<svg version="1.1" id="Layer_1" xmlns="http://www.w3.org/2000/svg" xmlns:xlink="http://www.w3.org/1999/xlink" x="0px" y="0px"
	 width="72px" height="72px" viewBox="0 0 72 72" enable-background="new 0 0 72 72" xml:space="preserve">
<g>
	<rect x="5" y="10" fill="#FFC95A" width="19" height="42"/>
	<rect x="24" y="20" fill="#FFC95A" width="43" height="32"/>
	<rect x="39" y="48" fill="#FFC95A" width="18" height="15"/>
	<rect x="2" y="13" fill="#FFC95A" width="6" height="36"/>
	<rect x="64" y="23" fill="#FFC95A" width="6" height="26"/>
	<rect x="54" y="46" fill="#FFC95A" width="6" height="14"/>
	<rect x="36" y="46" fill="#FFC95A" width="6" height="14"/>
	<rect x="21" y="13" fill="#FFC95A" width="6" height="9"/>
	<path fill="#FFC95A" d="M8,13c0,1.657-1.344,3-3,3c-1.656,0-3-1.343-3-3c0-1.657,1.344-3,3-3C6.656,10,8,11.343,8,13"/>
	<path fill="#FFC95A" d="M27,13c0,1.657-1.344,3-3,3c-1.656,0-3-1.343-3-3c0-1.657,1.344-3,3-3C25.656,10,27,11.343,27,13"/>
	<path fill="#FFC95A" d="M32,23c0,1.657-1.344,3-3,3c-1.656,0-3-1.343-3-3c0-1.657,1.344-3,3-3C30.656,20,32,21.343,32,23"/>
	<path fill="#FFC95A" d="M70,23c0,1.657-1.344,3-3,3c-1.656,0-3-1.343-3-3c0-1.657,1.344-3,3-3C68.656,20,70,21.343,70,23"/>
	<path fill="#FFC95A" d="M70,49c0,1.657-1.344,3-3,3c-1.656,0-3-1.343-3-3c0-1.657,1.344-3,3-3C68.656,46,70,47.343,70,49"/>
	<path fill="#FFC95A" d="M60,60c0,1.657-1.344,3-3,3c-1.656,0-3-1.343-3-3c0-1.657,1.344-3,3-3C58.656,57,60,58.343,60,60"/>
	<path fill="#FFC95A" d="M8,49c0,1.657-1.344,3-3,3c-1.656,0-3-1.343-3-3c0-1.657,1.344-3,3-3C6.656,46,8,47.343,8,49"/>
	<path fill="#FFC95A" d="M42,60c0,1.657-1.344,3-3,3c-1.656,0-3-1.343-3-3c0-1.657,1.344-3,3-3C40.656,57,42,58.343,42,60"/>
</g>
<g>
	<g>
		<path fill="#FF9300" d="M6,20.5C6,20.777,5.777,21,5.5,21C5.223,21,5,20.777,5,20.5C5,20.223,5.223,20,5.5,20
			C5.777,20,6,20.223,6,20.5"/>
		<path fill="#FF9300" d="M7,20.5C7,20.777,6.777,21,6.5,21C6.223,21,6,20.777,6,20.5C6,20.223,6.223,20,6.5,20
			C6.777,20,7,20.223,7,20.5"/>
		<rect x="5.5" y="20" fill="#FF9300" width="1" height="1"/>
	</g>
	<g>
		<path fill="#FF9300" d="M9,20.5C9,20.777,8.777,21,8.5,21C8.223,21,8,20.777,8,20.5C8,20.223,8.223,20,8.5,20
			C8.777,20,9,20.223,9,20.5"/>
		<path fill="#FF9300" d="M10,20.5c0,0.277-0.223,0.5-0.5,0.5C9.223,21,9,20.777,9,20.5C9,20.223,9.223,20,9.5,20
			C9.777,20,10,20.223,10,20.5"/>
		<rect x="8.5" y="20" fill="#FF9300" width="1" height="1"/>
	</g>
	<g>
		<path fill="#FF9300" d="M12,20.5c0,0.277-0.223,0.5-0.5,0.5c-0.277,0-0.5-0.223-0.5-0.5c0-0.277,0.223-0.5,0.5-0.5
			C11.777,20,12,20.223,12,20.5"/>
		<path fill="#FF9300" d="M13,20.5c0,0.277-0.223,0.5-0.5,0.5c-0.277,0-0.5-0.223-0.5-0.5c0-0.277,0.223-0.5,0.5-0.5
			C12.777,20,13,20.223,13,20.5"/>
		<rect x="11.5" y="20" fill="#FF9300" width="1" height="1"/>
	</g>
	<g>
		<path fill="#FF9300" d="M15,20.5c0,0.277-0.223,0.5-0.5,0.5c-0.277,0-0.5-0.223-0.5-0.5c0-0.277,0.223-0.5,0.5-0.5
			C14.777,20,15,20.223,15,20.5"/>
		<path fill="#FF9300" d="M16,20.5c0,0.277-0.223,0.5-0.5,0.5c-0.277,0-0.5-0.223-0.5-0.5c0-0.277,0.223-0.5,0.5-0.5
			C15.777,20,16,20.223,16,20.5"/>
		<rect x="14.5" y="20" fill="#FF9300" width="1" height="1"/>
	</g>
	<g>
		<path fill="#FF9300" d="M18,20.5c0,0.277-0.223,0.5-0.5,0.5c-0.277,0-0.5-0.223-0.5-0.5c0-0.277,0.223-0.5,0.5-0.5
			C17.777,20,18,20.223,18,20.5"/>
		<path fill="#FF9300" d="M19,20.5c0,0.277-0.223,0.5-0.5,0.5c-0.277,0-0.5-0.223-0.5-0.5c0-0.277,0.223-0.5,0.5-0.5
			C18.777,20,19,20.223,19,20.5"/>
		<rect x="17.5" y="20" fill="#FF9300" width="1" height="1"/>
	</g>
	<g>
		<path fill="#FF9300" d="M21,20.5c0,0.277-0.223,0.5-0.5,0.5c-0.277,0-0.5-0.223-0.5-0.5c0-0.277,0.223-0.5,0.5-0.5
			C20.777,20,21,20.223,21,20.5"/>
		<path fill="#FF9300" d="M22,20.5c0,0.277-0.223,0.5-0.5,0.5c-0.277,0-0.5-0.223-0.5-0.5c0-0.277,0.223-0.5,0.5-0.5
			C21.777,20,22,20.223,22,20.5"/>
		<rect x="20.5" y="20" fill="#FF9300" width="1" height="1"/>
	</g>
	<g>
		<path fill="#FF9300" d="M24,20.5c0,0.277-0.223,0.5-0.5,0.5c-0.277,0-0.5-0.223-0.5-0.5c0-0.277,0.223-0.5,0.5-0.5
			C23.777,20,24,20.223,24,20.5"/>
		<path fill="#FF9300" d="M25,20.5c0,0.277-0.223,0.5-0.5,0.5c-0.277,0-0.5-0.223-0.5-0.5c0-0.277,0.223-0.5,0.5-0.5
			C24.777,20,25,20.223,25,20.5"/>
		<rect x="23.5" y="20" fill="#FF9300" width="1" height="1"/>
	</g>
</g>
<g>
	<g>
		<path fill="#FF9300" d="M39,52.5c0,0.277-0.223,0.5-0.5,0.5c-0.277,0-0.5-0.223-0.5-0.5c0-0.277,0.223-0.5,0.5-0.5
			C38.777,52,39,52.223,39,52.5"/>
		<path fill="#FF9300" d="M40,52.5c0,0.277-0.223,0.5-0.5,0.5c-0.277,0-0.5-0.223-0.5-0.5c0-0.277,0.223-0.5,0.5-0.5
			C39.777,52,40,52.223,40,52.5"/>
		<rect x="38.5" y="52" fill="#FF9300" width="1" height="1"/>
	</g>
	<g>
		<path fill="#FF9300" d="M42,52.5c0,0.277-0.223,0.5-0.5,0.5c-0.277,0-0.5-0.223-0.5-0.5c0-0.277,0.223-0.5,0.5-0.5
			C41.777,52,42,52.223,42,52.5"/>
		<path fill="#FF9300" d="M43,52.5c0,0.277-0.223,0.5-0.5,0.5c-0.277,0-0.5-0.223-0.5-0.5c0-0.277,0.223-0.5,0.5-0.5
			C42.777,52,43,52.223,43,52.5"/>
		<rect x="41.5" y="52" fill="#FF9300" width="1" height="1"/>
	</g>
	<g>
		<path fill="#FF9300" d="M45,52.5c0,0.277-0.223,0.5-0.5,0.5c-0.277,0-0.5-0.223-0.5-0.5c0-0.277,0.223-0.5,0.5-0.5
			C44.777,52,45,52.223,45,52.5"/>
		<path fill="#FF9300" d="M46,52.5c0,0.277-0.223,0.5-0.5,0.5c-0.277,0-0.5-0.223-0.5-0.5c0-0.277,0.223-0.5,0.5-0.5
			C45.777,52,46,52.223,46,52.5"/>
		<rect x="44.5" y="52" fill="#FF9300" width="1" height="1"/>
	</g>
	<g>
		<path fill="#FF9300" d="M48,52.5c0,0.277-0.223,0.5-0.5,0.5S47,52.777,47,52.5c0-0.277,0.223-0.5,0.5-0.5S48,52.223,48,52.5"/>
		<path fill="#FF9300" d="M49,52.5c0,0.277-0.223,0.5-0.5,0.5S48,52.777,48,52.5c0-0.277,0.223-0.5,0.5-0.5S49,52.223,49,52.5"/>
		<rect x="47.5" y="52" fill="#FF9300" width="1" height="1"/>
	</g>
	<g>
		<path fill="#FF9300" d="M51,52.5c0,0.277-0.223,0.5-0.5,0.5c-0.277,0-0.5-0.223-0.5-0.5c0-0.277,0.223-0.5,0.5-0.5
			C50.777,52,51,52.223,51,52.5"/>
		<path fill="#FF9300" d="M52,52.5c0,0.277-0.223,0.5-0.5,0.5c-0.277,0-0.5-0.223-0.5-0.5c0-0.277,0.223-0.5,0.5-0.5
			C51.777,52,52,52.223,52,52.5"/>
		<rect x="50.5" y="52" fill="#FF9300" width="1" height="1"/>
	</g>
	<g>
		<path fill="#FF9300" d="M54,52.5c0,0.277-0.223,0.5-0.5,0.5c-0.277,0-0.5-0.223-0.5-0.5c0-0.277,0.223-0.5,0.5-0.5
			C53.777,52,54,52.223,54,52.5"/>
		<path fill="#FF9300" d="M55,52.5c0,0.277-0.223,0.5-0.5,0.5c-0.277,0-0.5-0.223-0.5-0.5c0-0.277,0.223-0.5,0.5-0.5
			C54.777,52,55,52.223,55,52.5"/>
		<rect x="53.5" y="52" fill="#FF9300" width="1" height="1"/>
	</g>
	<g>
		<path fill="#FF9300" d="M57,52.5c0,0.277-0.223,0.5-0.5,0.5c-0.277,0-0.5-0.223-0.5-0.5c0-0.277,0.223-0.5,0.5-0.5
			C56.777,52,57,52.223,57,52.5"/>
		<path fill="#FF9300" d="M58,52.5c0,0.277-0.223,0.5-0.5,0.5c-0.277,0-0.5-0.223-0.5-0.5c0-0.277,0.223-0.5,0.5-0.5
			C57.777,52,58,52.223,58,52.5"/>
		<rect x="56.5" y="52" fill="#FF9300" width="1" height="1"/>
	</g>
</g>
<g>
	<g>
		<g>
			<path fill="#FF9300" d="M36.5,27c-0.277,0-0.5-0.223-0.5-0.5c0-0.277,0.223-0.5,0.5-0.5c0.277,0,0.5,0.223,0.5,0.5
				C37,26.777,36.777,27,36.5,27"/>
			<path fill="#FF9300" d="M36.5,28c-0.277,0-0.5-0.223-0.5-0.5c0-0.277,0.223-0.5,0.5-0.5c0.277,0,0.5,0.223,0.5,0.5
				C37,27.777,36.777,28,36.5,28"/>
			<rect x="36" y="26.5" fill="#FF9300" width="1" height="1"/>
		</g>
		<g>
			<path fill="#FF9300" d="M36.5,30c-0.277,0-0.5-0.223-0.5-0.5c0-0.277,0.223-0.5,0.5-0.5c0.277,0,0.5,0.223,0.5,0.5
				C37,29.777,36.777,30,36.5,30"/>
			<path fill="#FF9300" d="M36.5,31c-0.277,0-0.5-0.223-0.5-0.5c0-0.277,0.223-0.5,0.5-0.5c0.277,0,0.5,0.223,0.5,0.5
				C37,30.777,36.777,31,36.5,31"/>
			<rect x="36" y="29.5" fill="#FF9300" width="1" height="1"/>
		</g>
		<g>
			<path fill="#FF9300" d="M36.5,33c-0.277,0-0.5-0.223-0.5-0.5c0-0.277,0.223-0.5,0.5-0.5c0.277,0,0.5,0.223,0.5,0.5
				C37,32.777,36.777,33,36.5,33"/>
			<path fill="#FF9300" d="M36.5,34c-0.277,0-0.5-0.223-0.5-0.5c0-0.277,0.223-0.5,0.5-0.5c0.277,0,0.5,0.223,0.5,0.5
				C37,33.777,36.777,34,36.5,34"/>
			<rect x="36" y="32.5" fill="#FF9300" width="1" height="1"/>
		</g>
		<g>
			<path fill="#FF9300" d="M36.5,36c-0.277,0-0.5-0.223-0.5-0.5c0-0.277,0.223-0.5,0.5-0.5c0.277,0,0.5,0.223,0.5,0.5
				C37,35.777,36.777,36,36.5,36"/>
			<path fill="#FF9300" d="M36.5,37c-0.277,0-0.5-0.223-0.5-0.5c0-0.277,0.223-0.5,0.5-0.5c0.277,0,0.5,0.223,0.5,0.5
				C37,36.777,36.777,37,36.5,37"/>
			<rect x="36" y="35.5" fill="#FF9300" width="1" height="1"/>
		</g>
		<g>
			<path fill="#FF9300" d="M36.5,39c-0.277,0-0.5-0.223-0.5-0.5c0-0.277,0.223-0.5,0.5-0.5c0.277,0,0.5,0.223,0.5,0.5
				C37,38.777,36.777,39,36.5,39"/>
			<path fill="#FF9300" d="M36.5,40c-0.277,0-0.5-0.223-0.5-0.5c0-0.277,0.223-0.5,0.5-0.5c0.277,0,0.5,0.223,0.5,0.5
				C37,39.777,36.777,40,36.5,40"/>
			<rect x="36" y="38.5" fill="#FF9300" width="1" height="1"/>
		</g>
		<g>
			<path fill="#FF9300" d="M36.5,42c-0.277,0-0.5-0.223-0.5-0.5c0-0.277,0.223-0.5,0.5-0.5c0.277,0,0.5,0.223,0.5,0.5
				C37,41.777,36.777,42,36.5,42"/>
			<path fill="#FF9300" d="M36.5,43c-0.277,0-0.5-0.223-0.5-0.5c0-0.277,0.223-0.5,0.5-0.5c0.277,0,0.5,0.223,0.5,0.5
				C37,42.777,36.777,43,36.5,43"/>
			<rect x="36" y="41.5" fill="#FF9300" width="1" height="1"/>
		</g>
		<g>
			<path fill="#FF9300" d="M36.5,45c-0.277,0-0.5-0.223-0.5-0.5c0-0.277,0.223-0.5,0.5-0.5c0.277,0,0.5,0.223,0.5,0.5
				C37,44.777,36.777,45,36.5,45"/>
			<path fill="#FF9300" d="M36.5,46c-0.277,0-0.5-0.223-0.5-0.5c0-0.277,0.223-0.5,0.5-0.5c0.277,0,0.5,0.223,0.5,0.5
				C37,45.777,36.777,46,36.5,46"/>
			<rect x="36" y="44.5" fill="#FF9300" width="1" height="1"/>
		</g>
		<g>
			<path fill="#FF9300" d="M36.5,48c-0.277,0-0.5-0.223-0.5-0.5c0-0.277,0.223-0.5,0.5-0.5c0.277,0,0.5,0.223,0.5,0.5
				C37,47.777,36.777,48,36.5,48"/>
			<path fill="#FF9300" d="M36.5,49c-0.277,0-0.5-0.223-0.5-0.5c0-0.277,0.223-0.5,0.5-0.5c0.277,0,0.5,0.223,0.5,0.5
				C37,48.777,36.777,49,36.5,49"/>
			<rect x="36" y="47.5" fill="#FF9300" width="1" height="1"/>
		</g>
	</g>
	<g>
		<g>
			<path fill="#FF9300" d="M59.5,27c-0.277,0-0.5-0.223-0.5-0.5c0-0.277,0.223-0.5,0.5-0.5c0.277,0,0.5,0.223,0.5,0.5
				C60,26.777,59.777,27,59.5,27"/>
			<path fill="#FF9300" d="M59.5,28c-0.277,0-0.5-0.223-0.5-0.5c0-0.277,0.223-0.5,0.5-0.5c0.277,0,0.5,0.223,0.5,0.5
				C60,27.777,59.777,28,59.5,28"/>
			<rect x="59" y="26.5" fill="#FF9300" width="1" height="1"/>
		</g>
		<g>
			<path fill="#FF9300" d="M59.5,30c-0.277,0-0.5-0.223-0.5-0.5c0-0.277,0.223-0.5,0.5-0.5c0.277,0,0.5,0.223,0.5,0.5
				C60,29.777,59.777,30,59.5,30"/>
			<path fill="#FF9300" d="M59.5,31c-0.277,0-0.5-0.223-0.5-0.5c0-0.277,0.223-0.5,0.5-0.5c0.277,0,0.5,0.223,0.5,0.5
				C60,30.777,59.777,31,59.5,31"/>
			<rect x="59" y="29.5" fill="#FF9300" width="1" height="1"/>
		</g>
		<g>
			<path fill="#FF9300" d="M59.5,33c-0.277,0-0.5-0.223-0.5-0.5c0-0.277,0.223-0.5,0.5-0.5c0.277,0,0.5,0.223,0.5,0.5
				C60,32.777,59.777,33,59.5,33"/>
			<path fill="#FF9300" d="M59.5,34c-0.277,0-0.5-0.223-0.5-0.5c0-0.277,0.223-0.5,0.5-0.5c0.277,0,0.5,0.223,0.5,0.5
				C60,33.777,59.777,34,59.5,34"/>
			<rect x="59" y="32.5" fill="#FF9300" width="1" height="1"/>
		</g>
		<g>
			<path fill="#FF9300" d="M59.5,36c-0.277,0-0.5-0.223-0.5-0.5c0-0.277,0.223-0.5,0.5-0.5c0.277,0,0.5,0.223,0.5,0.5
				C60,35.777,59.777,36,59.5,36"/>
			<path fill="#FF9300" d="M59.5,37c-0.277,0-0.5-0.223-0.5-0.5c0-0.277,0.223-0.5,0.5-0.5c0.277,0,0.5,0.223,0.5,0.5
				C60,36.777,59.777,37,59.5,37"/>
			<rect x="59" y="35.5" fill="#FF9300" width="1" height="1"/>
		</g>
		<g>
			<path fill="#FF9300" d="M59.5,39c-0.277,0-0.5-0.223-0.5-0.5c0-0.277,0.223-0.5,0.5-0.5c0.277,0,0.5,0.223,0.5,0.5
				C60,38.777,59.777,39,59.5,39"/>
			<path fill="#FF9300" d="M59.5,40c-0.277,0-0.5-0.223-0.5-0.5c0-0.277,0.223-0.5,0.5-0.5c0.277,0,0.5,0.223,0.5,0.5
				C60,39.777,59.777,40,59.5,40"/>
			<rect x="59" y="38.5" fill="#FF9300" width="1" height="1"/>
		</g>
		<g>
			<path fill="#FF9300" d="M59.5,42c-0.277,0-0.5-0.223-0.5-0.5c0-0.277,0.223-0.5,0.5-0.5c0.277,0,0.5,0.223,0.5,0.5
				C60,41.777,59.777,42,59.5,42"/>
			<path fill="#FF9300" d="M59.5,43c-0.277,0-0.5-0.223-0.5-0.5c0-0.277,0.223-0.5,0.5-0.5c0.277,0,0.5,0.223,0.5,0.5
				C60,42.777,59.777,43,59.5,43"/>
			<rect x="59" y="41.5" fill="#FF9300" width="1" height="1"/>
		</g>
		<g>
			<path fill="#FF9300" d="M59.5,45c-0.277,0-0.5-0.223-0.5-0.5c0-0.277,0.223-0.5,0.5-0.5c0.277,0,0.5,0.223,0.5,0.5
				C60,44.777,59.777,45,59.5,45"/>
			<path fill="#FF9300" d="M59.5,46c-0.277,0-0.5-0.223-0.5-0.5c0-0.277,0.223-0.5,0.5-0.5c0.277,0,0.5,0.223,0.5,0.5
				C60,45.777,59.777,46,59.5,46"/>
			<rect x="59" y="44.5" fill="#FF9300" width="1" height="1"/>
		</g>
		<g>
			<path fill="#FF9300" d="M59.5,48c-0.277,0-0.5-0.223-0.5-0.5c0-0.277,0.223-0.5,0.5-0.5c0.277,0,0.5,0.223,0.5,0.5
				C60,47.777,59.777,48,59.5,48"/>
			<path fill="#FF9300" d="M59.5,49c-0.277,0-0.5-0.223-0.5-0.5c0-0.277,0.223-0.5,0.5-0.5c0.277,0,0.5,0.223,0.5,0.5
				C60,48.777,59.777,49,59.5,49"/>
			<rect x="59" y="47.5" fill="#FF9300" width="1" height="1"/>
		</g>
	</g>
	<g>
		<g>
			<path fill="#FF9300" d="M26.5,27c-0.277,0-0.5-0.223-0.5-0.5c0-0.277,0.223-0.5,0.5-0.5c0.277,0,0.5,0.223,0.5,0.5
				C27,26.777,26.777,27,26.5,27"/>
			<path fill="#FF9300" d="M26.5,28c-0.277,0-0.5-0.223-0.5-0.5c0-0.277,0.223-0.5,0.5-0.5c0.277,0,0.5,0.223,0.5,0.5
				C27,27.777,26.777,28,26.5,28"/>
			<rect x="26" y="26.5" fill="#FF9300" width="1" height="1"/>
		</g>
		<g>
			<path fill="#FF9300" d="M36.5,24c-0.277,0-0.5-0.223-0.5-0.5c0-0.277,0.223-0.5,0.5-0.5c0.277,0,0.5,0.223,0.5,0.5
				C37,23.777,36.777,24,36.5,24"/>
			<path fill="#FF9300" d="M36.5,25c-0.277,0-0.5-0.223-0.5-0.5c0-0.277,0.223-0.5,0.5-0.5c0.277,0,0.5,0.223,0.5,0.5
				C37,24.777,36.777,25,36.5,25"/>
			<rect x="36" y="23.5" fill="#FF9300" width="1" height="1"/>
		</g>
		<g>
			<path fill="#FF9300" d="M59.5,24c-0.277,0-0.5-0.223-0.5-0.5c0-0.277,0.223-0.5,0.5-0.5c0.277,0,0.5,0.223,0.5,0.5
				C60,23.777,59.777,24,59.5,24"/>
			<path fill="#FF9300" d="M59.5,25c-0.277,0-0.5-0.223-0.5-0.5c0-0.277,0.223-0.5,0.5-0.5c0.277,0,0.5,0.223,0.5,0.5
				C60,24.777,59.777,25,59.5,25"/>
			<rect x="59" y="23.5" fill="#FF9300" width="1" height="1"/>
		</g>
		<g>
			<path fill="#FF9300" d="M26.5,24c-0.277,0-0.5-0.223-0.5-0.5c0-0.277,0.223-0.5,0.5-0.5c0.277,0,0.5,0.223,0.5,0.5
				C27,23.777,26.777,24,26.5,24"/>
			<path fill="#FF9300" d="M26.5,25c-0.277,0-0.5-0.223-0.5-0.5c0-0.277,0.223-0.5,0.5-0.5c0.277,0,0.5,0.223,0.5,0.5
				C27,24.777,26.777,25,26.5,25"/>
			<rect x="26" y="23.5" fill="#FF9300" width="1" height="1"/>
		</g>
		<g>
			<path fill="#FF9300" d="M26.5,30c-0.277,0-0.5-0.223-0.5-0.5c0-0.277,0.223-0.5,0.5-0.5c0.277,0,0.5,0.223,0.5,0.5
				C27,29.777,26.777,30,26.5,30"/>
			<path fill="#FF9300" d="M26.5,31c-0.277,0-0.5-0.223-0.5-0.5c0-0.277,0.223-0.5,0.5-0.5c0.277,0,0.5,0.223,0.5,0.5
				C27,30.777,26.777,31,26.5,31"/>
			<rect x="26" y="29.5" fill="#FF9300" width="1" height="1"/>
		</g>
		<g>
			<path fill="#FF9300" d="M26.5,33c-0.277,0-0.5-0.223-0.5-0.5c0-0.277,0.223-0.5,0.5-0.5c0.277,0,0.5,0.223,0.5,0.5
				C27,32.777,26.777,33,26.5,33"/>
			<path fill="#FF9300" d="M26.5,34c-0.277,0-0.5-0.223-0.5-0.5c0-0.277,0.223-0.5,0.5-0.5c0.277,0,0.5,0.223,0.5,0.5
				C27,33.777,26.777,34,26.5,34"/>
			<rect x="26" y="32.5" fill="#FF9300" width="1" height="1"/>
		</g>
		<g>
			<path fill="#FF9300" d="M26.5,36c-0.277,0-0.5-0.223-0.5-0.5c0-0.277,0.223-0.5,0.5-0.5c0.277,0,0.5,0.223,0.5,0.5
				C27,35.777,26.777,36,26.5,36"/>
			<path fill="#FF9300" d="M26.5,37c-0.277,0-0.5-0.223-0.5-0.5c0-0.277,0.223-0.5,0.5-0.5c0.277,0,0.5,0.223,0.5,0.5
				C27,36.777,26.777,37,26.5,37"/>
			<rect x="26" y="35.5" fill="#FF9300" width="1" height="1"/>
		</g>
		<g>
			<path fill="#FF9300" d="M26.5,39c-0.277,0-0.5-0.223-0.5-0.5c0-0.277,0.223-0.5,0.5-0.5c0.277,0,0.5,0.223,0.5,0.5
				C27,38.777,26.777,39,26.5,39"/>
			<path fill="#FF9300" d="M26.5,40c-0.277,0-0.5-0.223-0.5-0.5c0-0.277,0.223-0.5,0.5-0.5c0.277,0,0.5,0.223,0.5,0.5
				C27,39.777,26.777,40,26.5,40"/>
			<rect x="26" y="38.5" fill="#FF9300" width="1" height="1"/>
		</g>
		<g>
			<path fill="#FF9300" d="M26.5,42c-0.277,0-0.5-0.223-0.5-0.5c0-0.277,0.223-0.5,0.5-0.5c0.277,0,0.5,0.223,0.5,0.5
				C27,41.777,26.777,42,26.5,42"/>
			<path fill="#FF9300" d="M26.5,43c-0.277,0-0.5-0.223-0.5-0.5c0-0.277,0.223-0.5,0.5-0.5c0.277,0,0.5,0.223,0.5,0.5
				C27,42.777,26.777,43,26.5,43"/>
			<rect x="26" y="41.5" fill="#FF9300" width="1" height="1"/>
		</g>
		<g>
			<path fill="#FF9300" d="M26.5,45c-0.277,0-0.5-0.223-0.5-0.5c0-0.277,0.223-0.5,0.5-0.5c0.277,0,0.5,0.223,0.5,0.5
				C27,44.777,26.777,45,26.5,45"/>
			<path fill="#FF9300" d="M26.5,46c-0.277,0-0.5-0.223-0.5-0.5c0-0.277,0.223-0.5,0.5-0.5c0.277,0,0.5,0.223,0.5,0.5
				C27,45.777,26.777,46,26.5,46"/>
			<rect x="26" y="44.5" fill="#FF9300" width="1" height="1"/>
		</g>
		<g>
			<path fill="#FF9300" d="M26.5,48c-0.277,0-0.5-0.223-0.5-0.5c0-0.277,0.223-0.5,0.5-0.5c0.277,0,0.5,0.223,0.5,0.5
				C27,47.777,26.777,48,26.5,48"/>
			<path fill="#FF9300" d="M26.5,49c-0.277,0-0.5-0.223-0.5-0.5c0-0.277,0.223-0.5,0.5-0.5c0.277,0,0.5,0.223,0.5,0.5
				C27,48.777,26.777,49,26.5,49"/>
			<rect x="26" y="47.5" fill="#FF9300" width="1" height="1"/>
		</g>
	</g>
</g>
<g>
	<circle fill="#E33038" cx="48" cy="37" r="9"/>
	<g>
		<path fill="#FDE5A3" d="M53.586,36.962c-0.021,0-0.038-0.01-0.055-0.03c-0.016-0.019-0.024-0.042-0.024-0.067
			c-0.008-0.789-0.051-1.579-0.127-2.378c-0.223-0.031-0.446-0.06-0.669-0.087c-0.023-0.003-0.041-0.014-0.057-0.036
			c-0.016-0.022-0.026-0.048-0.028-0.078c-0.016-0.199-0.035-0.398-0.055-0.597c-0.003-0.027,0.002-0.049,0.014-0.067
			c0.013-0.018,0.029-0.025,0.051-0.022c0.73,0.113,1.457,0.252,2.179,0.418c0.022,0.005,0.042,0.018,0.06,0.04
			c0.018,0.022,0.029,0.044,0.033,0.068c0.03,0.179,0.057,0.356,0.082,0.532c0.004,0.026-0.001,0.046-0.014,0.062
			c-0.012,0.015-0.03,0.02-0.052,0.016c-0.22-0.04-0.44-0.078-0.661-0.114c0.089,0.763,0.138,1.513,0.148,2.26
			c0,0.024-0.007,0.045-0.022,0.064c-0.014,0.018-0.033,0.027-0.055,0.026C54.086,36.967,53.836,36.964,53.586,36.962z"/>
		<path fill="#FDE5A3" d="M43.526,36.951c-0.021,0-0.04-0.01-0.057-0.03c-0.017-0.02-0.025-0.043-0.024-0.069
			c0.009-1.059,0.065-2.119,0.169-3.187c0.003-0.027,0.012-0.051,0.03-0.074c0.018-0.023,0.036-0.036,0.056-0.039
			c0.283-0.041,0.566-0.077,0.85-0.11c0.228-0.026,0.43-0.026,0.602-0.002c0.169,0.025,0.31,0.079,0.42,0.161
			c0.109,0.081,0.19,0.192,0.243,0.331c0.053,0.14,0.076,0.314,0.07,0.517c-0.013,0.404-0.122,0.708-0.33,0.904
			c-0.203,0.191-0.494,0.289-0.888,0.306l-0.04,0.001c-0.088,0.004-0.177,0.008-0.265,0.012c-0.012,0.389-0.02,0.778-0.022,1.167
			c0,0.028-0.008,0.051-0.025,0.072c-0.016,0.021-0.035,0.032-0.058,0.032C44.012,36.947,43.769,36.949,43.526,36.951z
			 M44.39,34.931c0.113-0.008,0.226-0.016,0.339-0.023c0.126-0.008,0.387-0.023,0.403-0.392c0.016-0.369-0.242-0.349-0.366-0.338
			c-0.112,0.009-0.224,0.019-0.336,0.03C44.415,34.45,44.401,34.691,44.39,34.931z"/>
		<path fill="#FDE5A3" d="M51.894,36.946c-0.013,0-0.025-0.006-0.037-0.017c-0.014-0.012-0.024-0.027-0.031-0.043
			c-0.144-0.359-0.293-0.724-0.444-1.093c0,0-0.001,0-0.001,0c-0.009-0.015-0.018-0.03-0.028-0.045
			c-0.013-0.019-0.026-0.033-0.039-0.045c-0.027-0.029-0.18-0.04-0.269-0.044c-0.05-0.002-0.1-0.004-0.151-0.006
			c0.009,0.393,0.015,0.786,0.017,1.18c0,0.028-0.007,0.052-0.023,0.074c-0.015,0.021-0.033,0.032-0.055,0.032
			c-0.248-0.001-0.496-0.002-0.743-0.003c-0.02,0-0.037-0.011-0.053-0.033c-0.016-0.022-0.023-0.047-0.024-0.076
			c-0.004-1.142-0.028-2.283-0.073-3.415c-0.001-0.029,0.005-0.053,0.019-0.074c0.014-0.021,0.03-0.03,0.049-0.029
			c0.475,0.031,0.95,0.074,1.424,0.128c0.269,0.031,0.495,0.144,0.671,0.329c0.188,0.199,0.297,0.444,0.317,0.73
			c0.023,0.324-0.036,0.553-0.174,0.686c-0.035,0.035-0.075,0.068-0.122,0.097c-0.046,0.03-0.099,0.056-0.156,0.079
			c-0.017,0.007-0.034,0.013-0.051,0.02c0.017,0.013,0.033,0.025,0.05,0.038c0.071,0.054,0.132,0.112,0.182,0.172
			c0.051,0.061,0.094,0.121,0.127,0.18c0.163,0.349,0.323,0.693,0.477,1.03c0.018,0.04,0.02,0.074,0.006,0.106
			c-0.014,0.032-0.037,0.047-0.07,0.047C52.426,36.95,52.16,36.948,51.894,36.946z M50.872,34.883
			c0.129,0.007,0.259,0.015,0.388,0.023c0.125,0.008,0.389,0.025,0.369-0.335c-0.021-0.361-0.28-0.385-0.405-0.395
			c-0.128-0.011-0.256-0.021-0.384-0.03C50.852,34.391,50.863,34.637,50.872,34.883z"/>
		<path fill="#FDE5A3" d="M44.062,40.883c-0.02-0.003-0.038-0.015-0.056-0.037c-0.017-0.023-0.027-0.047-0.03-0.074
			c-0.095-1.065-0.149-2.124-0.16-3.183c0-0.027,0.007-0.05,0.023-0.07c0.016-0.021,0.034-0.03,0.055-0.03
			c0.657,0.008,1.317,0.014,1.979,0.019c0.021,0,0.039,0.01,0.056,0.033c0.016,0.021,0.024,0.046,0.024,0.074
			c0.001,0.217,0.003,0.434,0.005,0.651c0,0.031-0.007,0.057-0.023,0.078c-0.016,0.022-0.034,0.032-0.055,0.031
			c-0.381-0.009-0.761-0.019-1.141-0.032c0.004,0.165,0.008,0.33,0.013,0.495c0.33,0.016,0.661,0.03,0.992,0.041
			c0.021,0.001,0.039,0.012,0.056,0.034c0.016,0.022,0.025,0.046,0.025,0.075c0.004,0.2,0.01,0.401,0.015,0.601
			c0.001,0.031-0.006,0.057-0.021,0.078c-0.018,0.024-0.035,0.035-0.054,0.034c-0.328-0.016-0.656-0.036-0.983-0.059
			c0.007,0.165,0.016,0.33,0.025,0.495c0.403,0.034,0.806,0.061,1.209,0.083c0.023,0.001,0.042,0.012,0.057,0.034
			c0.015,0.022,0.023,0.048,0.024,0.081c0.007,0.216,0.015,0.432,0.024,0.647c0.001,0.028-0.005,0.053-0.019,0.073
			c-0.014,0.02-0.031,0.029-0.053,0.027C45.386,41.037,44.723,40.971,44.062,40.883z"/>
		<path fill="#FDE5A3" d="M50.331,41.056c-0.02,0.002-0.037-0.007-0.052-0.028c-0.014-0.02-0.021-0.044-0.02-0.072
			c0.052-1.11,0.082-2.227,0.088-3.344c0-0.028,0.008-0.052,0.024-0.074c0.016-0.022,0.034-0.032,0.056-0.033
			c0.661-0.005,1.32-0.012,1.977-0.02c0.021,0,0.039,0.009,0.055,0.03c0.016,0.02,0.023,0.042,0.023,0.069
			c-0.002,0.203-0.006,0.405-0.012,0.608c-0.001,0.029-0.009,0.054-0.026,0.074c-0.017,0.021-0.035,0.032-0.056,0.033
			c-0.379,0.018-0.758,0.033-1.138,0.046c-0.003,0.165-0.008,0.331-0.013,0.496c0.33-0.016,0.66-0.034,0.99-0.055
			c0.021-0.001,0.038,0.008,0.054,0.027c0.015,0.019,0.022,0.041,0.021,0.068c-0.008,0.189-0.018,0.378-0.029,0.567
			c-0.002,0.03-0.011,0.055-0.028,0.077c-0.019,0.025-0.038,0.038-0.056,0.039c-0.326,0.03-0.653,0.056-0.98,0.079
			c-0.007,0.165-0.015,0.33-0.024,0.496c0.403-0.033,0.805-0.073,1.206-0.12c0.023-0.003,0.04,0.005,0.053,0.023
			c0.013,0.018,0.018,0.042,0.016,0.072c-0.016,0.203-0.035,0.406-0.054,0.609c-0.003,0.027-0.012,0.051-0.029,0.074
			c-0.016,0.022-0.035,0.034-0.057,0.037C51.658,40.93,50.995,41.004,50.331,41.056z"/>
		<path fill="#FDE5A3" d="M46.551,41.109c-0.023-0.001-0.042-0.012-0.058-0.035c-0.016-0.022-0.025-0.047-0.026-0.075
			c-0.037-1.12-0.058-2.25-0.062-3.382c0-0.029,0.007-0.054,0.023-0.075c0.015-0.022,0.034-0.032,0.057-0.032
			c0.253,0.001,0.505,0.002,0.758,0.003c0.021,0,0.04,0.011,0.058,0.034c0.017,0.022,0.026,0.046,0.026,0.075
			c0.001,0.883,0.007,1.766,0.017,2.642c0.404,0.007,0.808,0.008,1.211,0.002c0.022,0,0.04,0.01,0.057,0.03
			c0.016,0.02,0.024,0.045,0.024,0.076c-0.002,0.22-0.005,0.441-0.008,0.66c0,0.028-0.008,0.053-0.024,0.075
			c-0.016,0.022-0.034,0.033-0.054,0.033C47.883,41.152,47.217,41.142,46.551,41.109z"/>
		<path fill="#FDE5A3" d="M49.028,41.128c-0.017,0.001-0.031-0.009-0.043-0.029c-0.013-0.021-0.018-0.046-0.018-0.076
			c0.022-1.126,0.034-2.263,0.037-3.402c0-0.03,0.007-0.055,0.02-0.078c0.013-0.021,0.027-0.031,0.046-0.031
			c0.255-0.001,0.51-0.002,0.765-0.003c0.018,0,0.033,0.009,0.045,0.03c0.014,0.022,0.02,0.047,0.02,0.077
			c-0.005,1.127-0.029,2.252-0.071,3.369c-0.001,0.029-0.009,0.054-0.023,0.077c-0.013,0.021-0.027,0.031-0.045,0.032
			C49.518,41.108,49.273,41.119,49.028,41.128z"/>
		<path fill="#FDE5A3" d="M52.83,40.753c-0.022,0.003-0.038-0.003-0.051-0.021c-0.013-0.018-0.018-0.039-0.015-0.065
			c0.111-1.039,0.174-2.067,0.187-3.092c0-0.026,0.008-0.048,0.024-0.068c0.016-0.02,0.034-0.03,0.057-0.031
			c0.662-0.01,1.321-0.022,1.977-0.036c0.022-0.001,0.039,0.007,0.053,0.024c0.014,0.017,0.021,0.037,0.02,0.06
			c-0.004,0.174-0.01,0.348-0.019,0.523c-0.001,0.026-0.009,0.047-0.025,0.065c-0.015,0.019-0.033,0.028-0.055,0.03
			c-0.393,0.029-0.788,0.056-1.183,0.08c-0.006,0.149-0.014,0.297-0.023,0.446c0.289-0.025,0.578-0.052,0.866-0.081
			c0.02-0.002,0.036,0.005,0.051,0.02c0.012,0.013,0.016,0.032,0.014,0.061c-0.013,0.169-0.029,0.339-0.046,0.51
			c-0.003,0.024-0.012,0.045-0.029,0.065c-0.017,0.02-0.034,0.031-0.054,0.034c-0.284,0.042-0.569,0.081-0.855,0.117
			c-0.033,0.374-0.074,0.75-0.123,1.129c-0.003,0.026-0.013,0.049-0.029,0.071c-0.016,0.022-0.034,0.034-0.055,0.038
			C53.288,40.676,53.059,40.716,52.83,40.753z"/>
		<path fill="#FDE5A3" d="M42.943,40.712c-0.012-0.002-0.024-0.009-0.036-0.022c-0.014-0.014-0.025-0.029-0.033-0.045
			c-0.171-0.359-0.338-0.712-0.502-1.057c0,0,0,0-0.001,0.001c-0.009-0.014-0.019-0.029-0.029-0.043
			c-0.013-0.018-0.026-0.032-0.039-0.043c-0.027-0.028-0.171-0.051-0.253-0.063c-0.047-0.006-0.094-0.013-0.141-0.02
			c0.034,0.341,0.076,0.684,0.125,1.03c0.004,0.025,0,0.045-0.012,0.061c-0.011,0.016-0.026,0.022-0.046,0.018
			c-0.225-0.046-0.449-0.095-0.673-0.147c-0.018-0.004-0.035-0.017-0.052-0.038c-0.017-0.021-0.028-0.043-0.032-0.068
			c-0.159-0.944-0.248-1.851-0.267-2.752c0-0.023,0.006-0.042,0.021-0.059c0.014-0.017,0.03-0.025,0.049-0.025
			c0.465,0.01,0.932,0.019,1.401,0.027c0.266,0.004,0.483,0.086,0.647,0.247c0.174,0.173,0.265,0.405,0.276,0.683
			c0.011,0.316-0.047,0.542-0.177,0.669c-0.033,0.033-0.071,0.064-0.115,0.091c-0.043,0.027-0.093,0.051-0.146,0.07
			c-0.016,0.006-0.032,0.011-0.048,0.017c0.016,0.013,0.032,0.025,0.048,0.038c0.068,0.053,0.128,0.111,0.177,0.17
			c0.05,0.06,0.092,0.121,0.126,0.179c0.167,0.345,0.337,0.697,0.509,1.052c0.02,0.042,0.025,0.076,0.015,0.107
			c-0.01,0.031-0.029,0.043-0.06,0.038C43.43,40.792,43.186,40.753,42.943,40.712z M41.853,38.76
			c0.123,0.013,0.246,0.025,0.369,0.036c0.12,0.012,0.369,0.035,0.352-0.304c-0.015-0.338-0.265-0.35-0.386-0.357
			c-0.124-0.007-0.248-0.014-0.372-0.022C41.825,38.328,41.837,38.543,41.853,38.76z"/>
		<path fill="#FDE5A3" d="M41.991,37.015c-0.097,0.001-0.196-0.003-0.294-0.011c-0.097-0.008-0.194-0.021-0.29-0.038
			c-0.022-0.005-0.042-0.008-0.059-0.011c-0.016-0.002-0.032-0.006-0.049-0.01c-0.01-0.003-0.02-0.006-0.03-0.008
			c0,0.002,0,0.005,0,0.007c-0.051-0.01-0.097-0.019-0.137-0.029c-0.046-0.011-0.082-0.018-0.106-0.023
			c-0.014-0.003-0.028-0.013-0.04-0.028c-0.012-0.016-0.019-0.032-0.02-0.049c-0.013-0.231-0.022-0.461-0.026-0.69
			c-0.001-0.038,0.01-0.066,0.035-0.086c0.013-0.011,0.027-0.017,0.041-0.018c0.012-0.001,0.026,0.002,0.039,0.008
			c0.086,0.042,0.199,0.08,0.342,0.129c0.035,0.012,0.07,0.025,0.105,0.037c0.179,0.059,0.36,0.085,0.553,0.075
			c0.106-0.006,0.189-0.025,0.256-0.061c0.075-0.04,0.113-0.13,0.115-0.197c0.002-0.038-0.015-0.108-0.058-0.142
			c-0.06-0.043-0.19-0.081-0.398-0.113c-0.002,0-0.005-0.001-0.007-0.001c-0.368-0.059-0.633-0.094-0.764-0.217
			c-0.143-0.131-0.201-0.328-0.167-0.597c0.04-0.314,0.173-0.577,0.386-0.783c0.215-0.209,0.497-0.356,0.836-0.423
			c0.149-0.029,0.308-0.04,0.473-0.031c0.079,0.005,0.15,0.012,0.21,0.018c0.061,0.007,0.109,0.016,0.147,0.026
			c0.014,0.002,0.024,0.011,0.033,0.028c0.009,0.017,0.014,0.034,0.014,0.051c-0.005,0.25-0.007,0.5-0.005,0.751
			c0,0.044-0.012,0.077-0.038,0.103c-0.014,0.014-0.027,0.021-0.041,0.023c-0.012,0.001-0.025-0.002-0.038-0.01
			c-0.066-0.036-0.136-0.067-0.209-0.095c-0.072-0.028-0.149-0.052-0.228-0.071c-0.16-0.037-0.306-0.043-0.438-0.023
			c-0.101,0.016-0.181,0.039-0.24,0.068c-0.067,0.033-0.109,0.111-0.115,0.171c-0.006,0.055,0.02,0.124,0.082,0.143
			c0.05,0.015,0.111,0.03,0.18,0.046c0.07,0.016,0.156,0.029,0.255,0.039c0.36,0.046,0.59,0.091,0.706,0.242
			c0.134,0.164,0.195,0.392,0.184,0.671c-0.007,0.183-0.039,0.346-0.096,0.486c-0.057,0.14-0.137,0.258-0.237,0.352
			c-0.101,0.095-0.226,0.168-0.371,0.217C42.339,36.989,42.173,37.014,41.991,37.015z"/>
		<ellipse fill="#FDE5A3" cx="47.893" cy="35.088" rx="1.831" ry="1.883"/>
	</g>
</g>
<g>
	<path fill="#E33038" d="M11,15.5c0,0.277-0.223,0.5-0.5,0.5c-0.277,0-0.5-0.223-0.5-0.5c0-0.277,0.223-0.5,0.5-0.5
		C10.777,15,11,15.223,11,15.5"/>
	<path fill="#E33038" d="M20,15.5c0,0.277-0.223,0.5-0.5,0.5c-0.277,0-0.5-0.223-0.5-0.5c0-0.277,0.223-0.5,0.5-0.5
		C19.777,15,20,15.223,20,15.5"/>
	<rect x="10.5" y="15" fill="#E33038" width="9" height="1"/>
</g>
</svg>
