<?xml version="1.0" encoding="utf-8"?>
<!-- Generator: Adobe Illustrator 17.0.0, SVG Export Plug-In . SVG Version: 6.00 Build 0)  -->
<!DOCTYPE svg PUBLIC "-//W3C//DTD SVG 1.1//EN" "http://www.w3.org/Graphics/SVG/1.1/DTD/svg11.dtd">
<svg version="1.1" id="Layer_1" xmlns="http://www.w3.org/2000/svg" xmlns:xlink="http://www.w3.org/1999/xlink" x="0px" y="0px"
	 width="72px" height="72px" viewBox="0 0 72 72" enable-background="new 0 0 72 72" xml:space="preserve">
<g>
	<path fill="#FFC95A" d="M19,4c0,1.657-1.344,3-3,3c-1.656,0-3-1.343-3-3c0-1.657,1.344-3,3-3C17.656,1,19,2.343,19,4"/>
	<path fill="#FFC95A" d="M19,66c0,1.657-1.344,3-3,3c-1.656,0-3-1.343-3-3c0-1.657,1.344-3,3-3C17.656,63,19,64.343,19,66"/>
	<path fill="#FFC95A" d="M65,66c0,1.657-1.344,3-3,3c-1.656,0-3-1.343-3-3c0-1.657,1.344-3,3-3C63.656,63,65,64.343,65,66"/>
	<rect x="13" y="4" fill="#FFC95A" width="6" height="62"/>
	<path fill="#FFC95A" d="M65,4c0,1.657-1.344,3-3,3c-1.656,0-3-1.343-3-3c0-1.657,1.344-3,3-3C63.656,1,65,2.343,65,4"/>
	<rect x="59" y="4" fill="#FFC95A" width="6" height="62"/>
	<rect x="16" y="1" fill="#FFC95A" width="46" height="68"/>
	<polygon opacity="0.5" fill="#FF9300" points="30.172,1 36.95,7.778 39.778,4.95 35.828,1 	"/>
	<g>
		<path fill="#D8182B" d="M39.414,4.586c0.781,0.781,0.781,2.047,0,2.828l0,0c-0.781,0.781-2.047,0.781-2.828,0l0,0
			c-0.781-0.781-0.781-2.047,0-2.828l0,0C37.367,3.805,38.633,3.805,39.414,4.586L39.414,4.586z"/>
		<path opacity="0.1" d="M36.732,7.354c0.781,0.781,2.047,0.781,2.828,0l-2.828-2.828C35.951,5.306,35.951,6.573,36.732,7.354z"/>
	</g>
	
		<rect x="21" y="17" fill="none" stroke="#FF9300" stroke-width="2" stroke-linecap="round" stroke-linejoin="round" stroke-miterlimit="10" width="36" height="40"/>
	
		<line fill="none" stroke="#FF9300" stroke-width="2" stroke-linecap="round" stroke-linejoin="round" stroke-miterlimit="10" x1="21" y1="25" x2="57" y2="25"/>
	
		<line fill="none" stroke="#FF9300" stroke-width="2" stroke-linecap="round" stroke-linejoin="round" stroke-miterlimit="10" x1="21" y1="33" x2="57" y2="33"/>
	
		<line fill="none" stroke="#FF9300" stroke-width="2" stroke-linecap="round" stroke-linejoin="round" stroke-miterlimit="10" x1="21" y1="41" x2="57" y2="41"/>
	
		<line fill="none" stroke="#FF9300" stroke-width="2" stroke-linecap="round" stroke-linejoin="round" stroke-miterlimit="10" x1="21" y1="49" x2="57" y2="49"/>
	
		<line fill="none" stroke="#FF9300" stroke-width="2" stroke-linecap="round" stroke-linejoin="round" stroke-miterlimit="10" x1="30" y1="17" x2="30" y2="57"/>
	
		<line fill="none" stroke="#FF9300" stroke-width="2" stroke-linecap="round" stroke-linejoin="round" stroke-miterlimit="10" x1="39" y1="17" x2="39" y2="57"/>
	
		<line fill="none" stroke="#FF9300" stroke-width="2" stroke-linecap="round" stroke-linejoin="round" stroke-miterlimit="10" x1="48" y1="17" x2="48" y2="57"/>
</g>
</svg>
