<?xml version="1.0" encoding="utf-8"?>
<!-- Generator: Adobe Illustrator 17.0.0, SVG Export Plug-In . SVG Version: 6.00 Build 0)  -->
<!DOCTYPE svg PUBLIC "-//W3C//DTD SVG 1.1//EN" "http://www.w3.org/Graphics/SVG/1.1/DTD/svg11.dtd">
<svg version="1.1" id="Layer_1" xmlns="http://www.w3.org/2000/svg" xmlns:xlink="http://www.w3.org/1999/xlink" x="0px" y="0px"
	 width="72px" height="72px" viewBox="0 0 72 72" enable-background="new 0 0 72 72" xml:space="preserve">
<g>
	<path fill="#E33038" d="M67,56c-1.657,0-3,1.344-3,3c0,1.656,1.343,3,3,3c1.657,0,3-1.344,3-3C70,57.344,68.657,56,67,56"/>
	<path fill="#E33038" d="M5,56c-1.657,0-3,1.344-3,3c0,1.656,1.343,3,3,3c1.657,0,3-1.344,3-3C8,57.344,6.657,56,5,56"/>
	<path fill="#E33038" d="M5,10c-1.657,0-3,1.344-3,3c0,1.656,1.343,3,3,3c1.657,0,3-1.344,3-3C8,11.344,6.657,10,5,10"/>
	<rect x="5" y="56" fill="#E33038" width="62" height="6"/>
	<path fill="#FEE8AC" d="M67,11c-1.657,0-3,1.344-3,3c0,1.656,1.343,3,3,3c1.657,0,3-1.344,3-3C70,12.344,68.657,11,67,11"/>
	<rect x="5" y="10" fill="#E33038" width="62" height="6"/>
	<rect x="2" y="14" fill="#E33038" width="68" height="45"/>
	<g opacity="0.5">
		<g>
			<defs>
				<rect id="SVGID_1_" x="42" y="10" width="28" height="14"/>
			</defs>
			<clipPath id="SVGID_2_">
				<use xlink:href="#SVGID_1_"  overflow="visible"/>
			</clipPath>
			<polygon opacity="0.1" clip-path="url(#SVGID_2_)" points="57,23 70,24 56,10 42,10 			"/>
		</g>
	</g>
	<path fill="#DF3E4A" d="M70,24H59c-1.657,0-3-1.344-3-3V10L70,24z"/>
	<path fill="#FFFFFF" d="M56,10h11c1.657,0,3,1.344,3,3v11L56,10z"/>
</g>
<g>
	<circle opacity="0.1" cx="36" cy="25" r="10"/>
	<g>
		<path fill="#FDE5A3" d="M42.207,24.957c-0.023,0-0.043-0.011-0.061-0.033c-0.018-0.022-0.027-0.046-0.027-0.074
			c-0.009-0.877-0.057-1.755-0.142-2.643c-0.248-0.035-0.495-0.067-0.744-0.097c-0.025-0.003-0.046-0.016-0.063-0.04
			c-0.018-0.025-0.029-0.053-0.031-0.086c-0.018-0.221-0.039-0.442-0.061-0.664c-0.003-0.03,0.002-0.055,0.016-0.075
			c0.014-0.02,0.032-0.028,0.057-0.024c0.811,0.125,1.619,0.28,2.422,0.465c0.025,0.006,0.047,0.02,0.067,0.045
			c0.021,0.024,0.033,0.049,0.037,0.076c0.033,0.198,0.064,0.396,0.091,0.591c0.004,0.029-0.001,0.052-0.015,0.069
			c-0.014,0.017-0.033,0.023-0.058,0.018c-0.244-0.044-0.489-0.087-0.735-0.127c0.099,0.848,0.154,1.681,0.165,2.511
			c0,0.027-0.007,0.05-0.024,0.071c-0.016,0.02-0.036,0.03-0.062,0.029C42.762,24.963,42.485,24.96,42.207,24.957z"/>
		<path fill="#FDE5A3" d="M31.029,24.945c-0.024,0-0.044-0.011-0.063-0.034c-0.018-0.022-0.027-0.047-0.027-0.077
			c0.01-1.176,0.073-2.354,0.187-3.541c0.003-0.03,0.014-0.057,0.033-0.082c0.02-0.026,0.04-0.04,0.062-0.043
			c0.314-0.045,0.629-0.086,0.944-0.122c0.253-0.029,0.478-0.029,0.668-0.002c0.188,0.027,0.345,0.088,0.467,0.179
			c0.121,0.09,0.211,0.214,0.27,0.368c0.059,0.155,0.085,0.349,0.078,0.574c-0.014,0.448-0.136,0.787-0.367,1.004
			c-0.226,0.212-0.549,0.321-0.986,0.34l-0.045,0.002c-0.098,0.004-0.196,0.009-0.294,0.014c-0.014,0.432-0.022,0.865-0.024,1.297
			c0,0.031-0.009,0.057-0.027,0.081c-0.018,0.023-0.039,0.035-0.065,0.035C31.569,24.941,31.299,24.943,31.029,24.945z
			 M31.989,22.702c0.125-0.009,0.251-0.017,0.377-0.025c0.14-0.009,0.43-0.026,0.448-0.435c0.018-0.41-0.269-0.388-0.407-0.376
			c-0.124,0.01-0.249,0.021-0.373,0.033C32.016,22.166,32.001,22.434,31.989,22.702z"/>
		<path fill="#FDE5A3" d="M40.327,24.94c-0.014,0-0.028-0.006-0.042-0.019c-0.015-0.014-0.027-0.03-0.035-0.048
			c-0.16-0.399-0.325-0.805-0.494-1.214l-0.001,0.001c-0.01-0.016-0.021-0.033-0.031-0.05c-0.014-0.021-0.029-0.037-0.043-0.05
			c-0.03-0.032-0.2-0.045-0.299-0.049c-0.056-0.002-0.112-0.004-0.168-0.007c0.01,0.437,0.017,0.874,0.019,1.311
			c0,0.031-0.008,0.058-0.025,0.082c-0.017,0.024-0.037,0.035-0.062,0.035c-0.275-0.001-0.551-0.003-0.826-0.004
			c-0.022,0-0.041-0.012-0.059-0.036c-0.018-0.024-0.026-0.052-0.026-0.084c-0.004-1.269-0.031-2.536-0.081-3.794
			c-0.001-0.032,0.006-0.059,0.021-0.082c0.016-0.023,0.034-0.034,0.055-0.032c0.528,0.035,1.056,0.082,1.582,0.142
			c0.299,0.034,0.55,0.16,0.746,0.366c0.209,0.222,0.33,0.494,0.353,0.811c0.026,0.36-0.04,0.614-0.193,0.762
			c-0.039,0.039-0.084,0.075-0.135,0.108c-0.052,0.033-0.109,0.062-0.173,0.088c-0.019,0.007-0.038,0.015-0.057,0.022
			c0.018,0.014,0.037,0.028,0.055,0.042c0.078,0.06,0.146,0.124,0.202,0.191c0.056,0.068,0.104,0.135,0.141,0.2
			c0.181,0.388,0.358,0.77,0.53,1.144c0.02,0.044,0.022,0.082,0.007,0.118c-0.016,0.036-0.041,0.052-0.078,0.052
			C40.918,24.945,40.623,24.942,40.327,24.94z M39.191,22.648c0.144,0.008,0.287,0.017,0.431,0.026
			c0.139,0.009,0.432,0.028,0.41-0.372c-0.023-0.401-0.312-0.428-0.45-0.439c-0.142-0.012-0.284-0.023-0.427-0.033
			C39.169,22.101,39.181,22.375,39.191,22.648z"/>
		<path fill="#FDE5A3" d="M31.624,29.314c-0.022-0.003-0.043-0.016-0.062-0.042c-0.019-0.025-0.03-0.052-0.033-0.082
			c-0.106-1.183-0.165-2.36-0.178-3.537c0-0.03,0.008-0.055,0.026-0.077c0.018-0.023,0.038-0.033,0.061-0.033
			c0.731,0.009,1.464,0.016,2.198,0.021c0.024,0,0.043,0.012,0.062,0.036c0.018,0.024,0.027,0.051,0.027,0.083
			c0.001,0.241,0.003,0.482,0.006,0.724c0.001,0.035-0.008,0.063-0.025,0.087c-0.018,0.024-0.038,0.035-0.061,0.035
			c-0.423-0.01-0.846-0.021-1.268-0.036c0.004,0.183,0.009,0.367,0.015,0.55c0.367,0.018,0.734,0.033,1.102,0.045
			c0.023,0.001,0.044,0.013,0.062,0.038c0.018,0.024,0.028,0.051,0.028,0.083c0.005,0.222,0.011,0.445,0.017,0.667
			c0.001,0.035-0.007,0.063-0.024,0.086c-0.02,0.026-0.039,0.038-0.06,0.037c-0.364-0.018-0.728-0.04-1.092-0.065
			c0.008,0.183,0.018,0.367,0.028,0.55c0.448,0.038,0.895,0.068,1.344,0.092c0.025,0.001,0.046,0.014,0.063,0.038
			c0.017,0.025,0.026,0.054,0.027,0.089c0.008,0.24,0.017,0.48,0.027,0.719c0.001,0.032-0.005,0.058-0.021,0.081
			c-0.015,0.022-0.034,0.032-0.059,0.03C33.096,29.485,32.359,29.412,31.624,29.314z"/>
		<path fill="#FDE5A3" d="M38.59,29.506c-0.023,0.002-0.041-0.008-0.057-0.031c-0.016-0.022-0.023-0.048-0.022-0.08
			c0.058-1.233,0.091-2.474,0.098-3.716c0-0.031,0.009-0.058,0.027-0.082c0.018-0.024,0.038-0.036,0.062-0.036
			c0.734-0.005,1.467-0.013,2.197-0.022c0.023,0,0.043,0.01,0.061,0.033c0.018,0.022,0.026,0.047,0.026,0.076
			c-0.003,0.225-0.007,0.45-0.013,0.675c-0.001,0.032-0.01,0.059-0.029,0.083c-0.019,0.024-0.039,0.035-0.062,0.036
			c-0.421,0.019-0.842,0.036-1.265,0.051c-0.004,0.184-0.009,0.367-0.014,0.551c0.367-0.018,0.734-0.038,1.099-0.061
			c0.023-0.001,0.043,0.008,0.06,0.03c0.017,0.021,0.024,0.046,0.023,0.076c-0.009,0.21-0.02,0.42-0.032,0.631
			c-0.002,0.033-0.012,0.061-0.031,0.085c-0.022,0.028-0.042,0.042-0.063,0.044c-0.362,0.033-0.726,0.063-1.089,0.088
			c-0.008,0.183-0.017,0.367-0.027,0.551c0.447-0.037,0.894-0.081,1.34-0.133c0.025-0.003,0.044,0.006,0.059,0.026
			c0.015,0.02,0.021,0.046,0.018,0.08c-0.018,0.225-0.038,0.451-0.06,0.677c-0.003,0.03-0.013,0.057-0.032,0.082
			c-0.018,0.024-0.039,0.038-0.063,0.041C40.065,29.367,39.328,29.449,38.59,29.506z"/>
		<path fill="#FDE5A3" d="M34.39,29.566c-0.025-0.001-0.046-0.014-0.064-0.039c-0.018-0.025-0.028-0.052-0.029-0.084
			c-0.041-1.245-0.064-2.5-0.069-3.757c0-0.032,0.008-0.06,0.025-0.083c0.016-0.024,0.037-0.036,0.063-0.035
			c0.281,0.001,0.561,0.002,0.842,0.003c0.024,0,0.045,0.012,0.064,0.038c0.019,0.024,0.028,0.051,0.028,0.083
			c0.002,0.982,0.008,1.962,0.019,2.936c0.449,0.008,0.897,0.009,1.346,0.002c0.024,0,0.044,0.011,0.063,0.034
			c0.018,0.022,0.027,0.05,0.026,0.084c-0.003,0.245-0.005,0.49-0.008,0.734c0,0.031-0.009,0.059-0.027,0.083
			c-0.018,0.024-0.037,0.036-0.06,0.037C35.87,29.614,35.13,29.602,34.39,29.566z"/>
		<path fill="#FDE5A3" d="M37.142,29.586c-0.019,0.001-0.034-0.01-0.048-0.032c-0.014-0.024-0.021-0.051-0.02-0.084
			c0.024-1.251,0.038-2.515,0.041-3.78c0-0.033,0.008-0.062,0.023-0.086c0.014-0.023,0.03-0.034,0.051-0.034
			c0.283-0.001,0.567-0.002,0.85-0.004c0.021,0,0.036,0.01,0.05,0.033c0.016,0.025,0.023,0.053,0.022,0.085
			c-0.006,1.252-0.032,2.502-0.079,3.743c-0.001,0.032-0.01,0.06-0.025,0.086c-0.014,0.023-0.03,0.034-0.05,0.036
			C37.686,29.565,37.414,29.577,37.142,29.586z"/>
		<path fill="#FDE5A3" d="M41.367,29.17c-0.024,0.004-0.042-0.003-0.056-0.023c-0.014-0.02-0.019-0.043-0.017-0.072
			c0.124-1.155,0.193-2.296,0.208-3.436c0-0.029,0.009-0.054,0.026-0.076c0.017-0.022,0.038-0.034,0.063-0.034
			c0.735-0.011,1.468-0.025,2.196-0.04c0.024-0.001,0.043,0.008,0.059,0.027c0.016,0.019,0.023,0.041,0.022,0.066
			c-0.004,0.193-0.011,0.387-0.021,0.581c-0.001,0.028-0.01,0.052-0.027,0.073c-0.017,0.021-0.036,0.031-0.061,0.033
			c-0.437,0.033-0.875,0.062-1.315,0.089c-0.007,0.165-0.015,0.33-0.025,0.496c0.322-0.028,0.642-0.058,0.962-0.09
			c0.022-0.002,0.041,0.005,0.056,0.022c0.013,0.015,0.018,0.035,0.016,0.068c-0.015,0.188-0.032,0.377-0.051,0.566
			c-0.003,0.026-0.013,0.05-0.032,0.073c-0.018,0.022-0.038,0.035-0.06,0.038c-0.316,0.046-0.632,0.09-0.95,0.13
			c-0.036,0.416-0.082,0.834-0.137,1.255c-0.004,0.029-0.014,0.054-0.033,0.079c-0.018,0.024-0.038,0.037-0.061,0.042
			C41.876,29.084,41.622,29.128,41.367,29.17z"/>
		<path fill="#FDE5A3" d="M30.381,29.124c-0.013-0.002-0.026-0.01-0.04-0.024c-0.015-0.015-0.028-0.032-0.036-0.05
			c-0.19-0.399-0.376-0.791-0.558-1.174l-0.001,0.001c-0.01-0.016-0.021-0.032-0.032-0.048c-0.014-0.02-0.029-0.036-0.043-0.048
			c-0.03-0.032-0.19-0.057-0.282-0.07c-0.052-0.007-0.104-0.014-0.157-0.022c0.038,0.379,0.084,0.76,0.139,1.145
			c0.004,0.028,0,0.05-0.013,0.068c-0.012,0.018-0.029,0.024-0.052,0.02c-0.25-0.051-0.499-0.106-0.748-0.163
			c-0.02-0.005-0.039-0.018-0.058-0.042c-0.019-0.024-0.031-0.048-0.035-0.075c-0.177-1.049-0.275-2.056-0.296-3.057
			c0-0.026,0.007-0.047,0.023-0.066c0.016-0.019,0.034-0.028,0.055-0.028c0.517,0.011,1.035,0.021,1.556,0.03
			c0.296,0.005,0.537,0.095,0.719,0.274c0.193,0.192,0.295,0.45,0.306,0.759c0.013,0.351-0.052,0.602-0.197,0.743
			c-0.036,0.037-0.079,0.071-0.128,0.101c-0.048,0.03-0.103,0.057-0.163,0.078c-0.018,0.006-0.035,0.013-0.053,0.019
			c0.018,0.014,0.035,0.028,0.053,0.042c0.076,0.059,0.142,0.123,0.197,0.189c0.055,0.067,0.102,0.134,0.14,0.199
			c0.186,0.384,0.374,0.774,0.565,1.169c0.023,0.047,0.028,0.085,0.017,0.119c-0.011,0.034-0.032,0.048-0.066,0.043
			C30.923,29.214,30.652,29.17,30.381,29.124z M29.169,26.955c0.137,0.014,0.273,0.027,0.41,0.04
			c0.134,0.013,0.41,0.038,0.391-0.337c-0.017-0.375-0.295-0.389-0.429-0.397c-0.138-0.008-0.275-0.016-0.413-0.024
			C29.139,26.475,29.152,26.715,29.169,26.955z"/>
		<path fill="#FDE5A3" d="M29.324,25.017c-0.108,0.001-0.218-0.003-0.326-0.013c-0.107-0.009-0.216-0.024-0.322-0.042
			c-0.024-0.005-0.047-0.009-0.066-0.012c-0.017-0.002-0.036-0.006-0.055-0.012c-0.011-0.003-0.022-0.006-0.033-0.009
			c0,0.002,0,0.005,0,0.007c-0.057-0.011-0.108-0.021-0.152-0.032c-0.051-0.012-0.091-0.02-0.118-0.025
			c-0.016-0.004-0.031-0.014-0.044-0.032c-0.014-0.018-0.021-0.035-0.022-0.055c-0.015-0.256-0.024-0.512-0.029-0.767
			c-0.002-0.043,0.011-0.073,0.039-0.096c0.015-0.012,0.03-0.019,0.046-0.02c0.014-0.001,0.028,0.002,0.043,0.009
			c0.096,0.047,0.221,0.089,0.38,0.144c0.039,0.014,0.078,0.027,0.117,0.041c0.199,0.066,0.4,0.095,0.614,0.083
			c0.117-0.006,0.21-0.028,0.284-0.068c0.084-0.045,0.125-0.145,0.128-0.219c0.002-0.042-0.017-0.12-0.064-0.158
			c-0.066-0.048-0.211-0.09-0.442-0.126c-0.003,0-0.005-0.001-0.008-0.001c-0.409-0.066-0.703-0.105-0.848-0.241
			c-0.159-0.146-0.223-0.365-0.185-0.663c0.044-0.349,0.193-0.641,0.429-0.87c0.239-0.232,0.552-0.396,0.929-0.47
			c0.166-0.033,0.343-0.045,0.526-0.034c0.088,0.006,0.166,0.013,0.233,0.02c0.067,0.008,0.121,0.018,0.164,0.029
			c0.015,0.003,0.026,0.013,0.037,0.031c0.01,0.018,0.015,0.038,0.015,0.056c-0.006,0.278-0.007,0.556-0.006,0.834
			c0,0.048-0.014,0.085-0.043,0.115c-0.015,0.015-0.03,0.023-0.045,0.025c-0.013,0.002-0.028-0.002-0.042-0.011
			c-0.074-0.04-0.152-0.075-0.232-0.105c-0.08-0.031-0.166-0.057-0.253-0.079c-0.177-0.041-0.34-0.048-0.486-0.025
			c-0.112,0.018-0.201,0.043-0.266,0.075c-0.074,0.037-0.121,0.123-0.128,0.19c-0.007,0.061,0.023,0.138,0.091,0.159
			c0.055,0.016,0.123,0.034,0.201,0.051c0.078,0.018,0.174,0.033,0.284,0.044c0.4,0.051,0.655,0.101,0.785,0.269
			c0.149,0.182,0.217,0.435,0.205,0.746c-0.008,0.203-0.043,0.385-0.106,0.54c-0.063,0.155-0.152,0.287-0.264,0.391
			c-0.112,0.105-0.251,0.186-0.412,0.241C29.71,24.987,29.526,25.015,29.324,25.017z"/>
		<ellipse fill="#FDE5A3" cx="35.881" cy="22.876" rx="2.034" ry="2.093"/>
	</g>
</g>
<g>
	<text transform="matrix(1 0 0 1 8.0044 43)" fill="#FDE5A3" font-family="'GothamRounded-Bold'" font-size="8">SPONSOR ME</text>
</g>
<g opacity="0.1">
	<g>
		<defs>
			<rect id="SVGID_307_" x="10.5" y="47" width="51" height="8"/>
		</defs>
		<clipPath id="SVGID_4_">
			<use xlink:href="#SVGID_307_"  overflow="visible"/>
		</clipPath>
		<rect x="10.5" y="47" clip-path="url(#SVGID_4_)" width="51" height="8"/>
	</g>
</g>
</svg>
