<?xml version="1.0" encoding="utf-8"?>
<!-- Generator: Adobe Illustrator 17.0.0, SVG Export Plug-In . SVG Version: 6.00 Build 0)  -->
<!DOCTYPE svg PUBLIC "-//W3C//DTD SVG 1.1//EN" "http://www.w3.org/Graphics/SVG/1.1/DTD/svg11.dtd">
<svg version="1.1" id="Layer_1" xmlns="http://www.w3.org/2000/svg" xmlns:xlink="http://www.w3.org/1999/xlink" x="0px" y="0px"
	 width="72px" height="72px" viewBox="0 0 72 72" enable-background="new 0 0 72 72" xml:space="preserve">
<g>
	<rect x="28.818" y="52.683" fill="#E33038" width="14.364" height="4.788"/>
	<path fill="#E33038" d="M31.211,55.077c0,1.321-1.072,2.394-2.393,2.394c-1.323,0-2.395-1.073-2.395-2.394
		c0-1.322,1.072-2.394,2.395-2.394C30.14,52.683,31.211,53.755,31.211,55.077"/>
	<path fill="#E33038" d="M45.576,55.077c0,1.321-1.072,2.394-2.394,2.394c-1.322,0-2.394-1.073-2.394-2.394
		c0-1.322,1.072-2.394,2.394-2.394C44.504,52.683,45.576,53.755,45.576,55.077"/>
	<rect x="28.818" y="59.865" fill="#E33038" width="14.364" height="4.788"/>
	<path fill="#E33038" d="M31.211,62.26c0,1.321-1.072,2.394-2.393,2.394c-1.323,0-2.395-1.073-2.395-2.394
		c0-1.322,1.072-2.395,2.395-2.395C30.14,59.865,31.211,60.938,31.211,62.26"/>
	<path fill="#E33038" d="M45.576,62.26c0,1.321-1.072,2.394-2.394,2.394c-1.322,0-2.394-1.073-2.394-2.394
		c0-1.322,1.072-2.395,2.394-2.395C44.504,59.865,45.576,60.938,45.576,62.26"/>
	<rect x="28.818" y="56.274" fill="#E33038" width="14.364" height="4.788"/>
	<path fill="#E33038" d="M31.211,58.669c0,1.321-1.072,2.394-2.393,2.394c-1.323,0-2.395-1.073-2.395-2.394
		c0-1.323,1.072-2.395,2.395-2.395C30.14,56.274,31.211,57.346,31.211,58.669"/>
	<path fill="#E33038" d="M45.576,58.669c0,1.321-1.072,2.394-2.394,2.394c-1.322,0-2.394-1.073-2.394-2.394
		c0-1.323,1.072-2.395,2.394-2.395C44.504,56.274,45.576,57.346,45.576,58.669"/>
	<rect x="30.015" y="63.455" fill="#E33038" width="11.97" height="2.394"/>
	<path fill="#E33038" d="M31.211,64.653c0,0.661-0.536,1.196-1.196,1.196c-0.662,0-1.197-0.535-1.197-1.196
		c0-0.662,0.535-1.197,1.197-1.197C30.675,63.457,31.211,63.991,31.211,64.653"/>
	<path fill="#E33038" d="M43.182,64.653c0,0.661-0.536,1.196-1.197,1.196c-0.661,0-1.197-0.535-1.197-1.196
		c0-0.662,0.536-1.197,1.197-1.197C42.646,63.457,43.182,63.991,43.182,64.653"/>
	<g opacity="0.1">
		<g>
			<defs>
				<rect id="SVGID_25_" x="26.424" y="55.08" width="19.152" height="2.39"/>
			</defs>
			<clipPath id="SVGID_2_">
				<use xlink:href="#SVGID_25_"  overflow="visible"/>
			</clipPath>
			<rect x="26.424" y="55.077" clip-path="url(#SVGID_2_)" width="19.152" height="2.394"/>
		</g>
	</g>
	<g opacity="0.1">
		<g>
			<defs>
				<rect id="SVGID_27_" x="26.424" y="58.67" width="19.152" height="2.39"/>
			</defs>
			<clipPath id="SVGID_4_">
				<use xlink:href="#SVGID_27_"  overflow="visible"/>
			</clipPath>
			<rect x="26.424" y="58.668" clip-path="url(#SVGID_4_)" width="19.152" height="2.394"/>
		</g>
	</g>
	<g opacity="0.2">
		<g>
			<defs>
				<rect id="SVGID_29_" x="28.818" y="64.5" width="14.364" height="1.5"/>
			</defs>
			<clipPath id="SVGID_6_">
				<use xlink:href="#SVGID_29_"  overflow="visible"/>
			</clipPath>
			<rect x="28.818" y="64.504" clip-path="url(#SVGID_6_)" width="14.364" height="1.496"/>
		</g>
	</g>
	<path fill="#FDD05F" d="M37.197,46.1c0,4.296-3.483,7.781-7.781,7.781c-4.297,0-7.781-3.485-7.781-7.781
		c0-4.295,3.484-7.78,7.781-7.78C33.714,38.32,37.197,41.805,37.197,46.1"/>
	<path fill="#FDD05F" d="M50.364,46.1c0,4.296-3.483,7.781-7.78,7.781c-4.298,0-7.781-3.485-7.781-7.781
		c0-4.295,3.483-7.78,7.781-7.78C46.881,38.32,50.364,41.805,50.364,46.1"/>
	<path fill="#FDD05F" d="M57.546,27.546c0,11.9-9.647,21.546-21.546,21.546s-21.546-9.646-21.546-21.546S24.101,6,36,6
		S57.546,15.646,57.546,27.546"/>
	<polygon fill="#FDD05F" points="49.167,50.289 22.832,50.289 15.651,34.728 56.349,34.728 	"/>
	<rect x="25.226" y="50.288" fill="#FDD05F" width="21.546" height="2.394"/>
	<rect x="30.015" y="50.289" fill="#FDD05F" width="13.167" height="3.592"/>
	<path fill="#FDD05F" d="M49.276,48.137c0.269-0.396,0.493-0.818,0.666-1.262l6.407-12.146H15.651l6.407,12.146
		c0.173,0.444,0.397,0.866,0.666,1.262l0.109,0.208h0.034c0.607,0.828,1.413,1.532,2.36,2.063v0.031h0.057
		c1.199,0.66,2.612,1.048,4.132,1.048c0.202,0,0.401-0.013,0.599-0.028v0.028h13.167v-0.028c1.293-0.085,2.495-0.448,3.534-1.02
		h0.057v-0.031c0.947-0.531,1.753-1.235,2.359-2.063h0.035L49.276,48.137z"/>
	<path fill="#FF9300" d="M36,31.137c-2.645,0-4.788,2.145-4.788,4.788c0,2.646,2.143,4.788,4.788,4.788s4.789-2.142,4.789-4.788
		C40.789,33.282,38.645,31.137,36,31.137 M36,39.516c-1.983,0-3.591-1.607-3.591-3.591c0-1.982,1.608-3.591,3.591-3.591
		c1.984,0,3.591,1.609,3.591,3.591C39.59,37.909,37.983,39.516,36,39.516"/>
	<path fill="#FF9300" d="M31.211,41.91c2.645,0,4.788-2.143,4.788-4.787c0-2.646-2.143-4.789-4.788-4.789
		c-1.975,0-3.67,1.197-4.401,2.905l1.952,5.977C29.48,41.647,30.312,41.91,31.211,41.91 M27.621,37.123
		c0-1.984,1.607-3.592,3.591-3.592c1.984,0,3.591,1.608,3.591,3.592c0,1.981-1.607,3.59-3.591,3.59
		C29.228,40.713,27.621,39.104,27.621,37.123"/>
	<path fill="#FF9300" d="M26.893,39.156l-0.381-1.168C26.585,38.4,26.72,38.79,26.893,39.156"/>
	<path fill="#FF9300" d="M28.762,41.216c-0.812-0.486-1.464-1.199-1.87-2.06L31.7,53.881h1.197L28.762,41.216z"/>
	<path fill="#FF9300" d="M28.762,41.216l-1.952-5.977c-0.248,0.579-0.386,1.214-0.386,1.884c0,0.296,0.035,0.583,0.087,0.865
		l0.381,1.168C27.298,40.017,27.95,40.73,28.762,41.216"/>
	<path fill="#FF9300" d="M40.788,41.91c0.899,0,1.731-0.263,2.449-0.694l1.952-5.977c-0.732-1.708-2.426-2.905-4.401-2.905
		c-2.645,0-4.789,2.143-4.789,4.789C35.999,39.766,38.143,41.91,40.788,41.91 M40.788,33.531c1.983,0,3.59,1.608,3.59,3.592
		c0,1.981-1.607,3.59-3.59,3.59c-1.984,0-3.591-1.609-3.591-3.59C37.197,35.139,38.804,33.531,40.788,33.531"/>
	<path fill="#FF9300" d="M45.489,37.988l-0.382,1.168C45.281,38.79,45.414,38.4,45.489,37.988"/>
	<path fill="#FF9300" d="M43.237,41.216l-4.135,12.665h1.197l4.808-14.725C44.7,40.017,44.048,40.73,43.237,41.216"/>
	<path fill="#FF9300" d="M45.189,35.239l-1.952,5.977c0.812-0.487,1.464-1.2,1.87-2.06l0.382-1.168
		c0.051-0.282,0.087-0.569,0.087-0.865C45.576,36.454,45.437,35.817,45.189,35.239"/>
	<g>
		<g>
			<defs>
				<rect id="SVGID_31_" x="16.454" y="9.81" width="38.348" height="19.19"/>
			</defs>
			<clipPath id="SVGID_8_">
				<use xlink:href="#SVGID_31_"  overflow="visible"/>
			</clipPath>
			<path clip-path="url(#SVGID_8_)" fill="#FDE5A3" d="M54.756,29.001h0.046c0-10.601-8.595-19.195-19.197-19.195"/>
		</g>
	</g>
	<g opacity="0.5">
		<g>
			<defs>
				<rect id="SVGID_33_" x="24.03" y="51.49" width="23.94" height="2.39"/>
			</defs>
			<clipPath id="SVGID_10_">
				<use xlink:href="#SVGID_33_"  overflow="visible"/>
			</clipPath>
			<polygon clip-path="url(#SVGID_10_)" fill="#FF9300" points="45.576,53.881 26.424,53.881 24.03,51.486 47.97,51.486 			"/>
		</g>
	</g>
</g>
</svg>
