<?xml version="1.0" encoding="utf-8"?>
<!-- Generator: Adobe Illustrator 17.0.0, SVG Export Plug-In . SVG Version: 6.00 Build 0)  -->
<!DOCTYPE svg PUBLIC "-//W3C//DTD SVG 1.1//EN" "http://www.w3.org/Graphics/SVG/1.1/DTD/svg11.dtd">
<svg version="1.1" id="Layer_1" xmlns="http://www.w3.org/2000/svg" xmlns:xlink="http://www.w3.org/1999/xlink" x="0px" y="0px"
	 width="72px" height="72px" viewBox="0 0 72 72" enable-background="new 0 0 72 72" xml:space="preserve">
<g>
	<path fill="#FFC95A" d="M16,5c0,1.657-1.344,3-3,3c-1.656,0-3-1.343-3-3c0-1.657,1.344-3,3-3C14.656,2,16,3.343,16,5"/>
	<path fill="#FFC95A" d="M16,67c0,1.657-1.344,3-3,3c-1.656,0-3-1.343-3-3c0-1.657,1.344-3,3-3C14.656,64,16,65.343,16,67"/>
	<path fill="#FFC95A" d="M62,67c0,1.657-1.344,3-3,3c-1.656,0-3-1.343-3-3c0-1.657,1.344-3,3-3C60.656,64,62,65.343,62,67"/>
	<rect x="10" y="5" fill="#FFC95A" width="6" height="62"/>
	<path fill="#FEE8AC" d="M61,5c0,1.657-1.344,3-3,3c-1.656,0-3-1.343-3-3c0-1.657,1.344-3,3-3C59.656,2,61,3.343,61,5"/>
	<rect x="56" y="5" fill="#FFC95A" width="6" height="62"/>
	<rect x="13" y="2" fill="#FFC95A" width="45" height="68"/>
	<text transform="matrix(1 0 0 1 25.3252 23.9995)" fill="#E33038" font-family="'GothamRounded-Bold'" font-size="10">DOC</text>
	<g opacity="0.5">
		<g>
			<defs>
				<rect id="SVGID_103_" x="34" y="2" width="28" height="14"/>
			</defs>
			<clipPath id="SVGID_2_">
				<use xlink:href="#SVGID_103_"  overflow="visible"/>
			</clipPath>
			<polygon clip-path="url(#SVGID_2_)" fill="#FF9300" points="49,15 62,16 48,2 34,2 			"/>
		</g>
	</g>
	<path fill="#FDE5A3" d="M48,2v11c0,1.657,1.344,3,3,3h11L48,2z"/>
	<path fill="#FFFFFF" d="M62,16V5c0-1.657-1.344-3-3-3H48L62,16z"/>
	<rect x="32.124" y="32.024" fill="#E33038" width="5.751" height="20.848"/>
	<rect x="32.124" y="30.587" fill="#E33038" width="5.751" height="22.285"/>
	<path fill="#E33038" d="M24.772,44.965L35,56.863l10.229-11.898h-1.602c0.396,0,0.719,0.321,0.719,0.719
		c0,0.397-0.323,0.719-0.719,0.719c-0.397,0-0.72-0.322-0.72-0.719c0-0.398,0.323-0.719,0.72-0.719H26.373
		c0.398,0,0.72,0.321,0.72,0.719c0,0.397-0.322,0.719-0.72,0.719c-0.396,0-0.719-0.322-0.719-0.719c0-0.398,0.323-0.719,0.719-0.719
		H24.772z M35,56.467c-0.396,0-0.719-0.322-0.719-0.72c0-0.395,0.323-0.718,0.719-0.718s0.719,0.322,0.719,0.718
		C35.719,56.145,35.396,56.467,35,56.467"/>
	<path fill="#E33038" d="M35,55.028c0.396,0,0.719,0.322,0.719,0.719c0,0.397-0.323,0.719-0.719,0.719s-0.719-0.322-0.719-0.719
		C34.281,55.35,34.604,55.028,35,55.028"/>
	<path fill="#E33038" d="M44.346,45.684c0,0.397-0.322,0.719-0.719,0.719c-0.397,0-0.719-0.322-0.719-0.719
		c0-0.397,0.322-0.719,0.719-0.719C44.024,44.964,44.346,45.287,44.346,45.684"/>
	<path fill="#E33038" d="M27.093,45.684c0,0.397-0.322,0.719-0.72,0.719c-0.396,0-0.718-0.322-0.718-0.719
		c0-0.397,0.322-0.719,0.718-0.719C26.771,44.964,27.093,45.287,27.093,45.684"/>
	<g opacity="0.1">
		<g>
			<defs>
				<rect id="SVGID_105_" x="24.771" y="44.96" width="20.457" height="11.9"/>
			</defs>
			<clipPath id="SVGID_4_">
				<use xlink:href="#SVGID_105_"  overflow="visible"/>
			</clipPath>
			<path clip-path="url(#SVGID_4_)" d="M24.772,44.965L35,56.863l10.229-11.898h-1.602c0.396,0,0.719,0.321,0.719,0.719
				c0,0.397-0.323,0.719-0.719,0.719c-0.397,0-0.72-0.322-0.72-0.719c0-0.398,0.323-0.719,0.72-0.719H26.373
				c0.398,0,0.72,0.321,0.72,0.719c0,0.397-0.322,0.719-0.72,0.719c-0.396,0-0.719-0.322-0.719-0.719
				c0-0.398,0.323-0.719,0.719-0.719H24.772z M35,56.467c-0.396,0-0.719-0.322-0.719-0.72c0-0.395,0.323-0.718,0.719-0.718
				s0.719,0.322,0.719,0.718C35.719,56.145,35.396,56.467,35,56.467"/>
			<path clip-path="url(#SVGID_4_)" d="M35,55.028c0.396,0,0.719,0.322,0.719,0.719c0,0.397-0.323,0.719-0.719,0.719
				s-0.719-0.322-0.719-0.719C34.281,55.35,34.604,55.028,35,55.028"/>
			<path clip-path="url(#SVGID_4_)" d="M44.346,45.684c0,0.397-0.322,0.719-0.719,0.719c-0.397,0-0.719-0.322-0.719-0.719
				c0-0.397,0.322-0.719,0.719-0.719C44.024,44.964,44.346,45.287,44.346,45.684"/>
			<path clip-path="url(#SVGID_4_)" d="M27.093,45.684c0,0.397-0.322,0.719-0.72,0.719c-0.396,0-0.718-0.322-0.718-0.719
				c0-0.397,0.322-0.719,0.718-0.719C26.771,44.964,27.093,45.287,27.093,45.684"/>
		</g>
	</g>
	<polyline fill="#E33038" points="43.627,44.965 45.229,44.965 35,56.862 35,44.965 	"/>
	<g opacity="0.1">
		<g>
			<defs>
				<rect id="SVGID_107_" x="32.124" y="30.59" width="2.876" height="14.37"/>
			</defs>
			<clipPath id="SVGID_6_">
				<use xlink:href="#SVGID_107_"  overflow="visible"/>
			</clipPath>
			<rect x="32.124" y="30.587" clip-path="url(#SVGID_6_)" width="2.876" height="14.378"/>
		</g>
	</g>
</g>
</svg>
