<?xml version="1.0" encoding="utf-8"?>
<!-- Generator: Adobe Illustrator 17.0.0, SVG Export Plug-In . SVG Version: 6.00 Build 0)  -->
<!DOCTYPE svg PUBLIC "-//W3C//DTD SVG 1.1//EN" "http://www.w3.org/Graphics/SVG/1.1/DTD/svg11.dtd">
<svg version="1.1" id="Layer_1" xmlns="http://www.w3.org/2000/svg" xmlns:xlink="http://www.w3.org/1999/xlink" x="0px" y="0px"
	 width="72px" height="72px" viewBox="0 0 72 72" enable-background="new 0 0 72 72" xml:space="preserve">
<circle fill="#FF9300" cx="34" cy="37" r="30"/>
<circle fill="#FDD05F" cx="34" cy="37" r="27.5"/>
<circle fill="none" cx="34" cy="37" r="24.167"/>
<text transform="matrix(0.9149 0.4036 -0.4036 0.9149 22.9648 58.5518)"><tspan x="0" y="0" fill="#FF9300" font-family="'GothamRounded-Bold'" font-size="4.0978">O</tspan><tspan x="3.022" y="-0.015" fill="#FF9300" font-family="'GothamRounded-Bold'" font-size="4.0978" rotate="-7.059">n</tspan><tspan x="5.846" y="-0.392" fill="#FF9300" font-family="'GothamRounded-Bold'" font-size="4.0978" rotate="-13.047">e</tspan><tspan x="7.914" y="-0.894" fill="#FF9300" font-family="'GothamRounded-Bold'" font-size="4.0978" rotate="-16.741"> </tspan><tspan x="8.854" y="-1.158" fill="#FF9300" font-family="'GothamRounded-Bold'" font-size="4.0978" rotate="-20.588">P</tspan><tspan x="11.051" y="-1.973" fill="#FF9300" font-family="'GothamRounded-Bold'" font-size="4.0978" rotate="-26.796">o</tspan><tspan x="13.749" y="-3.355" fill="#FF9300" font-family="'GothamRounded-Bold'" font-size="4.0978" rotate="-33.751">u</tspan><tspan x="16.095" y="-4.934" fill="#FF9300" font-family="'GothamRounded-Bold'" font-size="4.0978" rotate="-40.55">n</tspan><tspan x="18.268" y="-6.807" fill="#FF9300" font-family="'GothamRounded-Bold'" font-size="4.0978" rotate="-47.433">D</tspan></text>
<g>
	<g>
		<circle fill="#FF9300" cx="24.05" cy="12.979" r="0.5"/>
		<circle fill="#FF9300" cx="43.949" cy="61.021" r="0.5"/>
		<circle fill="#FF9300" cx="58.021" cy="27.05" r="0.5"/>
		<circle fill="#FF9300" cx="9.979" cy="46.95" r="0.5"/>
		<circle fill="#FF9300" cx="43.95" cy="12.979" r="0.5"/>
		<circle fill="#FF9300" cx="24.05" cy="61.021" r="0.5"/>
		<circle fill="#FF9300" cx="58.021" cy="46.95" r="0.5"/>
		<circle fill="#FF9300" cx="9.979" cy="27.05" r="0.5"/>
		<circle fill="#FF9300" cx="34" cy="11" r="0.5"/>
		<circle fill="#FF9300" cx="34" cy="63" r="0.5"/>
		<circle fill="#FF9300" cx="60" cy="37" r="0.5"/>
		<circle fill="#FF9300" cx="8" cy="37" r="0.5"/>
		<circle fill="#FF9300" cx="52.385" cy="18.615" r="0.5"/>
		<circle fill="#FF9300" cx="15.615" cy="55.385" r="0.5"/>
		<circle fill="#FF9300" cx="52.385" cy="55.385" r="0.5"/>
		<circle fill="#FF9300" cx="15.615" cy="18.615" r="0.5"/>
		<circle fill="#FF9300" cx="19.555" cy="15.382" r="0.5"/>
		<circle fill="#FF9300" cx="48.445" cy="58.618" r="0.5"/>
		<circle fill="#FF9300" cx="55.618" cy="22.555" r="0.5"/>
		<circle fill="#FF9300" cx="12.382" cy="51.445" r="0.5"/>
		<circle fill="#FF9300" cx="39.072" cy="11.5" r="0.5"/>
		<circle fill="#FF9300" cx="28.927" cy="62.501" r="0.5"/>
		<circle fill="#FF9300" cx="59.5" cy="42.072" r="0.5"/>
		<circle fill="#FF9300" cx="8.499" cy="31.928" r="0.5"/>
		<circle fill="#FF9300" cx="28.927" cy="11.5" r="0.5"/>
		<circle fill="#FF9300" cx="39.072" cy="62.5" r="0.5"/>
		<circle fill="#FF9300" cx="59.5" cy="31.928" r="0.5"/>
		<circle fill="#FF9300" cx="8.499" cy="42.072" r="0.5"/>
		
			<ellipse transform="matrix(0.8316 0.5554 -0.5554 0.8316 16.7193 -24.2936)" fill="#FF9300" cx="48.418" cy="15.422" rx="0.5" ry="0.482"/>
		<circle fill="#FF9300" cx="19.555" cy="58.618" r="0.5"/>
		<circle fill="#FF9300" cx="55.618" cy="51.445" r="0.5"/>
		<circle fill="#FF9300" cx="12.382" cy="22.555" r="0.5"/>
	</g>
	<circle fill="#FF9300" cx="21.744" cy="14.07" r="0.5"/>
	<circle fill="#FF9300" cx="46.256" cy="59.93" r="0.5"/>
	<circle fill="#FF9300" cx="56.93" cy="24.744" r="0.5"/>
	<circle fill="#FF9300" cx="11.07" cy="49.256" r="0.5"/>
	<circle fill="#FF9300" cx="41.548" cy="12.12" r="0.5"/>
	<circle fill="#FF9300" cx="26.453" cy="61.88" r="0.5"/>
	<circle fill="#FF9300" cx="58.88" cy="44.547" r="0.5"/>
	<circle fill="#FF9300" cx="9.119" cy="29.453" r="0.5"/>
	<circle fill="#FF9300" cx="31.452" cy="11.125" r="0.5"/>
	<circle fill="#FF9300" cx="36.549" cy="62.875" r="0.5"/>
	<circle fill="#FF9300" cx="59.875" cy="34.451" r="0.5"/>
	<circle fill="#FF9300" cx="8.125" cy="39.548" r="0.5"/>
	<circle fill="#FF9300" cx="50.494" cy="16.902" r="0.5"/>
	<circle fill="#FF9300" cx="17.506" cy="57.098" r="0.5"/>
	<circle fill="#FF9300" cx="54.098" cy="53.494" r="0.5"/>
	<circle fill="#FF9300" cx="13.902" cy="20.506" r="0.5"/>
	<circle fill="#FF9300" cx="17.506" cy="16.902" r="0.5"/>
	<circle fill="#FF9300" cx="50.494" cy="57.098" r="0.5"/>
	<circle fill="#FF9300" cx="54.098" cy="20.506" r="0.5"/>
	<circle fill="#FF9300" cx="13.902" cy="53.494" r="0.5"/>
	<circle fill="#FF9300" cx="36.548" cy="11.125" r="0.5"/>
	<circle fill="#FF9300" cx="31.451" cy="62.875" r="0.5"/>
	<circle fill="#FF9300" cx="59.875" cy="39.548" r="0.5"/>
	<circle fill="#FF9300" cx="8.125" cy="34.451" r="0.5"/>
	<circle fill="#FF9300" cx="26.453" cy="12.12" r="0.5"/>
	<circle fill="#FF9300" cx="41.547" cy="61.88" r="0.5"/>
	<circle fill="#FF9300" cx="58.88" cy="29.453" r="0.5"/>
	<circle fill="#FF9300" cx="9.12" cy="44.547" r="0.5"/>
	
		<ellipse transform="matrix(0.882 0.4713 -0.4713 0.882 12.1077 -20.1239)" fill="#FF9300" cx="46.233" cy="14.112" rx="0.5" ry="0.482"/>
	<circle fill="#FF9300" cx="21.744" cy="59.93" r="0.5"/>
	<circle fill="#FF9300" cx="56.93" cy="49.256" r="0.5"/>
	<circle fill="#FF9300" cx="11.07" cy="24.744" r="0.5"/>
</g>
<path fill="#FF9300" d="M44.833,40.293v-1.484l1.662-0.831c0.176-0.047,0.355-0.171,0.444-0.385
	c0.169-0.409,0.149-1.046-2.249-3.443c-0.15-0.155-0.593-0.706-0.003-1.296c0.118-0.118,0.169-0.288,0.137-0.452
	c-0.092-0.462-0.837-4.091-1.744-5.707c0.455-0.268,1.05-0.747,1.311-1.508c0.301-0.877,0.085-1.875-0.61-2.911
	c-0.024-0.047-0.596-1.165-1.781-1.165c-0.476,0-0.966,0.185-1.463,0.551l-1.739-4.348c-0.089-0.224-0.326-0.35-0.559-0.306
	c-0.235,0.045-0.405,0.252-0.405,0.491v1.793l-1.146-1.146c-0.143-0.143-0.357-0.185-0.545-0.108
	c-0.187,0.077-0.309,0.26-0.309,0.462v1.217c-0.714-0.31-1.787-0.717-2.5-0.717c-1.055,0-3.707,0.923-3.909,1.005
	c-0.31,0.043-7.591,1.11-7.591,5.495c0,0.027-0.024,2.72-1.539,3.563c-0.159,0.088-0.257,0.255-0.257,0.437
	c0,0.992,0.351,2.707,1.564,3.295c-0.883,1.063-2.367,3.215-1.537,4.869c0.047,0.136,1.18,3.349,3.267,4.292
	c0.239,0.108,0.491,0.163,0.748,0.163c0.544,0,1.001-0.238,1.369-0.429c0.11-0.058,0.265-0.138,0.362-0.173
	c0.012,0.028,0.027,0.067,0.042,0.122c0.174,0.606-1.042,2.482-1.77,3.604c-0.539,0.832-1.005,1.55-1.214,2.073
	c-0.057,0.142-0.045,0.303,0.031,0.435c0.077,0.133,0.21,0.223,0.362,0.245c0.068,0.01,6.876,1.052,11.687,6.825
	c0.097,0.116,0.239,0.18,0.384,0.18c0.057,0,0.114-0.01,0.17-0.03c0.198-0.072,0.33-0.26,0.33-0.47c0-0.066,0.034-6.562,2.659-8.501
	c0.968-0.01,4.169-0.121,5.194-1.145c0.038-0.038,1.646-2.354,0.646-3.354L44.833,40.293z"/>
</svg>
