<?xml version="1.0" encoding="utf-8"?>
<!-- Generator: Adobe Illustrator 17.0.0, SVG Export Plug-In . SVG Version: 6.00 Build 0)  -->
<!DOCTYPE svg PUBLIC "-//W3C//DTD SVG 1.1//EN" "http://www.w3.org/Graphics/SVG/1.1/DTD/svg11.dtd">
<svg version="1.1" id="Layer_1" xmlns="http://www.w3.org/2000/svg" xmlns:xlink="http://www.w3.org/1999/xlink" x="0px" y="0px"
	 width="72px" height="72px" viewBox="0 0 72 72" enable-background="new 0 0 72 72" xml:space="preserve">
<g>
	<g>
		<path fill="#FDD05F" d="M45.062,9c-1.322,3.734-4.874,6.414-9.062,6.414c-4.187,0-7.739-2.68-9.062-6.414L5,13.276v12.828h62
			V13.276L45.062,9z"/>
		<path fill="#FF9300" d="M36,15.414c4.187,0,7.739-2.68,9.062-6.414h-2.309c-1.202,2.526-3.77,4.276-6.753,4.276
			c-2.983,0-5.551-1.75-6.753-4.276h-2.309C28.261,12.734,31.813,15.414,36,15.414z"/>
	</g>
	<rect x="16.759" y="15.414" fill="#FDD05F" width="38.483" height="51.31"/>
	<text transform="matrix(1 0 0 1 24.2417 27.1729)" fill="#FDD05F" font-family="'GothamRounded-Bold'" font-size="3.2069">SPORT RELIEF</text>
	<rect x="18.897" y="29.31" fill="#E33038" width="34.207" height="19.241"/>
	<rect x="18.897" y="29.31" opacity="0.1" width="34.207" height="5.345"/>
	<rect x="32.793" y="28.241" opacity="0.5" fill="#FF9300" width="6.414" height="2.138"/>
	<text transform="matrix(1 0 0 1 21.0347 42.1383)" fill="#FDD05F" font-family="'GothamRounded-Bold'" font-size="6.4138">1200000</text>
	<circle fill="#FDD05F" cx="16.759" cy="26.103" r="2.138"/>
	<circle fill="#FFFFFF" cx="14.621" cy="28.241" r="2.138"/>
	<circle fill="#FDD05F" cx="55.241" cy="26.103" r="2.138"/>
	<circle fill="#FFFFFF" cx="57.379" cy="28.241" r="2.138"/>
	<line opacity="0.5" fill="none" stroke="#FF9300" stroke-miterlimit="10" x1="7.138" y1="13.276" x2="7.138" y2="26.103"/>
	<line opacity="0.5" fill="none" stroke="#FF9300" stroke-miterlimit="10" x1="64.862" y1="13.276" x2="64.862" y2="26.103"/>
</g>
</svg>
