<?xml version="1.0" encoding="utf-8"?>
<!-- Generator: Adobe Illustrator 17.0.0, SVG Export Plug-In . SVG Version: 6.00 Build 0)  -->
<!DOCTYPE svg PUBLIC "-//W3C//DTD SVG 1.1//EN" "http://www.w3.org/Graphics/SVG/1.1/DTD/svg11.dtd">
<svg version="1.1" id="Layer_1" xmlns="http://www.w3.org/2000/svg" xmlns:xlink="http://www.w3.org/1999/xlink" x="0px" y="0px"
	 width="72px" height="72px" viewBox="0 0 72 72" enable-background="new 0 0 72 72" xml:space="preserve">
<path fill="#FDD05F" d="M6,59"/>
<g>
	<g>
		<path fill="#FDD05F" d="M36,6C19.432,6,6,19.432,6,36c0,6.379,1.997,12.289,5.391,17.15C14.928,46.238,19.406,35.913,20,27l36-1
			c0,0-2,34-15,35H19.419c4.75,3.157,10.449,5,16.581,5c16.568,0,30-13.432,30-30C66,19.432,52.568,6,36,6z"/>
		<path fill="#FDD05F" d="M56,26l-36,1c-0.594,8.913-5.072,19.238-8.609,26.15c2.16,3.093,4.884,5.76,8.028,7.85H41
			C54,60,56,26,56,26z"/>
		<path opacity="0.5" fill="#FF9300" d="M56,26l-36,1c-0.594,8.913-5.072,19.238-8.609,26.15c2.16,3.093,4.884,5.76,8.028,7.85H41
			C54,60,56,26,56,26z"/>
	</g>
	<path fill="#E33038" d="M56,24c0,0-3,33-16,34H6c0,0,12-19,13-34H56z"/>
	<path opacity="0.1" d="M18,31c0.451-2.034,0.87-5.051,1-7h37c0,0-0.263,2.896-0.972,6.999L18,31z"/>
	<rect x="31" y="22" opacity="0.5" fill="#FF9300" width="13.5" height="4.5"/>
	<text transform="matrix(1 0 0 1 18 44.3228)" fill="#FDD05F" font-family="'GothamRounded-Bold'" font-size="6">1,200,000</text>
</g>
</svg>
