<?xml version="1.0" encoding="utf-8"?>
<!-- Generator: Adobe Illustrator 17.0.0, SVG Export Plug-In . SVG Version: 6.00 Build 0)  -->
<!DOCTYPE svg PUBLIC "-//W3C//DTD SVG 1.1//EN" "http://www.w3.org/Graphics/SVG/1.1/DTD/svg11.dtd">
<svg version="1.1" id="Layer_1" xmlns="http://www.w3.org/2000/svg" xmlns:xlink="http://www.w3.org/1999/xlink" x="0px" y="0px"
	 width="72px" height="72px" viewBox="0 0 72 72" enable-background="new 0 0 72 72" xml:space="preserve">
<g>
	<path fill="#FFC95A" d="M16,5c0,1.657-1.344,3-3,3c-1.656,0-3-1.343-3-3c0-1.657,1.344-3,3-3C14.656,2,16,3.343,16,5"/>
	<path fill="#FFC95A" d="M16,67c0,1.657-1.344,3-3,3c-1.656,0-3-1.343-3-3c0-1.657,1.344-3,3-3C14.656,64,16,65.343,16,67"/>
	<path fill="#FFC95A" d="M62,67c0,1.657-1.344,3-3,3c-1.656,0-3-1.343-3-3c0-1.657,1.344-3,3-3C60.656,64,62,65.343,62,67"/>
	<rect x="10" y="5" fill="#FFC95A" width="6" height="62"/>
	<path fill="#FEE8AC" d="M61,5c0,1.657-1.344,3-3,3c-1.656,0-3-1.343-3-3c0-1.657,1.344-3,3-3C59.656,2,61,3.343,61,5"/>
	<rect x="56" y="5" fill="#FFC95A" width="6" height="62"/>
	<rect x="13" y="2" fill="#FFC95A" width="45" height="68"/>
	<g opacity="0.5">
		<g>
			<defs>
				<rect id="SVGID_145_" x="34" y="2" width="28" height="14"/>
			</defs>
			<clipPath id="SVGID_2_">
				<use xlink:href="#SVGID_145_"  overflow="visible"/>
			</clipPath>
			<polygon clip-path="url(#SVGID_2_)" fill="#FF9300" points="49,15 62,16 48,2 34,2 			"/>
		</g>
	</g>
	<path fill="#FDE5A3" d="M48,2v11c0,1.657,1.344,3,3,3h11L48,2z"/>
	<path fill="#FFFFFF" d="M62,16V5c0-1.657-1.344-3-3-3H48L62,16z"/>
	<circle fill="#E33038" cx="36" cy="31" r="13"/>
	<circle fill="#FDE5A3" cx="36" cy="27.5" r="3"/>
	<path fill="#FDE5A3" d="M30,36c0-3.314,2.686-6,6-6s6,2.686,6,6"/>
	<rect x="27" y="13" fill="#FDE5A3" width="18" height="7"/>
	<text transform="matrix(1 0 0 1 31 18)" fill="#E33038" font-family="'GothamRounded-Bold'" font-size="5">£50</text>
	
		<line fill="none" stroke="#FF9300" stroke-width="2" stroke-linecap="round" stroke-linejoin="round" stroke-miterlimit="10" x1="16" y1="53" x2="56" y2="53"/>
	
		<line fill="none" stroke="#FF9300" stroke-width="2" stroke-linecap="round" stroke-linejoin="round" stroke-miterlimit="10" x1="16" y1="59" x2="56" y2="59"/>
</g>
</svg>
