<?xml version="1.0" encoding="utf-8"?>
<!-- Generator: Adobe Illustrator 17.0.0, SVG Export Plug-In . SVG Version: 6.00 Build 0)  -->
<!DOCTYPE svg PUBLIC "-//W3C//DTD SVG 1.1//EN" "http://www.w3.org/Graphics/SVG/1.1/DTD/svg11.dtd">
<svg version="1.1" id="Layer_1" xmlns="http://www.w3.org/2000/svg" xmlns:xlink="http://www.w3.org/1999/xlink" x="0px" y="0px"
	 width="72px" height="72px" viewBox="0 0 72 72" enable-background="new 0 0 72 72" xml:space="preserve">
<g>
	<path fill="#FFC95A" d="M16,5c0,1.657-1.344,3-3,3c-1.656,0-3-1.343-3-3c0-1.657,1.344-3,3-3C14.656,2,16,3.343,16,5"/>
	<path fill="#FFC95A" d="M16,67c0,1.657-1.344,3-3,3c-1.656,0-3-1.343-3-3c0-1.657,1.344-3,3-3C14.656,64,16,65.343,16,67"/>
	<path fill="#FFC95A" d="M62,67c0,1.657-1.344,3-3,3c-1.656,0-3-1.343-3-3c0-1.657,1.344-3,3-3C60.656,64,62,65.343,62,67"/>
	<rect x="10" y="5" fill="#FFC95A" width="6" height="62"/>
	<path fill="#FEE8AC" d="M61,5c0,1.657-1.344,3-3,3c-1.656,0-3-1.343-3-3c0-1.657,1.344-3,3-3C59.656,2,61,3.343,61,5"/>
	<rect x="56" y="5" fill="#FFC95A" width="6" height="62"/>
	<rect x="13" y="2" fill="#FFC95A" width="45" height="68"/>
	<text transform="matrix(1 0 0 1 22.25 59)" fill="#E33038" font-family="'GothamRounded-Bold'" font-size="10">QUIZ</text>
	<g opacity="0.5">
		<g>
			<defs>
				<rect id="SVGID_137_" x="34" y="2" width="28" height="14"/>
			</defs>
			<clipPath id="SVGID_2_">
				<use xlink:href="#SVGID_137_"  overflow="visible"/>
			</clipPath>
			<polygon clip-path="url(#SVGID_2_)" fill="#FF9300" points="49,15 62,16 48,2 34,2 			"/>
		</g>
	</g>
	<path fill="#FDE5A3" d="M48,2v11c0,1.657,1.344,3,3,3h11L48,2z"/>
	<path fill="#FFFFFF" d="M62,16V5c0-1.657-1.344-3-3-3H48L62,16z"/>
	<circle fill="#E33038" cx="36" cy="31" r="13"/>
	<g>
		<path fill="#FDE5A3" d="M36.061,34.281c-0.686,0-1.182-0.52-1.277-1.159l-0.237-1.608c-0.118-0.78,0.331-1.324,1.088-1.419
			c2.058-0.26,3.003-0.899,3.003-2.057V27.99c0-1.064-0.804-1.679-2.176-1.679c-1.017,0-1.892,0.307-2.743,0.946
			c-0.284,0.213-0.662,0.379-1.064,0.379c-0.899,0-1.655-0.757-1.655-1.655c0-0.449,0.189-0.922,0.615-1.277
			C32.868,23.662,34.453,23,36.534,23c3.406,0,5.723,1.75,5.723,4.896v0.047c0,3.003-2.081,4.233-4.659,4.753l-0.071,0.426
			c-0.095,0.615-0.591,1.159-1.277,1.159H36.061z M36.061,35.841c1.183,0,2.058,0.875,2.058,2.01v0.047
			c0,1.135-0.875,2.01-2.058,2.01c-1.182,0-2.057-0.875-2.057-2.01v-0.047C34.003,36.717,34.878,35.841,36.061,35.841z"/>
	</g>
</g>
</svg>
