<?xml version="1.0" encoding="utf-8"?>
<!-- Generator: Adobe Illustrator 17.0.0, SVG Export Plug-In . SVG Version: 6.00 Build 0)  -->
<!DOCTYPE svg PUBLIC "-//W3C//DTD SVG 1.1//EN" "http://www.w3.org/Graphics/SVG/1.1/DTD/svg11.dtd">
<svg version="1.1" id="Layer_1" xmlns="http://www.w3.org/2000/svg" xmlns:xlink="http://www.w3.org/1999/xlink" x="0px" y="0px"
	 width="150px" height="150px" viewBox="0 0 150 150" enable-background="new 0 0 150 150" xml:space="preserve">
<g>
	<path fill="#FEECBA" d="M-75,0c-41.355,0-75,33.645-75,75s33.645,75,75,75S0,116.355,0,75S-33.645,0-75,0z"/>
</g>
<g>
	<path fill="#FEECBA" d="M75,0C33.645,0,0,33.645,0,75s33.645,75,75,75s75-33.645,75-75S116.355,0,75,0z"/>
	<path fill="#FED771" d="M8.496,83c1.721,14.391,8.084,28.333,19.128,39.376c26.165,26.165,68.587,26.165,94.752,0
		C133.42,111.333,139.783,97.391,141.504,83H8.496z"/>
	<path fill="#EA4848" d="M39.259,101.12c0-1.037,0.82-1.856,1.856-1.856h0.41c0.795,0,1.35,0.41,1.687,0.964l4.484,7.304
		l4.508-7.328c0.386-0.627,0.916-0.94,1.664-0.94h0.41c1.036,0,1.856,0.82,1.856,1.856v13.403c0,1.037-0.82,1.856-1.856,1.856
		c-1.012,0-1.832-0.844-1.832-1.856v-8.413l-3.255,5.014c-0.386,0.579-0.868,0.94-1.542,0.94c-0.675,0-1.158-0.362-1.544-0.94
		l-3.206-4.942v8.389c0,1.013-0.82,1.808-1.832,1.808c-1.012,0-1.808-0.795-1.808-1.808V101.12z"/>
	<path fill="#EA4848" d="M60.354,101.072c0-1.037,0.82-1.856,1.857-1.856c1.036,0,1.856,0.82,1.856,1.856v13.452
		c0,1.037-0.82,1.856-1.856,1.856c-1.037,0-1.857-0.82-1.857-1.856V101.072z"/>
	<path fill="#EA4848" d="M68.286,101.072c0-1.037,0.82-1.856,1.856-1.856c1.037,0,1.856,0.82,1.856,1.856v11.788h6.871
		c0.94,0,1.687,0.747,1.687,1.687s-0.747,1.687-1.687,1.687h-8.727c-1.036,0-1.856-0.82-1.856-1.856V101.072z"/>
	<path fill="#EA4848" d="M83.209,114.379v-13.162c0-1.037,0.82-1.856,1.857-1.856h9.353c0.917,0,1.664,0.748,1.664,1.664
		c0,0.916-0.748,1.639-1.664,1.639h-7.521v3.423h6.436c0.915,0,1.663,0.748,1.663,1.664s-0.748,1.639-1.663,1.639h-6.436v3.544
		h7.641c0.917,0,1.663,0.748,1.663,1.664c0,0.916-0.746,1.639-1.663,1.639h-9.473C84.028,116.235,83.209,115.416,83.209,114.379z"/>
	<path fill="#EA4848" d="M99.024,114.451c-0.409-0.29-0.699-0.82-0.699-1.398c0-0.964,0.771-1.712,1.736-1.712
		c0.481,0,0.82,0.169,1.059,0.338c1.279,0.94,2.677,1.519,4.316,1.519c1.519,0,2.435-0.603,2.435-1.591v-0.048
		c0-0.94-0.58-1.422-3.399-2.145c-3.399-0.868-5.593-1.808-5.593-5.159v-0.048c0-3.062,2.459-5.087,5.907-5.087
		c2.048,0,3.832,0.53,5.352,1.495c0.409,0.241,0.82,0.747,0.82,1.47c0,0.964-0.773,1.712-1.736,1.712
		c-0.362,0-0.65-0.096-0.94-0.265c-1.229-0.723-2.387-1.133-3.543-1.133c-1.423,0-2.17,0.651-2.17,1.47v0.049
		c0,1.109,0.724,1.47,3.64,2.218c3.423,0.892,5.352,2.122,5.352,5.063v0.048c0,3.351-2.554,5.231-6.195,5.231
		C103.147,116.476,100.905,115.801,99.024,114.451z"/>
	<path fill="#EA4848" d="M62.665,70.156c-3.195-3.195-5.123-7.594-5.123-16.093v-0.121c0-12.898,6.148-22.964,18.082-22.964
		c4.339,0,7.775,1.145,10.548,3.014c1.146,0.723,1.869,1.688,1.869,3.195c0,1.928-1.627,3.435-3.556,3.435
		c-0.664,0-1.327-0.241-1.869-0.542c-2.29-1.507-4.4-2.351-7.233-2.351c-6.268,0-9.764,5.666-10.125,13.381
		c2.23-2.17,5.123-4.219,10.125-4.219c8.137,0,14.707,4.822,14.707,13.26v0.121c0,8.378-6.811,14.345-15.671,14.345
		C69.235,74.616,65.498,72.989,62.665,70.156z M82.676,60.573v-0.121c0-4.219-3.376-7.353-8.619-7.353s-8.559,3.376-8.559,7.413
		v0.121c0,4.28,3.496,7.534,8.74,7.534S82.676,64.913,82.676,60.573z"/>
</g>
<g>
	<path fill="#FEECBA" d="M225,0c-41.355,0-75,33.645-75,75s33.645,75,75,75s75-33.645,75-75S266.355,0,225,0z"/>
</g>
</svg>
