<?xml version="1.0" encoding="utf-8"?>
<!-- Generator: Adobe Illustrator 17.0.0, SVG Export Plug-In . SVG Version: 6.00 Build 0)  -->
<!DOCTYPE svg PUBLIC "-//W3C//DTD SVG 1.1//EN" "http://www.w3.org/Graphics/SVG/1.1/DTD/svg11.dtd">
<svg version="1.1" id="Layer_1" xmlns="http://www.w3.org/2000/svg" xmlns:xlink="http://www.w3.org/1999/xlink" x="0px" y="0px"
	 width="150px" height="150px" viewBox="0 0 150 150" enable-background="new 0 0 150 150" xml:space="preserve">
<g>
	<path fill="#FEECBA" d="M-75,0c-41.355,0-75,33.645-75,75s33.645,75,75,75S0,116.355,0,75S-33.645,0-75,0z"/>
</g>
<g>
	<path fill="#FEECBA" d="M75,0C33.645,0,0,33.645,0,75s33.645,75,75,75s75-33.645,75-75S116.355,0,75,0z"/>
	<path fill="#FED771" d="M8.496,83c1.721,14.391,8.084,28.333,19.128,39.376c26.165,26.165,68.587,26.165,94.752,0
		C133.42,111.333,139.783,97.391,141.504,83H8.496z"/>
	<path fill="#EA4848" d="M39.259,101.12c0-1.037,0.82-1.856,1.856-1.856h0.41c0.795,0,1.35,0.41,1.687,0.964l4.484,7.304
		l4.508-7.328c0.386-0.627,0.916-0.94,1.664-0.94h0.41c1.036,0,1.856,0.82,1.856,1.856v13.403c0,1.037-0.82,1.856-1.856,1.856
		c-1.012,0-1.832-0.844-1.832-1.856v-8.413l-3.255,5.014c-0.386,0.579-0.868,0.94-1.542,0.94c-0.675,0-1.158-0.362-1.544-0.94
		l-3.206-4.942v8.389c0,1.013-0.82,1.808-1.832,1.808c-1.012,0-1.808-0.795-1.808-1.808V101.12z"/>
	<path fill="#EA4848" d="M60.354,101.072c0-1.037,0.82-1.856,1.857-1.856c1.036,0,1.856,0.82,1.856,1.856v13.452
		c0,1.037-0.82,1.856-1.856,1.856c-1.037,0-1.857-0.82-1.857-1.856V101.072z"/>
	<path fill="#EA4848" d="M68.286,101.072c0-1.037,0.82-1.856,1.856-1.856c1.037,0,1.856,0.82,1.856,1.856v11.788h6.871
		c0.94,0,1.687,0.747,1.687,1.687s-0.747,1.687-1.687,1.687h-8.727c-1.036,0-1.856-0.82-1.856-1.856V101.072z"/>
	<path fill="#EA4848" d="M83.209,114.379v-13.162c0-1.037,0.82-1.856,1.857-1.856h9.353c0.917,0,1.664,0.748,1.664,1.664
		c0,0.916-0.748,1.639-1.664,1.639h-7.521v3.423h6.436c0.915,0,1.663,0.748,1.663,1.664s-0.748,1.639-1.663,1.639h-6.436v3.544
		h7.641c0.917,0,1.663,0.748,1.663,1.664c0,0.916-0.746,1.639-1.663,1.639h-9.473C84.028,116.235,83.209,115.416,83.209,114.379z"/>
	<path fill="#EA4848" d="M99.024,114.451c-0.409-0.29-0.699-0.82-0.699-1.398c0-0.964,0.771-1.712,1.736-1.712
		c0.481,0,0.82,0.169,1.059,0.338c1.279,0.94,2.677,1.519,4.316,1.519c1.519,0,2.435-0.603,2.435-1.591v-0.048
		c0-0.94-0.58-1.422-3.399-2.145c-3.399-0.868-5.593-1.808-5.593-5.159v-0.048c0-3.062,2.459-5.087,5.907-5.087
		c2.048,0,3.832,0.53,5.352,1.495c0.409,0.241,0.82,0.747,0.82,1.47c0,0.964-0.773,1.712-1.736,1.712
		c-0.362,0-0.65-0.096-0.94-0.265c-1.229-0.723-2.387-1.133-3.543-1.133c-1.423,0-2.17,0.651-2.17,1.47v0.049
		c0,1.109,0.724,1.47,3.64,2.218c3.423,0.892,5.352,2.122,5.352,5.063v0.048c0,3.351-2.554,5.231-6.195,5.231
		C103.147,116.476,100.905,115.801,99.024,114.451z"/>
	<path fill="#EA4848" d="M59.711,69.132c-0.663-0.542-1.205-1.567-1.205-2.652c0-1.929,1.627-3.557,3.556-3.557
		c1.085,0,1.869,0.422,2.471,0.965c2.652,2.652,5.666,4.038,9.584,4.038c4.158,0,7.293-2.532,7.293-6.389v-0.121
		c0-4.158-3.797-6.509-9.704-6.509h-1.507c-1.748,0-3.195-1.447-3.195-3.195c0-0.965,0.422-1.869,1.567-3.014l9.885-10.548H63.147
		c-1.808,0-3.255-1.446-3.255-3.195c0-1.808,1.446-3.254,3.255-3.254h21.578c2.109,0,3.676,1.265,3.676,3.254
		c0,1.748-0.844,2.773-2.109,4.038l-9.945,10.307c6.388,0.784,12.416,4.038,12.416,11.814v0.12c0,7.775-5.968,13.381-14.767,13.381
		C67.788,74.616,63.147,72.447,59.711,69.132z"/>
</g>
<g>
	<path fill="#FEECBA" d="M225,0c-41.355,0-75,33.645-75,75s33.645,75,75,75s75-33.645,75-75S266.355,0,225,0z"/>
</g>
</svg>
