<?xml version="1.0" encoding="utf-8"?>
<!-- Generator: Adobe Illustrator 17.0.0, SVG Export Plug-In . SVG Version: 6.00 Build 0)  -->
<!DOCTYPE svg PUBLIC "-//W3C//DTD SVG 1.1//EN" "http://www.w3.org/Graphics/SVG/1.1/DTD/svg11.dtd">
<svg version="1.1" id="Layer_1" xmlns="http://www.w3.org/2000/svg" xmlns:xlink="http://www.w3.org/1999/xlink" x="0px" y="0px"
	 width="150px" height="150px" viewBox="0 0 150 150" enable-background="new 0 0 150 150" xml:space="preserve">
<g>
	<path fill="#FEECBA" d="M-75,0c-41.355,0-75,33.645-75,75s33.645,75,75,75S0,116.355,0,75S-33.645,0-75,0z"/>
</g>
<g>
	<path fill="#FEECBA" d="M75,0C33.645,0,0,33.645,0,75s33.645,75,75,75s75-33.645,75-75S116.355,0,75,0z"/>
	<path fill="#FED771" d="M8.496,83c1.721,14.391,8.084,28.333,19.128,39.376c26.165,26.165,68.587,26.165,94.752,0
		C133.42,111.333,139.783,97.391,141.504,83H8.496z"/>
	<path fill="#00617D" d="M42.359,114.452c-0.41-0.29-0.699-0.82-0.699-1.398c0-0.964,0.771-1.712,1.736-1.712
		c0.482,0,0.82,0.169,1.06,0.338c1.279,0.94,2.677,1.519,4.316,1.519c1.519,0,2.435-0.603,2.435-1.591v-0.048
		c0-0.94-0.579-1.422-3.399-2.145c-3.399-0.868-5.592-1.808-5.592-5.159v-0.048c0-3.062,2.459-5.087,5.906-5.087
		c2.049,0,3.833,0.53,5.352,1.495c0.41,0.241,0.82,0.747,0.82,1.47c0,0.964-0.772,1.712-1.736,1.712c-0.362,0-0.65-0.096-0.94-0.265
		c-1.229-0.723-2.387-1.133-3.543-1.133c-1.423,0-2.17,0.651-2.17,1.47v0.049c0,1.109,0.724,1.47,3.64,2.218
		c3.423,0.892,5.352,2.122,5.352,5.063v0.048c0,3.351-2.555,5.231-6.195,5.231C46.481,116.476,44.239,115.801,42.359,114.452z"/>
	<path fill="#00617D" d="M57.065,101.723c-0.072-0.217-0.144-0.482-0.144-0.699c0-1.037,0.868-1.808,1.904-1.808
		c0.868,0,1.567,0.554,1.808,1.326l3.351,10.342l3.376-10.246c0.288-0.868,0.94-1.47,1.881-1.47h0.288
		c0.94,0,1.591,0.579,1.881,1.47l3.376,10.246l3.351-10.342c0.241-0.723,0.868-1.326,1.783-1.326c1.012,0,1.832,0.771,1.832,1.784
		c0,0.217-0.072,0.506-0.144,0.723l-4.725,13.259c-0.337,0.94-1.037,1.519-1.929,1.519h-0.386c-0.892,0-1.567-0.554-1.904-1.519
		l-3.327-9.667l-3.327,9.667c-0.337,0.965-1.012,1.519-1.904,1.519h-0.386c-0.892,0-1.591-0.579-1.929-1.519L57.065,101.723z"/>
	<path fill="#00617D" d="M84.765,101.072c0-1.037,0.82-1.856,1.857-1.856c1.036,0,1.856,0.82,1.856,1.856v13.452
		c0,1.037-0.82,1.856-1.856,1.856c-1.037,0-1.857-0.82-1.857-1.856V101.072z"/>
	<path fill="#00617D" d="M92.698,101.12c0-1.037,0.82-1.856,1.856-1.856h0.411c0.796,0,1.349,0.41,1.688,0.964l4.484,7.304
		l4.507-7.328c0.387-0.627,0.917-0.94,1.664-0.94h0.409c1.037,0,1.857,0.82,1.857,1.856v13.403c0,1.037-0.82,1.856-1.857,1.856
		c-1.012,0-1.832-0.844-1.832-1.856v-8.413l-3.253,5.014c-0.386,0.579-0.868,0.94-1.544,0.94s-1.157-0.362-1.542-0.94l-3.206-4.942
		v8.389c0,1.013-0.82,1.808-1.832,1.808c-1.012,0-1.808-0.795-1.808-1.808V101.12z"/>
	<path fill="#00617D" d="M20.7,65.788c-0.512-0.362-0.874-1.025-0.874-1.748c0-1.205,0.965-2.139,2.17-2.139
		c0.603,0,1.025,0.211,1.326,0.422c1.597,1.175,3.345,1.898,5.394,1.898c1.898,0,3.043-0.753,3.043-1.989v-0.06
		c0-1.175-0.723-1.778-4.248-2.681c-4.249-1.085-6.991-2.26-6.991-6.448v-0.06c0-3.827,3.074-6.358,7.382-6.358
		c2.561,0,4.791,0.663,6.689,1.868c0.512,0.301,1.024,0.934,1.024,1.838c0,1.205-0.964,2.139-2.169,2.139
		c-0.452,0-0.814-0.12-1.176-0.331c-1.536-0.904-2.983-1.416-4.429-1.416c-1.778,0-2.712,0.813-2.712,1.838v0.06
		c0,1.386,0.904,1.838,4.55,2.772c4.279,1.115,6.689,2.652,6.689,6.328v0.06c0,4.188-3.194,6.539-7.744,6.539
		C25.852,68.319,23.05,67.476,20.7,65.788z"/>
	<path fill="#00617D" d="M40.62,49.065c0-1.296,1.025-2.32,2.321-2.32s2.321,1.025,2.321,2.32v16.813c0,1.296-1.025,2.32-2.321,2.32
		s-2.321-1.024-2.321-2.32V49.065z"/>
	<path fill="#00617D" d="M50.534,49.126c0-1.296,1.025-2.32,2.321-2.32h0.512c0.995,0,1.688,0.512,2.109,1.205l5.604,9.13
		l5.634-9.16c0.483-0.783,1.145-1.175,2.079-1.175h0.512c1.296,0,2.321,1.025,2.321,2.32v16.753c0,1.296-1.024,2.32-2.321,2.32
		c-1.265,0-2.29-1.054-2.29-2.32V55.363l-4.067,6.267c-0.483,0.723-1.085,1.175-1.929,1.175c-0.843,0-1.446-0.452-1.928-1.175
		l-4.008-6.177v10.485c0,1.266-1.024,2.26-2.29,2.26c-1.265,0-2.26-0.994-2.26-2.26V49.126z"/>
	<path fill="#00617D" d="M76.693,49.246c0-1.296,1.024-2.32,2.32-2.32h6.297c5.032,0,8.075,2.983,8.075,7.292v0.06
		c0,4.881-3.796,7.412-8.527,7.412h-3.526v4.188c0,1.296-1.024,2.32-2.32,2.32s-2.32-1.024-2.32-2.32V49.246z M85.008,57.563
		c2.321,0,3.676-1.386,3.676-3.194v-0.06c0-2.079-1.446-3.194-3.766-3.194h-3.586v6.448H85.008z"/>
	<path fill="#00617D" d="M96.823,49.065c0-1.296,1.024-2.32,2.321-2.32c1.295,0,2.321,1.025,2.321,2.32v14.734h8.586
		c1.176,0,2.11,0.934,2.11,2.109c0,1.175-0.934,2.109-2.11,2.109H99.143c-1.296,0-2.321-1.025-2.321-2.32V49.065z"/>
	<path fill="#00617D" d="M120.99,59.882l-6.809-9.25c-0.331-0.452-0.572-0.994-0.572-1.657c0-1.235,1.024-2.23,2.319-2.23
		c1.055,0,1.719,0.572,2.291,1.416l5.122,7.382l5.212-7.442c0.572-0.844,1.265-1.386,2.229-1.386c1.417,0,2.26,0.994,2.26,2.26
		c0,0.633-0.302,1.206-0.602,1.627l-6.81,9.19v6.086c0,1.296-1.024,2.32-2.321,2.32c-1.295,0-2.321-1.024-2.321-2.32V59.882z"/>
</g>
<g>
	<path fill="#FEECBA" d="M225,0c-41.355,0-75,33.645-75,75s33.645,75,75,75s75-33.645,75-75S266.355,0,225,0z"/>
</g>
</svg>
