<?xml version="1.0" encoding="utf-8"?>
<!-- Generator: Adobe Illustrator 17.0.0, SVG Export Plug-In . SVG Version: 6.00 Build 0)  -->
<!DOCTYPE svg PUBLIC "-//W3C//DTD SVG 1.1//EN" "http://www.w3.org/Graphics/SVG/1.1/DTD/svg11.dtd">
<svg version="1.1" id="Layer_1" xmlns="http://www.w3.org/2000/svg" xmlns:xlink="http://www.w3.org/1999/xlink" x="0px" y="0px"
	 width="150px" height="150px" viewBox="0 0 150 150" enable-background="new 0 0 150 150" xml:space="preserve">
<g>
	<path fill="#FEECBA" d="M75,0C33.645,0,0,33.645,0,75s33.645,75,75,75s75-33.645,75-75S116.355,0,75,0z"/>
	<path fill="#FED771" d="M8.496,83c1.721,14.391,8.084,28.333,19.128,39.376c26.165,26.165,68.587,26.165,94.752,0
		C133.42,111.333,139.783,97.391,141.504,83H8.496z"/>
	<path fill="#EA4848" d="M46.973,101.12c0-1.037,0.82-1.856,1.857-1.856h0.409c0.796,0,1.35,0.41,1.688,0.964l4.484,7.304
		l4.509-7.328c0.386-0.627,0.915-0.94,1.663-0.94h0.411c1.036,0,1.856,0.82,1.856,1.856v13.403c0,1.037-0.82,1.856-1.856,1.856
		c-1.013,0-1.833-0.844-1.833-1.856v-8.413l-3.254,5.014c-0.386,0.579-0.868,0.94-1.544,0.94c-0.674,0-1.157-0.362-1.542-0.94
		l-3.206-4.942v8.389c0,1.013-0.82,1.808-1.832,1.808c-1.012,0-1.808-0.795-1.808-1.808V101.12z"/>
	<path fill="#EA4848" d="M68.069,101.072c0-1.037,0.82-1.856,1.856-1.856s1.856,0.82,1.856,1.856v13.452
		c0,1.037-0.82,1.856-1.856,1.856s-1.856-0.82-1.856-1.856V101.072z"/>
	<path fill="#EA4848" d="M76.001,101.072c0-1.037,0.82-1.856,1.856-1.856c1.036,0,1.856,0.82,1.856,1.856v11.788h6.87
		c0.94,0,1.688,0.747,1.688,1.687s-0.748,1.687-1.688,1.687h-8.726c-1.037,0-1.856-0.82-1.856-1.856V101.072z"/>
	<path fill="#EA4848" d="M90.924,114.379v-13.162c0-1.037,0.82-1.856,1.856-1.856h9.354c0.915,0,1.663,0.748,1.663,1.664
		c0,0.916-0.748,1.639-1.663,1.639h-7.522v3.423h6.438c0.915,0,1.663,0.748,1.663,1.664s-0.748,1.639-1.663,1.639h-6.438v3.544
		h7.643c0.915,0,1.663,0.748,1.663,1.664c0,0.916-0.748,1.639-1.663,1.639h-9.475C91.743,116.235,90.924,115.416,90.924,114.379z"/>
	<path fill="#EA4848" d="M72.67,38.694l-4.339,1.326c-0.422,0.121-0.965,0.181-1.327,0.181c-1.747,0-3.254-1.446-3.254-3.134
		c0-1.567,0.964-2.773,2.471-3.195l6.389-2.049c1.446-0.422,2.532-0.664,3.616-0.664h0.121c2.11,0,3.677,1.627,3.677,3.677v35.681
		c0,2.05-1.627,3.677-3.677,3.677c-1.989,0-3.676-1.627-3.676-3.677V38.694z"/>
</g>
<g>
	<path fill="#FEECBA" d="M225,0c-41.355,0-75,33.645-75,75s33.645,75,75,75s75-33.645,75-75S266.355,0,225,0z"/>
</g>
</svg>
