<?xml version="1.0" encoding="utf-8"?>
<!-- Generator: Adobe Illustrator 17.0.0, SVG Export Plug-In . SVG Version: 6.00 Build 0)  -->
<!DOCTYPE svg PUBLIC "-//W3C//DTD SVG 1.1//EN" "http://www.w3.org/Graphics/SVG/1.1/DTD/svg11.dtd">
<svg version="1.1" id="Layer_1" xmlns="http://www.w3.org/2000/svg" xmlns:xlink="http://www.w3.org/1999/xlink" x="0px" y="0px"
	 width="72px" height="72px" viewBox="0 0 72 72" enable-background="new 0 0 72 72" xml:space="preserve">
<g>
	<g>
		
			<rect x="16.907" y="4.824" transform="matrix(0.7071 -0.7071 0.7071 0.7071 -12.7832 21.787)" fill="#E33038" width="6.001" height="43"/>
		<g opacity="0.2">
			<g>
				<defs>
					<rect id="SVGID_189_" x="2.583" y="11.122" width="32.527" height="32.526"/>
				</defs>
				<clipPath id="SVGID_2_">
					<use xlink:href="#SVGID_189_"  overflow="visible"/>
				</clipPath>
				
					<rect x="17.347" y="5.885" transform="matrix(0.7071 -0.7071 0.7071 0.7071 -13.8438 21.3477)" clip-path="url(#SVGID_2_)" width="3.001" height="43"/>
			</g>
		</g>
		<polygon fill="#FFC95A" points="37.232,39.406 32.989,43.649 36.383,44.497 38.081,42.8 		"/>
		<g opacity="0.5">
			<g>
				<defs>
					<rect id="SVGID_191_" x="32.988" y="41.527" width="4.243" height="2.97"/>
				</defs>
				<clipPath id="SVGID_4_">
					<use xlink:href="#SVGID_191_"  overflow="visible"/>
				</clipPath>
				<polygon clip-path="url(#SVGID_4_)" fill="#FF9300" points="35.111,41.527 32.989,43.649 36.383,44.497 37.232,43.649 				"/>
			</g>
		</g>
		<polygon fill="#E33038" points="38.08,42.8 36.383,44.497 38.645,45.063 		"/>
		<path fill="#FFC95A" d="M3.997,9c0.781,0.781,0.781,2.047,0,2.829c-0.781,0.78-2.047,0.781-2.828,0
			c-0.781-0.782-0.781-2.048,0-2.829C1.95,8.219,3.216,8.219,3.997,9"/>
		<path fill="#FFC95A" d="M5.411,7.586c0.781,0.781,0.781,2.047,0,2.829c-0.78,0.78-2.048,0.78-2.828-0.001
			c-0.78-0.78-0.781-2.047,0-2.828C3.364,6.805,4.631,6.805,5.411,7.586"/>
		<rect x="1.584" y="8" transform="matrix(0.7071 -0.7071 0.7071 0.7071 -5.6072 4.4627)" fill="#FFC95A" width="2" height="2"/>
		<rect x="0.998" y="9.415" transform="matrix(0.707 -0.7072 0.7072 0.707 -6.1938 5.8782)" fill="#FFC95A" width="6" height="2"/>
		<g opacity="0.5">
			<g>
				<defs>
					<rect id="SVGID_193_" x="0.583" y="8.293" width="4.121" height="4.95"/>
				</defs>
				<clipPath id="SVGID_6_">
					<use xlink:href="#SVGID_193_"  overflow="visible"/>
				</clipPath>
				<path clip-path="url(#SVGID_6_)" fill="#FF9300" d="M1.876,8.293L1.169,9c-0.781,0.781-0.781,2.047,0,2.829l1.414,1.414
					l2.121-2.121"/>
			</g>
		</g>
	</g>
	<path fill="none" stroke="#D8182B" stroke-linecap="round" stroke-linejoin="round" stroke-miterlimit="10" d="M38.583,45.155
		c2.542,1.669,4.555,2.03,7.217,0.136c3.519-2.503,8.204-4.71,12.473-2.187c4.954,2.929,3.355,8.47,3.059,13.17
		c-0.377,5.995,3.507,10.966,10.084,7.677"/>
</g>
</svg>
