<?xml version="1.0" encoding="utf-8"?>
<!-- Generator: Adobe Illustrator 17.0.0, SVG Export Plug-In . SVG Version: 6.00 Build 0)  -->
<!DOCTYPE svg PUBLIC "-//W3C//DTD SVG 1.1//EN" "http://www.w3.org/Graphics/SVG/1.1/DTD/svg11.dtd">
<svg version="1.1" id="Layer_1" xmlns="http://www.w3.org/2000/svg" xmlns:xlink="http://www.w3.org/1999/xlink" x="0px" y="0px"
	 width="72px" height="72px" viewBox="0 0 72 72" enable-background="new 0 0 72 72" xml:space="preserve">
<g>
	<path fill="#FFC95A" d="M16,5c0,1.657-1.344,3-3,3c-1.656,0-3-1.343-3-3c0-1.657,1.344-3,3-3C14.656,2,16,3.343,16,5"/>
	<path fill="#FFC95A" d="M16,67c0,1.657-1.344,3-3,3c-1.656,0-3-1.343-3-3c0-1.657,1.344-3,3-3C14.656,64,16,65.343,16,67"/>
	<path fill="#FFC95A" d="M62,67c0,1.657-1.344,3-3,3c-1.656,0-3-1.343-3-3c0-1.657,1.344-3,3-3C60.656,64,62,65.343,62,67"/>
	<rect x="10" y="5" fill="#FFC95A" width="6" height="62"/>
	<path fill="#FEE8AC" d="M61,5c0,1.657-1.344,3-3,3c-1.656,0-3-1.343-3-3c0-1.657,1.344-3,3-3C59.656,2,61,3.343,61,5"/>
	<rect x="56" y="5" fill="#FFC95A" width="6" height="62"/>
	<rect x="13" y="2" fill="#FFC95A" width="45" height="68"/>
	<g opacity="0.5">
		<g>
			<defs>
				<rect id="SVGID_207_" x="34" y="2" width="28" height="14"/>
			</defs>
			<clipPath id="SVGID_2_">
				<use xlink:href="#SVGID_207_"  overflow="visible"/>
			</clipPath>
			<polygon clip-path="url(#SVGID_2_)" fill="#FF9300" points="49,15 62,16 48,2 34,2 			"/>
		</g>
	</g>
	<path fill="#FDE5A3" d="M48,2v11c0,1.657,1.344,3,3,3h11L48,2z"/>
	<path fill="#FFFFFF" d="M62,16V5c0-1.657-1.344-3-3-3H48L62,16z"/>
	<path fill="#FFC95A" d="M16,5c0,1.657-1.344,3-3,3c-1.656,0-3-1.343-3-3c0-1.657,1.344-3,3-3C14.656,2,16,3.343,16,5"/>
	<path fill="#FFC95A" d="M16,67c0,1.657-1.344,3-3,3c-1.656,0-3-1.343-3-3c0-1.657,1.344-3,3-3C14.656,64,16,65.343,16,67"/>
	<path fill="#FFC95A" d="M62,67c0,1.657-1.344,3-3,3c-1.656,0-3-1.343-3-3c0-1.657,1.344-3,3-3C60.656,64,62,65.343,62,67"/>
	<rect x="10" y="5" fill="#FFC95A" width="6" height="62"/>
	<path fill="#FEE8AC" d="M61,5c0,1.657-1.344,3-3,3c-1.656,0-3-1.343-3-3c0-1.657,1.344-3,3-3C59.656,2,61,3.343,61,5"/>
	<g opacity="0.5">
		<g>
			<defs>
				<rect id="SVGID_209_" x="34" y="2" width="28" height="14"/>
			</defs>
			<clipPath id="SVGID_4_">
				<use xlink:href="#SVGID_209_"  overflow="visible"/>
			</clipPath>
			<polygon clip-path="url(#SVGID_4_)" fill="#FF9300" points="49,15 62,16 48,2 34,2 			"/>
		</g>
	</g>
	<path fill="#FDE5A3" d="M48,2v11c0,1.657,1.344,3,3,3h11L48,2z"/>
	<path fill="#FFFFFF" d="M62,16V5c0-1.657-1.344-3-3-3H48L62,16z"/>
	<path fill="none" stroke="#FF9300" stroke-miterlimit="10" d="M25.767,19.089c-0.08-0.426-0.403-0.749-0.829-0.829v-0.038h-6.071
		v0.038c-0.426,0.08-0.748,0.403-0.829,0.829H18v6.938h0.038c0.08,0.426,0.403,0.749,0.829,0.829v0.038h6.071v-0.038
		c0.426-0.08,0.748-0.403,0.829-0.829h0.038v-6.938H25.767z"/>
	<g>
		<path fill="#E33038" d="M24.274,20.103c-0.297-0.198-0.699-0.117-0.897,0.18l-2.209,3.312l-0.747-0.56
			c-0.286-0.214-0.691-0.156-0.905,0.13c-0.215,0.286-0.157,0.691,0.129,0.906l1.294,0.97c0.004,0.003,0.008,0.003,0.011,0.006
			c0.007,0.004,0.011,0.01,0.018,0.015c0.033,0.022,0.07,0.035,0.106,0.05c0.02,0.009,0.039,0.021,0.059,0.028
			c0.063,0.02,0.128,0.031,0.193,0.031c0.051,0,0.101-0.006,0.15-0.018c0.016-0.004,0.031-0.012,0.046-0.016
			c0.033-0.011,0.065-0.021,0.095-0.036c0.019-0.009,0.035-0.022,0.052-0.034c0.026-0.016,0.052-0.032,0.076-0.052
			c0.016-0.015,0.031-0.033,0.046-0.049c0.018-0.018,0.036-0.033,0.051-0.053c0.004-0.005,0.007-0.012,0.011-0.018
			c0.003-0.004,0.007-0.007,0.01-0.011L24.453,21C24.651,20.703,24.57,20.301,24.274,20.103"/>
	</g>
	<path fill="none" stroke="#FF9300" stroke-miterlimit="10" d="M25.767,30.173c-0.08-0.426-0.403-0.749-0.829-0.829v-0.038h-6.071
		v0.038c-0.426,0.08-0.748,0.403-0.829,0.829H18v6.938h0.038c0.08,0.426,0.403,0.749,0.829,0.829v0.038h6.071V37.94
		c0.426-0.08,0.748-0.403,0.829-0.829h0.038v-6.938H25.767z"/>
	<g>
		<path fill="#E33038" d="M24.274,30.853c-0.297-0.198-0.699-0.117-0.897,0.18l-2.209,3.312l-0.747-0.56
			c-0.286-0.214-0.691-0.156-0.905,0.13c-0.215,0.286-0.157,0.691,0.129,0.906l1.294,0.97c0.004,0.003,0.008,0.003,0.011,0.006
			c0.007,0.004,0.011,0.01,0.018,0.015c0.033,0.022,0.07,0.035,0.106,0.05c0.02,0.009,0.039,0.021,0.059,0.028
			c0.063,0.02,0.128,0.031,0.193,0.031c0.051,0,0.101-0.006,0.15-0.018c0.016-0.004,0.031-0.012,0.046-0.016
			c0.033-0.011,0.065-0.021,0.095-0.036c0.019-0.009,0.035-0.022,0.052-0.034c0.026-0.016,0.052-0.032,0.076-0.052
			c0.016-0.015,0.031-0.033,0.046-0.049c0.018-0.018,0.036-0.033,0.051-0.053c0.004-0.005,0.007-0.012,0.011-0.018
			c0.003-0.004,0.007-0.007,0.01-0.011l2.588-3.882C24.651,31.453,24.57,31.051,24.274,30.853"/>
	</g>
	<g>
		<path fill="#E33038" d="M24.274,42.108c-0.297-0.198-0.699-0.117-0.897,0.18L21.168,45.6l-0.747-0.56
			c-0.286-0.214-0.691-0.156-0.905,0.13c-0.215,0.286-0.157,0.691,0.129,0.906l1.294,0.97c0.004,0.003,0.008,0.003,0.011,0.006
			c0.007,0.004,0.011,0.01,0.018,0.015c0.033,0.022,0.07,0.035,0.106,0.05c0.02,0.009,0.039,0.021,0.059,0.028
			c0.063,0.02,0.128,0.031,0.193,0.031c0.051,0,0.101-0.006,0.15-0.018c0.016-0.004,0.031-0.012,0.046-0.016
			c0.033-0.011,0.065-0.021,0.095-0.036c0.019-0.009,0.035-0.022,0.052-0.034c0.026-0.016,0.052-0.032,0.076-0.052
			c0.016-0.015,0.031-0.033,0.046-0.049c0.018-0.018,0.036-0.033,0.051-0.053c0.004-0.005,0.007-0.012,0.011-0.018
			c0.003-0.004,0.007-0.007,0.01-0.011l2.588-3.882C24.651,42.708,24.57,42.307,24.274,42.108"/>
	</g>
	<path fill="none" stroke="#FF9300" stroke-miterlimit="10" d="M25.767,41.256c-0.08-0.426-0.403-0.749-0.829-0.829v-0.038h-6.071
		v0.038c-0.426,0.08-0.748,0.403-0.829,0.829H18v6.938h0.038c0.08,0.426,0.403,0.749,0.829,0.829v0.038h6.071v-0.038
		c0.426-0.08,0.748-0.403,0.829-0.829h0.038v-6.938H25.767z"/>
	<path fill="none" stroke="#FF9300" stroke-miterlimit="10" d="M25.767,52.339c-0.08-0.426-0.403-0.749-0.829-0.829v-0.038h-6.071
		v0.038c-0.426,0.08-0.748,0.403-0.829,0.829H18v6.938h0.038c0.08,0.426,0.403,0.749,0.829,0.829v0.038h6.071v-0.038
		c0.426-0.08,0.748-0.403,0.829-0.829h0.038v-6.938H25.767z"/>
	<g>
		<path fill="#FF9300" d="M31,22.083c0,0.553-0.447,1-1,1c-0.553,0-1-0.447-1-1c0-0.553,0.447-1,1-1
			C30.553,21.083,31,21.53,31,22.083"/>
		<path fill="#FF9300" d="M53,22.083c0,0.553-0.447,1-1,1c-0.553,0-1-0.447-1-1c0-0.553,0.447-1,1-1
			C52.553,21.083,53,21.53,53,22.083"/>
		<rect x="30" y="21.083" fill="#FF9300" width="22" height="2"/>
	</g>
	<g>
		<path fill="#FF9300" d="M31,33.417c0,0.553-0.447,1-1,1c-0.553,0-1-0.447-1-1c0-0.553,0.447-1,1-1
			C30.553,32.417,31,32.863,31,33.417"/>
		<path fill="#FF9300" d="M53,33.417c0,0.553-0.447,1-1,1c-0.553,0-1-0.447-1-1c0-0.553,0.447-1,1-1
			C52.553,32.417,53,32.863,53,33.417"/>
		<rect x="30" y="32.417" fill="#FF9300" width="22" height="2"/>
	</g>
	<g>
		<path fill="#FF9300" d="M31,44.75c0,0.553-0.447,1-1,1c-0.553,0-1-0.447-1-1c0-0.553,0.447-1,1-1C30.553,43.75,31,44.197,31,44.75
			"/>
		<path fill="#FF9300" d="M53,44.75c0,0.553-0.447,1-1,1c-0.553,0-1-0.447-1-1c0-0.553,0.447-1,1-1C52.553,43.75,53,44.197,53,44.75
			"/>
		<rect x="30" y="43.75" fill="#FF9300" width="22" height="2"/>
	</g>
	<g>
		<path fill="#FF9300" d="M31,56.083c0,0.553-0.447,1-1,1c-0.553,0-1-0.447-1-1c0-0.553,0.447-1,1-1
			C30.553,55.083,31,55.53,31,56.083"/>
		<path fill="#FF9300" d="M53,56.083c0,0.553-0.447,1-1,1c-0.553,0-1-0.447-1-1c0-0.553,0.447-1,1-1
			C52.553,55.083,53,55.53,53,56.083"/>
		<rect x="30" y="55.083" fill="#FF9300" width="22" height="2"/>
	</g>
</g>
<g>
	
		<rect x="47.738" y="13.824" transform="matrix(0.7071 0.7071 -0.7071 0.7071 39.839 -25.5313)" fill="#E33038" width="6.001" height="43"/>
	<g opacity="0.2">
		<g>
			<defs>
				<rect id="SVGID_211_" x="33.415" y="18" width="32.526" height="32.527"/>
			</defs>
			<clipPath id="SVGID_6_">
				<use xlink:href="#SVGID_211_"  overflow="visible"/>
			</clipPath>
			
				<rect x="48.177" y="12.764" transform="matrix(0.7071 0.7071 -0.7071 0.7071 38.7785 -25.0919)" clip-path="url(#SVGID_6_)" width="3.001" height="43"/>
		</g>
	</g>
	<polygon fill="#FFC95A" points="37.657,52.648 33.414,48.405 32.566,51.799 34.263,53.497 	"/>
	<g opacity="0.5">
		<g>
			<defs>
				<rect id="SVGID_213_" x="32.566" y="48.405" width="2.97" height="4.243"/>
			</defs>
			<clipPath id="SVGID_8_">
				<use xlink:href="#SVGID_213_"  overflow="visible"/>
			</clipPath>
			<polygon clip-path="url(#SVGID_8_)" fill="#FF9300" points="35.536,50.527 33.414,48.405 32.566,51.799 33.414,52.648 			"/>
		</g>
	</g>
	<polygon fill="#E33038" points="34.263,53.497 32.566,51.8 32,54.062 	"/>
	<path fill="#FFC95A" d="M68.063,19.414c-0.781,0.781-2.047,0.781-2.829,0c-0.78-0.781-0.781-2.047,0-2.828
		c0.782-0.781,2.048-0.781,2.829,0C68.844,17.367,68.844,18.633,68.063,19.414"/>
	<path fill="#FFC95A" d="M69.477,20.828c-0.781,0.781-2.047,0.781-2.829,0c-0.78-0.78-0.78-2.048,0.001-2.828
		c0.78-0.78,2.047-0.781,2.828,0C70.258,18.781,70.258,20.048,69.477,20.828"/>
	<rect x="67.063" y="17" transform="matrix(0.7071 0.7071 -0.7071 0.7071 32.6631 -42.8556)" fill="#FFC95A" width="2" height="2"/>
	
		<rect x="63.648" y="18.414" transform="matrix(0.7072 0.707 -0.707 0.7072 33.2413 -41.4371)" fill="#FFC95A" width="6" height="2"/>
	<g opacity="0.5">
		<g>
			<defs>
				<rect id="SVGID_215_" x="63.82" y="16" width="4.95" height="4.121"/>
			</defs>
			<clipPath id="SVGID_10_">
				<use xlink:href="#SVGID_215_"  overflow="visible"/>
			</clipPath>
			<path clip-path="url(#SVGID_10_)" fill="#FF9300" d="M68.77,17.293l-0.707-0.707c-0.781-0.781-2.047-0.781-2.829,0L63.82,18
				l2.121,2.121"/>
		</g>
	</g>
</g>
</svg>
