<?xml version="1.0" encoding="utf-8"?>
<!-- Generator: Adobe Illustrator 17.0.0, SVG Export Plug-In . SVG Version: 6.00 Build 0)  -->
<!DOCTYPE svg PUBLIC "-//W3C//DTD SVG 1.1//EN" "http://www.w3.org/Graphics/SVG/1.1/DTD/svg11.dtd">
<svg version="1.1" id="Layer_1" xmlns="http://www.w3.org/2000/svg" xmlns:xlink="http://www.w3.org/1999/xlink" x="0px" y="0px"
	 width="72px" height="72px" viewBox="0 0 72 72" enable-background="new 0 0 72 72" xml:space="preserve">
<g>
	<rect x="11" y="19" fill="#FF9300" width="2" height="1"/>
	<g>
		<path fill="#FFC95A" d="M61,6H16v60h45c1.657,0,3-1.343,3-3V9C64,7.343,62.657,6,61,6z"/>
		<rect x="13" y="63" fill="#FFC95A" width="3" height="3"/>
	</g>
	<path fill="#FFC95A" d="M10,20v43c0,1.657,1.343,3,3,3s3-1.343,3-3V20H10z"/>
	<path opacity="0.5" fill="#FF9300" d="M10,20v43.107C10,64.705,11.343,66,13,66s3-1.295,3-2.893V20H10z"/>
	<line fill="none" x1="23" y1="57" x2="58" y2="57"/>
	<path fill="#D8182B" d="M59,11H22c-0.552,0-1,0.448-1,1v8c0,0.552,0.448,1,1,1h37c0.552,0,1-0.448,1-1v-8
		C60,11.448,59.552,11,59,11z"/>
	<path fill="#FF9300" d="M39,27H22c-0.552,0-1,0.448-1,1v12c0,0.552,0.448,1,1,1h17c0.552,0,1-0.448,1-1V28
		C40,27.448,39.552,27,39,27z"/>
	
		<line fill="none" stroke="#FF9300" stroke-width="2" stroke-linecap="round" stroke-linejoin="round" stroke-miterlimit="10" x1="44" y1="28" x2="59" y2="28"/>
	
		<line fill="none" stroke="#FF9300" stroke-width="2" stroke-linecap="round" stroke-linejoin="round" stroke-miterlimit="10" x1="44" y1="34" x2="59" y2="34"/>
	
		<line fill="none" stroke="#FF9300" stroke-width="2" stroke-linecap="round" stroke-linejoin="round" stroke-miterlimit="10" x1="44" y1="40" x2="59" y2="40"/>
	
		<line fill="none" stroke="#FF9300" stroke-width="2" stroke-linecap="round" stroke-linejoin="round" stroke-miterlimit="10" x1="22" y1="46" x2="59" y2="46"/>
	
		<line fill="none" stroke="#FF9300" stroke-width="2" stroke-linecap="round" stroke-linejoin="round" stroke-miterlimit="10" x1="22" y1="52" x2="59" y2="52"/>
	
		<line fill="none" stroke="#FF9300" stroke-width="2" stroke-linecap="round" stroke-linejoin="round" stroke-miterlimit="10" x1="22" y1="58" x2="59" y2="58"/>
	<rect x="15" y="6" fill="#FFC95A" width="1" height="1"/>
	<path fill="#FFC95A" d="M15,6c-0.552,0-1,0.448-1,1v13h2V7C16,6.448,15.552,6,15,6z"/>
	<path opacity="0.5" fill="#FF9300" d="M15,6c-0.552,0-1,0.448-1,1v13h2V7C16,6.448,15.552,6,15,6z"/>
	<path fill="#FFC95A" d="M11,19c-0.552,0-1,0.448-1,1v9h2v-9C12,19.448,11.552,19,11,19z"/>
	<path opacity="0.5" fill="#FF9300" d="M11,19c-0.552,0-1,0.448-1,1v9h2v-9C12,19.448,11.552,19,11,19z"/>
	<circle fill="#FF9300" cx="13" cy="63" r="1"/>
	<rect x="12" y="19" fill="#FF9300" width="2" height="44"/>
</g>
</svg>
