<?xml version="1.0" encoding="utf-8"?>
<!-- Generator: Adobe Illustrator 17.0.0, SVG Export Plug-In . SVG Version: 6.00 Build 0)  -->
<!DOCTYPE svg PUBLIC "-//W3C//DTD SVG 1.1//EN" "http://www.w3.org/Graphics/SVG/1.1/DTD/svg11.dtd">
<svg version="1.1" id="Layer_1" xmlns="http://www.w3.org/2000/svg" xmlns:xlink="http://www.w3.org/1999/xlink" x="0px" y="0px"
	 width="72px" height="72px" viewBox="0 0 72 72" enable-background="new 0 0 72 72" xml:space="preserve">
<g>
	<g>
		<path fill="#FEE8AC" d="M14,3c0,1.657-1.344,3-3,3C9.344,6,8,4.657,8,3c0-1.657,1.344-3,3-3C12.656,0,14,1.343,14,3"/>
		<path fill="#FEE8AC" d="M14,65c0,1.657-1.344,3-3,3c-1.656,0-3-1.343-3-3c0-1.657,1.344-3,3-3C12.656,62,14,63.343,14,65"/>
		<path fill="#FEE8AC" d="M60,65c0,1.657-1.344,3-3,3c-1.656,0-3-1.343-3-3c0-1.657,1.344-3,3-3C58.656,62,60,63.343,60,65"/>
		<rect x="8" y="3" fill="#FEE8AC" width="6" height="62"/>
		<path fill="#FEE8AC" d="M59,3c0,1.657-1.344,3-3,3c-1.656,0-3-1.343-3-3c0-1.657,1.344-3,3-3C57.656,0,59,1.343,59,3"/>
		<rect x="54" y="3" fill="#FEE8AC" width="6" height="62"/>
		<rect x="11" fill="#FEE8AC" width="46" height="68"/>
		<g opacity="0.3">
			<g>
				<defs>
					<rect id="SVGID_141_" x="32" width="28" height="14"/>
				</defs>
				<clipPath id="SVGID_2_">
					<use xlink:href="#SVGID_141_"  overflow="visible"/>
				</clipPath>
				<polygon clip-path="url(#SVGID_2_)" fill="#FF9300" points="47,13 60,14 46,0 32,0 				"/>
			</g>
		</g>
		<path fill="#FDE5A3" d="M46,0v11c0,1.657,1.344,3,3,3h11L46,0z"/>
		<path fill="#FFFFFF" d="M60,14V3c0-1.657-1.344-3-3-3H46L60,14z"/>
		<g>
			<circle fill="#E33038" cx="34" cy="37" r="19"/>
			<g>
				<path fill="#FDE5A3" d="M45.793,36.919c-0.043-0.001-0.081-0.021-0.116-0.063c-0.034-0.041-0.051-0.088-0.051-0.141
					c-0.018-1.666-0.108-3.334-0.269-5.021c-0.47-0.066-0.941-0.127-1.413-0.185c-0.048-0.006-0.087-0.03-0.12-0.076
					c-0.035-0.047-0.055-0.101-0.06-0.164c-0.035-0.42-0.073-0.84-0.115-1.261c-0.006-0.057,0.004-0.104,0.03-0.142
					c0.027-0.039,0.061-0.053,0.108-0.046c1.541,0.238,3.076,0.532,4.601,0.883c0.047,0.011,0.088,0.039,0.126,0.085
					c0.039,0.046,0.062,0.093,0.07,0.144c0.063,0.377,0.121,0.751,0.173,1.123c0.008,0.056-0.002,0.098-0.029,0.131
					c-0.026,0.032-0.063,0.043-0.11,0.034c-0.464-0.084-0.929-0.165-1.396-0.241c0.188,1.612,0.292,3.194,0.313,4.771
					c0.001,0.051-0.014,0.095-0.045,0.134c-0.031,0.038-0.069,0.056-0.117,0.055C46.848,36.93,46.321,36.925,45.793,36.919z"/>
				<path fill="#FDE5A3" d="M24.555,36.896c-0.045,0.001-0.084-0.021-0.12-0.064c-0.035-0.043-0.052-0.09-0.052-0.146
					c0.019-2.235,0.138-4.473,0.356-6.728c0.005-0.057,0.026-0.108,0.062-0.156c0.037-0.049,0.076-0.075,0.118-0.081
					c0.597-0.086,1.195-0.163,1.794-0.232c0.481-0.055,0.908-0.056,1.27-0.003c0.357,0.052,0.655,0.167,0.888,0.34
					c0.229,0.171,0.402,0.406,0.513,0.7c0.112,0.295,0.161,0.663,0.148,1.091c-0.026,0.852-0.258,1.495-0.697,1.908
					c-0.429,0.403-1.042,0.61-1.874,0.647l-0.085,0.003c-0.186,0.008-0.373,0.017-0.559,0.026c-0.026,0.821-0.041,1.643-0.047,2.464
					c-0.001,0.059-0.018,0.109-0.052,0.153c-0.034,0.045-0.075,0.067-0.123,0.067C25.582,36.888,25.068,36.892,24.555,36.896z
					 M26.379,32.633c0.238-0.017,0.477-0.033,0.716-0.048c0.266-0.018,0.818-0.049,0.85-0.827c0.035-0.779-0.51-0.736-0.773-0.714
					c-0.236,0.02-0.472,0.041-0.708,0.063C26.431,31.616,26.403,32.125,26.379,32.633z"/>
				<path fill="#FDE5A3" d="M42.222,36.886c-0.027,0-0.053-0.012-0.079-0.036c-0.029-0.026-0.051-0.057-0.066-0.092
					c-0.305-0.759-0.618-1.529-0.938-2.307c-0.001,0-0.002,0.001-0.002,0.002c-0.019-0.032-0.038-0.063-0.059-0.095
					c-0.027-0.039-0.054-0.071-0.082-0.094c-0.057-0.062-0.381-0.085-0.567-0.092c-0.106-0.004-0.212-0.008-0.318-0.012
					c0.02,0.83,0.032,1.66,0.036,2.49c0.001,0.06-0.015,0.111-0.048,0.156c-0.032,0.045-0.07,0.067-0.117,0.067
					c-0.523-0.003-1.046-0.005-1.57-0.007c-0.042,0-0.078-0.023-0.111-0.069c-0.033-0.046-0.049-0.098-0.05-0.16
					c-0.008-2.41-0.06-4.819-0.155-7.209c-0.002-0.061,0.011-0.112,0.041-0.155c0.03-0.044,0.064-0.064,0.104-0.061
					c1.003,0.066,2.006,0.156,3.006,0.269c0.569,0.065,1.044,0.304,1.417,0.695c0.397,0.421,0.627,0.938,0.67,1.542
					c0.049,0.684-0.076,1.167-0.366,1.448c-0.073,0.074-0.159,0.143-0.257,0.205c-0.098,0.063-0.208,0.119-0.329,0.167
					c-0.036,0.014-0.072,0.028-0.108,0.043c0.035,0.027,0.07,0.053,0.105,0.08c0.149,0.114,0.278,0.236,0.384,0.363
					c0.107,0.128,0.198,0.256,0.269,0.38c0.344,0.738,0.681,1.463,1.008,2.174c0.038,0.084,0.043,0.156,0.012,0.224
					c-0.03,0.068-0.077,0.099-0.147,0.099C43.345,36.895,42.783,36.89,42.222,36.886z M40.063,32.531
					c0.273,0.015,0.546,0.032,0.819,0.049c0.265,0.016,0.821,0.054,0.778-0.707c-0.044-0.762-0.592-0.813-0.854-0.834
					c-0.27-0.023-0.54-0.044-0.811-0.064C40.021,31.493,40.044,32.012,40.063,32.531z"/>
				<path fill="#FDE5A3" d="M25.686,45.196c-0.042-0.006-0.081-0.031-0.118-0.079c-0.037-0.048-0.057-0.098-0.062-0.155
					c-0.202-2.248-0.314-4.485-0.338-6.72c-0.001-0.057,0.016-0.105,0.049-0.147c0.034-0.043,0.072-0.064,0.116-0.063
					c1.388,0.017,2.781,0.03,4.177,0.039c0.045,0,0.082,0.022,0.118,0.069c0.034,0.045,0.051,0.097,0.051,0.157
					c0.002,0.458,0.006,0.917,0.011,1.375c0.001,0.066-0.015,0.12-0.048,0.165c-0.034,0.046-0.071,0.067-0.116,0.066
					c-0.804-0.018-1.607-0.041-2.409-0.068c0.008,0.348,0.017,0.697,0.028,1.045c0.697,0.034,1.395,0.062,2.094,0.086
					c0.045,0.002,0.083,0.025,0.118,0.072c0.035,0.046,0.052,0.098,0.053,0.158c0.009,0.423,0.02,0.846,0.032,1.268
					c0.002,0.066-0.013,0.119-0.045,0.164c-0.037,0.05-0.074,0.073-0.113,0.071c-0.692-0.034-1.384-0.076-2.074-0.124
					c0.016,0.348,0.033,0.696,0.052,1.045c0.85,0.072,1.701,0.13,2.553,0.174c0.048,0.002,0.088,0.026,0.12,0.072
					c0.033,0.047,0.049,0.102,0.052,0.17c0.015,0.456,0.032,0.912,0.051,1.367c0.002,0.06-0.01,0.111-0.04,0.155
					c-0.029,0.042-0.065,0.061-0.113,0.058C28.482,45.522,27.082,45.383,25.686,45.196z"/>
				<path fill="#FDE5A3" d="M38.921,45.562c-0.043,0.003-0.078-0.016-0.109-0.058c-0.031-0.042-0.044-0.092-0.041-0.151
					c0.111-2.343,0.173-4.7,0.186-7.06c0-0.06,0.017-0.111,0.051-0.156c0.034-0.046,0.072-0.069,0.117-0.069
					c1.395-0.01,2.787-0.024,4.174-0.043c0.045,0,0.082,0.02,0.117,0.063c0.033,0.041,0.049,0.089,0.049,0.145
					c-0.005,0.428-0.014,0.856-0.025,1.283c-0.001,0.062-0.019,0.113-0.054,0.157c-0.036,0.045-0.074,0.067-0.118,0.069
					c-0.8,0.037-1.601,0.069-2.403,0.096c-0.007,0.349-0.016,0.698-0.027,1.047c0.698-0.034,1.394-0.072,2.089-0.116
					c0.044-0.003,0.081,0.016,0.113,0.057c0.032,0.041,0.046,0.087,0.044,0.144c-0.018,0.399-0.038,0.799-0.061,1.198
					c-0.004,0.062-0.023,0.115-0.059,0.162c-0.041,0.052-0.08,0.079-0.119,0.083c-0.689,0.063-1.379,0.119-2.069,0.167
					c-0.016,0.349-0.033,0.698-0.051,1.046c0.85-0.071,1.699-0.155,2.546-0.253c0.048-0.005,0.084,0.011,0.112,0.049
					c0.028,0.039,0.039,0.088,0.034,0.152c-0.035,0.428-0.073,0.857-0.115,1.286c-0.006,0.057-0.025,0.107-0.061,0.156
					c-0.034,0.046-0.074,0.072-0.12,0.078C41.723,45.297,40.324,45.453,38.921,45.562z"/>
				<path fill="#FDE5A3" d="M30.941,45.675c-0.048-0.002-0.088-0.026-0.122-0.073c-0.035-0.047-0.053-0.099-0.054-0.159
					c-0.078-2.365-0.122-4.751-0.131-7.139c0-0.062,0.015-0.114,0.048-0.158c0.031-0.046,0.071-0.068,0.12-0.067
					c0.533,0.002,1.067,0.004,1.6,0.005c0.045,0,0.085,0.023,0.122,0.072c0.036,0.046,0.054,0.097,0.054,0.157
					c0.003,1.865,0.015,3.728,0.036,5.578c0.852,0.015,1.705,0.016,2.557,0.004c0.045,0,0.084,0.02,0.12,0.064
					c0.034,0.042,0.051,0.094,0.05,0.16c-0.005,0.465-0.01,0.93-0.016,1.394c0,0.059-0.018,0.111-0.051,0.158
					c-0.034,0.046-0.071,0.069-0.113,0.07C33.753,45.766,32.346,45.744,30.941,45.675z"/>
				<path fill="#FDE5A3" d="M36.17,45.714c-0.037,0.001-0.065-0.018-0.091-0.06c-0.027-0.045-0.039-0.098-0.038-0.16
					c0.047-2.376,0.073-4.778,0.078-7.183c0-0.064,0.014-0.117,0.043-0.164c0.027-0.044,0.058-0.065,0.096-0.065
					c0.538-0.002,1.076-0.004,1.614-0.007c0.039,0,0.069,0.02,0.096,0.063c0.029,0.047,0.043,0.1,0.043,0.162
					c-0.011,2.378-0.061,4.755-0.15,7.112c-0.002,0.061-0.018,0.114-0.048,0.163c-0.027,0.044-0.057,0.065-0.094,0.068
					C37.204,45.673,36.687,45.697,36.17,45.714z"/>
				<path fill="#FDE5A3" d="M44.197,44.923c-0.045,0.007-0.08-0.007-0.107-0.044c-0.027-0.037-0.037-0.082-0.031-0.137
					c0.235-2.194,0.366-4.363,0.394-6.528c0-0.055,0.017-0.102,0.05-0.144c0.033-0.043,0.072-0.064,0.12-0.065
					c1.397-0.021,2.79-0.047,4.173-0.076c0.047-0.001,0.082,0.016,0.112,0.051c0.03,0.036,0.044,0.077,0.043,0.126
					c-0.008,0.367-0.021,0.735-0.04,1.104c-0.003,0.054-0.019,0.099-0.052,0.138c-0.032,0.039-0.069,0.059-0.115,0.063
					c-0.83,0.062-1.663,0.119-2.498,0.17c-0.013,0.314-0.029,0.628-0.048,0.942c0.611-0.053,1.221-0.11,1.828-0.172
					c0.042-0.004,0.077,0.01,0.107,0.042c0.025,0.028,0.034,0.067,0.029,0.129c-0.028,0.358-0.061,0.716-0.098,1.076
					c-0.006,0.05-0.025,0.095-0.061,0.138c-0.035,0.043-0.073,0.066-0.115,0.073c-0.6,0.088-1.201,0.17-1.805,0.247
					c-0.069,0.79-0.156,1.584-0.26,2.384c-0.007,0.054-0.027,0.103-0.062,0.15c-0.034,0.045-0.072,0.071-0.116,0.08
					C45.164,44.759,44.681,44.844,44.197,44.923z"/>
				<path fill="#FDE5A3" d="M23.324,44.835c-0.025-0.004-0.05-0.019-0.077-0.046c-0.029-0.029-0.053-0.061-0.069-0.096
					c-0.361-0.758-0.715-1.503-1.06-2.231c0,0-0.001,0.001-0.002,0.001c-0.02-0.03-0.04-0.06-0.061-0.091
					c-0.027-0.037-0.054-0.068-0.082-0.091c-0.057-0.06-0.36-0.109-0.535-0.133c-0.099-0.014-0.199-0.027-0.298-0.041
					c0.072,0.719,0.16,1.444,0.264,2.175c0.007,0.053,0,0.095-0.025,0.129c-0.024,0.034-0.056,0.046-0.098,0.037
					c-0.475-0.098-0.948-0.201-1.421-0.31c-0.038-0.009-0.074-0.035-0.11-0.08c-0.036-0.045-0.058-0.091-0.067-0.143
					c-0.335-1.993-0.523-3.907-0.563-5.809c-0.001-0.049,0.013-0.09,0.044-0.125c0.03-0.037,0.064-0.053,0.104-0.053
					c0.982,0.021,1.967,0.04,2.957,0.057c0.562,0.009,1.021,0.181,1.366,0.52c0.367,0.365,0.56,0.854,0.582,1.443
					c0.024,0.666-0.099,1.145-0.374,1.411c-0.069,0.07-0.151,0.135-0.243,0.192c-0.091,0.058-0.195,0.108-0.309,0.148
					c-0.034,0.012-0.067,0.024-0.101,0.036c0.034,0.026,0.067,0.053,0.101,0.079c0.144,0.113,0.27,0.234,0.374,0.359
					c0.105,0.127,0.195,0.255,0.267,0.378c0.353,0.729,0.711,1.47,1.074,2.221c0.043,0.089,0.053,0.161,0.031,0.227
					c-0.022,0.065-0.062,0.09-0.126,0.081C24.353,45.006,23.838,44.924,23.324,44.835z M21.022,40.715
					c0.26,0.027,0.519,0.052,0.78,0.076c0.254,0.024,0.778,0.073,0.743-0.641c-0.033-0.713-0.56-0.74-0.816-0.754
					c-0.261-0.015-0.523-0.03-0.785-0.046C20.963,39.803,20.99,40.258,21.022,40.715z"/>
				<path fill="#FDE5A3" d="M21.315,37.032c-0.206,0.002-0.414-0.007-0.62-0.024c-0.204-0.018-0.41-0.045-0.612-0.08
					c-0.046-0.01-0.089-0.018-0.125-0.023c-0.033-0.004-0.068-0.012-0.104-0.022c-0.021-0.006-0.042-0.012-0.063-0.018
					c0,0.004,0,0.01,0,0.014c-0.107-0.02-0.204-0.04-0.29-0.06c-0.098-0.023-0.172-0.039-0.225-0.048
					c-0.03-0.007-0.058-0.027-0.084-0.06c-0.026-0.033-0.04-0.067-0.043-0.104c-0.028-0.487-0.047-0.972-0.055-1.458
					c-0.003-0.081,0.021-0.138,0.074-0.182c0.028-0.023,0.057-0.036,0.087-0.039c0.026-0.002,0.054,0.003,0.082,0.017
					c0.182,0.09,0.42,0.168,0.722,0.273c0.074,0.026,0.148,0.052,0.222,0.078c0.378,0.126,0.76,0.18,1.167,0.158
					c0.223-0.012,0.399-0.054,0.54-0.129c0.159-0.085,0.238-0.275,0.244-0.416c0.003-0.08-0.032-0.227-0.122-0.299
					c-0.126-0.091-0.401-0.171-0.84-0.239c-0.005-0.001-0.01-0.002-0.015-0.003c-0.777-0.125-1.335-0.199-1.612-0.459
					c-0.302-0.277-0.423-0.693-0.352-1.26c0.084-0.663,0.366-1.218,0.814-1.654c0.455-0.44,1.048-0.752,1.766-0.894
					c0.316-0.062,0.651-0.085,1-0.065c0.168,0.011,0.316,0.025,0.443,0.039c0.128,0.016,0.23,0.033,0.311,0.056
					c0.029,0.005,0.05,0.024,0.07,0.059c0.019,0.035,0.029,0.071,0.029,0.107c-0.011,0.528-0.014,1.056-0.011,1.585
					c0,0.092-0.026,0.162-0.081,0.218c-0.029,0.029-0.057,0.045-0.086,0.048c-0.025,0.003-0.052-0.004-0.08-0.021
					c-0.14-0.075-0.288-0.142-0.441-0.2c-0.153-0.058-0.315-0.109-0.481-0.151c-0.337-0.077-0.647-0.092-0.924-0.048
					c-0.213,0.033-0.383,0.082-0.506,0.143c-0.141,0.07-0.23,0.234-0.243,0.36c-0.013,0.117,0.043,0.262,0.172,0.302
					c0.105,0.031,0.233,0.064,0.381,0.098c0.149,0.034,0.33,0.062,0.539,0.083c0.761,0.097,1.245,0.192,1.491,0.511
					c0.282,0.346,0.412,0.827,0.389,1.417c-0.015,0.385-0.082,0.731-0.202,1.026c-0.12,0.295-0.289,0.545-0.501,0.744
					c-0.214,0.2-0.477,0.354-0.783,0.458C22.05,36.976,21.699,37.029,21.315,37.032z"/>
				<ellipse fill="#FDE5A3" cx="33.775" cy="32.964" rx="3.865" ry="3.976"/>
			</g>
		</g>
	</g>
	<g>
		<path fill="#FFC95A" d="M18,7c0,1.657-1.344,3-3,3c-1.656,0-3-1.343-3-3c0-1.657,1.344-3,3-3C16.656,4,18,5.343,18,7"/>
		<path fill="#FFC95A" d="M18,69c0,1.657-1.344,3-3,3c-1.656,0-3-1.343-3-3c0-1.657,1.344-3,3-3C16.656,66,18,67.343,18,69"/>
		<path fill="#FFC95A" d="M64,69c0,1.657-1.344,3-3,3c-1.656,0-3-1.343-3-3c0-1.657,1.344-3,3-3C62.656,66,64,67.343,64,69"/>
		<rect x="12" y="7" fill="#FFC95A" width="6" height="62"/>
		<path fill="#FEE8AC" d="M63,7c0,1.657-1.344,3-3,3c-1.656,0-3-1.343-3-3c0-1.657,1.344-3,3-3C61.656,4,63,5.343,63,7"/>
		<rect x="58" y="7" fill="#FFC95A" width="6" height="62"/>
		<rect x="15" y="4" fill="#FFC95A" width="46" height="68"/>
		<g opacity="0.5">
			<g>
				<defs>
					<rect id="SVGID_143_" x="36" y="4" width="28" height="14"/>
				</defs>
				<clipPath id="SVGID_4_">
					<use xlink:href="#SVGID_143_"  overflow="visible"/>
				</clipPath>
				<polygon clip-path="url(#SVGID_4_)" fill="#FF9300" points="51,17 64,18 50,4 36,4 				"/>
			</g>
		</g>
		<path fill="#FDE5A3" d="M50,4v11c0,1.657,1.344,3,3,3h11L50,4z"/>
		<path fill="#FFFFFF" d="M64,18V7c0-1.657-1.344-3-3-3H50L64,18z"/>
		<g>
			<circle fill="#E33038" cx="38" cy="41" r="19"/>
			<g>
				<path fill="#FDE5A3" d="M49.793,40.919c-0.043-0.001-0.081-0.021-0.116-0.063c-0.034-0.041-0.051-0.088-0.051-0.141
					c-0.018-1.666-0.108-3.334-0.269-5.021c-0.47-0.066-0.941-0.127-1.413-0.185c-0.048-0.006-0.087-0.03-0.12-0.076
					c-0.035-0.047-0.055-0.101-0.06-0.164c-0.035-0.42-0.073-0.84-0.115-1.261c-0.006-0.057,0.004-0.104,0.03-0.142
					c0.027-0.039,0.061-0.053,0.108-0.046c1.541,0.238,3.076,0.532,4.601,0.883c0.047,0.011,0.088,0.039,0.126,0.085
					c0.039,0.046,0.062,0.093,0.07,0.144c0.063,0.377,0.121,0.751,0.173,1.123c0.008,0.056-0.002,0.098-0.029,0.131
					c-0.026,0.032-0.063,0.043-0.11,0.034c-0.464-0.084-0.929-0.165-1.396-0.241c0.188,1.612,0.292,3.194,0.313,4.771
					c0.001,0.051-0.014,0.095-0.045,0.134c-0.031,0.038-0.069,0.056-0.117,0.055C50.848,40.93,50.321,40.925,49.793,40.919z"/>
				<path fill="#FDE5A3" d="M28.555,40.896c-0.045,0.001-0.084-0.021-0.12-0.064c-0.035-0.043-0.052-0.09-0.052-0.146
					c0.019-2.235,0.138-4.473,0.356-6.728c0.005-0.057,0.026-0.108,0.062-0.156c0.037-0.049,0.076-0.075,0.118-0.081
					c0.597-0.086,1.195-0.163,1.794-0.232c0.481-0.055,0.908-0.056,1.27-0.003c0.357,0.052,0.655,0.167,0.888,0.34
					c0.229,0.171,0.402,0.406,0.513,0.7c0.112,0.295,0.161,0.663,0.148,1.091c-0.026,0.852-0.258,1.495-0.697,1.908
					c-0.429,0.403-1.042,0.61-1.874,0.647l-0.085,0.003c-0.186,0.008-0.373,0.017-0.559,0.026c-0.026,0.821-0.041,1.643-0.047,2.464
					c-0.001,0.059-0.018,0.109-0.052,0.153c-0.034,0.045-0.075,0.067-0.123,0.067C29.582,40.888,29.068,40.892,28.555,40.896z
					 M30.379,36.633c0.238-0.017,0.477-0.033,0.716-0.048c0.266-0.018,0.818-0.049,0.85-0.827c0.035-0.779-0.51-0.736-0.773-0.714
					c-0.236,0.02-0.472,0.041-0.708,0.063C30.431,35.616,30.403,36.125,30.379,36.633z"/>
				<path fill="#FDE5A3" d="M46.222,40.886c-0.027,0-0.053-0.012-0.079-0.036c-0.029-0.026-0.051-0.057-0.066-0.092
					c-0.305-0.759-0.618-1.529-0.938-2.307c-0.001,0-0.002,0.001-0.002,0.002c-0.019-0.032-0.038-0.063-0.059-0.095
					c-0.027-0.039-0.054-0.071-0.082-0.094c-0.057-0.062-0.381-0.085-0.567-0.092c-0.106-0.004-0.212-0.008-0.318-0.012
					c0.02,0.83,0.032,1.66,0.036,2.49c0.001,0.06-0.015,0.111-0.048,0.156c-0.032,0.045-0.07,0.067-0.117,0.067
					c-0.523-0.003-1.046-0.005-1.57-0.007c-0.042,0-0.078-0.023-0.111-0.069c-0.033-0.046-0.049-0.098-0.05-0.16
					c-0.008-2.41-0.06-4.819-0.155-7.209c-0.002-0.061,0.011-0.112,0.041-0.155c0.03-0.044,0.064-0.064,0.104-0.061
					c1.003,0.066,2.006,0.156,3.006,0.269c0.569,0.065,1.044,0.304,1.417,0.695c0.397,0.421,0.627,0.938,0.67,1.542
					c0.049,0.684-0.076,1.167-0.366,1.448c-0.073,0.074-0.159,0.143-0.257,0.205c-0.098,0.063-0.208,0.119-0.329,0.167
					c-0.036,0.014-0.072,0.028-0.108,0.043c0.035,0.027,0.07,0.053,0.105,0.08c0.149,0.114,0.278,0.236,0.384,0.363
					c0.107,0.128,0.198,0.256,0.269,0.38c0.344,0.738,0.681,1.463,1.008,2.174c0.038,0.084,0.043,0.156,0.012,0.224
					c-0.03,0.068-0.077,0.099-0.147,0.099C47.345,40.895,46.783,40.89,46.222,40.886z M44.063,36.531
					c0.273,0.015,0.546,0.032,0.819,0.049c0.265,0.016,0.821,0.054,0.778-0.707c-0.044-0.762-0.592-0.813-0.854-0.834
					c-0.27-0.023-0.54-0.044-0.811-0.064C44.021,35.493,44.044,36.012,44.063,36.531z"/>
				<path fill="#FDE5A3" d="M29.686,49.196c-0.042-0.006-0.081-0.031-0.118-0.079c-0.037-0.048-0.057-0.098-0.062-0.155
					c-0.202-2.248-0.314-4.485-0.338-6.72c-0.001-0.057,0.016-0.105,0.049-0.147c0.034-0.043,0.072-0.064,0.116-0.063
					c1.388,0.017,2.781,0.03,4.177,0.039c0.045,0,0.082,0.022,0.118,0.069c0.034,0.045,0.051,0.097,0.051,0.157
					c0.002,0.458,0.006,0.917,0.011,1.375c0.001,0.066-0.015,0.12-0.048,0.165c-0.034,0.046-0.071,0.067-0.116,0.066
					c-0.804-0.018-1.607-0.041-2.409-0.068c0.008,0.348,0.017,0.697,0.028,1.045c0.697,0.034,1.395,0.062,2.094,0.086
					c0.045,0.002,0.083,0.025,0.118,0.072c0.035,0.046,0.052,0.098,0.053,0.158c0.009,0.423,0.02,0.846,0.032,1.268
					c0.002,0.066-0.013,0.119-0.045,0.164c-0.037,0.05-0.074,0.073-0.113,0.071c-0.692-0.034-1.384-0.076-2.074-0.124
					c0.016,0.348,0.033,0.696,0.052,1.045c0.85,0.072,1.701,0.13,2.553,0.174c0.048,0.002,0.088,0.026,0.12,0.072
					c0.033,0.047,0.049,0.102,0.052,0.17c0.015,0.456,0.032,0.912,0.051,1.367c0.002,0.06-0.01,0.111-0.04,0.155
					c-0.029,0.042-0.065,0.061-0.113,0.058C32.482,49.522,31.082,49.383,29.686,49.196z"/>
				<path fill="#FDE5A3" d="M42.921,49.562c-0.043,0.003-0.078-0.016-0.109-0.058c-0.031-0.042-0.044-0.092-0.041-0.151
					c0.111-2.343,0.173-4.7,0.186-7.06c0-0.06,0.017-0.111,0.051-0.156c0.034-0.046,0.072-0.069,0.117-0.069
					c1.395-0.01,2.787-0.024,4.174-0.043c0.045,0,0.082,0.02,0.117,0.063c0.033,0.041,0.049,0.089,0.049,0.145
					c-0.005,0.428-0.014,0.856-0.025,1.283c-0.001,0.062-0.019,0.113-0.054,0.157c-0.036,0.045-0.074,0.067-0.118,0.069
					c-0.8,0.037-1.601,0.069-2.403,0.096c-0.007,0.349-0.016,0.698-0.027,1.047c0.698-0.034,1.394-0.072,2.089-0.116
					c0.044-0.003,0.081,0.016,0.113,0.057c0.032,0.041,0.046,0.087,0.044,0.144c-0.018,0.399-0.038,0.799-0.061,1.198
					c-0.004,0.062-0.023,0.115-0.059,0.162c-0.041,0.052-0.08,0.079-0.119,0.083c-0.689,0.063-1.379,0.119-2.069,0.167
					c-0.016,0.349-0.033,0.698-0.051,1.046c0.85-0.071,1.699-0.155,2.546-0.253c0.048-0.005,0.084,0.011,0.112,0.049
					c0.028,0.039,0.039,0.088,0.034,0.152c-0.035,0.428-0.073,0.857-0.115,1.286c-0.006,0.057-0.025,0.107-0.061,0.156
					c-0.034,0.046-0.074,0.072-0.12,0.078C45.723,49.297,44.324,49.453,42.921,49.562z"/>
				<path fill="#FDE5A3" d="M34.941,49.675c-0.048-0.002-0.088-0.026-0.122-0.073c-0.035-0.047-0.053-0.099-0.054-0.159
					c-0.078-2.365-0.122-4.751-0.131-7.139c0-0.062,0.015-0.114,0.048-0.158c0.031-0.046,0.071-0.068,0.12-0.067
					c0.533,0.002,1.067,0.004,1.6,0.005c0.045,0,0.085,0.023,0.122,0.072c0.036,0.046,0.054,0.097,0.054,0.157
					c0.003,1.865,0.015,3.728,0.036,5.578c0.852,0.015,1.705,0.016,2.557,0.004c0.045,0,0.084,0.02,0.12,0.064
					c0.034,0.042,0.051,0.094,0.05,0.16c-0.005,0.465-0.01,0.93-0.016,1.394c0,0.059-0.018,0.111-0.051,0.158
					c-0.034,0.046-0.071,0.069-0.113,0.07C37.753,49.766,36.346,49.744,34.941,49.675z"/>
				<path fill="#FDE5A3" d="M40.17,49.714c-0.037,0.001-0.065-0.018-0.091-0.06c-0.027-0.045-0.039-0.098-0.038-0.16
					c0.047-2.376,0.073-4.778,0.078-7.183c0-0.064,0.014-0.117,0.043-0.164c0.027-0.044,0.058-0.065,0.096-0.065
					c0.538-0.002,1.076-0.004,1.614-0.007c0.039,0,0.069,0.02,0.096,0.063c0.029,0.047,0.043,0.1,0.043,0.162
					c-0.011,2.378-0.061,4.755-0.15,7.112c-0.002,0.061-0.018,0.114-0.048,0.163c-0.027,0.044-0.057,0.065-0.094,0.068
					C41.204,49.673,40.687,49.697,40.17,49.714z"/>
				<path fill="#FDE5A3" d="M48.197,48.923c-0.045,0.007-0.08-0.007-0.107-0.044c-0.027-0.037-0.037-0.082-0.031-0.137
					c0.235-2.194,0.366-4.363,0.394-6.528c0-0.055,0.017-0.102,0.05-0.144c0.033-0.043,0.072-0.064,0.12-0.065
					c1.397-0.021,2.79-0.047,4.173-0.076c0.047-0.001,0.082,0.016,0.112,0.051c0.03,0.036,0.044,0.077,0.043,0.126
					c-0.008,0.367-0.021,0.735-0.04,1.104c-0.003,0.054-0.019,0.099-0.052,0.138c-0.032,0.039-0.069,0.059-0.115,0.063
					c-0.83,0.062-1.663,0.119-2.498,0.17c-0.013,0.314-0.029,0.628-0.048,0.942c0.611-0.053,1.221-0.11,1.828-0.172
					c0.042-0.004,0.077,0.01,0.107,0.042c0.025,0.028,0.034,0.067,0.029,0.129c-0.028,0.358-0.061,0.716-0.098,1.076
					c-0.006,0.05-0.025,0.095-0.061,0.138c-0.035,0.043-0.073,0.066-0.115,0.073c-0.6,0.088-1.201,0.17-1.805,0.247
					c-0.069,0.79-0.156,1.584-0.26,2.384c-0.007,0.054-0.027,0.103-0.062,0.15c-0.034,0.045-0.072,0.071-0.116,0.08
					C49.164,48.759,48.681,48.844,48.197,48.923z"/>
				<path fill="#FDE5A3" d="M27.324,48.835c-0.025-0.004-0.05-0.019-0.077-0.046c-0.029-0.029-0.053-0.061-0.069-0.096
					c-0.361-0.758-0.715-1.503-1.06-2.231c0,0-0.001,0.001-0.002,0.001c-0.02-0.03-0.04-0.06-0.061-0.091
					c-0.027-0.037-0.054-0.068-0.082-0.091c-0.057-0.06-0.36-0.109-0.535-0.133c-0.099-0.014-0.199-0.027-0.298-0.041
					c0.072,0.719,0.16,1.444,0.264,2.175c0.007,0.053,0,0.095-0.025,0.129c-0.024,0.034-0.056,0.046-0.098,0.037
					c-0.475-0.098-0.948-0.201-1.421-0.31c-0.038-0.009-0.074-0.035-0.11-0.08c-0.036-0.045-0.058-0.091-0.067-0.143
					c-0.335-1.993-0.523-3.907-0.563-5.809c-0.001-0.049,0.013-0.09,0.044-0.125c0.03-0.037,0.064-0.053,0.104-0.053
					c0.982,0.021,1.967,0.04,2.957,0.057c0.562,0.009,1.021,0.181,1.366,0.52c0.367,0.365,0.56,0.854,0.582,1.443
					c0.024,0.666-0.099,1.145-0.374,1.411c-0.069,0.07-0.151,0.135-0.243,0.192c-0.091,0.058-0.195,0.108-0.309,0.148
					c-0.034,0.012-0.067,0.024-0.101,0.036c0.034,0.026,0.067,0.053,0.101,0.079c0.144,0.113,0.27,0.234,0.374,0.359
					c0.105,0.127,0.195,0.255,0.267,0.378c0.353,0.729,0.711,1.47,1.074,2.221c0.043,0.089,0.053,0.161,0.031,0.227
					c-0.022,0.065-0.062,0.09-0.126,0.081C28.353,49.006,27.838,48.924,27.324,48.835z M25.022,44.715
					c0.26,0.027,0.519,0.052,0.78,0.076c0.254,0.024,0.778,0.073,0.743-0.641c-0.033-0.713-0.56-0.74-0.816-0.754
					c-0.261-0.015-0.523-0.03-0.785-0.046C24.963,43.803,24.99,44.258,25.022,44.715z"/>
				<path fill="#FDE5A3" d="M25.315,41.032c-0.206,0.002-0.414-0.007-0.62-0.024c-0.204-0.018-0.41-0.045-0.612-0.08
					c-0.046-0.01-0.089-0.018-0.125-0.023c-0.033-0.004-0.068-0.012-0.104-0.022c-0.021-0.006-0.042-0.012-0.063-0.018
					c0,0.004,0,0.01,0,0.014c-0.107-0.02-0.204-0.04-0.29-0.06c-0.098-0.023-0.172-0.039-0.225-0.048
					c-0.03-0.007-0.058-0.027-0.084-0.06c-0.026-0.033-0.04-0.067-0.043-0.104c-0.028-0.487-0.047-0.972-0.055-1.458
					c-0.003-0.081,0.021-0.138,0.074-0.182c0.028-0.023,0.057-0.036,0.087-0.039c0.026-0.002,0.054,0.003,0.082,0.017
					c0.182,0.09,0.42,0.168,0.722,0.273c0.074,0.026,0.148,0.052,0.222,0.078c0.378,0.126,0.76,0.18,1.167,0.158
					c0.223-0.012,0.399-0.054,0.54-0.129c0.159-0.085,0.238-0.275,0.244-0.416c0.003-0.08-0.032-0.227-0.122-0.299
					c-0.126-0.091-0.401-0.171-0.84-0.239c-0.005-0.001-0.01-0.002-0.015-0.003c-0.777-0.125-1.335-0.199-1.612-0.459
					c-0.302-0.277-0.423-0.693-0.352-1.26c0.084-0.663,0.366-1.218,0.814-1.654c0.455-0.44,1.048-0.752,1.766-0.894
					c0.316-0.062,0.651-0.085,1-0.065c0.168,0.011,0.316,0.025,0.443,0.039c0.128,0.016,0.23,0.033,0.311,0.056
					c0.029,0.005,0.05,0.024,0.07,0.059c0.019,0.035,0.029,0.071,0.029,0.107c-0.011,0.528-0.014,1.056-0.011,1.585
					c0,0.092-0.026,0.162-0.081,0.218c-0.029,0.029-0.057,0.045-0.086,0.048c-0.025,0.003-0.052-0.004-0.08-0.021
					c-0.14-0.075-0.288-0.142-0.441-0.2c-0.153-0.058-0.315-0.109-0.481-0.151c-0.337-0.077-0.647-0.092-0.924-0.048
					c-0.213,0.033-0.383,0.082-0.506,0.143c-0.141,0.07-0.23,0.234-0.243,0.36c-0.013,0.117,0.043,0.262,0.172,0.302
					c0.105,0.031,0.233,0.064,0.381,0.098c0.149,0.034,0.33,0.062,0.539,0.083c0.761,0.097,1.245,0.192,1.491,0.511
					c0.282,0.346,0.412,0.827,0.389,1.417c-0.015,0.385-0.082,0.731-0.202,1.026c-0.12,0.295-0.289,0.545-0.501,0.744
					c-0.214,0.2-0.477,0.354-0.783,0.458C26.05,40.976,25.699,41.029,25.315,41.032z"/>
				<ellipse fill="#FDE5A3" cx="37.775" cy="36.964" rx="3.865" ry="3.976"/>
			</g>
		</g>
	</g>
</g>
</svg>
