<?xml version="1.0" encoding="utf-8"?>
<!-- Generator: Adobe Illustrator 17.0.0, SVG Export Plug-In . SVG Version: 6.00 Build 0)  -->
<!DOCTYPE svg PUBLIC "-//W3C//DTD SVG 1.1//EN" "http://www.w3.org/Graphics/SVG/1.1/DTD/svg11.dtd">
<svg version="1.1" id="Layer_1" xmlns="http://www.w3.org/2000/svg" xmlns:xlink="http://www.w3.org/1999/xlink" x="0px" y="0px"
	 width="72px" height="72px" viewBox="0 0 72 72" enable-background="new 0 0 72 72" xml:space="preserve">
<g>
	<path fill="#FFC95A" d="M19,4c0,1.657-1.344,3-3,3c-1.656,0-3-1.343-3-3c0-1.657,1.344-3,3-3C17.656,1,19,2.343,19,4"/>
	<path fill="#FFC95A" d="M19,66c0,1.657-1.344,3-3,3c-1.656,0-3-1.343-3-3c0-1.657,1.344-3,3-3C17.656,63,19,64.343,19,66"/>
	<path fill="#FFC95A" d="M65,66c0,1.657-1.344,3-3,3c-1.656,0-3-1.343-3-3c0-1.657,1.344-3,3-3C63.656,63,65,64.343,65,66"/>
	<rect x="13" y="4" fill="#FFC95A" width="6" height="62"/>
	<path fill="#FFC95A" d="M65,4c0,1.657-1.344,3-3,3c-1.656,0-3-1.343-3-3c0-1.657,1.344-3,3-3C63.656,1,65,2.343,65,4"/>
	<rect x="59" y="4" fill="#FFC95A" width="6" height="62"/>
	<rect x="16" y="1" fill="#FFC95A" width="46" height="68"/>
	<polygon opacity="0.5" fill="#FF9300" points="30.172,1 36.95,7.778 39.778,4.95 35.828,1 	"/>
	<g>
		<path fill="#D8182B" d="M39.414,4.586c0.781,0.781,0.781,2.047,0,2.828l0,0c-0.781,0.781-2.047,0.781-2.828,0l0,0
			c-0.781-0.781-0.781-2.047,0-2.828l0,0C37.367,3.805,38.633,3.805,39.414,4.586L39.414,4.586z"/>
		<path opacity="0.1" d="M36.732,7.354c0.781,0.781,2.047,0.781,2.828,0l-2.828-2.828C35.951,5.306,35.951,6.573,36.732,7.354z"/>
	</g>
	<rect x="18" y="49" fill="#FF9300" width="42" height="12"/>
	<circle fill="#E33038" cx="39" cy="30" r="15"/>
	<g>
		<path fill="#FDE5A3" d="M48.31,29.936c-0.034-0.001-0.064-0.017-0.091-0.05c-0.027-0.032-0.04-0.069-0.041-0.111
			c-0.014-1.315-0.085-2.632-0.212-3.964c-0.371-0.052-0.743-0.101-1.115-0.146c-0.038-0.005-0.068-0.024-0.095-0.06
			c-0.027-0.037-0.043-0.08-0.047-0.13c-0.027-0.331-0.058-0.663-0.091-0.996c-0.005-0.045,0.003-0.082,0.024-0.112
			c0.021-0.031,0.048-0.042,0.085-0.036c1.217,0.188,2.429,0.42,3.632,0.697c0.037,0.008,0.07,0.03,0.1,0.067
			c0.031,0.037,0.049,0.074,0.056,0.113c0.05,0.298,0.096,0.593,0.137,0.886c0.006,0.044-0.001,0.077-0.023,0.103
			c-0.021,0.025-0.05,0.034-0.087,0.027c-0.367-0.067-0.734-0.13-1.102-0.19c0.148,1.272,0.23,2.521,0.247,3.767
			c0.001,0.041-0.011,0.075-0.036,0.106c-0.024,0.03-0.054,0.044-0.092,0.044C49.143,29.945,48.727,29.94,48.31,29.936z"/>
		<path fill="#FDE5A3" d="M31.544,29.918c-0.035,0.001-0.066-0.016-0.095-0.051c-0.028-0.034-0.041-0.071-0.041-0.115
			c0.015-1.765,0.109-3.532,0.281-5.312c0.004-0.045,0.021-0.086,0.049-0.123c0.029-0.038,0.06-0.059,0.093-0.064
			c0.471-0.068,0.944-0.129,1.416-0.183c0.38-0.044,0.717-0.044,1.003-0.003c0.282,0.041,0.517,0.132,0.701,0.268
			c0.181,0.135,0.317,0.321,0.405,0.552c0.088,0.233,0.127,0.523,0.117,0.861c-0.021,0.673-0.203,1.181-0.55,1.506
			c-0.339,0.318-0.823,0.482-1.479,0.511c0,0-0.067,0.002-0.067,0.002c-0.147,0.007-0.294,0.013-0.441,0.021
			c-0.02,0.648-0.033,1.297-0.037,1.945c-0.001,0.047-0.014,0.086-0.041,0.121c-0.027,0.035-0.059,0.053-0.097,0.053
			C32.354,29.911,31.948,29.914,31.544,29.918z M32.983,26.552c0.188-0.013,0.376-0.026,0.565-0.038
			c0.21-0.014,0.646-0.038,0.671-0.653c0.027-0.615-0.403-0.581-0.61-0.563c-0.187,0.016-0.373,0.032-0.559,0.049
			C33.025,25.749,33.002,26.151,32.983,26.552z"/>
		<path fill="#FDE5A3" d="M45.491,29.91c-0.021,0-0.042-0.01-0.062-0.029c-0.023-0.021-0.041-0.045-0.052-0.072
			c-0.241-0.599-0.488-1.207-0.74-1.822c-0.001,0-0.001,0.001-0.002,0.001c-0.015-0.025-0.03-0.05-0.047-0.075
			c-0.021-0.031-0.043-0.056-0.065-0.074c-0.045-0.049-0.3-0.067-0.448-0.073c-0.084-0.003-0.167-0.007-0.251-0.01
			c0.016,0.655,0.025,1.311,0.028,1.966c0.001,0.047-0.012,0.087-0.038,0.123c-0.025,0.036-0.055,0.053-0.092,0.053
			c-0.413-0.002-0.826-0.004-1.239-0.006c-0.033,0-0.062-0.018-0.088-0.054c-0.026-0.036-0.039-0.078-0.039-0.126
			c-0.007-1.903-0.047-3.805-0.122-5.691c-0.002-0.048,0.009-0.088,0.032-0.123c0.024-0.035,0.051-0.051,0.082-0.048
			c0.792,0.052,1.584,0.123,2.373,0.213c0.449,0.051,0.825,0.24,1.119,0.549c0.314,0.332,0.495,0.741,0.529,1.217
			c0.039,0.54-0.06,0.922-0.289,1.143c-0.058,0.058-0.126,0.113-0.203,0.162c-0.077,0.05-0.164,0.094-0.26,0.132
			c-0.029,0.011-0.057,0.022-0.085,0.034c0.028,0.021,0.055,0.042,0.083,0.063c0.118,0.09,0.22,0.186,0.303,0.286
			c0.085,0.101,0.156,0.202,0.212,0.3c0.271,0.582,0.538,1.155,0.796,1.717c0.03,0.067,0.034,0.123,0.01,0.177
			c-0.024,0.053-0.061,0.078-0.116,0.078C46.377,29.917,45.934,29.913,45.491,29.91z M43.786,26.472
			c0.215,0.012,0.431,0.025,0.647,0.038c0.209,0.013,0.648,0.042,0.615-0.558c-0.035-0.602-0.467-0.642-0.674-0.659
			c-0.213-0.018-0.426-0.034-0.64-0.05C43.754,25.652,43.771,26.062,43.786,26.472z"/>
		<path fill="#FDE5A3" d="M32.436,36.471c-0.033-0.004-0.064-0.025-0.093-0.062c-0.029-0.038-0.045-0.078-0.049-0.123
			c-0.159-1.774-0.248-3.541-0.267-5.305c-0.001-0.045,0.012-0.083,0.039-0.116c0.027-0.034,0.057-0.05,0.092-0.05
			c1.096,0.014,2.196,0.024,3.298,0.031c0.035,0,0.065,0.017,0.093,0.055c0.027,0.036,0.04,0.076,0.041,0.124
			c0.002,0.362,0.005,0.724,0.009,1.085c0.001,0.052-0.012,0.095-0.038,0.13c-0.027,0.036-0.056,0.053-0.092,0.052
			c-0.635-0.014-1.269-0.032-1.902-0.054c0.006,0.275,0.013,0.55,0.022,0.825c0.55,0.027,1.102,0.049,1.653,0.068
			c0.035,0.001,0.066,0.02,0.093,0.057c0.027,0.037,0.041,0.077,0.042,0.125c0.007,0.334,0.016,0.668,0.025,1.001
			c0.002,0.052-0.01,0.094-0.035,0.129c-0.029,0.039-0.058,0.058-0.09,0.056c-0.546-0.027-1.093-0.06-1.638-0.098
			c0.012,0.275,0.026,0.55,0.041,0.825c0.671,0.057,1.343,0.102,2.016,0.138c0.038,0.002,0.069,0.02,0.095,0.057
			c0.026,0.037,0.039,0.081,0.041,0.134c0.012,0.36,0.026,0.72,0.04,1.079c0.002,0.047-0.008,0.088-0.031,0.122
			c-0.023,0.033-0.052,0.048-0.089,0.046C34.644,36.728,33.538,36.618,32.436,36.471z"/>
		<path fill="#FDE5A3" d="M42.885,36.759c-0.034,0.003-0.062-0.012-0.086-0.046c-0.024-0.033-0.035-0.073-0.033-0.119
			c0.087-1.849,0.136-3.711,0.147-5.574c0-0.047,0.013-0.087,0.041-0.123c0.027-0.036,0.057-0.054,0.093-0.054
			c1.101-0.008,2.2-0.019,3.295-0.034c0.035,0,0.064,0.015,0.092,0.05c0.026,0.033,0.039,0.07,0.038,0.114
			c-0.004,0.338-0.011,0.675-0.02,1.013c-0.001,0.049-0.015,0.089-0.043,0.124c-0.029,0.036-0.058,0.053-0.093,0.054
			c-0.631,0.029-1.264,0.054-1.897,0.076c-0.006,0.276-0.013,0.551-0.021,0.826c0.551-0.027,1.1-0.057,1.649-0.091
			c0.035-0.002,0.064,0.013,0.089,0.045c0.026,0.032,0.036,0.069,0.034,0.114c-0.014,0.315-0.03,0.631-0.048,0.946
			c-0.003,0.049-0.018,0.091-0.047,0.128c-0.032,0.041-0.063,0.063-0.094,0.066c-0.544,0.05-1.088,0.094-1.634,0.132
			c-0.012,0.275-0.026,0.551-0.041,0.826c0.671-0.056,1.341-0.122,2.01-0.2c0.038-0.004,0.067,0.008,0.088,0.039
			c0.022,0.031,0.031,0.07,0.027,0.12c-0.027,0.338-0.058,0.677-0.091,1.016c-0.004,0.045-0.02,0.085-0.048,0.123
			c-0.027,0.036-0.058,0.056-0.095,0.062C45.097,36.55,43.992,36.674,42.885,36.759z"/>
		<path fill="#FDE5A3" d="M36.585,36.849c-0.038-0.002-0.069-0.021-0.096-0.058c-0.027-0.037-0.042-0.078-0.043-0.125
			c-0.062-1.867-0.096-3.751-0.104-5.636c0-0.049,0.012-0.09,0.038-0.125c0.025-0.036,0.056-0.054,0.095-0.053
			c0.421,0.002,0.842,0.003,1.263,0.004c0.035,0,0.067,0.018,0.096,0.056c0.028,0.036,0.043,0.077,0.043,0.124
			c0.002,1.472,0.012,2.943,0.028,4.404c0.673,0.012,1.346,0.013,2.019,0.003c0.036,0,0.067,0.016,0.095,0.051
			c0.027,0.033,0.04,0.074,0.039,0.126c-0.004,0.367-0.008,0.734-0.013,1.1c0,0.047-0.014,0.088-0.04,0.125
			c-0.027,0.036-0.056,0.055-0.089,0.055C38.805,36.92,37.694,36.903,36.585,36.849z"/>
		<path fill="#FDE5A3" d="M40.713,36.88c-0.029,0.001-0.052-0.014-0.072-0.048c-0.021-0.035-0.031-0.077-0.03-0.127
			c0.037-1.876,0.057-3.772,0.062-5.67c0-0.05,0.011-0.092,0.034-0.129c0.021-0.035,0.046-0.051,0.076-0.051
			c0.425-0.001,0.85-0.003,1.274-0.006c0.031,0,0.055,0.016,0.075,0.05c0.023,0.037,0.034,0.079,0.034,0.128
			c-0.009,1.878-0.048,3.754-0.119,5.614c-0.002,0.048-0.014,0.09-0.038,0.129c-0.022,0.035-0.045,0.052-0.074,0.053
			C41.529,36.847,41.121,36.866,40.713,36.88z"/>
		<path fill="#FDE5A3" d="M47.051,36.255c-0.036,0.006-0.064-0.005-0.084-0.035c-0.021-0.029-0.029-0.065-0.025-0.108
			c0.186-1.732,0.289-3.445,0.311-5.154c0-0.043,0.013-0.08,0.04-0.113c0.026-0.034,0.057-0.05,0.094-0.051
			c1.103-0.017,2.202-0.037,3.295-0.06c0.037-0.001,0.065,0.012,0.088,0.04c0.024,0.029,0.035,0.061,0.034,0.099
			c-0.006,0.29-0.016,0.58-0.031,0.871c-0.002,0.043-0.015,0.078-0.041,0.109c-0.026,0.031-0.054,0.047-0.091,0.049
			c-0.655,0.049-1.313,0.094-1.972,0.134c-0.01,0.248-0.023,0.496-0.038,0.744c0.482-0.042,0.964-0.087,1.444-0.136
			c0.033-0.003,0.061,0.008,0.084,0.033c0.02,0.022,0.027,0.053,0.023,0.102c-0.022,0.282-0.048,0.565-0.077,0.849
			c-0.004,0.039-0.02,0.075-0.048,0.109c-0.028,0.034-0.057,0.052-0.091,0.057c-0.474,0.07-0.949,0.134-1.425,0.195
			c-0.055,0.624-0.123,1.251-0.205,1.882c-0.006,0.043-0.021,0.081-0.049,0.118c-0.027,0.036-0.057,0.056-0.092,0.063
			C47.814,36.126,47.432,36.193,47.051,36.255z"/>
		<path fill="#FDE5A3" d="M30.572,36.186c-0.02-0.003-0.039-0.015-0.061-0.036c-0.023-0.023-0.042-0.048-0.055-0.075
			c-0.285-0.598-0.564-1.186-0.837-1.761c0,0-0.001,0.001-0.001,0.001c-0.016-0.024-0.032-0.048-0.048-0.071
			c-0.021-0.029-0.043-0.054-0.065-0.072c-0.045-0.047-0.284-0.086-0.422-0.105c-0.078-0.011-0.157-0.022-0.235-0.033
			c0.057,0.568,0.126,1.14,0.208,1.717c0.006,0.042,0,0.075-0.02,0.102c-0.019,0.027-0.044,0.036-0.077,0.029
			c-0.375-0.077-0.749-0.159-1.122-0.245c-0.03-0.007-0.058-0.028-0.087-0.063c-0.029-0.036-0.046-0.072-0.053-0.113
			c-0.265-1.573-0.413-3.084-0.444-4.586c-0.001-0.039,0.01-0.071,0.034-0.098c0.024-0.029,0.05-0.042,0.082-0.042
			c0.775,0.017,1.553,0.032,2.334,0.045c0.444,0.007,0.806,0.143,1.078,0.411c0.29,0.288,0.442,0.675,0.459,1.139
			c0.019,0.526-0.078,0.904-0.295,1.114c-0.055,0.055-0.119,0.106-0.191,0.151c-0.072,0.045-0.154,0.085-0.244,0.117
			c-0.027,0.01-0.053,0.019-0.08,0.029c0.027,0.021,0.053,0.042,0.08,0.063c0.114,0.089,0.213,0.184,0.296,0.284
			c0.083,0.101,0.154,0.201,0.211,0.298c0.279,0.575,0.562,1.161,0.848,1.753c0.034,0.071,0.042,0.127,0.025,0.179
			c-0.017,0.051-0.049,0.071-0.1,0.064C31.384,36.321,30.977,36.256,30.572,36.186z M28.754,32.933
			c0.205,0.021,0.41,0.041,0.616,0.06c0.201,0.019,0.614,0.058,0.586-0.506c-0.026-0.563-0.442-0.584-0.644-0.596
			c-0.206-0.012-0.413-0.024-0.62-0.036C28.708,32.213,28.729,32.572,28.754,32.933z"/>
		<path fill="#FDE5A3" d="M28.986,30.026c-0.162,0.001-0.327-0.005-0.49-0.019c-0.161-0.014-0.324-0.035-0.483-0.063
			c-0.037-0.008-0.07-0.014-0.099-0.018c-0.026-0.004-0.054-0.009-0.082-0.017c-0.017-0.005-0.033-0.009-0.05-0.014
			c0,0.004,0,0.008,0,0.011c-0.085-0.016-0.161-0.032-0.229-0.048c-0.077-0.018-0.136-0.03-0.177-0.038
			c-0.024-0.006-0.046-0.021-0.066-0.047c-0.02-0.026-0.031-0.053-0.034-0.082c-0.022-0.384-0.037-0.768-0.043-1.151
			c-0.002-0.064,0.016-0.109,0.058-0.144c0.022-0.018,0.045-0.028,0.069-0.031c0.021-0.002,0.043,0.003,0.065,0.013
			c0.143,0.071,0.331,0.133,0.57,0.216c0.058,0.02,0.117,0.041,0.176,0.062c0.299,0.099,0.6,0.142,0.922,0.125
			c0.176-0.009,0.315-0.042,0.426-0.102c0.125-0.067,0.188-0.217,0.192-0.328c0.003-0.064-0.025-0.179-0.096-0.236
			c-0.1-0.072-0.317-0.135-0.663-0.188c-0.004-0.001-0.008-0.001-0.012-0.002c-0.613-0.099-1.054-0.157-1.273-0.362
			c-0.238-0.219-0.334-0.547-0.278-0.994c0.066-0.523,0.289-0.961,0.643-1.306c0.359-0.348,0.828-0.594,1.394-0.705
			c0.249-0.049,0.514-0.067,0.789-0.052c0.132,0.009,0.249,0.02,0.349,0.031c0.101,0.012,0.182,0.026,0.245,0.044
			c0.023,0.004,0.04,0.019,0.055,0.046c0.015,0.028,0.023,0.056,0.023,0.084c-0.009,0.417-0.011,0.834-0.008,1.251
			c0,0.073-0.021,0.128-0.064,0.172c-0.023,0.023-0.045,0.035-0.068,0.038c-0.02,0.002-0.041-0.003-0.063-0.016
			c-0.11-0.059-0.227-0.112-0.348-0.158c-0.121-0.046-0.248-0.086-0.379-0.119c-0.266-0.061-0.51-0.072-0.729-0.038
			c-0.168,0.026-0.302,0.065-0.399,0.113c-0.111,0.055-0.181,0.185-0.192,0.284c-0.01,0.092,0.034,0.207,0.136,0.239
			c0.083,0.025,0.184,0.05,0.301,0.077c0.117,0.027,0.261,0.049,0.426,0.065c0.601,0.076,0.983,0.152,1.177,0.403
			c0.223,0.273,0.325,0.653,0.307,1.119c-0.012,0.304-0.065,0.577-0.16,0.81c-0.095,0.233-0.228,0.431-0.396,0.587
			c-0.169,0.158-0.377,0.28-0.618,0.362C29.566,29.981,29.289,30.023,28.986,30.026z"/>
		<ellipse fill="#FDE5A3" cx="38.822" cy="26.814" rx="3.051" ry="3.139"/>
	</g>
</g>
</svg>
