<?xml version="1.0" encoding="utf-8"?>
<!-- Generator: Adobe Illustrator 17.0.0, SVG Export Plug-In . SVG Version: 6.00 Build 0)  -->
<!DOCTYPE svg PUBLIC "-//W3C//DTD SVG 1.1//EN" "http://www.w3.org/Graphics/SVG/1.1/DTD/svg11.dtd">
<svg version="1.1" id="Layer_1" xmlns="http://www.w3.org/2000/svg" xmlns:xlink="http://www.w3.org/1999/xlink" x="0px" y="0px"
	 width="72px" height="72px" viewBox="0 0 72 72" enable-background="new 0 0 72 72" xml:space="preserve">
<g>
	<path fill="#E33038" d="M6.5,51.5v1c0,1.105,0.895,2,2,2h54v-3H6.5z"/>
	<path fill="#E33038" d="M65.5,51.5v1c0,1.105-0.895,2-2,2h-54v-3H65.5z"/>
	<circle fill="#E33038" cx="11.5" cy="19.5" r="2"/>
	<circle fill="#E33038" cx="11.5" cy="19.5" r="2"/>
	<circle fill="#E33038" cx="60.5" cy="19.5" r="2"/>
	<rect x="11.5" y="17.5" fill="#E33038" width="49" height="30"/>
	<rect x="11.5" y="20.5" fill="#FDD05F" width="49" height="28"/>
	<rect x="12.5" y="19.5" fill="#FDD05F" width="47" height="29"/>
	<rect x="9.5" y="19.5" fill="#E33038" width="2" height="28"/>
	<rect x="60.5" y="19.5" fill="#E33038" width="2" height="28"/>
	<circle fill="#FDD05F" cx="12.5" cy="20.5" r="1"/>
	<circle fill="#FDD05F" cx="59.5" cy="20.5" r="1"/>
	<rect x="9.5" y="47.5" fill="#E33038" width="53" height="4"/>
	<polygon opacity="0.5" fill="#FF9300" points="60.5,47.5 11.5,47.5 11.5,19.5 	"/>
	<polygon opacity="0.1" points="60.25,47.5 11.5,47.5 11.5,19.643 9.5,18.5 9.5,51.5 62.5,51.5 	"/>
	<path fill="#FDD05F" d="M36.5,49.5c0,0.552-0.448,1-1,1l0,0c-0.552,0-1-0.448-1-1l0,0c0-0.552,0.448-1,1-1l0,0
		C36.052,48.5,36.5,48.948,36.5,49.5L36.5,49.5z"/>
	<rect x="30.5" y="51.5" opacity="0.2" width="10" height="1"/>
	<rect x="24.5" y="38.5" fill="#FDE5A3" width="24" height="4"/>
	<rect x="44.5" y="38.5" fill="#E33038" width="4" height="4"/>
	<circle fill="#E33038" cx="36" cy="27.5" r="3"/>
	<path fill="#E33038" d="M30,36c0-3.314,2.686-6,6-6s6,2.686,6,6"/>
</g>
</svg>
