<?xml version="1.0" encoding="utf-8"?>
<!-- Generator: Adobe Illustrator 17.0.0, SVG Export Plug-In . SVG Version: 6.00 Build 0)  -->
<!DOCTYPE svg PUBLIC "-//W3C//DTD SVG 1.1//EN" "http://www.w3.org/Graphics/SVG/1.1/DTD/svg11.dtd">
<svg version="1.1" id="Layer_1" xmlns="http://www.w3.org/2000/svg" xmlns:xlink="http://www.w3.org/1999/xlink" x="0px" y="0px"
	 width="72px" height="72px" viewBox="0 0 72 72" enable-background="new 0 0 72 72" xml:space="preserve">
<g>
	<g>
		<path fill="#FFC95A" d="M12,20.467c0,1.657-1.344,3-3,3c-1.656,0-3-1.343-3-3c0-1.656,0.909-3,3-3
			C10.656,17.467,12,18.81,12,20.467"/>
		<rect x="6" y="20.467" fill="#FFC95A" width="5.163" height="37"/>
		<rect x="42" y="20.467" fill="#FFC95A" width="6" height="37"/>
		<rect x="9" y="17.467" fill="#FFC95A" width="36" height="40"/>
		
			<line fill="none" stroke="#FF9300" stroke-width="2" stroke-linecap="round" stroke-linejoin="round" stroke-miterlimit="10" x1="11" y1="37.467" x2="43" y2="37.467"/>
		
			<line fill="none" stroke="#FF9300" stroke-width="2" stroke-linecap="round" stroke-linejoin="round" stroke-miterlimit="10" x1="11" y1="43.467" x2="43" y2="43.467"/>
		<g opacity="0.5">
			<g>
				<defs>
					<rect id="SVGID_231_" x="20" y="17.467" width="28" height="14"/>
				</defs>
				<clipPath id="SVGID_2_">
					<use xlink:href="#SVGID_231_"  overflow="visible"/>
				</clipPath>
				<polygon clip-path="url(#SVGID_2_)" fill="#FF9300" points="34.1,31.467 48,31.467 34,17.467 20,17.467 				"/>
			</g>
		</g>
		<path fill="#F8DA7B" d="M34,17.467v11c0,1.657,1.344,3,3,3h11L34,17.467z"/>
		<path fill="#FFFFFF" d="M48,31.467v-11c0-1.657-1.344-3-3-3H34L48,31.467z"/>
		<path fill="#FF9300" d="M10,31.467c0,0.553,0.447,1,1,1h18c0.553,0,1-0.447,1-1v-8c0-0.553-0.447-1-1-1H11c-0.553,0-1,0.447-1,1
			V31.467z"/>
	</g>
	<g>
		<path fill="#FDE5A3" d="M21,14.467c0,1.657-1.344,3-3,3c-1.656,0-3-1.343-3-3c0-1.656,0.909-3,3-3
			C19.656,11.467,21,12.81,21,14.467"/>
		<rect x="15" y="14.467" fill="#FDE5A3" width="5.163" height="37"/>
		<rect x="51" y="14.467" fill="#FEE8AC" width="6" height="37"/>
		<rect x="18" y="11.467" fill="#FEE8AC" width="36" height="40"/>
		<g opacity="0.3">
			<g>
				<defs>
					<rect id="SVGID_233_" x="29" y="11.467" width="28" height="14"/>
				</defs>
				<clipPath id="SVGID_4_">
					<use xlink:href="#SVGID_233_"  overflow="visible"/>
				</clipPath>
				<polygon clip-path="url(#SVGID_4_)" fill="#FF9300" points="43.1,25.467 57,25.467 43,11.467 29,11.467 				"/>
			</g>
		</g>
		<path fill="#F8DA7B" d="M43,11.467v11c0,1.657,1.344,3,3,3h11L43,11.467z"/>
		<path fill="#FFFFFF" d="M57,25.467v-11c0-1.657-1.344-3-3-3H43L57,25.467z"/>
		<g>
			<circle fill="#0AC6C1" cx="23" cy="19.467" r="4"/>
			<path opacity="0.1" d="M25.828,22.295c-1.562,1.562-4.095,1.562-5.657,0c-1.562-1.562-1.562-4.095,0-5.657"/>
		</g>
		<g>
			<circle fill="#0AC6C1" cx="23" cy="30.467" r="4"/>
			<path opacity="0.1" d="M25.828,33.295c-1.562,1.562-4.095,1.562-5.657,0c-1.562-1.562-1.562-4.095,0-5.657"/>
		</g>
		<g>
			<circle fill="#0AC6C1" cx="34" cy="19.467" r="4"/>
			<path opacity="0.1" d="M36.828,22.295c-1.562,1.562-4.095,1.562-5.657,0c-1.562-1.562-1.562-4.095,0-5.657"/>
		</g>
		<g>
			<circle fill="#0AC6C1" cx="34" cy="30.467" r="4"/>
			<path opacity="0.1" d="M36.828,33.295c-1.562,1.562-4.095,1.562-5.657,0c-1.562-1.562-1.562-4.095,0-5.657"/>
		</g>
		<g>
			<circle fill="#0AC6C1" cx="23" cy="41.467" r="4"/>
			<path opacity="0.1" d="M25.828,44.295c-1.562,1.562-4.095,1.562-5.657,0c-1.562-1.562-1.562-4.095,0-5.657"/>
		</g>
		<g>
			<circle fill="#0AC6C1" cx="34" cy="41.467" r="4"/>
			<path opacity="0.1" d="M36.828,44.295c-1.562,1.562-4.095,1.562-5.657,0c-1.562-1.562-1.562-4.095,0-5.657"/>
		</g>
		<g>
			<circle fill="#0AC6C1" cx="23" cy="52.467" r="4"/>
			<path opacity="0.1" d="M25.828,55.295c-1.562,1.562-4.095,1.562-5.657,0c-1.562-1.562-1.562-4.095,0-5.657"/>
		</g>
		<g>
			<circle fill="#0AC6C1" cx="34" cy="52.467" r="4"/>
			<path opacity="0.1" d="M36.828,55.295c-1.562,1.562-4.095,1.562-5.657,0c-1.562-1.562-1.562-4.095,0-5.657"/>
		</g>
		<g>
			<circle fill="#0AC6C1" cx="45" cy="19.467" r="4"/>
			<path opacity="0.1" d="M47.828,22.295c-1.562,1.562-4.095,1.562-5.657,0c-1.562-1.562-1.562-4.095,0-5.657"/>
		</g>
		<g>
			<circle fill="#0AC6C1" cx="45" cy="30.467" r="4"/>
			<path opacity="0.1" d="M47.828,33.295c-1.562,1.562-4.095,1.562-5.657,0c-1.562-1.562-1.562-4.095,0-5.657"/>
		</g>
		<g>
			<circle fill="#0AC6C1" cx="45" cy="41.467" r="4"/>
			<path opacity="0.1" d="M47.828,44.295c-1.562,1.562-4.095,1.562-5.657,0c-1.562-1.562-1.562-4.095,0-5.657"/>
		</g>
		<g>
			<circle fill="#0AC6C1" cx="45" cy="52.467" r="4"/>
			<path opacity="0.1" d="M47.828,55.295c-1.562,1.562-4.095,1.562-5.657,0c-1.562-1.562-1.562-4.095,0-5.657"/>
		</g>
	</g>
	<g>
		<path fill="#FFC95A" d="M30,8.467c0,1.657-1.344,3-3,3c-1.656,0-3-1.343-3-3c0-1.656,0.909-3,3-3C28.656,5.467,30,6.81,30,8.467"
			/>
		<rect x="24" y="8.467" fill="#FFC95A" width="5.163" height="37"/>
		<rect x="60" y="8.467" fill="#FFC95A" width="6" height="37"/>
		<rect x="27" y="5.467" fill="#FFC95A" width="36" height="40"/>
		
			<line fill="none" stroke="#FF9300" stroke-width="2" stroke-linecap="round" stroke-linejoin="round" stroke-miterlimit="10" x1="29" y1="12.467" x2="57" y2="12.467"/>
		
			<line fill="none" stroke="#FF9300" stroke-width="2" stroke-linecap="round" stroke-linejoin="round" stroke-miterlimit="10" x1="29" y1="19.467" x2="57" y2="19.467"/>
		
			<line fill="none" stroke="#FF9300" stroke-width="2" stroke-linecap="round" stroke-linejoin="round" stroke-miterlimit="10" x1="29" y1="26.467" x2="60" y2="26.467"/>
		
			<line fill="none" stroke="#FF9300" stroke-width="2" stroke-linecap="round" stroke-linejoin="round" stroke-miterlimit="10" x1="29" y1="33.467" x2="60" y2="33.467"/>
		<g opacity="0.5">
			<g>
				<defs>
					<rect id="SVGID_235_" x="38" y="5.467" width="28" height="14"/>
				</defs>
				<clipPath id="SVGID_6_">
					<use xlink:href="#SVGID_235_"  overflow="visible"/>
				</clipPath>
				<polygon clip-path="url(#SVGID_6_)" fill="#FF9300" points="52.1,19.467 66,19.467 52,5.467 38,5.467 				"/>
			</g>
		</g>
		<path fill="#F8DA7B" d="M52,5.467v11c0,1.657,1.344,3,3,3h11L52,5.467z"/>
		<path fill="#FFFFFF" d="M66,19.467v-11c0-1.657-1.344-3-3-3H52L66,19.467z"/>
	</g>
	<g opacity="0.5">
		<rect x="6" y="35.467" fill="#FF9300" width="60" height="4"/>
	</g>
	
		<line fill="none" stroke="#FF9300" stroke-width="2" stroke-linecap="square" stroke-linejoin="round" stroke-miterlimit="10" x1="29" y1="12.467" x2="29" y2="36.467"/>
	
		<line fill="none" stroke="#FF9300" stroke-width="2" stroke-linecap="square" stroke-linejoin="round" stroke-miterlimit="10" x1="37" y1="12.467" x2="37" y2="36.467"/>
	
		<line fill="none" stroke="#FF9300" stroke-width="2" stroke-linecap="square" stroke-linejoin="round" stroke-miterlimit="10" x1="61" y1="20.467" x2="61" y2="36.467"/>
	<path fill="#0AC6C1" d="M51,5.18"/>
	<line fill="none" stroke="#0AC6C1" stroke-linecap="square" stroke-miterlimit="10" x1="49" y1="23" x2="49" y2="47"/>
	<line opacity="0.2" fill="none" stroke="#000000" stroke-miterlimit="10" x1="49" y1="23" x2="49" y2="47"/>
	<path fill="#0AC6C1" d="M51.444,31.334l-2.186-2.186c-0.142-0.142-0.372-0.142-0.515,0l-2.186,2.186
		c-0.104,0.104-0.135,0.26-0.079,0.397c0.056,0.136,0.189,0.225,0.336,0.225h4.373c0.147,0,0.28-0.088,0.336-0.225
		C51.579,31.594,51.548,31.438,51.444,31.334z"/>
	<path opacity="0.2" d="M51.444,31.334l-2.186-2.186c-0.142-0.142-0.372-0.142-0.515,0l-2.186,2.186
		c-0.104,0.104-0.135,0.26-0.079,0.397c0.056,0.136,0.189,0.225,0.336,0.225h4.373c0.147,0,0.28-0.088,0.336-0.225
		C51.579,31.594,51.548,31.438,51.444,31.334z"/>
	<path fill="#0AC6C1" d="M62,15.267C62,23.404,56.18,30,49,30s-13-6.994-13-14.733C36,7.13,41.82,0.533,49,0.533S62,7.13,62,15.267z
		"/>
	
		<line fill="none" stroke="#0AC6C1" stroke-width="2" stroke-linecap="square" stroke-miterlimit="10" x1="4" y1="42.467" x2="68" y2="42.467"/>
	
		<line opacity="0.2" fill="none" stroke="#000000" stroke-width="2" stroke-linecap="square" stroke-miterlimit="10" x1="4" y1="42.467" x2="68" y2="42.467"/>
	<path fill="#FF9300" d="M29,43.467c0,0.553-0.447,1-1,1c-0.553,0-1-0.447-1-1c0-0.553,0.447-1,1-1
		C28.553,42.467,29,42.913,29,43.467"/>
	<path fill="#FF9300" d="M51,43.467c0,0.553-0.447,1-1,1c-0.553,0-1-0.447-1-1c0-0.553,0.447-1,1-1
		C50.553,42.467,51,42.913,51,43.467"/>
	<rect x="28" y="42.467" fill="#FF9300" width="22" height="2"/>
	<path fill="#0AC6C1" d="M12,44.467c0,1.657-1.344,3-3,3c-1.656,0-3-1.343-3-3c0-1.657,1.344-3,3-3
		C10.656,41.467,12,42.81,12,44.467"/>
	<rect x="6" y="41.467" fill="#A9242A" width="60" height="8"/>
	<path fill="#0AC6C1" d="M66,44.467c0,1.657-1.344,3-3,3c-1.656,0-3-1.343-3-3c0-1.657,1.344-3,3-3
		C64.656,41.467,66,42.81,66,44.467"/>
	<path fill="#0AC6C1" d="M12,68.467c0,1.657-1.344,3-3,3c-1.656,0-3-1.343-3-3c0-1.657,1.344-3,3-3
		C10.656,65.467,12,66.81,12,68.467"/>
	<rect x="6" y="41.467" fill="#0AC6C1" width="6" height="27"/>
	<path fill="#0AC6C1" d="M66,68.467c0,1.657-1.344,3-3,3c-1.656,0-3-1.343-3-3c0-1.657,1.344-3,3-3
		C64.656,65.467,66,66.81,66,68.467"/>
	<rect x="60" y="41.467" fill="#0AC6C1" width="6" height="27"/>
	<rect x="9" y="41.467" fill="#0AC6C1" width="54" height="30"/>
	<g opacity="0.1">
		<g>
			<defs>
				<rect id="SVGID_237_" x="21" y="50" width="30" height="13"/>
			</defs>
			<clipPath id="SVGID_8_">
				<use xlink:href="#SVGID_237_"  overflow="visible"/>
			</clipPath>
			<rect x="21" y="49.533" clip-path="url(#SVGID_8_)" width="30" height="13"/>
		</g>
	</g>
	<g opacity="0.2">
		<g>
			<defs>
				<rect id="SVGID_239_" x="57" y="44.467" width="6" height="6"/>
			</defs>
			<clipPath id="SVGID_10_">
				<use xlink:href="#SVGID_239_"  overflow="visible"/>
			</clipPath>
		</g>
	</g>
	<polygon fill="#0AC6C1" points="6,37.467 6,39.467 6,41.467 66,41.467 66,39.467 66,37.467 	"/>
	<g opacity="0.1">
		<rect x="6" y="37.717" width="60" height="3.5"/>
	</g>
	<path opacity="0.1" d="M49,26.909c-4.199,0-8.127-1.162-11.49-3.179C40.261,27.492,44.385,30,49,30
		c4.747,0,8.971-2.506,11.72-6.407C57.306,25.696,53.294,26.909,49,26.909z"/>
</g>
</svg>
