<?xml version="1.0" encoding="utf-8"?>
<!-- Generator: Adobe Illustrator 18.1.0, SVG Export Plug-In . SVG Version: 6.00 Build 0)  -->
<!DOCTYPE svg PUBLIC "-//W3C//DTD SVG 1.1//EN" "http://www.w3.org/Graphics/SVG/1.1/DTD/svg11.dtd">
<svg version="1.1" id="Expanded" xmlns="http://www.w3.org/2000/svg" xmlns:xlink="http://www.w3.org/1999/xlink" x="0px" y="0px"
	 viewBox="0 0 162 108" enable-background="new 0 0 162 108" xml:space="preserve" width="163px" height="109px">
<g>
	<path fill="#FFFFFF" d="M36.1,23.8c-0.2-0.1-0.5,0-0.7,0.2c-0.1,0.2,0,0.5,0.2,0.7c0.8,0.5,1.3,1.3,1.3,2.2c0,0.9-0.5,1.8-1.3,2.2
		l0.5,0.9c1.1-0.6,1.8-1.8,1.8-3.1C37.9,25.6,37.2,24.4,36.1,23.8z"/>
	<path fill="#FFFFFF" d="M41.9,26.8c0-2.9-1.5-5.5-4.1-6.9c-0.2-0.1-0.5,0-0.7,0.2c-0.1,0.2,0,0.5,0.2,0.7c2.2,1.2,3.5,3.5,3.5,6
		c0,2.5-1.3,4.8-3.5,6c-0.2,0.1-0.3,0.4-0.2,0.7c0.1,0.2,0.3,0.3,0.4,0.3c0.1,0,0.2,0,0.2-0.1C40.4,32.2,41.9,29.7,41.9,26.8z"/>
	<path fill="#FFFFFF" d="M40.2,17.6l-0.5,0.9c3.2,1.8,5,5,5,8.6c0,3.6-1.9,6.8-5,8.6c-0.2,0.1-0.3,0.4-0.2,0.7
		c0.1,0.2,0.3,0.3,0.4,0.3c0.1,0,0.2,0,0.2-0.1c3.5-1.9,5.6-5.5,5.6-9.4C45.8,23.1,43.7,19.6,40.2,17.6z"/>
	<path fill="#FFFFFF" d="M33.2,15.3c-0.3,0-0.5,0.1-0.7,0.2L23.9,22H20c-0.3,0-0.4,0.1-0.5,0.2c-0.2,0.2-0.1,0.5-0.1,0.6
		c0,0,0,0.1,0,0.1v8c0,0.1,0,0.1,0,0.1c0,0.2-0.1,0.4,0.1,0.7c0.1,0.1,0.2,0.2,0.5,0.2h3.8l8.6,5.7c0.2,0.2,0.4,0.3,0.7,0.3
		c0.6,0,1.2-0.4,1.2-1V16.3C34.4,15.7,33.8,15.3,33.2,15.3z M24.4,31.2L24.2,31h-3.8c0,0,0,0,0,0v-8h3.8l0.2-0.2V31.2z M33.2,37
		l-7.8-5.2v-9.7l7.7-5.8l0.1,0c0.1,0,0.2,0,0.2,0l0,20.6C33.4,36.9,33.3,37,33.2,37z"/>
</g>
<g>
	<path fill="#FFFFFF" d="M131.6,69.4c-1.4,0-2.5,1.1-2.5,2.5v18c0,1.4,1.1,2.5,2.5,2.5s2.5-1.1,2.5-2.5v-18
		C134.1,70.6,133,69.4,131.6,69.4z M133.1,89.9c0,0.8-0.7,1.5-1.5,1.5s-1.5-0.7-1.5-1.5v-18c0-0.8,0.7-1.5,1.5-1.5s1.5,0.7,1.5,1.5
		V89.9z"/>
	<path fill="#FFFFFF" d="M138.6,69.4c-1.4,0-2.5,1.1-2.5,2.5v18c0,1.4,1.1,2.5,2.5,2.5s2.5-1.1,2.5-2.5v-18
		C141.1,70.6,140,69.4,138.6,69.4z M140.1,89.9c0,0.8-0.7,1.5-1.5,1.5s-1.5-0.7-1.5-1.5v-18c0-0.8,0.7-1.5,1.5-1.5s1.5,0.7,1.5,1.5
		V89.9z"/>
</g>
<g>
	<path fill="#FFFFFF" d="M91.9,69.4h-4.5c-0.3,0-0.5,0.2-0.5,0.5s0.2,0.5,0.5,0.5H91l-7.3,7.3c-0.2,0.2-0.2,0.5,0,0.7
		c0.1,0.1,0.2,0.1,0.4,0.1s0.3,0,0.4-0.1l7-7v3c0,0.3,0.2,0.5,0.5,0.5s0.5-0.2,0.5-0.5v-4.5C92.4,69.6,92.2,69.4,91.9,69.4z"/>
	<path fill="#FFFFFF" d="M69.9,74.9c0.3,0,0.5-0.2,0.5-0.5v-3.1l7.1,7.1c0.1,0.1,0.2,0.1,0.4,0.1c0.1,0,0.3,0,0.4-0.1
		c0.2-0.2,0.2-0.5,0-0.7l-7.3-7.3h3.5c0.3,0,0.5-0.2,0.5-0.5s-0.2-0.5-0.5-0.5h-4.5c-0.3,0-0.5,0.2-0.5,0.5v4.5
		C69.4,74.6,69.6,74.9,69.9,74.9z"/>
	<path fill="#FFFFFF" d="M77.5,83.8L70.4,91v-3.6c0-0.3-0.2-0.5-0.5-0.5s-0.5,0.2-0.5,0.5v4.5c0,0.3,0.2,0.5,0.5,0.5h4.5
		c0.3,0,0.5-0.2,0.5-0.5s-0.2-0.5-0.5-0.5h-3l6.8-6.8c0.2-0.2,0.2-0.5,0-0.7C78,83.6,77.7,83.6,77.5,83.8z"/>
	<path fill="#FFFFFF" d="M91.9,86.9c-0.3,0-0.5,0.2-0.5,0.5v3.5l-6.9-6.9c-0.2-0.2-0.5-0.2-0.7,0s-0.2,0.5,0,0.7l6.8,6.8h-3.1
		c-0.3,0-0.5,0.2-0.5,0.5s0.2,0.5,0.5,0.5h4.5c0.3,0,0.5-0.2,0.5-0.5v-4.5C92.4,87.1,92.2,86.9,91.9,86.9z"/>
</g>
<path fill="#FFFFFF" d="M90.3,23.2c0.3,0,0.5-0.2,0.5-0.5v-5.5c0-0.3-0.2-0.5-0.5-0.5h-5.5c-0.3,0-0.5,0.2-0.5,0.5s0.2,0.5,0.5,0.5
	h4.7l-8.6,8.6l-8.6-8.6h4.5c0.3,0,0.5-0.2,0.5-0.5s-0.2-0.5-0.5-0.5h-5.5c-0.3,0-0.5,0.2-0.5,0.5v5.5c0,0.3,0.2,0.5,0.5,0.5
	s0.5-0.2,0.5-0.5v-4.1l8.4,8.4l-8.4,8.4v-4.7c0-0.3-0.2-0.5-0.5-0.5s-0.5,0.2-0.5,0.5v5.5c0,0.3,0.2,0.5,0.5,0.5h5.5
	c0.3,0,0.5-0.2,0.5-0.5s-0.2-0.5-0.5-0.5h-3.9l8-8l8,8h-4.1c-0.3,0-0.5,0.2-0.5,0.5s0.2,0.5,0.5,0.5h5.5c0.3,0,0.5-0.2,0.5-0.5v-5.5
	c0-0.3-0.2-0.5-0.5-0.5s-0.5,0.2-0.5,0.5v4.5L81.6,27l8.2-8.2v3.9C89.8,23,90,23.2,90.3,23.2z"/>
<g>
	<path fill="#FFFFFF" d="M127.9,35.8c-0.1,0-0.2,0-0.2-0.1c-0.2-0.1-0.2-0.3-0.2-0.4V18.7c0-0.2,0.1-0.3,0.2-0.4
		c0.2-0.1,0.3-0.1,0.5,0l14.3,8.3c0.2,0.1,0.2,0.3,0.2,0.4s-0.1,0.3-0.2,0.4l-14.3,8.3C128.1,35.8,128,35.8,127.9,35.8z M128.4,19.6
		v14.8l12.8-7.4L128.4,19.6z"/>
</g>
<path fill="#FFFFFF" d="M33.2,69.3c-0.3,0-0.5,0.1-0.7,0.2L23.9,76h-3.8c-0.2,0-0.4,0.1-0.5,0.2c-0.2,0.2-0.2,0.5-0.1,0.6
	c0,0,0,0.1,0,0.1v8c0,0,0,0.1,0,0.1c0,0.2,0,0.5,0.2,0.7c0.1,0.1,0.2,0.2,0.5,0.2h3.8l8.6,5.7c0.2,0.2,0.4,0.3,0.7,0.3
	c0.6,0,1.2-0.4,1.2-1V70.3C34.4,69.7,33.8,69.3,33.2,69.3z M24.4,85.1L24.2,85h-3.8c0,0,0,0,0,0v-8h3.8l0.2-0.1V85.1z M33.2,91
	l-7.8-5.2v-9.6l7.8-5.9c0.1,0,0.1,0,0.2,0l0,20.6C33.4,91,33.3,91,33.2,91z"/>
</svg>
