<?xml version="1.0" encoding="utf-8"?>
<!-- Generator: Adobe Illustrator 17.0.0, SVG Export Plug-In . SVG Version: 6.00 Build 0)  -->
<!DOCTYPE svg PUBLIC "-//W3C//DTD SVG 1.1//EN" "http://www.w3.org/Graphics/SVG/1.1/DTD/svg11.dtd">
<svg version="1.1" id="Layer_1" xmlns="http://www.w3.org/2000/svg" xmlns:xlink="http://www.w3.org/1999/xlink" x="0px" y="0px"
	 width="60px" height="65px" viewBox="0 0 60 65" enable-background="new 0 0 60 65" xml:space="preserve">
<path fill="#FEECBA" d="M6,3c0,1.657-1.344,3-3,3C1.344,6,0,4.657,0,3c0-1.656,0.909-3,3-3C4.656,0,6,1.343,6,3"/>
<rect y="3" fill="#FEECBA" width="6.163" height="33"/>
<path fill="#FEECBA" d="M54,3c0,1.657-1.344,3-3,3c-1.656,0-3-1.343-3-3c0-1.657,1.344-3,3-3C52.656,0,54,1.343,54,3"/>
<rect x="48" y="3" fill="#FFD26C" width="6" height="33"/>
<rect x="2" fill="#FEECBA" width="50" height="40"/>
<path fill="#FFA400" d="M30,7c0,0.553-0.447,1-1,1c-0.553,0-1-0.447-1-1c0-0.553,0.447-1,1-1C29.553,6,30,6.447,30,7"/>
<path fill="#FFA400" d="M50,7c0,0.553-0.447,1-1,1c-0.553,0-1-0.447-1-1c0-0.553,0.447-1,1-1C49.553,6,50,6.447,50,7"/>
<rect x="29" y="6" fill="#FFA400" width="20" height="2"/>
<path fill="#FFA400" d="M30,13c0,0.553-0.447,1-1,1c-0.553,0-1-0.447-1-1c0-0.553,0.447-1,1-1C29.553,12,30,12.447,30,13"/>
<path fill="#FFA400" d="M50,13c0,0.553-0.447,1-1,1c-0.553,0-1-0.447-1-1c0-0.553,0.447-1,1-1C49.553,12,50,12.447,50,13"/>
<rect x="29" y="12" fill="#FFA400" width="20" height="2"/>
<path fill="#FFA400" d="M30,19c0,0.553-0.447,1-1,1c-0.553,0-1-0.447-1-1c0-0.553,0.447-1,1-1C29.553,18,30,18.447,30,19"/>
<path fill="#FFA400" d="M50,19c0,0.553-0.447,1-1,1c-0.553,0-1-0.447-1-1c0-0.553,0.447-1,1-1C49.553,18,50,18.447,50,19"/>
<rect x="29" y="18" fill="#FFA400" width="20" height="2"/>
<path fill="#FFA400" d="M30,25c0,0.553-0.447,1-1,1c-0.553,0-1-0.447-1-1c0-0.553,0.447-1,1-1C29.553,24,30,24.447,30,25"/>
<path fill="#FFA400" d="M39,25c0,0.553-0.447,1-1,1c-0.553,0-1-0.447-1-1c0-0.553,0.447-1,1-1C38.553,24,39,24.447,39,25"/>
<rect x="29" y="24" fill="#FFA400" width="9" height="2"/>
<path fill="#FFA400" d="M4,19c0,0.553,0.447,1,1,1h18c0.553,0,1-0.447,1-1V7c0-0.553-0.447-1-1-1H5C4.447,6,4,6.447,4,7V19z"/>
<path fill="#FADF8D" d="M40,0v11c0,1.657,1.344,3,3,3h11L40,0z"/>
<path fill="#FFFFFF" d="M54,14V3c0-1.657-1.344-3-3-3H40L54,14z"/>
<path fill="#FFD26C" d="M23,11c0,1.657-1.344,3-3,3c-1.656,0-3-1.343-3-3c0-1.656,0.909-3,3-3C21.656,8,23,9.343,23,11"/>
<rect x="17" y="11" fill="#FFD26C" width="5.163" height="33"/>
<path fill="#FEECBA" d="M60,11c0,1.657-1.344,3-3,3c-1.656,0-3-1.343-3-3c0-1.657,1.344-3,3-3C58.656,8,60,9.343,60,11"/>
<rect x="54" y="11" fill="#FFD26C" width="6" height="33"/>
<rect x="19" y="8" fill="#FFD26C" width="39" height="40"/>
<path fill="#FFA400" d="M23,15c0,0.553-0.447,1-1,1c-0.553,0-1-0.447-1-1c0-0.553,0.447-1,1-1C22.553,14,23,14.447,23,15"/>
<path fill="#FFA400" d="M56,15c0,0.553-0.447,1-1,1c-0.553,0-1-0.447-1-1c0-0.553,0.447-1,1-1C55.553,14,56,14.447,56,15"/>
<rect x="22" y="14" fill="#FFA400" width="33" height="2"/>
<path fill="#FFA400" d="M23,21c0,0.553-0.447,1-1,1c-0.553,0-1-0.447-1-1c0-0.553,0.447-1,1-1C22.553,20,23,20.447,23,21"/>
<path fill="#FFA400" d="M56,21c0,0.553-0.447,1-1,1c-0.553,0-1-0.447-1-1c0-0.553,0.447-1,1-1C55.553,20,56,20.447,56,21"/>
<rect x="22" y="20" fill="#FFA400" width="33" height="2"/>
<path fill="#FFA400" d="M23,27c0,0.553-0.447,1-1,1c-0.553,0-1-0.447-1-1c0-0.553,0.447-1,1-1C22.553,26,23,26.447,23,27"/>
<path fill="#FFA400" d="M56,27c0,0.553-0.447,1-1,1c-0.553,0-1-0.447-1-1c0-0.553,0.447-1,1-1C55.553,26,56,26.447,56,27"/>
<rect x="22" y="26" fill="#FFA400" width="33" height="2"/>
<path fill="#FFA400" d="M23,33c0,0.553-0.447,1-1,1c-0.553,0-1-0.447-1-1c0-0.553,0.447-1,1-1C22.553,32,23,32.447,23,33"/>
<path fill="#FFA400" d="M45,33c0,0.553-0.447,1-1,1c-0.553,0-1-0.447-1-1c0-0.553,0.447-1,1-1C44.553,32,45,32.447,45,33"/>
<rect x="22" y="32" fill="#FFA400" width="22" height="2"/>
<g opacity="0.5">
	<g>
		<defs>
			<rect id="SVGID_1_" x="32" y="8" width="28" height="14"/>
		</defs>
		<clipPath id="SVGID_2_">
			<use xlink:href="#SVGID_1_"  overflow="visible"/>
		</clipPath>
		<polygon clip-path="url(#SVGID_2_)" fill="#FFA400" points="46.1,22 60,22 46,8 32,8 		"/>
	</g>
</g>
<path fill="#FADF8D" d="M46,8v11c0,1.657,1.344,3,3,3h11L46,8z"/>
<path fill="#EA4848" d="M6,34c0,1.657-1.344,3-3,3c-1.656,0-3-1.343-3-3c0-1.657,1.344-3,3-3C4.656,31,6,32.343,6,34"/>
<rect y="31" fill="#B83737" width="60" height="8"/>
<path fill="#EA4848" d="M60,34c0,1.657-1.344,3-3,3c-1.656,0-3-1.343-3-3c0-1.657,1.344-3,3-3C58.656,31,60,32.343,60,34"/>
<path fill="#EA4848" d="M6,62c0,1.657-1.344,3-3,3c-1.656,0-3-1.343-3-3c0-1.657,1.344-3,3-3C4.656,59,6,60.343,6,62"/>
<rect y="31" fill="#EA4848" width="6" height="31"/>
<path fill="#EA4848" d="M60,62c0,1.657-1.344,3-3,3c-1.656,0-3-1.343-3-3c0-1.657,1.344-3,3-3C58.656,59,60,60.343,60,62"/>
<rect x="54" y="31" fill="#EA4848" width="6" height="31"/>
<rect x="3" y="31" fill="#EA4848" width="54" height="34"/>
<path fill="#FFFFFF" d="M60,22V11c0-1.657-1.344-3-3-3H46L60,22z"/>
<g opacity="0.1">
	<g>
		<defs>
			<rect id="SVGID_3_" x="15" y="41" width="30" height="14"/>
		</defs>
		<clipPath id="SVGID_4_">
			<use xlink:href="#SVGID_3_"  overflow="visible"/>
		</clipPath>
		<rect x="15" y="41" clip-path="url(#SVGID_4_)" width="30" height="14"/>
	</g>
</g>
<g opacity="0.2">
	<g>
		<defs>
			<rect id="SVGID_5_" x="51" y="34" width="6" height="6"/>
		</defs>
		<clipPath id="SVGID_6_">
			<use xlink:href="#SVGID_5_"  overflow="visible"/>
		</clipPath>
		<rect x="51" y="34" clip-path="url(#SVGID_6_)" width="6" height="6"/>
	</g>
</g>
</svg>
