<?xml version="1.0" encoding="utf-8"?>
<!-- Generator: Adobe Illustrator 17.0.0, SVG Export Plug-In . SVG Version: 6.00 Build 0)  -->
<!DOCTYPE svg PUBLIC "-//W3C//DTD SVG 1.1//EN" "http://www.w3.org/Graphics/SVG/1.1/DTD/svg11.dtd">
<svg version="1.1" id="Layer_1" xmlns="http://www.w3.org/2000/svg" xmlns:xlink="http://www.w3.org/1999/xlink" x="0px" y="0px"
	 width="45px" height="60px" viewBox="0 0 45 60" enable-background="new 0 0 45 60" xml:space="preserve">
<path fill="#FEE9B2" d="M5.306,2.814c0,1.462-1.186,2.647-2.647,2.647c-1.461,0-2.647-1.185-2.647-2.647
	c0-1.462,1.186-2.647,2.647-2.647C4.121,0.167,5.306,1.352,5.306,2.814"/>
<path fill="#FEE9B2" d="M5.306,57.52c0,1.462-1.186,2.647-2.647,2.647c-1.461,0-2.647-1.185-2.647-2.647
	c0-1.462,1.186-2.647,2.647-2.647C4.121,54.873,5.306,56.058,5.306,57.52"/>
<rect x="0.012" y="2.814" fill="#FEE9B2" width="5.294" height="54.706"/>
<path fill="#FEE9B2" d="M45.012,2.814c0,1.462-1.186,2.647-2.647,2.647c-1.461,0-2.647-1.185-2.647-2.647
	c0-1.462,1.186-2.647,2.647-2.647C43.826,0.167,45.012,1.352,45.012,2.814"/>
<path fill="#FEE9B2" d="M45.012,57.52c0,1.462-1.186,2.647-2.647,2.647c-1.461,0-2.647-1.185-2.647-2.647
	c0-1.462,1.186-2.647,2.647-2.647C43.826,54.873,45.012,56.058,45.012,57.52"/>
<rect x="39.718" y="2.814" fill="#FEE9B2" width="5.294" height="54.706"/>
<rect x="2.659" y="0.167" fill="#EA4848" width="39.706" height="60"/>
<rect x="2.659" y="0.167" fill="#FEE9B2" width="39.706" height="2.647"/>
<rect x="2.659" y="57.52" fill="#FEE9B2" width="39.706" height="2.647"/>
<g>
	<defs>
		<rect id="SVGID_1_" x="0.012" y="2.814" width="5.294" height="54.706"/>
	</defs>
	<clipPath id="SVGID_2_">
		<use xlink:href="#SVGID_1_"  overflow="visible"/>
	</clipPath>
	<g clip-path="url(#SVGID_2_)">
		<path fill="#FFFFFF" d="M-1.753,30.167c1.462,0,2.647,1.186,2.647,2.647c0,1.461-1.185,2.647-2.647,2.647
			c-1.462,0-2.647-1.186-2.647-2.647C-4.4,31.352-3.214,30.167-1.753,30.167"/>
		<path fill="#FFFFFF" d="M-1.753,24.872c1.462,0,2.647,1.186,2.647,2.647c0,1.461-1.185,2.647-2.647,2.647
			c-1.462,0-2.647-1.186-2.647-2.647C-4.4,26.058-3.214,24.872-1.753,24.872"/>
		<path fill="#FFFFFF" d="M-1.753,19.578c1.462,0,2.647,1.186,2.647,2.647c0,1.461-1.185,2.647-2.647,2.647
			c-1.462,0-2.647-1.186-2.647-2.647C-4.4,20.764-3.214,19.578-1.753,19.578"/>
		<path fill="#FFFFFF" d="M-1.753,14.284c1.462,0,2.647,1.186,2.647,2.647c0,1.461-1.185,2.647-2.647,2.647
			c-1.462,0-2.647-1.186-2.647-2.647C-4.4,15.47-3.214,14.284-1.753,14.284"/>
		<path fill="#FFFFFF" d="M-1.753,8.99c1.462,0,2.647,1.186,2.647,2.647c0,1.461-1.185,2.647-2.647,2.647
			c-1.462,0-2.647-1.186-2.647-2.647C-4.4,10.176-3.214,8.99-1.753,8.99"/>
		<path fill="#FFFFFF" d="M-1.753,3.696c1.462,0,2.647,1.186,2.647,2.647c0,1.461-1.185,2.647-2.647,2.647
			C-3.214,8.99-4.4,7.804-4.4,6.343C-4.4,4.882-3.214,3.696-1.753,3.696"/>
		<path fill="#FFFFFF" d="M-1.753,51.343c1.462,0,2.647,1.186,2.647,2.647c0,1.461-1.185,2.647-2.647,2.647
			c-1.462,0-2.647-1.186-2.647-2.647C-4.4,52.529-3.214,51.343-1.753,51.343"/>
		<path fill="#FFFFFF" d="M-1.753,46.049c1.462,0,2.647,1.186,2.647,2.647c0,1.461-1.185,2.647-2.647,2.647
			c-1.462,0-2.647-1.186-2.647-2.647C-4.4,47.235-3.214,46.049-1.753,46.049"/>
		<path fill="#FFFFFF" d="M-1.753,40.755c1.462,0,2.647,1.186,2.647,2.647c0,1.461-1.185,2.647-2.647,2.647
			c-1.462,0-2.647-1.186-2.647-2.647C-4.4,41.941-3.214,40.755-1.753,40.755"/>
		<path fill="#FFFFFF" d="M-1.753,35.461c1.462,0,2.647,1.186,2.647,2.647c0,1.461-1.185,2.647-2.647,2.647
			c-1.462,0-2.647-1.186-2.647-2.647C-4.4,36.646-3.214,35.461-1.753,35.461"/>
	</g>
</g>
<g>
	<defs>
		<rect id="SVGID_3_" x="39.718" y="2.814" width="5.294" height="54.706"/>
	</defs>
	<clipPath id="SVGID_4_">
		<use xlink:href="#SVGID_3_"  overflow="visible"/>
	</clipPath>
	<g clip-path="url(#SVGID_4_)">
		<path fill="#FFFFFF" d="M46.777,30.167c1.462,0,2.647,1.186,2.647,2.647c0,1.461-1.185,2.647-2.647,2.647
			c-1.462,0-2.647-1.186-2.647-2.647C44.13,31.352,45.315,30.167,46.777,30.167"/>
		<path fill="#FFFFFF" d="M46.777,24.872c1.462,0,2.647,1.186,2.647,2.647c0,1.461-1.185,2.647-2.647,2.647
			c-1.462,0-2.647-1.186-2.647-2.647C44.13,26.058,45.315,24.872,46.777,24.872"/>
		<path fill="#FFFFFF" d="M46.777,19.578c1.462,0,2.647,1.186,2.647,2.647c0,1.461-1.185,2.647-2.647,2.647
			c-1.462,0-2.647-1.186-2.647-2.647C44.13,20.764,45.315,19.578,46.777,19.578"/>
		<path fill="#FFFFFF" d="M46.777,14.284c1.462,0,2.647,1.186,2.647,2.647c0,1.461-1.185,2.647-2.647,2.647
			c-1.462,0-2.647-1.186-2.647-2.647C44.13,15.47,45.315,14.284,46.777,14.284"/>
		<path fill="#FFFFFF" d="M46.777,8.99c1.462,0,2.647,1.186,2.647,2.647c0,1.461-1.185,2.647-2.647,2.647
			c-1.462,0-2.647-1.186-2.647-2.647C44.13,10.176,45.315,8.99,46.777,8.99"/>
		<path fill="#FFFFFF" d="M46.777,3.696c1.462,0,2.647,1.186,2.647,2.647c0,1.461-1.185,2.647-2.647,2.647
			c-1.462,0-2.647-1.186-2.647-2.647C44.13,4.882,45.315,3.696,46.777,3.696"/>
		<path fill="#FFFFFF" d="M46.777,51.343c1.462,0,2.647,1.186,2.647,2.647c0,1.461-1.185,2.647-2.647,2.647
			c-1.462,0-2.647-1.186-2.647-2.647C44.13,52.529,45.315,51.343,46.777,51.343"/>
		<path fill="#FFFFFF" d="M46.777,46.049c1.462,0,2.647,1.186,2.647,2.647c0,1.461-1.185,2.647-2.647,2.647
			c-1.462,0-2.647-1.186-2.647-2.647C44.13,47.235,45.315,46.049,46.777,46.049"/>
		<path fill="#FFFFFF" d="M46.777,40.755c1.462,0,2.647,1.186,2.647,2.647c0,1.461-1.185,2.647-2.647,2.647
			c-1.462,0-2.647-1.186-2.647-2.647C44.13,41.941,45.315,40.755,46.777,40.755"/>
		<path fill="#FFFFFF" d="M46.777,35.461c1.462,0,2.647,1.186,2.647,2.647c0,1.461-1.185,2.647-2.647,2.647
			c-1.462,0-2.647-1.186-2.647-2.647C44.13,36.646,45.315,35.461,46.777,35.461"/>
	</g>
</g>
<g>
	<defs>
		<rect id="SVGID_5_" x="2.659" y="0.167" width="39.706" height="2.647"/>
	</defs>
	<clipPath id="SVGID_6_">
		<use xlink:href="#SVGID_5_"  overflow="visible"/>
	</clipPath>
	<path clip-path="url(#SVGID_6_)" fill="#FFFFFF" d="M9.718-1.598c0,1.462-1.186,2.647-2.647,2.647
		c-1.461,0-2.647-1.185-2.647-2.647c0-1.462,1.186-2.647,2.647-2.647C8.532-4.245,9.718-3.06,9.718-1.598"/>
	<path clip-path="url(#SVGID_6_)" fill="#FFFFFF" d="M15.012-1.598c0,1.462-1.186,2.647-2.647,2.647
		c-1.461,0-2.647-1.185-2.647-2.647c0-1.462,1.186-2.647,2.647-2.647C13.826-4.245,15.012-3.06,15.012-1.598"/>
	<path clip-path="url(#SVGID_6_)" fill="#FFFFFF" d="M20.306-1.598c0,1.462-1.186,2.647-2.647,2.647
		c-1.461,0-2.647-1.185-2.647-2.647c0-1.462,1.186-2.647,2.647-2.647C19.121-4.245,20.306-3.06,20.306-1.598"/>
	<path clip-path="url(#SVGID_6_)" fill="#FFFFFF" d="M25.6-1.598c0,1.462-1.186,2.647-2.647,2.647c-1.461,0-2.647-1.185-2.647-2.647
		c0-1.462,1.186-2.647,2.647-2.647C24.415-4.245,25.6-3.06,25.6-1.598"/>
	<path clip-path="url(#SVGID_6_)" fill="#FFFFFF" d="M30.895-1.598c0,1.462-1.186,2.647-2.647,2.647
		c-1.461,0-2.647-1.185-2.647-2.647c0-1.462,1.186-2.647,2.647-2.647C29.709-4.245,30.895-3.06,30.895-1.598"/>
	<path clip-path="url(#SVGID_6_)" fill="#FFFFFF" d="M36.189-1.598c0,1.462-1.186,2.647-2.647,2.647
		c-1.461,0-2.647-1.185-2.647-2.647c0-1.462,1.186-2.647,2.647-2.647C35.003-4.245,36.189-3.06,36.189-1.598"/>
	<path clip-path="url(#SVGID_6_)" fill="#FFFFFF" d="M41.483-1.598c0,1.462-1.186,2.647-2.647,2.647
		c-1.461,0-2.647-1.185-2.647-2.647c0-1.462,1.186-2.647,2.647-2.647C40.297-4.245,41.483-3.06,41.483-1.598"/>
</g>
<g>
	<defs>
		<rect id="SVGID_7_" x="2.659" y="57.52" width="39.706" height="2.647"/>
	</defs>
	<clipPath id="SVGID_8_">
		<use xlink:href="#SVGID_7_"  overflow="visible"/>
	</clipPath>
	<g clip-path="url(#SVGID_8_)">
		<path fill="#FFFFFF" d="M9.718,61.931c0,1.462-1.186,2.647-2.647,2.647c-1.461,0-2.647-1.185-2.647-2.647
			c0-1.462,1.186-2.647,2.647-2.647C8.532,59.284,9.718,60.47,9.718,61.931"/>
		<path fill="#FFFFFF" d="M15.012,61.931c0,1.462-1.186,2.647-2.647,2.647c-1.461,0-2.647-1.185-2.647-2.647
			c0-1.462,1.186-2.647,2.647-2.647C13.826,59.284,15.012,60.47,15.012,61.931"/>
		<path fill="#FFFFFF" d="M20.306,61.931c0,1.462-1.186,2.647-2.647,2.647c-1.461,0-2.647-1.185-2.647-2.647
			c0-1.462,1.186-2.647,2.647-2.647C19.121,59.284,20.306,60.47,20.306,61.931"/>
		<path fill="#FFFFFF" d="M25.6,61.931c0,1.462-1.186,2.647-2.647,2.647c-1.461,0-2.647-1.185-2.647-2.647
			c0-1.462,1.186-2.647,2.647-2.647C24.415,59.284,25.6,60.47,25.6,61.931"/>
		<path fill="#FFFFFF" d="M30.895,61.931c0,1.462-1.186,2.647-2.647,2.647c-1.461,0-2.647-1.185-2.647-2.647
			c0-1.462,1.186-2.647,2.647-2.647C29.709,59.284,30.895,60.47,30.895,61.931"/>
		<path fill="#FFFFFF" d="M36.189,61.931c0,1.462-1.186,2.647-2.647,2.647c-1.461,0-2.647-1.185-2.647-2.647
			c0-1.462,1.186-2.647,2.647-2.647C35.003,59.284,36.189,60.47,36.189,61.931"/>
		<path fill="#FFFFFF" d="M41.483,61.931c0,1.462-1.186,2.647-2.647,2.647c-1.461,0-2.647-1.185-2.647-2.647
			c0-1.462,1.186-2.647,2.647-2.647C40.297,59.284,41.483,60.47,41.483,61.931"/>
	</g>
</g>
<polygon opacity="0.2" points="2.659,27.52 32.659,57.52 2.659,57.52 "/>
<text transform="matrix(1 0 0 1 5.3076 53.1079)"><tspan x="0" y="0" fill="#FED771" font-family="'GothamRounded-Bold'" font-size="10.5882">1</tspan><tspan x="5.432" y="-3.529" fill="#FED771" font-family="'GothamRounded-Bold'" font-size="7.0588">st</tspan></text>
<path fill="#FED771" d="M34.015,31.47v-1.488l1.667-0.834c0.177-0.047,0.356-0.171,0.445-0.386c0.17-0.41,0.149-1.049-2.256-3.454
	c-0.15-0.155-0.595-0.708-0.003-1.3c0.119-0.118,0.17-0.288,0.137-0.453c-0.093-0.463-0.84-4.104-1.749-5.724
	c0.456-0.269,1.053-0.749,1.315-1.513c0.302-0.88,0.086-1.88-0.612-2.919c-0.024-0.048-0.598-1.169-1.786-1.169
	c-0.477,0-0.969,0.185-1.467,0.553l-1.744-4.361c-0.09-0.224-0.327-0.351-0.561-0.307c-0.236,0.045-0.407,0.252-0.407,0.493v1.798
	l-1.15-1.15c-0.143-0.144-0.358-0.186-0.546-0.109c-0.188,0.077-0.309,0.261-0.309,0.463v1.221
	c-0.716-0.311-1.792-0.719-2.507-0.719c-1.058,0-3.718,0.926-3.921,1.008c-0.31,0.043-7.613,1.114-7.613,5.511
	c0,0.027-0.024,2.728-1.544,3.574c-0.159,0.089-0.258,0.256-0.258,0.438c0,0.995,0.352,2.715,1.569,3.305
	c-0.886,1.066-2.374,3.225-1.541,4.883c0.047,0.137,1.183,3.359,3.276,4.305c0.24,0.108,0.492,0.163,0.75,0.163
	c0.546,0,1.004-0.238,1.373-0.43c0.111-0.058,0.266-0.139,0.363-0.173c0.012,0.028,0.027,0.068,0.043,0.122
	c0.175,0.607-1.046,2.49-1.775,3.614c-0.541,0.834-1.008,1.555-1.218,2.079c-0.057,0.142-0.045,0.304,0.031,0.437
	c0.077,0.133,0.211,0.224,0.363,0.246c0.069,0.01,6.897,1.055,11.722,6.845c0.097,0.117,0.24,0.18,0.385,0.18
	c0.057,0,0.115-0.01,0.17-0.03c0.199-0.072,0.331-0.261,0.331-0.472c0-0.067,0.034-6.581,2.667-8.526
	c0.971-0.01,4.182-0.121,5.21-1.149c0.038-0.038,1.651-2.361,0.648-3.363L34.015,31.47z"/>
</svg>
