<?xml version="1.0" encoding="utf-8"?>
<!-- Generator: Adobe Illustrator 18.1.0, SVG Export Plug-In . SVG Version: 6.00 Build 0)  -->
<!DOCTYPE svg PUBLIC "-//W3C//DTD SVG 1.1//EN" "http://www.w3.org/Graphics/SVG/1.1/DTD/svg11.dtd">
<svg version="1.1" id="bigplay" xmlns="http://www.w3.org/2000/svg" xmlns:xlink="http://www.w3.org/1999/xlink" x="0px" y="0px"
	 viewBox="-369.6 199.1 99.2 198.4" enable-background="new -369.6 199.1 99.2 198.4" xml:space="preserve" width="100px" height="200px">
<g>
	<circle opacity="0.5" fill="#333333" cx="-320" cy="347.9" r="35.4"/>
	<circle fill="none" stroke="#FFFFFF" stroke-width="3" stroke-miterlimit="10" cx="-320" cy="347.9" r="35.4"/>
	<path fill="#FFFFFF" d="M-303.8,347.9l-24.7-14.3c-0.3-0.2-0.7-0.2-0.9,0c-0.3,0.2-0.5,0.4-0.5,0.7v28.5c0,0.3,0.2,0.6,0.5,0.7
		c0.1,0.1,0.3,0.1,0.5,0.1c0.1,0,0.3,0,0.5-0.1l24.7-14.3c0.3-0.2,0.4-0.4,0.4-0.7C-303.4,348.3-303.6,348.1-303.8,347.9z"/>
</g>
<g>
	<circle opacity="0.5" fill="#333333" cx="-320" cy="248.7" r="35.4"/>
	<circle fill="none" stroke="#FFFFFF" stroke-width="3" stroke-miterlimit="10" cx="-320" cy="248.7" r="35.4"/>
	<path fill="#FFFFFF" d="M-329,264.3c-0.1,0-0.4,0-0.5-0.1c-0.3-0.2-0.5-0.4-0.5-0.7V235c0-0.3,0.2-0.6,0.5-0.7
		c0.3-0.2,0.6-0.2,0.9,0l24.7,14.3c0.3,0.2,0.4,0.4,0.4,0.7s-0.2,0.6-0.4,0.7l-24.7,14.3C-328.7,264.3-328.8,264.3-329,264.3z
		 M-328,236.5V262l22.1-12.8L-328,236.5z"/>
</g>
</svg>
