<?xml version="1.0" encoding="utf-8"?>
<!-- Generator: Adobe Illustrator 17.1.0, SVG Export Plug-In . SVG Version: 6.00 Build 0)  -->
<!DOCTYPE svg PUBLIC "-//W3C//DTD SVG 1.1//EN" "http://www.w3.org/Graphics/SVG/1.1/DTD/svg11.dtd">
<svg version="1.1" xmlns="http://www.w3.org/2000/svg" xmlns:xlink="http://www.w3.org/1999/xlink" x="0px" y="0px"
	 viewBox="0 0 32 32" enable-background="new 0 0 32 32" xml:space="preserve">
<g id="original" display="none">
	
		<line display="inline" fill="none" stroke="#E42A33" stroke-width="3.4005" stroke-linecap="round" stroke-linejoin="round" stroke-miterlimit="10" x1="10.264" y1="21.112" x2="10.264" y2="23.223"/>
	
		<line display="inline" fill="none" stroke="#E42A33" stroke-width="3.4005" stroke-linecap="round" stroke-linejoin="round" stroke-miterlimit="10" x1="22.609" y1="21.112" x2="22.609" y2="23.223"/>
	
		<polygon display="inline" fill="none" stroke="#E42A33" stroke-width="2.267" stroke-linecap="round" stroke-linejoin="round" stroke-miterlimit="10" points="
		11.512,7.969 21.288,7.969 24.473,14.515 8.263,14.515 	"/>
	
		<line display="inline" fill="none" stroke="#E42A33" stroke-width="2.267" stroke-linecap="round" stroke-linejoin="round" stroke-miterlimit="10" x1="24.473" y1="16.676" x2="8.263" y2="16.676"/>
	
		<line display="inline" fill="none" stroke="#E42A33" stroke-width="2.267" stroke-linecap="round" stroke-linejoin="round" stroke-miterlimit="10" x1="24.473" y1="19.898" x2="8.263" y2="19.898"/>
	<polygon display="inline" fill="#E42A33" points="25.609,19.877 7.141,19.898 7.141,14.515 25.609,14.494 	"/>
	<circle display="inline" fill="#FFFFFF" cx="9.546" cy="17.206" r="1.283"/>
	<circle display="inline" fill="#FFFFFF" cx="23.19" cy="17.245" r="1.283"/>
</g>
<g id="expanded">
	<polygon fill="none" points="20.58,9.103 12.215,9.103 10.091,13.381 22.661,13.381 	"/>
	<g>
		<polygon fill="none" points="20.58,9.103 12.215,9.103 10.091,13.381 22.661,13.381 		"/>
		<path fill="#E42A33" d="M25.408,13.846l-3.1-6.373c-0.19-0.39-0.586-0.638-1.02-0.638h-9.776c-0.431,0-0.824,0.244-1.015,0.63
			l-3.25,6.546c-0.079,0.16-0.105,0.332-0.104,0.504H7.141v0.111v1.994c-0.001,0.019-0.011,0.036-0.011,0.056
			s0.01,0.036,0.011,0.056v3.11c-0.001,0.019-0.011,0.036-0.011,0.056c0,0.626,0.507,1.134,1.133,1.134h0.309
			c-0.001,0.027-0.008,0.053-0.008,0.081v2.111c0,0.939,0.761,1.7,1.7,1.7s1.7-0.761,1.7-1.7v-2.111
			c0-0.028-0.007-0.054-0.008-0.081h8.962c-0.001,0.027-0.008,0.053-0.008,0.081v2.111c0,0.939,0.761,1.7,1.7,1.7s1.7-0.761,1.7-1.7
			v-2.111c0-0.028-0.007-0.054-0.008-0.081h0.171c0.626,0,1.133-0.508,1.133-1.134c0-0.007-0.004-0.013-0.004-0.021h0.008v-5.28
			c0.002-0.029,0.017-0.053,0.017-0.082C25.626,14.265,25.545,14.033,25.408,13.846z M9.546,18.489
			c-0.709,0-1.283-0.574-1.283-1.283c0-0.708,0.574-1.283,1.283-1.283s1.283,0.574,1.283,1.283
			C10.829,17.915,10.255,18.489,9.546,18.489z M10.091,13.381l2.124-4.278h8.365l2.081,4.278H10.091z M23.19,18.528
			c-0.709,0-1.283-0.575-1.283-1.283c0-0.709,0.574-1.283,1.283-1.283c0.709,0,1.283,0.574,1.283,1.283
			C24.473,17.954,23.898,18.528,23.19,18.528z"/>
	</g>
</g>
</svg>
