<?xml version="1.0" encoding="utf-8"?>
<!-- Generator: Adobe Illustrator 17.1.0, SVG Export Plug-In . SVG Version: 6.00 Build 0)  -->
<!DOCTYPE svg PUBLIC "-//W3C//DTD SVG 1.1//EN" "http://www.w3.org/Graphics/SVG/1.1/DTD/svg11.dtd">
<svg version="1.1" xmlns="http://www.w3.org/2000/svg" xmlns:xlink="http://www.w3.org/1999/xlink" x="0px" y="0px"
	 viewBox="0 0 32 32" enable-background="new 0 0 32 32" xml:space="preserve">
<g id="original" display="none">
	<path display="inline" fill="#E42A33" d="M25.896,6.917h-20c-1.104,0-2,0.896-2,2v14c0,1.103,0.896,2,2,2h20c1.104,0,2-0.896,2-2
		v-14C27.896,7.812,26.999,6.917,25.896,6.917z"/>
	<path display="inline" fill="#FFFFFF" d="M24.914,9.003H6.943c-0.662,0-1.198,0.536-1.198,1.198v8.387
		c0,0.454,0.256,0.869,0.662,1.072c0.17,0.084,0.353,0.126,0.536,0.126c0.254,0,0.507-0.081,0.719-0.24l3.003-2.252
		c0.529-0.397,1.33-0.347,1.789,0.112l0.831,0.831c0.468,0.468,1.226,0.468,1.694,0l5.256-5.256c0.468-0.467,1.123-0.387,1.464,0.18
		l2.189,3.648c0.277,0.461,0.825,0.682,1.347,0.538c0.519-0.144,0.878-0.617,0.878-1.155v-5.991
		C26.113,9.539,25.576,9.003,24.914,9.003z M9.938,14.993c-0.993,0-1.797-0.804-1.797-1.797s0.804-1.797,1.797-1.797
		s1.797,0.804,1.797,1.797S10.931,14.993,9.938,14.993z"/>
</g>
<g id="expanded">
	<g>
		<circle fill="#E42A33" cx="10.009" cy="13.279" r="1.797"/>
		<path fill="#E42A33" d="M26,7H6C4.896,7,4,7.896,4,9v14c0,1.103,0.896,2,2,2h20c1.104,0,2-0.896,2-2V9C28,7.895,27.104,7,26,7z
			 M26.184,16.275c0,0.538-0.359,1.011-0.878,1.155c-0.522,0.144-1.07-0.077-1.347-0.538l-2.189-3.648
			c-0.34-0.567-0.996-0.648-1.464-0.18L15.05,18.32c-0.468,0.468-1.226,0.468-1.694,0l-0.831-0.831
			c-0.459-0.459-1.26-0.509-1.789-0.112l-3.003,2.252c-0.212,0.159-0.465,0.24-0.719,0.24c-0.183,0-0.366-0.042-0.536-0.126
			c-0.406-0.203-0.662-0.618-0.662-1.072v-8.387c0-0.662,0.536-1.198,1.198-1.198h17.972c0.662,0,1.198,0.536,1.198,1.198V16.275z"
			/>
	</g>
</g>
</svg>
