<?xml version="1.0" encoding="utf-8"?>
<!-- Generator: Adobe Illustrator 17.1.0, SVG Export Plug-In . SVG Version: 6.00 Build 0)  -->
<!DOCTYPE svg PUBLIC "-//W3C//DTD SVG 1.1//EN" "http://www.w3.org/Graphics/SVG/1.1/DTD/svg11.dtd">
<svg version="1.1" xmlns="http://www.w3.org/2000/svg" xmlns:xlink="http://www.w3.org/1999/xlink" x="0px" y="0px"
	 viewBox="0 0 30 30" enable-background="new 0 0 30 30" xml:space="preserve">
<g id="original" display="none">
</g>
<g id="expanded">
	<g>
		<path fill-rule="evenodd" clip-rule="evenodd" fill="#E42A33" d="M23.251,5.832c-0.304,0-0.605,0.022-0.905,0.064
			C20.634,3.565,17.933,2.165,15,2.165c-2.933,0-5.633,1.399-7.346,3.731c-0.3-0.043-0.6-0.064-0.905-0.064
			c-3.538,0-6.417,2.879-6.417,6.417s2.879,6.417,6.417,6.417c0.784,0,1.552-0.143,2.275-0.42C10.684,19.694,12.794,20.5,15,20.5
			c2.208,0,4.316-0.807,5.976-2.254c0.723,0.277,1.491,0.42,2.275,0.42c3.538,0,6.417-2.879,6.417-6.417S26.789,5.832,23.251,5.832z
			 M23.251,16.833c-0.981,0-1.886-0.315-2.632-0.84c-1.345,1.621-3.348,2.674-5.619,2.674c-2.27,0-4.273-1.053-5.619-2.674
			c-0.745,0.525-1.651,0.84-2.632,0.84c-2.532,0-4.584-2.052-4.584-4.584s2.052-4.584,4.584-4.584c0.62,0,1.207,0.127,1.744,0.349
			C9.71,5.642,12.152,3.999,15,3.999c2.848,0,5.29,1.643,6.506,4.016c0.538-0.222,1.127-0.349,1.745-0.349
			c2.532,0,4.584,2.052,4.584,4.584S25.783,16.833,23.251,16.833z"/>
		<path fill-rule="evenodd" clip-rule="evenodd" fill="#E42A33" d="M13.166,26.001c0,1.013,0.82,1.833,1.833,1.833
			c1.013,0,1.834-0.82,1.834-1.833c0-1.013-1.834-3.667-1.834-3.667S13.166,24.988,13.166,26.001z"/>
	</g>
</g>
</svg>
