<?xml version="1.0" encoding="utf-8"?>
<!-- Generator: Adobe Illustrator 17.1.0, SVG Export Plug-In . SVG Version: 6.00 Build 0)  -->
<!DOCTYPE svg PUBLIC "-//W3C//DTD SVG 1.1//EN" "http://www.w3.org/Graphics/SVG/1.1/DTD/svg11.dtd">
<svg version="1.1" xmlns="http://www.w3.org/2000/svg" xmlns:xlink="http://www.w3.org/1999/xlink" x="0px" y="0px"
	 viewBox="0 0 32 32" enable-background="new 0 0 32 32" xml:space="preserve">
<g id="original" display="none">
	
		<line display="inline" fill="none" stroke="#E42A33" stroke-width="2" stroke-linecap="round" stroke-linejoin="round" stroke-miterlimit="10" x1="8.333" y1="7.525" x2="8.333" y2="26.833"/>
	
		<path display="inline" fill="#E42A33" stroke="#E42A33" stroke-width="2" stroke-linecap="round" stroke-linejoin="round" stroke-miterlimit="10" d="
		M8.453,18.017c0,0,3.799-1.318,6.333,1.217s8.333-1.014,8.333-1.014V7.675c0,0-5.799,3.548-8.333,1.014S8.453,7.473,8.453,7.473"/>
</g>
<g id="expanded">
	<path fill="#E42A33" d="M23.608,6.804c-0.314-0.178-0.701-0.171-1.011,0.02c-1.331,0.813-5.491,2.771-7.104,1.159
		c-2.944-2.943-7.189-1.518-7.368-1.454C8.087,6.542,8.06,6.57,8.024,6.588C7.626,6.719,7.333,7.082,7.333,7.525v19.308
		c0,0.553,0.448,1,1,1s1-0.447,1-1v-8.014c1.011-0.21,3.196-0.427,4.746,1.122c0.893,0.893,2.041,1.214,3.231,1.214
		c2.815,0,5.866-1.797,6.331-2.082c0.297-0.182,0.478-0.504,0.478-0.853V7.676C24.12,7.313,23.924,6.98,23.608,6.804z"/>
</g>
</svg>
