<?xml version="1.0" encoding="utf-8"?>
<!-- Generator: Adobe Illustrator 17.1.0, SVG Export Plug-In . SVG Version: 6.00 Build 0)  -->
<!DOCTYPE svg PUBLIC "-//W3C//DTD SVG 1.1//EN" "http://www.w3.org/Graphics/SVG/1.1/DTD/svg11.dtd">
<svg version="1.1" xmlns="http://www.w3.org/2000/svg" xmlns:xlink="http://www.w3.org/1999/xlink" x="0px" y="0px"
	 viewBox="0 0 32 32" enable-background="new 0 0 32 32" xml:space="preserve">
<g id="original" display="none">
	<g display="inline">
		<g>
			<path fill="none" d="M23.003,17.135H7.559c-0.268,0-0.483,0.282-0.483,0.631c0,0.349,0.216,0.631,0.483,0.631h15.444
				c0.268,0,0.483-0.282,0.483-0.631C23.486,17.418,23.271,17.135,23.003,17.135z"/>
			<path fill="none" d="M23.003,24.709H7.559c-0.268,0-0.483,0.282-0.483,0.631c0,0.349,0.216,0.631,0.483,0.631h15.444
				c0.268,0,0.483-0.282,0.483-0.631C23.486,24.992,23.271,24.709,23.003,24.709z"/>
			<path fill="none" d="M23.003,20.922H7.559c-0.268,0-0.483,0.282-0.483,0.631c0,0.349,0.216,0.631,0.483,0.631h15.444
				c0.268,0,0.483-0.282,0.483-0.631C23.486,21.205,23.271,20.922,23.003,20.922z"/>
			<path fill="none" d="M23.003,13.348H7.559c-0.268,0-0.483,0.282-0.483,0.631c0,0.349,0.216,0.631,0.483,0.631h15.444
				c0.268,0,0.483-0.282,0.483-0.631C23.486,13.631,23.271,13.348,23.003,13.348z"/>
		</g>
	</g>
	<g display="inline">
		<g>
			<path fill="none" d="M23.722,17.135H8.278c-0.268,0-0.483,0.282-0.483,0.631c0,0.349,0.216,0.631,0.483,0.631h15.444
				c0.268,0,0.483-0.282,0.483-0.631C24.205,17.418,23.99,17.135,23.722,17.135z"/>
			<path fill="none" d="M23.722,24.709H8.278c-0.268,0-0.483,0.282-0.483,0.631c0,0.349,0.216,0.631,0.483,0.631h15.444
				c0.268,0,0.483-0.282,0.483-0.631C24.205,24.992,23.99,24.709,23.722,24.709z"/>
			<path fill="none" d="M23.722,20.922H8.278c-0.268,0-0.483,0.282-0.483,0.631c0,0.349,0.216,0.631,0.483,0.631h15.444
				c0.268,0,0.483-0.282,0.483-0.631C24.205,21.205,23.99,20.922,23.722,20.922z"/>
			<path fill="none" d="M23.722,13.348h-6.444c-0.268,0-0.483,0.282-0.483,0.631c0,0.349,0.216,0.631,0.483,0.631h6.444
				c0.268,0,0.483-0.282,0.483-0.631C24.205,13.631,23.99,13.348,23.722,13.348z"/>
			<g>
				<path fill="#E42A33" d="M24.836,4.512l-1.262-1.262l-2.525-2.525h-1.262H7.164c-1.394,0-2.525,1.132-2.525,2.525v25.247
					c0,1.394,1.132,2.525,2.525,2.525h17.673c1.393,0,2.525-1.13,2.525-2.525V8.299V7.037L24.836,4.512z M24.836,8.299h-5.049V3.249
					V1.987l1.262,1.262l3.787,3.787l1.262,1.262H24.836z"/>
			</g>
			<g>
				<path fill="#E42A33" d="M7.164,27.234l1.262,1.262l2.525,2.525h1.262h12.623c1.394,0,2.525-1.132,2.525-2.525V3.249
					c0-1.394-1.132-2.525-2.525-2.525H7.164c-1.393,0-2.525,1.13-2.525,2.525v20.198v1.262L7.164,27.234z M7.164,23.447h5.049v5.049
					v1.262l-1.262-1.262l-3.787-3.787l-1.262-1.262H7.164z"/>
			</g>
		</g>
	</g>
	<path display="inline" fill="#FFFFFF" d="M14.007,11.848c0,0.552-0.448,1-1,1H8.08c-0.552,0-1-0.448-1-1V7.647c0-0.552,0.448-1,1-1
		h4.927c0.552,0,1,0.448,1,1V11.848z"/>
	<g display="inline">
		<path fill="#FFFFFF" d="M24.833,16.735H7.736c-0.338,0-0.61-0.224-0.61-0.5c0-0.276,0.273-0.5,0.61-0.5h17.097
			c0.338,0,0.61,0.224,0.61,0.5C25.444,16.511,25.171,16.735,24.833,16.735z"/>
	</g>
	<g display="inline">
		<path fill="#FFFFFF" d="M24.833,8.276h-8.479c-0.338,0-0.61-0.224-0.61-0.5c0-0.276,0.273-0.5,0.61-0.5h8.479
			c0.338,0,0.61,0.224,0.61,0.5C25.444,8.053,25.171,8.276,24.833,8.276z"/>
	</g>
	<g display="inline">
		<path fill="#FFFFFF" d="M24.833,12.485h-8.479c-0.338,0-0.61-0.224-0.61-0.5c0-0.276,0.273-0.5,0.61-0.5h8.479
			c0.338,0,0.61,0.224,0.61,0.5C25.444,12.261,25.171,12.485,24.833,12.485z"/>
	</g>
	<g display="inline">
		<path fill="#FFFFFF" d="M24.833,20.943H7.736c-0.338,0-0.61-0.224-0.61-0.5c0-0.276,0.273-0.5,0.61-0.5h17.097
			c0.338,0,0.61,0.224,0.61,0.5C25.444,20.719,25.171,20.943,24.833,20.943z"/>
	</g>
	<g display="inline">
		<path fill="#FFFFFF" d="M24.833,25.151H7.736c-0.338,0-0.61-0.224-0.61-0.5c0-0.276,0.273-0.5,0.61-0.5h17.097
			c0.338,0,0.61,0.224,0.61,0.5C25.444,24.928,25.171,25.151,24.833,25.151z"/>
	</g>
</g>
<g id="expanded">
	<g>
		<path fill="#E42A33" d="M25.288,0.75h-4.065h-1.262H7.337c-0.174,0-0.344,0.018-0.509,0.051C6.696,0.829,6.57,0.873,6.445,0.92
			c-0.029,0.011-0.061,0.016-0.09,0.028c-0.095,0.04-0.181,0.095-0.27,0.147c-0.052,0.03-0.109,0.053-0.159,0.086
			C5.858,1.227,5.8,1.285,5.737,1.337C5.675,1.388,5.609,1.433,5.552,1.49C5.51,1.531,5.478,1.582,5.439,1.626
			C5.372,1.704,5.301,1.778,5.244,1.864C5.238,1.871,5.236,1.88,5.231,1.888C5.146,2.015,5.071,2.15,5.011,2.292
			C5.001,2.315,4.998,2.34,4.989,2.362C4.938,2.493,4.892,2.626,4.864,2.766C4.83,2.93,4.812,3.101,4.812,3.275v20.198v1.262v4.015
			c0,1.394,1.132,2.525,2.525,2.525h3.787h1.262h12.901c0.174,0,0.344-0.018,0.509-0.051c0.103-0.021,0.199-0.059,0.297-0.092
			c0.058-0.02,0.12-0.031,0.177-0.055c0.139-0.059,0.271-0.133,0.396-0.215c0.01-0.007,0.023-0.011,0.033-0.018
			c0.07-0.047,0.13-0.107,0.195-0.161c0.059-0.049,0.124-0.093,0.179-0.148c0.016-0.016,0.028-0.036,0.043-0.053
			c0.096-0.101,0.187-0.206,0.265-0.321c0.005-0.008,0.008-0.016,0.013-0.024c0.084-0.128,0.159-0.262,0.22-0.405
			c0.012-0.029,0.017-0.061,0.028-0.09c0.047-0.125,0.092-0.25,0.119-0.384c0.034-0.164,0.051-0.334,0.051-0.509V8.324V7.062V3.275
			C27.812,1.88,26.681,0.75,25.288,0.75z M7.08,7.672c0-0.552,0.448-1,1-1h4.927c0.552,0,1,0.448,1,1v4.201c0,0.552-0.448,1-1,1
			H8.08c-0.552,0-1-0.448-1-1V7.672z M24.833,23.75H7.736c-0.338,0-0.61-0.224-0.61-0.5c0-0.276,0.273-0.5,0.61-0.5h17.097
			c0.338,0,0.61,0.224,0.61,0.5C25.444,23.526,25.171,23.75,24.833,23.75z M24.833,19.75H7.736c-0.338,0-0.61-0.224-0.61-0.5
			c0-0.276,0.273-0.5,0.61-0.5h17.097c0.338,0,0.61,0.224,0.61,0.5C25.444,19.526,25.171,19.75,24.833,19.75z M24.833,15.75H7.736
			c-0.338,0-0.61-0.224-0.61-0.5s0.273-0.5,0.61-0.5h17.097c0.338,0,0.61,0.224,0.61,0.5S25.171,15.75,24.833,15.75z M24.833,11.75
			h-8.479c-0.338,0-0.61-0.224-0.61-0.5s0.272-0.5,0.61-0.5h8.479c0.338,0,0.61,0.224,0.61,0.5S25.171,11.75,24.833,11.75z
			 M24.833,7.75h-8.479c-0.338,0-0.61-0.224-0.61-0.5c0-0.276,0.272-0.5,0.61-0.5h8.479c0.338,0,0.61,0.224,0.61,0.5
			C25.444,7.526,25.171,7.75,24.833,7.75z"/>
	</g>
</g>
</svg>
