<?xml version="1.0" encoding="utf-8"?>
<!-- Generator: Adobe Illustrator 17.1.0, SVG Export Plug-In . SVG Version: 6.00 Build 0)  -->
<!DOCTYPE svg PUBLIC "-//W3C//DTD SVG 1.1//EN" "http://www.w3.org/Graphics/SVG/1.1/DTD/svg11.dtd">
<svg version="1.1" xmlns="http://www.w3.org/2000/svg" xmlns:xlink="http://www.w3.org/1999/xlink" x="0px" y="0px"
	 viewBox="0 0 32 32" enable-background="new 0 0 32 32" xml:space="preserve">
<g id="original" display="none">
	<circle display="inline" fill="#E42A33" cx="16.375" cy="26.397" r="0.848"/>
	
		<path display="inline" fill="#E42A33" stroke="#E42A33" stroke-linecap="round" stroke-linejoin="bevel" stroke-miterlimit="10" d="
		M16.432,4.758V4.756c-0.018,0-0.039,0.001-0.057,0.001c-0.018,0-0.039-0.001-0.057-0.001v0.002
		c-1.851,0.044-7.251,1.197-7.039,6.717c0.183,4.752,5.14,12.582,6.69,14.921c0.151,0.228,0.27-0.596,0.349-0.48h0.114
		c0.079-0.116,0.198,0.708,0.349,0.48c1.55-2.339,6.507-10.169,6.69-14.921C23.684,5.956,18.283,4.803,16.432,4.758z"/>
	<circle display="inline" fill="#FFFFFF" cx="16.375" cy="11.692" r="2.601"/>
</g>
<g id="expanded">
	<path fill="#E42A33" d="M23.971,11.495c0.074-1.917-0.481-3.52-1.648-4.765c-1.764-1.881-4.524-2.44-5.877-2.475l-0.139,0.002
		c-1.351,0.033-4.109,0.59-5.875,2.471c-1.169,1.244-1.725,2.849-1.651,4.767c0.188,4.886,5.232,12.853,6.773,15.178l0.035,0.02
		c0.121,0.321,0.425,0.552,0.788,0.552s0.667-0.231,0.788-0.552l0.035-0.019C18.739,24.348,23.783,16.381,23.971,11.495z
		 M13.774,11.692c0-1.437,1.165-2.601,2.601-2.601c1.436,0,2.601,1.164,2.601,2.601c0,1.437-1.165,2.601-2.601,2.601
		C14.939,14.293,13.774,13.129,13.774,11.692z"/>
</g>
</svg>
