<?xml version="1.0" encoding="utf-8"?>
<!-- Generator: Adobe Illustrator 17.1.0, SVG Export Plug-In . SVG Version: 6.00 Build 0)  -->
<!DOCTYPE svg PUBLIC "-//W3C//DTD SVG 1.1//EN" "http://www.w3.org/Graphics/SVG/1.1/DTD/svg11.dtd">
<svg version="1.1" xmlns="http://www.w3.org/2000/svg" xmlns:xlink="http://www.w3.org/1999/xlink" x="0px" y="0px"
	 viewBox="0 0 30 30" enable-background="new 0 0 30 30" xml:space="preserve">
<g id="original" display="none">
</g>
<g id="expanded">
	<g>
		<path fill-rule="evenodd" clip-rule="evenodd" fill="#E42A33" d="M19.013,25.792l-1.031-0.594
			c0.031-0.179,0.055-0.362,0.055-0.551c0-0.19-0.024-0.372-0.057-0.551l1.034-0.596c0.482-0.282,0.647-0.901,0.37-1.381
			c-0.279-0.486-0.898-0.652-1.382-0.372l-1.042,0.602c-0.279-0.238-0.594-0.424-0.945-0.55v-1.197c0-0.56-0.455-1.013-1.013-1.013
			c-0.559,0-1.012,0.454-1.012,1.013v1.196c-0.351,0.125-0.667,0.314-0.947,0.552l-1.04-0.602c-0.486-0.279-1.105-0.115-1.385,0.371
			c-0.279,0.482-0.111,1.103,0.372,1.382l1.029,0.594c-0.033,0.18-0.055,0.363-0.055,0.553c0,0.19,0.021,0.372,0.055,0.551
			l-1.029,0.594c-0.485,0.279-0.652,0.902-0.372,1.386c0.279,0.483,0.899,0.648,1.382,0.369l1.041-0.598
			c0.279,0.236,0.596,0.423,0.948,0.548v1.2c0,0.559,0.454,1.01,1.012,1.01c0.559,0,1.013-0.451,1.013-1.01v-1.2
			c0.351-0.125,0.67-0.312,0.947-0.552l1.041,0.602c0.485,0.279,1.103,0.115,1.382-0.369C19.663,26.694,19.498,26.075,19.013,25.792
			z M15,25.659c-0.559,0-1.013-0.455-1.013-1.013s0.455-1.011,1.013-1.011c0.559,0,1.012,0.452,1.012,1.011S15.559,25.659,15,25.659
			z"/>
		<path fill-rule="evenodd" clip-rule="evenodd" fill="#E42A33" d="M27.501,23.074l-0.692-0.184
			c-0.017-0.22-0.069-0.429-0.166-0.629l0.503-0.503c0.236-0.236,0.235-0.618,0-0.851c-0.234-0.235-0.614-0.236-0.85,0l-0.504,0.501
			c-0.198-0.093-0.409-0.147-0.628-0.165l-0.184-0.691c-0.086-0.32-0.415-0.512-0.738-0.426c-0.321,0.087-0.508,0.417-0.425,0.738
			l0.184,0.682c-0.091,0.062-0.177,0.131-0.258,0.21c-0.079,0.081-0.146,0.167-0.208,0.255l-0.682-0.184
			c-0.321-0.086-0.653,0.107-0.739,0.426c-0.086,0.322,0.107,0.651,0.425,0.738l0.688,0.185c0.019,0.216,0.074,0.427,0.171,0.628
			l-0.505,0.505c-0.234,0.235-0.233,0.615,0.002,0.849c0.234,0.234,0.614,0.236,0.847,0.002l0.506-0.506
			c0.198,0.098,0.411,0.153,0.63,0.169l0.181,0.689c0.088,0.321,0.415,0.512,0.738,0.426c0.32-0.086,0.513-0.415,0.427-0.74
			l-0.184-0.682c0.086-0.061,0.174-0.129,0.255-0.208c0.079-0.08,0.146-0.168,0.208-0.257l0.683,0.184
			c0.321,0.086,0.652-0.106,0.737-0.425C28.01,23.492,27.821,23.162,27.501,23.074z M25.446,23.457
			c-0.236,0.236-0.617,0.235-0.852,0c-0.233-0.233-0.235-0.615,0-0.851c0.235-0.234,0.617-0.234,0.852,0
			C25.679,22.841,25.679,23.224,25.446,23.457z"/>
		<path fill-rule="evenodd" clip-rule="evenodd" fill="#E42A33" d="M7.147,19.994l-0.68,0.183c-0.063-0.086-0.129-0.173-0.209-0.254
			c-0.081-0.079-0.167-0.147-0.257-0.208l0.183-0.684c0.086-0.321-0.105-0.652-0.423-0.737c-0.322-0.086-0.652,0.105-0.738,0.425
			L4.837,19.41c-0.218,0.018-0.427,0.072-0.627,0.166l-0.505-0.503c-0.236-0.236-0.616-0.235-0.85,0
			c-0.235,0.235-0.235,0.616,0,0.851l0.503,0.503c-0.094,0.201-0.149,0.412-0.166,0.629l-0.69,0.184
			c-0.322,0.088-0.513,0.415-0.427,0.738c0.087,0.32,0.417,0.508,0.739,0.425l0.68-0.185c0.061,0.092,0.129,0.178,0.211,0.258
			c0.079,0.079,0.165,0.149,0.254,0.208l-0.183,0.682c-0.086,0.322,0.105,0.654,0.425,0.74C4.525,24.191,4.852,24,4.938,23.679
			l0.186-0.688c0.218-0.018,0.43-0.073,0.63-0.168l0.504,0.504c0.234,0.236,0.614,0.232,0.85-0.002c0.233-0.233,0.236-0.614,0-0.849
			l-0.505-0.505c0.097-0.198,0.154-0.412,0.168-0.63l0.691-0.183c0.319-0.087,0.51-0.415,0.424-0.738
			C7.8,20.102,7.471,19.911,7.147,19.994z M5.407,21.625c-0.235,0.235-0.616,0.235-0.852,0c-0.233-0.234-0.233-0.617,0-0.85
			c0.236-0.234,0.617-0.234,0.852,0C5.642,21.009,5.639,21.391,5.407,21.625z"/>
		<path fill-rule="evenodd" clip-rule="evenodd" fill="#E42A33" d="M29.668,10.454c0-3.538-2.879-6.417-6.417-6.417
			c-0.304,0-0.605,0.022-0.905,0.064C20.635,1.769,17.933,0.37,15,0.37c-2.933,0-5.633,1.399-7.346,3.731
			c-0.3-0.043-0.6-0.064-0.905-0.064c-3.538,0-6.417,2.879-6.417,6.417s2.879,6.417,6.417,6.417c0.784,0,1.552-0.143,2.275-0.42
			c1.659,1.447,3.77,2.254,5.976,2.254c2.208,0,4.316-0.807,5.976-2.254c0.723,0.277,1.491,0.42,2.275,0.42
			C26.789,16.871,29.668,13.992,29.668,10.454z M20.619,14.198c-1.345,1.621-3.348,2.674-5.619,2.674
			c-2.27,0-4.273-1.053-5.619-2.674c-0.745,0.525-1.651,0.84-2.632,0.84c-2.532,0-4.584-2.052-4.584-4.584S4.218,5.871,6.75,5.871
			c0.62,0,1.207,0.127,1.744,0.349C9.71,3.846,12.152,2.204,15,2.204c2.848,0,5.29,1.642,6.506,4.015
			c0.538-0.222,1.127-0.349,1.745-0.349c2.532,0,4.584,2.052,4.584,4.584s-2.052,4.584-4.584,4.584
			C22.27,15.038,21.365,14.723,20.619,14.198z"/>
	</g>
</g>
</svg>
