<?xml version="1.0" encoding="utf-8"?>
<!-- Generator: Adobe Illustrator 17.1.0, SVG Export Plug-In . SVG Version: 6.00 Build 0)  -->
<!DOCTYPE svg PUBLIC "-//W3C//DTD SVG 1.1//EN" "http://www.w3.org/Graphics/SVG/1.1/DTD/svg11.dtd">
<svg version="1.1" xmlns="http://www.w3.org/2000/svg" xmlns:xlink="http://www.w3.org/1999/xlink" x="0px" y="0px"
	 viewBox="0 0 30 30" enable-background="new 0 0 30 30" xml:space="preserve">
<g id="original" display="none">
</g>
<g id="expanded">
	<g>
		<path fill-rule="evenodd" clip-rule="evenodd" fill="#E42A33" d="M23.251,4.916c-0.304,0-0.605,0.022-0.905,0.064
			C20.634,2.648,17.933,1.249,15,1.249c-2.933,0-5.633,1.399-7.346,3.731c-0.3-0.043-0.6-0.064-0.905-0.064
			c-3.538,0-6.417,2.879-6.417,6.417s2.879,6.417,6.417,6.417c0.784,0,1.552-0.143,2.275-0.42c0.704,0.614,1.504,1.086,2.344,1.456
			l1.428-1.425c-1.344-0.437-2.531-1.219-3.415-2.285c-0.745,0.525-1.651,0.84-2.632,0.84c-2.532,0-4.584-2.052-4.584-4.584
			s2.052-4.584,4.584-4.584c0.62,0,1.207,0.127,1.744,0.349C9.71,4.725,12.152,3.082,15,3.082c2.848,0,5.29,1.642,6.506,4.016
			c0.538-0.222,1.127-0.349,1.745-0.349c2.532,0,4.584,2.052,4.584,4.584s-2.052,4.584-4.584,4.584c-0.981,0-1.886-0.315-2.632-0.84
			c-0.594,0.717-1.336,1.299-2.156,1.752l-0.77,2.311c1.196-0.376,2.32-0.97,3.283-1.81c0.723,0.277,1.491,0.42,2.275,0.42
			c3.538,0,6.417-2.879,6.417-6.417S26.789,4.916,23.251,4.916z"/>
		<polygon fill-rule="evenodd" clip-rule="evenodd" fill="#E42A33" points="11.333,21.417 13.167,23.251 11.333,28.751 
			16.833,23.251 15,21.417 16.833,15.917 		"/>
	</g>
</g>
</svg>
