<?xml version="1.0" encoding="utf-8"?>
<!-- Generator: Adobe Illustrator 17.1.0, SVG Export Plug-In . SVG Version: 6.00 Build 0)  -->
<!DOCTYPE svg PUBLIC "-//W3C//DTD SVG 1.1//EN" "http://www.w3.org/Graphics/SVG/1.1/DTD/svg11.dtd">
<svg version="1.1" xmlns="http://www.w3.org/2000/svg" xmlns:xlink="http://www.w3.org/1999/xlink" x="0px" y="0px"
	 viewBox="0 0 32 32" enable-background="new 0 0 32 32" xml:space="preserve">
<g id="original" display="none">
	
		<polygon display="inline" fill="#E42A33" stroke="#E42A33" stroke-width="2" stroke-linecap="round" stroke-linejoin="round" stroke-miterlimit="10" points="
		11.12,14.012 15.372,6.76 19.623,14.012 	"/>
	
		<line display="inline" fill="none" stroke="#E42A33" stroke-width="3" stroke-linecap="round" stroke-linejoin="round" stroke-miterlimit="10" x1="15.372" y1="13.058" x2="15.372" y2="22.422"/>
	
		<polyline display="inline" fill="none" stroke="#E42A33" stroke-width="3" stroke-linecap="round" stroke-linejoin="round" stroke-miterlimit="10" points="
		7.122,15.089 7.122,15.083 7.122,27.354 23.622,27.354 23.622,15.089 	"/>
</g>
<g id="expanded">
	<path fill="#E42A33" d="M20.397,13.355l-4.163-7.101c-0.18-0.306-0.508-0.494-0.863-0.494s-0.683,0.188-0.863,0.494l-4.251,7.251
		c-0.181,0.31-0.183,0.692-0.005,1.003c0.178,0.312,0.509,0.503,0.868,0.503h2.751v7.41c0,0.828,0.671,1.5,1.5,1.5
		c0.829,0,1.5-0.672,1.5-1.5v-7.41h2.751c0.007-0.001,0.013-0.001,0.02,0c0.552,0,1-0.447,1-1
		C20.643,13.761,20.55,13.531,20.397,13.355z"/>
	<g>
		<path fill="#E42A33" d="M23.622,28.854h-16.5c-0.829,0-1.5-0.672-1.5-1.5V15.083c0-0.828,0.671-1.5,1.5-1.5s1.5,0.672,1.5,1.5
			v10.771h13.5V15.089c0-0.828,0.671-1.5,1.5-1.5s1.5,0.672,1.5,1.5v12.266C25.122,28.183,24.451,28.854,23.622,28.854z"/>
	</g>
</g>
</svg>
