<?xml version="1.0" encoding="utf-8"?>
<!-- Generator: Adobe Illustrator 17.1.0, SVG Export Plug-In . SVG Version: 6.00 Build 0)  -->
<!DOCTYPE svg PUBLIC "-//W3C//DTD SVG 1.1//EN" "http://www.w3.org/Graphics/SVG/1.1/DTD/svg11.dtd">
<svg version="1.1" xmlns="http://www.w3.org/2000/svg" xmlns:xlink="http://www.w3.org/1999/xlink" x="0px" y="0px"
	 viewBox="0 0 32 32" enable-background="new 0 0 32 32" xml:space="preserve">
<g id="original" display="none">
	<g display="inline">
		
			<polyline fill="none" stroke="#E42A33" stroke-width="3" stroke-linecap="round" stroke-linejoin="round" stroke-miterlimit="10" points="
			22,11.021 14,23.021 10.062,20.083 		"/>
	</g>
</g>
<g id="expanded">
	<g>
		<g>
			<path fill="#E42A33" d="M14,24.521c-0.321,0-0.636-0.103-0.897-0.298l-3.938-2.938C8.501,20.79,8.365,19.85,8.86,19.186
				c0.495-0.664,1.435-0.801,2.099-0.305l2.67,1.992l7.123-10.684c0.459-0.689,1.389-0.877,2.08-0.416
				c0.689,0.459,0.875,1.391,0.416,2.08l-8,12c-0.229,0.342-0.587,0.576-0.993,0.646C14.17,24.513,14.085,24.521,14,24.521z"/>
		</g>
	</g>
</g>
</svg>
