<?xml version="1.0" encoding="utf-8"?>
<!-- Generator: Adobe Illustrator 17.1.0, SVG Export Plug-In . SVG Version: 6.00 Build 0)  -->
<!DOCTYPE svg PUBLIC "-//W3C//DTD SVG 1.1//EN" "http://www.w3.org/Graphics/SVG/1.1/DTD/svg11.dtd">
<svg version="1.1" xmlns="http://www.w3.org/2000/svg" xmlns:xlink="http://www.w3.org/1999/xlink" x="0px" y="0px"
	 viewBox="0 0 32 32" enable-background="new 0 0 32 32" xml:space="preserve">
<g id="original" display="none">
	<g display="inline">
		<path fill="#E42A33" d="M21.737,14.635L13.666,9.58c-0.326-0.203-0.65-0.306-0.963-0.306c-0.658,0-1.321,0.487-1.321,1.574v10.304
			c0,1.087,0.664,1.574,1.321,1.574c0.313,0,0.637-0.102,0.963-0.306l8.07-5.055c0.544-0.339,0.855-0.836,0.855-1.365
			S22.28,14.974,21.737,14.635z"/>
		<path fill="#E42A33" d="M16,2.417C8.51,2.417,2.417,8.511,2.417,16S8.51,29.583,16,29.583c7.49,0,13.584-6.094,13.584-13.583
			S23.49,2.417,16,2.417z M16,26.583c-5.835,0-10.583-4.747-10.583-10.583S10.164,5.417,16,5.417
			c5.836,0,10.584,4.747,10.584,10.583S21.836,26.583,16,26.583z"/>
	</g>
</g>
<g id="expanded">
	<g>
		<path fill="#E42A33" d="M21.737,14.635L13.666,9.58c-0.326-0.203-0.65-0.306-0.963-0.306c-0.658,0-1.321,0.487-1.321,1.574v10.304
			c0,1.087,0.664,1.574,1.321,1.574c0.313,0,0.637-0.102,0.963-0.306l8.07-5.055c0.544-0.339,0.855-0.836,0.855-1.365
			S22.28,14.974,21.737,14.635z"/>
		<path fill="#E42A33" d="M16,2.417C8.51,2.417,2.417,8.511,2.417,16S8.51,29.583,16,29.583c7.49,0,13.584-6.094,13.584-13.583
			S23.49,2.417,16,2.417z M16,26.583c-5.835,0-10.583-4.747-10.583-10.583S10.164,5.417,16,5.417
			c5.836,0,10.584,4.747,10.584,10.583S21.836,26.583,16,26.583z"/>
	</g>
</g>
</svg>
