<?xml version="1.0" encoding="utf-8"?>
<!-- Generator: Adobe Illustrator 17.1.0, SVG Export Plug-In . SVG Version: 6.00 Build 0)  -->
<!DOCTYPE svg PUBLIC "-//W3C//DTD SVG 1.1//EN" "http://www.w3.org/Graphics/SVG/1.1/DTD/svg11.dtd">
<svg version="1.1" xmlns="http://www.w3.org/2000/svg" xmlns:xlink="http://www.w3.org/1999/xlink" x="0px" y="0px"
	 viewBox="0 0 30 30" enable-background="new 0 0 30 30" xml:space="preserve">
<g id="original" display="none">
</g>
<g id="expanded">
	<g>
		<path fill-rule="evenodd" clip-rule="evenodd" fill="#E42A33" d="M19.013,23.004l-1.031-0.594
			c0.031-0.179,0.055-0.362,0.055-0.551c0-0.19-0.024-0.372-0.057-0.551l1.034-0.596c0.482-0.282,0.647-0.901,0.37-1.381
			c-0.279-0.486-0.898-0.652-1.382-0.372l-1.042,0.602c-0.279-0.238-0.594-0.424-0.945-0.55v-1.197c0-0.56-0.455-1.013-1.013-1.013
			c-0.559,0-1.012,0.454-1.012,1.013v1.196c-0.351,0.125-0.667,0.314-0.947,0.552l-1.04-0.602c-0.486-0.279-1.105-0.115-1.385,0.371
			c-0.279,0.482-0.111,1.103,0.372,1.382l1.029,0.594c-0.033,0.18-0.055,0.363-0.055,0.553c0,0.19,0.021,0.372,0.055,0.551
			l-1.029,0.594c-0.485,0.279-0.652,0.902-0.372,1.386c0.279,0.483,0.899,0.648,1.382,0.369l1.041-0.598
			c0.279,0.236,0.596,0.423,0.948,0.548v1.2c0,0.559,0.454,1.01,1.012,1.01c0.559,0,1.013-0.451,1.013-1.01v-1.2
			c0.351-0.125,0.67-0.312,0.947-0.552l1.041,0.602c0.485,0.279,1.103,0.115,1.382-0.369C19.663,23.906,19.498,23.287,19.013,23.004
			z M15,22.871c-0.559,0-1.013-0.455-1.013-1.013c0-0.559,0.455-1.011,1.013-1.011c0.559,0,1.012,0.452,1.012,1.011
			C16.012,22.416,15.559,22.871,15,22.871z"/>
		<path fill-rule="evenodd" clip-rule="evenodd" fill="#E42A33" d="M23.251,6.749c-0.304,0-0.605,0.022-0.905,0.064
			C20.634,4.481,17.933,3.082,15,3.082c-2.933,0-5.633,1.399-7.346,3.731c-0.3-0.043-0.6-0.064-0.905-0.064
			c-3.538,0-6.417,2.879-6.417,6.417s2.879,6.417,6.417,6.417c0.677,0,1.337-0.127,1.973-0.334c0.061-0.291,0.156-0.575,0.308-0.839
			c0.226-0.393,0.548-0.705,0.917-0.945c-0.19-0.185-0.398-0.35-0.566-0.555c-0.745,0.525-1.651,0.84-2.632,0.84
			c-2.532,0-4.584-2.052-4.584-4.584s2.052-4.584,4.584-4.584c0.62,0,1.207,0.127,1.744,0.349C9.71,6.558,12.152,4.916,15,4.916
			c2.848,0,5.29,1.643,6.506,4.016c0.538-0.222,1.127-0.349,1.745-0.349c2.532,0,4.584,2.052,4.584,4.584s-2.052,4.584-4.584,4.584
			c-0.981,0-1.886-0.315-2.632-0.84c-0.168,0.205-0.378,0.37-0.567,0.555c0.37,0.241,0.695,0.555,0.919,0.949
			c0.155,0.266,0.249,0.549,0.31,0.836c0.634,0.208,1.293,0.334,1.97,0.334c3.538,0,6.417-2.879,6.417-6.417
			S26.789,6.749,23.251,6.749z"/>
	</g>
</g>
</svg>
