<?xml version="1.0" encoding="utf-8"?>
<!-- Generator: Adobe Illustrator 17.1.0, SVG Export Plug-In . SVG Version: 6.00 Build 0)  -->
<!DOCTYPE svg PUBLIC "-//W3C//DTD SVG 1.1//EN" "http://www.w3.org/Graphics/SVG/1.1/DTD/svg11.dtd">
<svg version="1.1" xmlns="http://www.w3.org/2000/svg" xmlns:xlink="http://www.w3.org/1999/xlink" x="0px" y="0px"
	 viewBox="0 0 30 30" enable-background="new 0 0 30 30" xml:space="preserve">
<g id="original" display="none">
</g>
<g id="expanded">
	<g>
		<path fill="#E42A33" d="M29.668,10.416c0-2.817-2.292-5.108-5.109-5.108c-0.137,0-0.273,0.006-0.409,0.017
			c-1.325-1.653-3.322-2.634-5.483-2.634c-2.159,0-4.158,0.981-5.483,2.634c-0.136-0.011-0.273-0.017-0.412-0.017
			c-2.815,0-5.107,2.291-5.107,5.108c0,0.295,0.039,0.579,0.086,0.862c-0.031,0.041-0.068,0.078-0.098,0.119
			c-0.3-0.043-0.6-0.064-0.905-0.064c-3.538,0-6.417,2.879-6.417,6.417s2.879,6.417,6.417,6.417c0.784,0,1.552-0.143,2.275-0.42
			c1.659,1.447,3.77,2.254,5.976,2.254c2.208,0,4.316-0.807,5.976-2.254c0.723,0.277,1.491,0.42,2.275,0.42
			c3.538,0,6.417-2.879,6.417-6.417c0-1.472-0.518-2.812-1.356-3.896C29.148,12.943,29.668,11.744,29.668,10.416z M23.251,22.334
			c-0.981,0-1.886-0.315-2.632-0.84c-1.345,1.621-3.348,2.674-5.619,2.674c-2.27,0-4.273-1.053-5.619-2.674
			c-0.745,0.525-1.651,0.84-2.632,0.84c-2.532,0-4.584-2.052-4.584-4.584s2.052-4.584,4.584-4.584c0.62,0,1.207,0.125,1.744,0.347
			c0.032-0.061,0.072-0.115,0.104-0.173c0.322-0.588,0.72-1.128,1.184-1.607C11.104,10.364,12.942,9.5,15,9.5
			c2.848,0,5.29,1.643,6.506,4.014c0.323-0.133,0.668-0.218,1.024-0.276l0.721-0.072c0.707,0,1.368,0.174,1.966,0.458
			c0.648,0.31,1.204,0.766,1.641,1.329c0.602,0.775,0.976,1.739,0.976,2.797C27.835,20.282,25.783,22.334,23.251,22.334z
			 M27.007,12.572c-1.059-0.771-2.349-1.239-3.757-1.239c-0.304,0-0.605,0.022-0.905,0.064C20.634,9.065,17.933,7.666,15,7.666
			c-1.955,0-3.8,0.633-5.325,1.738c0.429-1.309,1.646-2.262,3.098-2.262c0.444,0,0.863,0.09,1.246,0.248
			c0.87-1.694,2.614-2.866,4.648-2.866c2.034,0,3.779,1.172,4.646,2.866c0.386-0.159,0.807-0.248,1.246-0.248
			c1.81,0,3.275,1.466,3.275,3.274C27.835,11.246,27.516,11.994,27.007,12.572z"/>
	</g>
</g>
</svg>
