<?xml version="1.0" encoding="utf-8"?>
<!-- Generator: Adobe Illustrator 17.1.0, SVG Export Plug-In . SVG Version: 6.00 Build 0)  -->
<!DOCTYPE svg PUBLIC "-//W3C//DTD SVG 1.1//EN" "http://www.w3.org/Graphics/SVG/1.1/DTD/svg11.dtd">
<svg version="1.1" xmlns="http://www.w3.org/2000/svg" xmlns:xlink="http://www.w3.org/1999/xlink" x="0px" y="0px"
	 viewBox="0 0 32 32" enable-background="new 0 0 32 32" xml:space="preserve">
<g id="original" display="none">
	<g display="inline">
		<path fill-rule="evenodd" clip-rule="evenodd" fill="#E42A33" d="M18.711,5.641c0.994,0,1.799,0.798,1.799,1.781
			c0,0.984-0.805,1.781-1.799,1.781c-0.993,0-1.799-0.798-1.799-1.781C16.913,6.439,17.718,5.641,18.711,5.641z"/>
		
			<path fill-rule="evenodd" clip-rule="evenodd" fill="none" stroke="#E42A33" stroke-width="2" stroke-linecap="round" stroke-miterlimit="10" d="
			M24.937,23.851c-1.102,1.52-2.892,2.508-4.912,2.508c-3.349,0-6.063-2.715-6.063-6.063c0-1.865,0.842-3.533,2.166-4.645"/>
		
			<line fill-rule="evenodd" clip-rule="evenodd" fill="none" stroke="#EC1E24" stroke-width="2" stroke-linecap="round" stroke-linejoin="round" stroke-miterlimit="10" x1="27.254" y1="22.826" x2="29.361" y2="22.087"/>
		
			<polyline fill-rule="evenodd" clip-rule="evenodd" fill="none" stroke="#E42A33" stroke-width="2" stroke-linecap="round" stroke-linejoin="round" stroke-miterlimit="10" points="
			18.711,10.795 19.273,17.183 24.937,17.183 27.254,22.826 		"/>
		
			<line fill-rule="evenodd" clip-rule="evenodd" fill="none" stroke="#E42A33" stroke-width="2" stroke-linecap="round" stroke-linejoin="round" stroke-miterlimit="10" x1="18.994" y1="13.667" x2="23.316" y2="13.667"/>
	</g>
	<g display="inline">
		<circle fill-rule="evenodd" clip-rule="evenodd" fill="#E42A33" cx="5.107" cy="6.614" r="0.832"/>
		
			<polyline fill-rule="evenodd" clip-rule="evenodd" fill="none" stroke="#E42A33" stroke-width="0.9728" stroke-linecap="round" stroke-linejoin="round" stroke-miterlimit="10" points="
			2.825,10.156 4.275,8.18 5.939,8.18 7.397,10.156 		"/>
		
			<line fill-rule="evenodd" clip-rule="evenodd" fill="none" stroke="#E42A33" stroke-width="0.9728" stroke-linecap="round" stroke-linejoin="round" stroke-miterlimit="10" x1="4.478" y1="15.385" x2="4.478" y2="8.423"/>
		
			<line fill-rule="evenodd" clip-rule="evenodd" fill="none" stroke="#E42A33" stroke-width="0.9728" stroke-linecap="round" stroke-linejoin="round" stroke-miterlimit="10" x1="5.816" y1="15.385" x2="5.816" y2="8.423"/>
		<rect x="4.754" y="8.565" fill-rule="evenodd" clip-rule="evenodd" fill="#E42A33" width="0.849" height="3.202"/>
	</g>
	<g display="inline">
		<ellipse fill-rule="evenodd" clip-rule="evenodd" fill="#E42A33" cx="11.102" cy="6.633" rx="0.842" ry="0.851"/>
		
			<polyline fill-rule="evenodd" clip-rule="evenodd" fill="none" stroke="#E42A33" stroke-width="0.9728" stroke-linecap="round" stroke-linejoin="round" stroke-miterlimit="10" points="
			9.028,10.299 10.478,8.323 11.656,8.323 13.113,10.299 		"/>
		
			<line fill-rule="evenodd" clip-rule="evenodd" fill="none" stroke="#E42A33" stroke-width="0.9728" stroke-linecap="round" stroke-linejoin="round" stroke-miterlimit="10" x1="10.402" y1="15.528" x2="10.402" y2="11.735"/>
		
			<line fill-rule="evenodd" clip-rule="evenodd" fill="none" stroke="#E42A33" stroke-width="0.9728" stroke-linecap="round" stroke-linejoin="round" stroke-miterlimit="10" x1="11.739" y1="15.528" x2="11.739" y2="11.735"/>
		
			<polygon fill-rule="evenodd" clip-rule="evenodd" fill="#E42A33" stroke="#E42A33" stroke-width="0.4864" stroke-linecap="round" stroke-linejoin="round" stroke-miterlimit="10" points="
			10.964,8.323 9.396,12.291 12.751,12.291 11.169,8.323 		"/>
	</g>
</g>
<g id="expanded">
	<g>
		<ellipse fill="#E42A33" cx="18.711" cy="7.422" rx="1.799" ry="1.781"/>
		<path fill="#E42A33" d="M24.127,23.264c-0.951,1.312-2.485,2.095-4.103,2.095c-2.792,0-5.063-2.271-5.063-5.062
			c0-1.5,0.66-2.914,1.809-3.879c0.423-0.355,0.478-0.986,0.123-1.409c-0.354-0.422-0.985-0.478-1.409-0.123
			c-1.604,1.347-2.523,3.319-2.523,5.411c0,3.895,3.168,7.062,7.063,7.062c2.256,0,4.395-1.092,5.722-2.921
			c0.324-0.447,0.225-1.072-0.223-1.396C25.078,22.716,24.453,22.817,24.127,23.264z"/>
		<path fill="#E42A33" d="M30.305,21.756c-0.183-0.522-0.754-0.798-1.275-0.612l-1.211,0.425l-1.956-4.765
			c-0.154-0.375-0.52-0.62-0.925-0.62h-4.748l-0.133-1.517h3.261c0.552,0,1-0.448,1-1s-0.448-1-1-1H19.88l-0.172-1.959
			c-0.048-0.55-0.524-0.95-1.083-0.909c-0.55,0.048-0.957,0.534-0.909,1.083l0.562,6.388c0.045,0.517,0.478,0.913,0.996,0.913h4.994
			l2.062,5.023c0.02,0.049,0.053,0.088,0.08,0.132c0.022,0.037,0.04,0.078,0.067,0.111c0.037,0.047,0.083,0.083,0.127,0.122
			c0.031,0.027,0.057,0.059,0.091,0.081c0.053,0.036,0.112,0.059,0.17,0.084c0.033,0.014,0.062,0.034,0.096,0.045
			c0.091,0.028,0.187,0.043,0.284,0.044c0.003,0,0.007,0.002,0.01,0.002l0,0l0,0c0.001,0,0.002-0.001,0.003-0.001
			c0.109,0,0.219-0.017,0.328-0.056l2.107-0.739C30.213,22.848,30.487,22.277,30.305,21.756z"/>
	</g>
	<g>
		<circle fill-rule="evenodd" clip-rule="evenodd" fill="#E42A33" cx="5.107" cy="6.614" r="0.832"/>
		<path fill-rule="evenodd" clip-rule="evenodd" fill="#E42A33" d="M7.789,9.867L6.331,7.891C6.239,7.767,6.094,7.693,5.939,7.693
			H4.275c-0.155,0-0.3,0.074-0.392,0.199l-1.45,1.976c-0.159,0.216-0.112,0.521,0.104,0.68c0.218,0.159,0.521,0.112,0.68-0.104
			l0.775-1.056v5.997c0,0.269,0.218,0.486,0.486,0.486s0.486-0.218,0.486-0.486v-3.618H5.33v3.618c0,0.269,0.218,0.486,0.486,0.486
			s0.486-0.218,0.486-0.486V9.491l0.703,0.953c0.096,0.129,0.243,0.198,0.392,0.198c0.1,0,0.201-0.031,0.288-0.095
			C7.902,10.388,7.948,10.083,7.789,9.867z"/>
	</g>
	<g>
		<ellipse fill="#E42A33" cx="11.102" cy="6.633" rx="0.842" ry="0.851"/>
		<path fill="#E42A33" d="M13.505,10.011l-1.458-1.976c-0.092-0.125-0.237-0.198-0.392-0.198h-1.178
			c-0.155,0-0.301,0.074-0.392,0.199l-1.45,1.976c-0.159,0.216-0.112,0.521,0.104,0.68c0.086,0.063,0.188,0.094,0.287,0.094
			c0.15,0,0.297-0.069,0.393-0.199l0.841-1.146l-1.091,2.76c-0.03,0.075-0.021,0.16,0.025,0.226s0.121,0.106,0.201,0.106h0.52v2.994
			c0,0.269,0.218,0.486,0.486,0.486s0.486-0.218,0.486-0.486v-2.994h0.365v2.994c0,0.269,0.218,0.486,0.486,0.486
			s0.486-0.218,0.486-0.486v-2.994h0.525c0.081,0,0.156-0.04,0.201-0.107c0.045-0.066,0.055-0.151,0.025-0.226l-1.099-2.757
			l0.844,1.144c0.161,0.216,0.465,0.263,0.68,0.103C13.618,10.531,13.664,10.227,13.505,10.011z"/>
	</g>
</g>
</svg>
