<?xml version="1.0" encoding="utf-8"?>
<!-- Generator: Adobe Illustrator 17.1.0, SVG Export Plug-In . SVG Version: 6.00 Build 0)  -->
<!DOCTYPE svg PUBLIC "-//W3C//DTD SVG 1.1//EN" "http://www.w3.org/Graphics/SVG/1.1/DTD/svg11.dtd">
<svg version="1.1" xmlns="http://www.w3.org/2000/svg" xmlns:xlink="http://www.w3.org/1999/xlink" x="0px" y="0px"
	 viewBox="0 0 32 32" enable-background="new 0 0 32 32" xml:space="preserve">
<g id="original" display="none">
	<g display="inline">
		<path fill-rule="evenodd" clip-rule="evenodd" fill="#E42A33" d="M17.477,5.641c0.994,0,1.799,0.798,1.799,1.781
			c0,0.984-0.805,1.781-1.799,1.781c-0.993,0-1.799-0.798-1.799-1.781C15.679,6.439,16.484,5.641,17.477,5.641z"/>
		
			<path fill-rule="evenodd" clip-rule="evenodd" fill="none" stroke="#E42A33" stroke-width="2" stroke-linecap="round" stroke-miterlimit="10" d="
			M23.703,23.851c-1.102,1.52-2.891,2.508-4.912,2.508c-3.349,0-6.063-2.715-6.063-6.063c0-1.865,0.842-3.533,2.166-4.645"/>
		
			<line fill-rule="evenodd" clip-rule="evenodd" fill="none" stroke="#EC1E24" stroke-width="2" stroke-linecap="round" stroke-linejoin="round" stroke-miterlimit="10" x1="26.02" y1="22.826" x2="28.127" y2="22.087"/>
		
			<polyline fill-rule="evenodd" clip-rule="evenodd" fill="none" stroke="#E42A33" stroke-width="2" stroke-linecap="round" stroke-linejoin="round" stroke-miterlimit="10" points="
			17.478,10.795 18.039,17.183 23.703,17.183 26.02,22.826 		"/>
		
			<line fill-rule="evenodd" clip-rule="evenodd" fill="none" stroke="#E42A33" stroke-width="2" stroke-linecap="round" stroke-linejoin="round" stroke-miterlimit="10" x1="17.76" y1="13.667" x2="22.082" y2="13.667"/>
	</g>
	
		<rect x="4.895" y="7.134" display="inline" fill="#E42A33" stroke="#E42A33" stroke-width="2.2646" stroke-linecap="round" stroke-linejoin="round" stroke-miterlimit="10" width="6.345" height="6.345"/>
	
		<text transform="matrix(1 0 0 1 6.0288 12.5824)" display="inline" fill="#FFFFFF" font-family="'ArialRoundedMTBold'" font-size="6.3136">P</text>
</g>
<g id="expanded">
	<g>
		<ellipse fill="#E42A33" cx="17.477" cy="7.422" rx="1.799" ry="1.781"/>
		<path fill="#E42A33" d="M22.894,23.264c-0.951,1.312-2.485,2.095-4.103,2.095c-2.792,0-5.063-2.271-5.063-5.062
			c0-1.5,0.659-2.914,1.809-3.879c0.423-0.355,0.478-0.986,0.123-1.409c-0.354-0.422-0.985-0.478-1.409-0.123
			c-1.604,1.347-2.523,3.319-2.523,5.411c0,3.895,3.168,7.062,7.063,7.062c2.256,0,4.395-1.092,5.722-2.921
			c0.324-0.447,0.225-1.072-0.223-1.396C23.844,22.716,23.218,22.817,22.894,23.264z"/>
		<path fill="#E42A33" d="M29.07,21.756c-0.183-0.522-0.756-0.798-1.274-0.612l-1.211,0.425l-1.956-4.765
			c-0.154-0.375-0.52-0.62-0.925-0.62h-4.748l-0.133-1.517h3.261c0.552,0,1-0.448,1-1s-0.448-1-1-1h-3.437l-0.172-1.959
			c-0.048-0.55-0.528-0.95-1.083-0.909c-0.55,0.048-0.957,0.534-0.909,1.083l0.562,6.388c0.045,0.517,0.478,0.913,0.996,0.913h4.994
			l2.062,5.023c0.02,0.047,0.051,0.085,0.077,0.128c0.023,0.039,0.042,0.081,0.07,0.116c0.037,0.046,0.082,0.081,0.126,0.12
			c0.031,0.027,0.059,0.06,0.093,0.083c0.053,0.036,0.111,0.058,0.17,0.083c0.033,0.014,0.062,0.034,0.096,0.045
			c0.091,0.028,0.187,0.043,0.284,0.044c0.003,0,0.007,0.002,0.01,0.002l0,0c0,0,0,0,0,0c0.001,0,0.002-0.001,0.003-0.001
			c0.109,0,0.219-0.017,0.328-0.056l2.107-0.739C28.979,22.848,29.253,22.277,29.07,21.756z"/>
		<path fill="#E42A33" d="M12.373,13.48V7.134c0-0.625-0.507-1.132-1.132-1.132H4.895c-0.625,0-1.132,0.507-1.132,1.132v6.346
			c0,0.625,0.507,1.132,1.132,1.132h6.345C11.866,14.612,12.373,14.105,12.373,13.48z M9.543,10.807
			c-0.284,0.237-0.706,0.356-1.267,0.356H7.437v1.279c0,0.183-0.043,0.322-0.129,0.416C7.222,12.953,7.113,13,6.981,13
			c-0.138,0-0.249-0.047-0.333-0.14c-0.084-0.094-0.126-0.231-0.126-0.412V8.964c0-0.201,0.046-0.345,0.139-0.432
			C6.753,8.447,6.9,8.403,7.102,8.403h1.175c0.347,0,0.614,0.027,0.801,0.08C9.263,8.535,9.422,8.62,9.557,8.739
			c0.135,0.12,0.237,0.265,0.307,0.438S9.969,9.544,9.969,9.76C9.969,10.22,9.827,10.569,9.543,10.807z"/>
		<path fill="#E42A33" d="M8.054,8.75H7.437v1.381h0.617c0.216,0,0.396-0.023,0.541-0.068c0.145-0.045,0.255-0.119,0.332-0.222
			c0.076-0.103,0.114-0.237,0.114-0.404c0-0.199-0.059-0.362-0.175-0.487C8.733,8.817,8.463,8.75,8.054,8.75z"/>
	</g>
</g>
</svg>
