<?xml version="1.0" encoding="utf-8"?>
<!-- Generator: Adobe Illustrator 17.1.0, SVG Export Plug-In . SVG Version: 6.00 Build 0)  -->
<!DOCTYPE svg PUBLIC "-//W3C//DTD SVG 1.1//EN" "http://www.w3.org/Graphics/SVG/1.1/DTD/svg11.dtd">
<svg version="1.1" xmlns="http://www.w3.org/2000/svg" xmlns:xlink="http://www.w3.org/1999/xlink" x="0px" y="0px"
	 viewBox="0 0 32 32" enable-background="new 0 0 32 32" xml:space="preserve">
<g id="original" display="none">
	<circle display="inline" fill="#E42A33" cx="16.624" cy="19.289" r="9.014"/>
	
		<polygon display="inline" fill="#E42A33" stroke="#E42A33" stroke-width="2" stroke-linecap="round" stroke-linejoin="round" stroke-miterlimit="10" points="
		4.143,7 11.077,7 15.93,16 8.997,16 	"/>
	
		<polygon display="inline" fill="#E42A33" stroke="#E42A33" stroke-width="2" stroke-linecap="round" stroke-linejoin="round" stroke-miterlimit="10" points="
		29.104,7 22.171,7 17.317,16 24.251,16 	"/>
	
		<circle display="inline" fill="#E42A33" stroke="#FCFCFC" stroke-width="1.5" stroke-miterlimit="10" cx="16.624" cy="19.289" r="5.933"/>
</g>
<g id="expanded">
	<g>
		<path fill="#E42A33" d="M29.963,6.487C29.782,6.186,29.456,6,29.104,6H22.17c-0.368,0-0.706,0.202-0.88,0.525l-2.21,4.098
			c-0.782-0.221-1.604-0.348-2.456-0.348c-0.853,0-1.675,0.126-2.457,0.348l-2.209-4.098C11.783,6.202,11.445,6,11.077,6H4.144
			C3.791,6,3.465,6.186,3.285,6.487C3.104,6.79,3.096,7.165,3.263,7.475l4.822,8.942C7.782,17.32,7.61,18.284,7.61,19.289
			c0,4.978,4.035,9.014,9.014,9.014c4.978,0,9.013-4.036,9.013-9.014c0-1.005-0.172-1.969-0.475-2.872l4.822-8.942
			C30.151,7.165,30.143,6.79,29.963,6.487z M16.624,25.973c-3.685,0-6.683-2.998-6.683-6.684s2.998-6.684,6.683-6.684
			c3.686,0,6.684,2.998,6.684,6.684S20.309,25.973,16.624,25.973z"/>
		<path fill="#E42A33" d="M16.624,14.105c-2.858,0-5.183,2.325-5.183,5.184s2.325,5.184,5.183,5.184
			c2.858,0,5.184-2.325,5.184-5.184S19.482,14.105,16.624,14.105z"/>
		<path fill="#E42A33" d="M16.624,24.473c-2.858,0-5.183-2.325-5.183-5.184s2.325-5.184,5.183-5.184
			c2.858,0,5.184,2.325,5.184,5.184S19.482,24.473,16.624,24.473z"/>
	</g>
</g>
</svg>
