<?xml version="1.0" encoding="utf-8"?>
<!-- Generator: Adobe Illustrator 17.1.0, SVG Export Plug-In . SVG Version: 6.00 Build 0)  -->
<!DOCTYPE svg PUBLIC "-//W3C//DTD SVG 1.1//EN" "http://www.w3.org/Graphics/SVG/1.1/DTD/svg11.dtd">
<svg version="1.1" xmlns="http://www.w3.org/2000/svg" xmlns:xlink="http://www.w3.org/1999/xlink" x="0px" y="0px"
	 viewBox="0 0 32 32" enable-background="new 0 0 32 32" xml:space="preserve">
<g id="original" display="none">
	<g display="inline">
		<g>
			<path fill="#E42933" stroke="#FFFFFF" stroke-miterlimit="10" d="M19.447,4.462h-0.089c-0.41,0-0.8,0.175-1.073,0.482
				c-0.582,0.655-1.415,1.03-2.284,1.03c-0.869,0-1.702-0.376-2.286-1.031c-0.272-0.306-0.663-0.481-1.072-0.481h-0.09
				c-0.182,0-0.363,0.035-0.533,0.103l-4.254,1.7C7.587,6.335,7.425,6.441,7.289,6.575l-4.862,4.797
				C2.152,11.645,1.997,12.017,2,12.404c0.003,0.388,0.162,0.758,0.441,1.026l3.709,3.562c0.276,0.265,0.634,0.4,0.995,0.4
				c0.288,0,0.577-0.086,0.826-0.262l0.487-0.343v10.648c0,0.793,0.643,1.436,1.436,1.436H16h6.106c0.793,0,1.436-0.643,1.436-1.436
				V16.788l0.486,0.342c0.249,0.176,0.539,0.262,0.826,0.262c0.361,0,0.719-0.135,0.995-0.4l3.71-3.562
				c0.28-0.268,0.439-0.638,0.441-1.026c0.003-0.388-0.152-0.76-0.427-1.032L24.71,6.575c-0.136-0.134-0.298-0.24-0.476-0.311
				l-4.255-1.7C19.81,4.496,19.629,4.462,19.447,4.462L19.447,4.462z"/>
		</g>
	</g>
</g>
<g id="expanded">
	<g>
		<g>
			<g>
				<path fill="#E42A33" d="M8.958,15.825v11.61c0,0.517,0.42,0.937,0.936,0.937h12.212c0.516,0,0.936-0.42,0.936-0.937V15.824
					l1.274,0.898c0.356,0.251,0.871,0.212,1.186-0.091l3.71-3.562c0.181-0.175,0.286-0.418,0.288-0.669
					c0.001-0.252-0.1-0.497-0.279-0.674l-4.863-4.796c-0.089-0.089-0.193-0.157-0.311-0.204l-4.254-1.699
					c-0.11-0.044-0.227-0.066-0.348-0.066c-0.356,0-0.611,0.114-0.789,0.313C17.981,6.036,17.012,6.473,16,6.473
					c-1.013,0-1.982-0.437-2.659-1.198c-0.177-0.198-0.432-0.312-0.699-0.312c-0.211,0-0.327,0.022-0.436,0.066L7.951,6.728
					c-0.117,0.048-0.222,0.115-0.31,0.203l-4.862,4.797C2.6,11.904,2.499,12.149,2.5,12.401c0.001,0.251,0.106,0.494,0.288,0.669
					l3.708,3.562c0.314,0.302,0.831,0.343,1.187,0.09L8.958,15.825z"/>
			</g>
		</g>
	</g>
</g>
</svg>
