<?xml version="1.0" encoding="utf-8"?>
<!-- Generator: Adobe Illustrator 17.1.0, SVG Export Plug-In . SVG Version: 6.00 Build 0)  -->
<!DOCTYPE svg PUBLIC "-//W3C//DTD SVG 1.1//EN" "http://www.w3.org/Graphics/SVG/1.1/DTD/svg11.dtd">
<svg version="1.1" xmlns="http://www.w3.org/2000/svg" xmlns:xlink="http://www.w3.org/1999/xlink" x="0px" y="0px"
	 viewBox="0 0 30 30" enable-background="new 0 0 30 30" xml:space="preserve">
<g id="original" display="none">
</g>
<g id="expanded">
	<circle fill="#E42A33" cx="10.854" cy="11.312" r="2"/>
	<circle fill="#E42A33" cx="19.417" cy="11.312" r="2"/>
	<g>
		<path fill="#E42A33" d="M15,23.51c-4.149,0-6.938-2.386-6.938-5.938c0-0.553,0.447-1,1-1s1,0.447,1,1
			c0,2.903,2.551,3.938,4.938,3.938s4.938-1.034,4.938-3.938c0-0.553,0.447-1,1-1s1,0.447,1,1C21.937,21.124,19.149,23.51,15,23.51z
			"/>
	</g>
	<path fill="#E42A33" d="M15,1.417C7.51,1.417,1.417,7.511,1.417,15S7.51,28.583,15,28.583S28.583,22.489,28.583,15
		S22.49,1.417,15,1.417z M15,26.833C8.475,26.833,3.167,21.524,3.167,15S8.475,3.167,15,3.167S26.833,8.476,26.833,15
		S21.525,26.833,15,26.833z"/>
</g>
</svg>
