<?xml version="1.0" encoding="utf-8"?>
<!-- Generator: Adobe Illustrator 17.1.0, SVG Export Plug-In . SVG Version: 6.00 Build 0)  -->
<!DOCTYPE svg PUBLIC "-//W3C//DTD SVG 1.1//EN" "http://www.w3.org/Graphics/SVG/1.1/DTD/svg11.dtd">
<svg version="1.1" xmlns="http://www.w3.org/2000/svg" xmlns:xlink="http://www.w3.org/1999/xlink" x="0px" y="0px"
	 viewBox="0 0 32 32" enable-background="new 0 0 32 32" xml:space="preserve">
<g id="original" display="none">
	<g display="inline">
		<path fill="#E42A33" d="M20.184,12.294c0.001,1.233,1.002,2.229,2.233,2.229c1.232,0,2.234-0.996,2.234-2.229
			c0-1.231-1.002-2.232-2.234-2.232C21.187,10.062,20.184,11.065,20.184,12.294z"/>
		<path fill="#E42A33" d="M15.165,11.424L5.3,17.469c0.224,0.868,1.04,1.988,2.641,1.988c1.565,0,1.926-0.964,2.235-2.061
			C10.301,16.951,10.534,16,11.399,16c0.013,0,0.071,0,0.083,0c0.851,0,1.091,0.914,1.233,1.386c0.334,1.103,0.71,2.008,2.225,2.008
			c1.452,0,1.847-0.942,2.212-2.051C17.307,16.876,17.565,16,18.399,16c0.013,0,0.071,0,0.083,0c0.831,0,1.092,0.906,1.249,1.373
			c0.359,1.072,0.773,2.022,2.21,2.022c0.725,0,1.273-0.183,1.683-0.487L15.588,8.737l4.626-0.888
			c0.542-0.105,0.897-0.626,0.792-1.169c-0.105-0.542-0.625-0.893-1.172-0.79l-6.25,1.209c-0.344,0.066-0.627,0.309-0.749,0.637
			c-0.121,0.329-0.061,0.697,0.157,0.97L15.165,11.424z"/>
		<path fill="#E42A33" d="M26.399,17.249c-0.414,0-0.75,0.336-0.75,0.75c0,1.444-1.167,3.458-3.708,3.458
			c-3.104,0-3.044-3.208-3.458-3.208c-0.014,0-0.028,0.003-0.042,0.004c-0.014-0.001-0.027-0.004-0.042-0.004
			c-0.414,0-0.333,3.208-3.458,3.208c-3.229,0-3.044-3.208-3.458-3.208c-0.014,0-0.028,0.003-0.042,0.004
			c-0.014-0.001-0.027-0.004-0.042-0.004c-0.414,0-0.146,3.208-3.458,3.208c-2.458,0-3.708-2.015-3.708-3.458
			c0-0.414-0.336-0.75-0.75-0.75s-0.75,0.336-0.75,0.75c0,2.069,1.417,4.958,5.208,4.958c1.546,0,2.778-1.026,3.5-1.909
			c0.722,0.883,1.954,1.909,3.5,1.909s2.778-1.026,3.5-1.909c0.722,0.883,1.954,1.909,3.5,1.909c3.708,0,5.208-2.89,5.208-4.958
			C27.149,17.584,26.814,17.249,26.399,17.249z"/>
	</g>
</g>
<g id="expanded">
	<g>
		<g>
			<path fill="#E42A33" d="M20.184,12.294c0.001,1.233,1.002,2.229,2.233,2.229c1.232,0,2.234-0.996,2.234-2.229
				c0-1.231-1.002-2.232-2.234-2.232C21.187,10.062,20.184,11.065,20.184,12.294z"/>
		</g>
		<g>
			<path fill="#E42A33" d="M15.165,11.424L5.3,17.469c0.224,0.868,1.04,1.988,2.641,1.988c1.565,0,1.926-0.964,2.235-2.061
				C10.301,16.951,10.534,16,11.399,16c0.013,0,0.071,0,0.083,0c0.851,0,1.091,0.914,1.233,1.386
				c0.334,1.103,0.71,2.008,2.225,2.008c1.452,0,1.847-0.942,2.212-2.051C17.307,16.876,17.565,16,18.399,16
				c0.013,0,0.071,0,0.083,0c0.831,0,1.092,0.906,1.249,1.373c0.359,1.072,0.773,2.022,2.21,2.022c0.725,0,1.273-0.183,1.683-0.487
				L15.588,8.737l4.626-0.888c0.542-0.105,0.897-0.626,0.792-1.169c-0.105-0.542-0.625-0.893-1.172-0.79l-6.25,1.209
				c-0.344,0.066-0.627,0.309-0.749,0.637c-0.121,0.329-0.061,0.697,0.157,0.97L15.165,11.424z"/>
		</g>
		<g>
			<path fill="#E42A33" d="M26.399,17.249c-0.414,0-0.75,0.336-0.75,0.75c0,1.444-1.167,3.458-3.708,3.458
				c-3.104,0-3.044-3.208-3.458-3.208c-0.014,0-0.028,0.003-0.042,0.004c-0.014-0.001-0.027-0.004-0.042-0.004
				c-0.414,0-0.333,3.208-3.458,3.208c-3.229,0-3.044-3.208-3.458-3.208c-0.014,0-0.028,0.003-0.042,0.004
				c-0.014-0.001-0.027-0.004-0.042-0.004c-0.414,0-0.146,3.208-3.458,3.208c-2.458,0-3.708-2.015-3.708-3.458
				c0-0.414-0.336-0.75-0.75-0.75s-0.75,0.336-0.75,0.75c0,2.069,1.417,4.958,5.208,4.958c1.546,0,2.778-1.026,3.5-1.909
				c0.722,0.883,1.954,1.909,3.5,1.909s2.778-1.026,3.5-1.909c0.722,0.883,1.954,1.909,3.5,1.909c3.708,0,5.208-2.89,5.208-4.958
				C27.149,17.584,26.814,17.249,26.399,17.249z"/>
		</g>
	</g>
</g>
</svg>
