<?xml version="1.0" encoding="utf-8"?>
<!-- Generator: Adobe Illustrator 17.1.0, SVG Export Plug-In . SVG Version: 6.00 Build 0)  -->
<!DOCTYPE svg PUBLIC "-//W3C//DTD SVG 1.1//EN" "http://www.w3.org/Graphics/SVG/1.1/DTD/svg11.dtd">
<svg version="1.1" xmlns="http://www.w3.org/2000/svg" xmlns:xlink="http://www.w3.org/1999/xlink" x="0px" y="0px"
	 viewBox="0 0 30 30" enable-background="new 0 0 30 30" xml:space="preserve">
<g id="original" display="none">
</g>
<g id="expanded">
	<g>
		<path fill="#E42A33" d="M25.26,14.242c0.279-0.208,0.562-0.412,0.815-0.665c0.757-0.758,1.333-1.681,1.707-2.742
			c0.119-0.332,0.035-0.704-0.216-0.953c-0.249-0.251-0.619-0.335-0.952-0.217c-2.028,0.716-4.222,0.229-5.724-1.275
			c-1.504-1.504-1.993-3.697-1.275-5.724c0.117-0.333,0.033-0.703-0.217-0.954c-0.248-0.248-0.62-0.334-0.953-0.217
			c-1.062,0.377-1.984,0.953-2.741,1.709c-1.922,1.919-2.52,4.641-1.861,7.093c-2.478,0.316-4.705,1.633-6.189,3.655
			c-0.3-0.043-0.6-0.064-0.905-0.064c-3.538,0-6.417,2.879-6.417,6.417c0,3.538,2.879,6.417,6.417,6.417
			c0.784,0,1.552-0.143,2.275-0.42c1.659,1.447,3.77,2.254,5.976,2.254c2.208,0,4.316-0.807,5.976-2.254
			c0.723,0.277,1.491,0.42,2.275,0.42c3.538,0,6.417-2.879,6.417-6.417C29.668,17.473,27.811,15.09,25.26,14.242z M17.001,4.501
			c0.146-0.148,0.302-0.285,0.467-0.414c-0.129,2.061,0.615,4.09,2.126,5.6c1.511,1.511,3.539,2.254,5.601,2.126
			c-0.79,1.008-1.879,1.634-3.044,1.902c-1.568-1.991-3.874-3.244-6.415-3.449C15.032,8.32,15.444,6.058,17.001,4.501z
			 M23.251,24.889c-0.981,0-1.886-0.315-2.632-0.84C19.273,25.67,17.27,26.723,15,26.723c-2.27,0-4.273-1.053-5.619-2.674
			c-0.745,0.525-1.651,0.84-2.632,0.84c-2.532,0-4.584-2.052-4.584-4.584c0-2.532,2.052-4.584,4.584-4.584
			c0.62,0,1.207,0.125,1.744,0.347c1.157-2.255,3.424-3.833,6.091-3.985c0.14-0.008,0.276-0.03,0.415-0.03
			c0.74,0,1.45,0.116,2.12,0.32c0.905,0.277,1.73,0.728,2.446,1.309c0.684,0.555,1.257,1.235,1.708,1.999
			c0.076,0.129,0.162,0.251,0.232,0.386c0.538-0.222,1.127-0.347,1.745-0.347c2.532,0,4.584,2.052,4.584,4.584
			C27.834,22.837,25.783,24.889,23.251,24.889z"/>
	</g>
</g>
</svg>
