<?xml version="1.0" encoding="utf-8"?>
<!-- Generator: Adobe Illustrator 17.1.0, SVG Export Plug-In . SVG Version: 6.00 Build 0)  -->
<!DOCTYPE svg PUBLIC "-//W3C//DTD SVG 1.1//EN" "http://www.w3.org/Graphics/SVG/1.1/DTD/svg11.dtd">
<svg version="1.1" xmlns="http://www.w3.org/2000/svg" xmlns:xlink="http://www.w3.org/1999/xlink" x="0px" y="0px"
	 viewBox="0 0 32 32" enable-background="new 0 0 32 32" xml:space="preserve">
<g id="original" display="none">
	<g display="inline">
		
			<rect x="12.504" y="8.34" transform="matrix(0.7071 0.7071 -0.7071 0.7071 16.9576 -5.0547)" fill="#E42A33" width="4.152" height="19.204"/>
		<path fill="#E42A33" d="M8.525,23.998c-1.014-1.014-2.656-1.014-3.67,0c-1.013,1.013-1.014,2.656,0,3.67
			c1.014,1.014,2.657,1.014,3.67,0C9.538,26.654,9.538,25.011,8.525,23.998z M6.078,26.444c-0.338-0.338-0.338-0.885,0-1.223
			s0.885-0.338,1.223,0s0.338,0.885,0,1.223S6.416,26.782,6.078,26.444z"/>
		<polygon fill="#E42A33" points="4.855,23.998 9.993,19.594 5.222,24.365 		"/>
		<polygon fill="#E42A33" points="8.525,27.667 12.929,22.53 8.158,27.301 		"/>
		<path opacity="0.1" fill="#E42A33" d="M12.929,22.53l9.909-9.909l-2.936-2.936l-9.909,9.909l-5.138,4.404
			c-1.013,1.013-1.014,2.656,0,3.67c1.014,1.014,2.657,1.014,3.67,0L12.929,22.53z M6.323,23.263l0.009,0.009
			c-0.007,0.001-0.013,0.001-0.019,0.002L6.323,23.263z M6.078,26.444c-0.338-0.338-0.338-0.885,0-1.223s0.885-0.338,1.223,0
			s0.338,0.885,0,1.223S6.416,26.782,6.078,26.444z M9.249,26.21c0.001-0.006,0-0.012,0.002-0.018L9.259,26.2L9.249,26.21z"/>
		<path fill="#E42A33" d="M28.343,7.116l-3.362,3.362l-2.203-0.734l-0.734-2.202l3.362-3.362c-1.861-0.729-4.06-0.344-5.564,1.161
			c-2.026,2.027-2.027,5.313,0,7.34c2.026,2.027,5.313,2.027,7.34,0C28.687,11.176,29.072,8.978,28.343,7.116z"/>
	</g>
	<g display="inline">
		<circle fill="#E42A33" cx="3.506" cy="7.483" r="1.038"/>
		<circle fill="#E42A33" cx="13.048" cy="17.025" r="1.038"/>
		<circle fill="#E42A33" cx="5.708" cy="5.281" r="1.038"/>
		<circle fill="#E42A33" cx="15.25" cy="14.823" r="1.038"/>
		
			<rect x="7.821" y="3.368" transform="matrix(0.7071 -0.7071 0.7071 0.7071 -5.1394 9.898)" fill="#E42A33" width="3.114" height="15.57"/>
		
			<rect x="6.783" y="4.406" transform="matrix(0.7071 -0.7071 0.7071 0.7071 -5.1394 9.898)" fill="#E42A33" width="5.19" height="13.494"/>
		
			<rect x="13.693" y="16.506" transform="matrix(0.7071 -0.7071 0.7071 0.7071 -7.5716 15.7699)" fill="#E42A33" width="3.114" height="1.038"/>
		
			<rect x="13.693" y="16.506" transform="matrix(0.7071 -0.7071 0.7071 0.7071 -7.5716 15.7699)" opacity="0.1" fill="#E42A33" width="3.114" height="1.038"/>
		
			<rect x="19.686" y="15.491" transform="matrix(0.7071 -0.7071 0.7071 0.7071 -9.6238 20.7243)" fill="#E42A33" width="1.038" height="12.975"/>
		<polygon fill="#E42A33" points="25.893,27.667 25.893,27.667 24.425,26.934 25.159,26.2 		"/>
	</g>
</g>
<g id="expanded">
	<path fill="#E42A33" d="M27.182,12.68c1.504-1.504,1.89-3.702,1.161-5.564l-3.362,3.362l-2.203-0.734l-0.734-2.202l3.362-3.362
		c-1.861-0.729-4.06-0.344-5.564,1.161c-1.504,1.504-1.887,3.7-1.158,5.562l-2.943,2.943L6.442,4.547
		c-0.405-0.405-1.062-0.405-1.468,0L2.772,6.749c-0.405,0.406-0.405,1.062,0,1.468l9.299,9.299l-2.083,2.083l-5.133,4.399
		c-1.013,1.013-1.014,2.656,0,3.67c1.014,1.014,2.657,1.014,3.67,0l4.404-5.138l3.546-3.546l7.95,7.95l1.468,0.734L25.159,26.2
		l-7.95-7.95l4.411-4.411C23.482,14.566,25.678,14.184,27.182,12.68z M6.331,23.272c-0.006,0.001-0.012,0.001-0.018,0.002l0.01-0.01
		L6.331,23.272z M7.301,26.444c-0.338,0.338-0.885,0.338-1.223,0c-0.338-0.338-0.338-0.885,0-1.223c0.338-0.338,0.885-0.338,1.223,0
		C7.639,25.559,7.639,26.106,7.301,26.444z M9.249,26.209c0.001-0.006,0-0.012,0.002-0.018L9.259,26.2L9.249,26.209z"/>
</g>
</svg>
