<?xml version="1.0" encoding="utf-8"?>
<!-- Generator: Adobe Illustrator 17.1.0, SVG Export Plug-In . SVG Version: 6.00 Build 0)  -->
<!DOCTYPE svg PUBLIC "-//W3C//DTD SVG 1.1//EN" "http://www.w3.org/Graphics/SVG/1.1/DTD/svg11.dtd">
<svg version="1.1" xmlns="http://www.w3.org/2000/svg" xmlns:xlink="http://www.w3.org/1999/xlink" x="0px" y="0px"
	 viewBox="0 0 32 32" enable-background="new 0 0 32 32" xml:space="preserve">
<g id="original" display="none">
	<g display="inline">
		<polygon fill="none" points="21.049,3.377 19.787,2.114 19.787,3.377 19.787,8.426 24.836,8.426 26.099,8.426 24.836,7.164 		"/>
		<path fill="#E42A33" d="M24.836,4.639l-1.262-1.262l-2.525-2.525h-1.262H7.164c-1.394,0-2.525,1.132-2.525,2.525v25.247
			c0,1.394,1.132,2.525,2.525,2.525h17.673c1.393,0,2.525-1.13,2.525-2.525V8.426V7.164L24.836,4.639z M24.836,8.426h-5.049V3.377
			V2.114l1.262,1.262l3.787,3.787l1.262,1.262H24.836z"/>
	</g>
	<g display="inline">
		<path fill="#FFFFFF" d="M24.833,17.735H7.736c-0.338,0-0.61-0.224-0.61-0.5c0-0.276,0.273-0.5,0.61-0.5h17.097
			c0.338,0,0.61,0.224,0.61,0.5C25.444,17.511,25.171,17.735,24.833,17.735z"/>
	</g>
	<g display="inline">
		<path fill="#FFFFFF" d="M24.833,21.943H7.736c-0.338,0-0.61-0.224-0.61-0.5c0-0.276,0.273-0.5,0.61-0.5h17.097
			c0.338,0,0.61,0.224,0.61,0.5C25.444,21.719,25.171,21.943,24.833,21.943z"/>
	</g>
	<g display="inline">
		<path fill="#FFFFFF" d="M24.833,13.61H7.736c-0.338,0-0.61-0.224-0.61-0.5c0-0.276,0.273-0.5,0.61-0.5h17.097
			c0.338,0,0.61,0.224,0.61,0.5C25.444,13.386,25.171,13.61,24.833,13.61z"/>
	</g>
	<g display="inline">
		<path fill="#FFFFFF" d="M24.833,26.151H7.736c-0.338,0-0.61-0.224-0.61-0.5c0-0.276,0.273-0.5,0.61-0.5h17.097
			c0.338,0,0.61,0.224,0.61,0.5C25.444,25.928,25.171,26.151,24.833,26.151z"/>
	</g>
</g>
<g id="expanded">
	<g>
		<polygon fill="none" points="21.049,3.377 19.787,2.114 19.787,3.377 19.787,8.426 24.836,8.426 26.099,8.426 24.836,7.164 		"/>
		<path fill="#E42A33" d="M24.836,4.639l-1.262-1.262l-2.525-2.525h-1.262H7.164c-1.394,0-2.525,1.132-2.525,2.525v25.247
			c0,1.394,1.132,2.525,2.525,2.525h17.673c1.393,0,2.525-1.13,2.525-2.525V8.426V7.164L24.836,4.639z M24.833,26.083H7.736
			c-0.338,0-0.61-0.224-0.61-0.5c0-0.276,0.273-0.5,0.61-0.5h17.097c0.338,0,0.61,0.224,0.61,0.5
			C25.444,25.859,25.171,26.083,24.833,26.083z M24.833,22.083H7.736c-0.338,0-0.61-0.224-0.61-0.5c0-0.276,0.273-0.5,0.61-0.5
			h17.097c0.338,0,0.61,0.224,0.61,0.5C25.444,21.859,25.171,22.083,24.833,22.083z M24.833,18.083H7.736
			c-0.338,0-0.61-0.224-0.61-0.5s0.273-0.5,0.61-0.5h17.097c0.338,0,0.61,0.224,0.61,0.5S25.171,18.083,24.833,18.083z
			 M24.833,14.083H7.736c-0.338,0-0.61-0.224-0.61-0.5s0.273-0.5,0.61-0.5h17.097c0.338,0,0.61,0.224,0.61,0.5
			S25.171,14.083,24.833,14.083z M24.836,8.426h-5.049V3.377V2.114l1.262,1.262l3.787,3.787l1.262,1.262H24.836z"/>
	</g>
</g>
</svg>
