<?xml version="1.0" encoding="utf-8"?>
<!-- Generator: Adobe Illustrator 17.0.0, SVG Export Plug-In . SVG Version: 6.00 Build 0)  -->
<!DOCTYPE svg PUBLIC "-//W3C//DTD SVG 1.1//EN" "http://www.w3.org/Graphics/SVG/1.1/DTD/svg11.dtd">
<svg version="1.1" id="Layer_1" xmlns="http://www.w3.org/2000/svg" xmlns:xlink="http://www.w3.org/1999/xlink" x="0px" y="0px"
	 width="72px" height="72px" viewBox="0 0 72 72" enable-background="new 0 0 72 72" xml:space="preserve">
<circle fill="#FDD05F" cx="35.286" cy="36.5" r="27.5"/>
<g>
	<defs>
		<circle id="SVGID_135_" cx="35.286" cy="36.5" r="27.5"/>
	</defs>
	<clipPath id="SVGID_2_">
		<use xlink:href="#SVGID_135_"  overflow="visible"/>
	</clipPath>
	<path id="globe-5-icon" clip-path="url(#SVGID_2_)" fill="#E33038" d="M48.984,23.063c0.149,0.505-0.462,0.6-0.678,0.491
		c-0.125-0.063-0.181,0.077-0.271,0.12c-0.004,0.002-0.009,0.004-0.013,0.006c-0.064,0.002-0.13-0.014-0.174-0.025
		c-0.108-0.03-0.56-0.034-0.728-0.104c0,0-0.002-0.001-0.003-0.001c-0.037-0.018-0.609-0.234-0.651-0.221
		c-0.183,0.056-0.397-0.076-0.566,0.056c-0.1,0.077-0.221,0.119-0.319,0.197c-0.137,0.108-0.143,0.113-0.145,0.144
		c0,0.003-0.001,0.006-0.001,0.009c-0.004,0.036-0.008,0.068-0.052,0.086c-0.054,0.023-0.138,0.035-0.18,0.035
		c-0.123,0.001-0.246,0.022-0.369,0.008c-0.111-0.013-0.218,0.063-0.33,0.014h-0.001c-0.205-0.087-0.38-0.227-0.509-0.408
		l-0.129-0.18l0,0c-0.009-0.013-0.01-0.03-0.002-0.045c0.011-0.019,0.033-0.034,0.078,0.009l0.001,0.001
		c0.007,0.007,0.017,0.009,0.026,0.004c0.009-0.005,0.013-0.014,0.011-0.024c-0.025-0.107-0.07-0.266-0.034-0.371
		c0,0,0.001-0.002,0.001-0.003c0.022-0.062,0.11-0.048,0.132-0.111c0.025-0.074-0.017-0.141-0.022-0.212
		c-0.003-0.033,0.033-0.345,0.033-0.346c0.005,0,0.006,0,0.006,0c0.059-0.028,0.086-0.073,0.098-0.124
		c0.033-0.134,0.093-0.258,0.177-0.368c0.023-0.03,0.048-0.099,0.109-0.272c0.023-0.066,0.029-0.082,0.128-0.11
		c0.122-0.034,0.25-0.044,0.375-0.029c0.067,0.008,0.147,0.022,0.243,0.046c0.009,0.002,0.016,0.008,0.02,0.016l0,0
		c0.005,0.011,0.002,0.024-0.009,0.03c-0.028,0.015-0.043,0.047-0.037,0.079c0.006,0.035,0.037,0.061,0.073,0.062
		c0.045,0.001,0.086-0.018,0.121-0.035c0.061-0.028,0.083-0.037,0.133-0.004c0.039,0.027,0.06,0.073,0.054,0.12
		c-0.013,0.103-0.152,0.101-0.151,0.184c0.001,0.034,0.023,0.063,0.055,0.074c0.159,0.048,0.271,0.162,0.32,0.303
		c0.002,0.006,0.004,0.011,0.007,0.016c0.007,0.012,0.035,0.053,0.119,0.044c0.032-0.004,0.344-0.299,0.355-0.323l0,0
		c0.023-0.048-0.044-0.061-0.091-0.086c-0.111-0.059-0.184-0.171-0.192-0.296c-0.009-0.125,0.047-0.246,0.148-0.321
		c0.001-0.001,0.002-0.001,0.002-0.001l0.57-0.33l0.001,0c0.01-0.006,0.021-0.009,0.032-0.011l0.002,0
		c0.036-0.004,0.285-0.152,0.376-0.163c0.027-0.004,0.087,0.062,0.069,0.111c-0.011,0.032-0.039,0.081-0.105,0.119
		c-0.078,0.045-0.268,0.144-0.258,0.232c0.013,0.111,0.143,0.07,0.211,0.113c0.051,0.033,0.034,0.056,0.02,0.103
		c0,0.001-0.001,0.002-0.001,0.004c-0.037,0.132-0.097,0.256-0.177,0.368c-0.005,0.006-0.007,0.013-0.006,0.019
		c0.016,0.085,0.016,0.085,0.312,0.203c0.131,0.052,0.281-0.017,0.408,0.06c0.288,0.177,0.502,0.458,0.83,0.577
		C48.542,22.64,48.903,22.789,48.984,23.063z M25.003,13.344c0.017,0.02,0.235,0.033,0.255,0.071
		c0.029,0.058-0.084,0.108-0.059,0.155c0.007,0.013,0.019,0.022,0.033,0.025c0.035,0.007-0.11,0.15-0.13,0.18
		c-0.033,0.05,0.01,0.182,0.086,0.179c0.077-0.003,0.126-0.05,0.198-0.133c0,0,0.196-0.109,0.329-0.219
		c0.128-0.107,0.39-0.138,0.487-0.32c0.053-0.099,0.148-0.164,0.227-0.181c0.034-0.007,0.068,0.012,0.08,0.045
		c0.011,0.046,0.614-0.222,0.593-0.327c-0.019-0.098,0.037-0.108,0.1-0.081c0.044,0.018,0.08,0.005,0.108-0.019
		c0.181-0.151,0.456-0.335,0.685-0.276c0.055,0.014,0.114,0.006,0.163-0.022c0.229-0.131,0.255-0.069,0.2-0.048
		c-0.06,0.023-0.227,0.084-0.193,0.138c0.008,0.014,0.025,0.019,0.04,0.013c0.098-0.039,0.201-0.059,0.306-0.061
		c0.146-0.003,0.362-0.027,0.555-0.129c0.008-0.004,0.017-0.009,0.025-0.013c0.002-0.001,0.004-0.002,0.005-0.003
		c0.457-0.232,0.646-0.385,0.742-0.32c0.03,0.02,0.046,0.055,0.043,0.091l0.002,0.001c0.075,0.053,0.155,0.002,0.245-0.021
		c0,0,0.073,0.075,0.348,0.071c-0.065,0.168,2.817-0.458,4.643-1.97c0.495-0.41,1.044-0.789,1.593-1.129
		C36.208,9.015,35.702,9,35.193,9c-1.978,0-3.906,0.209-5.766,0.602c0.133,0.019,0.122,0.18,0.037,0.209
		c-0.224,0.077-0.478,0.08-0.667,0.243c-0.016,0.014-0.021,0.038-0.01,0.057c0.01,0.019,0.033,0.028,0.054,0.022
		c0.038-0.011,0.107-0.037,0.272-0.098c0.029-0.011,0.063,0.009,0.059,0.039c-0.002,0.012-0.009,0.021-0.02,0.026
		c-0.081,0.035-0.171,0.051-0.249,0.092c-0.015,0.008-0.024,0.025-0.021,0.042c0.008,0.041-0.03,0.122-0.005,0.145l0.001,0.001
		c-0.006,0.007-0.801,0.548-1.101,0.568l-0.002,0c-0.36,0.016-0.693,0.161-0.792,0.242c-0.1,0.083-0.208,0.153-0.325,0.211
		c-0.242,0.121-0.459,0.325-0.6,0.479c-0.073,0.079,0.054,0.107,0.154,0.146c0,0,0.068,0.022-0.037,0.037
		c-0.398,0.054-0.74,0.504-0.843,0.654c-0.02,0.029-0.02,0.066,0,0.095c0.001,0.001,0.001,0.002,0.002,0.003
		c-0.184,0.183-0.202,0.2-0.338,0.476C24.987,13.309,24.99,13.329,25.003,13.344z M34.008,19.25
		c-0.001-0.007,0.004-0.014,0.01-0.016c0.007-0.002,0.015-0.001,0.022,0.004c0.005,0.004,0.01,0.007,0.013,0.01
		c0.025,0.016,0.039,0.019,0.049,0.012c0.054-0.039,0.112-0.076,0.17-0.108c0.031-0.017,0.05-0.052,0.067-0.121
		c0.005-0.021,0.025-0.129-0.112-0.205c0,0-0.002-0.001-0.003-0.002c-0.011-0.006-0.266-0.137-0.338-0.098
		c-0.048,0.025-0.048,0.025-0.136-0.02c-0.003-0.013,0.002-0.027,0.012-0.035c0.101-0.078,0.1-0.079,0.098-0.101
		c-0.004-0.048-0.029-0.083-0.058-0.115c-0.025-0.028-0.028-0.069-0.007-0.1l0.001-0.001c0.02-0.027-0.081-0.243-0.082-0.244
		c-0.007-0.007-0.01-0.011-0.024-0.01c-0.042,0.003-0.087,0.004-0.129,0.004c-0.005,0-0.012,0.001-0.022,0.003
		c-0.001,0-0.002,0-0.003-0.001c-0.002-0.004-0.003-0.009-0.002-0.014c0.013-0.053-0.038-0.087-0.043-0.136
		c-0.005-0.049,0.009-0.098,0.014-0.146c0.004-0.043-0.001-0.093-0.015-0.141c-0.051-0.175-0.043-0.36,0.019-0.527
		c0.026-0.07,0.062-0.136,0.105-0.196c0.1-0.139-0.35-0.121-0.435-0.116c-0.007,0-0.013-0.003-0.016-0.009
		c-0.003-0.006-0.003-0.013,0.001-0.019c0.022-0.033,0.025-0.076,0.055-0.104c0.041-0.039,0.097-0.052,0.144-0.081
		c0.104-0.065,0.017-0.105-0.021-0.115c-0.09-0.023-0.185-0.035-0.279-0.036c-0.035,0-0.071,0.005-0.107,0.018
		c-0.024,0.009-0.051,0.038-0.079,0.077c-0.056,0.079-0.123,0.149-0.199,0.209c-0.004,0.003-0.008,0.006-0.012,0.009
		c-0.021,0.016-0.049,0.019-0.073,0.009c-0.014-0.006-0.03-0.006-0.043,0c-0.003,0.001-0.006,0.003-0.008,0.004
		c-0.026,0.014-0.045,0.034-0.059,0.056c-0.017,0.028-0.014,0.064,0.009,0.089c0.023,0.024,0.059,0.03,0.088,0.015l0.001,0.002
		c0.004,0.009,0.004,0.02,0,0.029c-0.017,0.037-0.022,0.078-0.037,0.115c-0.002,0.004-0.005,0.007-0.01,0.008
		c-0.007,0.001-0.014-0.002-0.017-0.008c-0.019-0.03-0.028-0.03-0.041-0.027c-0.001,0-0.003,0.001-0.004,0.001
		c-0.054,0.011-0.091,0.137-0.089,0.173c0.001,0.012,0.005,0.021,0.01,0.028c0.069,0.076,0.075,0.189,0.014,0.272l0,0
		c-0.006,0.009-0.012,0.017-0.017,0.026c-0.009,0.018-0.003,0.04,0.013,0.051c0.017,0.011,0.039,0.008,0.052-0.007
		c0.016-0.018,0.036-0.042,0.062-0.074c0.025-0.03,0.033-0.04,0.069-0.056c0.028-0.012,0.058-0.024,0.087-0.033
		c0.011-0.004,0.024-0.002,0.033,0.005c0.009,0.007,0.015,0.018,0.014,0.03c-0.003,0.067,0.02,0.141-0.048,0.194
		c-0.039,0.031-0.069,0.054-0.093,0.074c-0.023,0.019-0.029,0.052-0.015,0.078c0.014,0.026,0.045,0.039,0.073,0.031
		c0,0,0,0,0.004,0.002c0.003,0.002,0.004,0.005,0.005,0.008c0.019,0.08,0.021,0.08,0.127,0.016c0.003-0.002,0.007-0.003,0.011-0.002
		c0.002,0.001,0.003,0.002,0.004,0.003c0.014,0.028,0.038,0.05,0.066,0.064c0.039,0.019,0.069,0.056,0.078,0.1
		c0.001,0.003,0.001,0.005,0.002,0.008c0.001,0.003,0.002,0.005,0.002,0.008c0.036,0.11,0.007,0.231-0.075,0.312
		c-0.082,0.082-0.203,0.11-0.313,0.073h0c-0.018-0.006-0.038,0.001-0.05,0.017s-0.01,0.037,0.002,0.052
		c0.011,0.013,0.024,0.026,0.023,0.045c-0.002,0.068-0.088,0.043-0.115,0.088l-0.001,0.001c-0.002,0.003-0.003,0.007-0.003,0.011
		c-0.001,0.009,0.003,0.017,0.009,0.024c0.007,0.006,0.016,0.008,0.024,0.006c0.039-0.009,0.071-0.042,0.113-0.046
		c0.079-0.005,0.019,0.192-0.007,0.221c-0.029,0.032-0.227,0.103-0.29,0.112c-0.04,0.006-0.067,0.01-0.081,0.024
		c-0.013,0.014-0.021,0.097,0.035,0.124c0.085,0.04,0.164-0.034,0.248-0.012h0c0.08,0.021,0.152,0.064,0.208,0.123
		c0.005,0.005,0.011,0.008,0.017,0.011c0.027,0.011,0.058,0.01,0.085-0.001c0.007-0.003,0.013-0.007,0.018-0.012
		c0.022-0.02,0.046-0.026,0.07-0.027c0.018-0.001,0.035,0.011,0.04,0.028c0.006,0.017,0,0.036-0.015,0.047
		c-0.061,0.044-0.123,0.089-0.209,0.079c-0.046-0.005-0.092-0.006-0.138-0.001c-0.141,0.015-0.274,0.077-0.375,0.18
		c-0.034,0.034-0.07,0.07-0.103,0.104c-0.017,0.018-0.019,0.046-0.003,0.066c0.016,0.02,0.043,0.025,0.065,0.011
		c0.015-0.009,0.031-0.019,0.049-0.03c0.06-0.037,0.171-0.082,0.231,0.034l0.002,0.001c0.01,0.003,0.019,0.001,0.027-0.005
		c0.081-0.061,0.122-0.175,0.241-0.185c0.085-0.007,0.148,0.076,0.234,0.058c0.097-0.02,0.178-0.095,0.283-0.089
		c0.039,0.002,0.146,0.031,0.157,0.037c0.029,0.018,0.029,0.018,0.187,0.021c0.067,0.001,0.115,0.055,0.178,0.065
		c0.077,0.012,0.147-0.034,0.222-0.027h0.001h0.001c0.002,0,0.228-0.043,0.224-0.136c0-0.002-0.001-0.004-0.003-0.005
		c0,0-0.002-0.001-0.003-0.002C34.071,19.423,34.019,19.342,34.008,19.25z M32.017,18.4c0.067-0.037,0.008-0.108,0.026-0.16
		c0.047-0.138,0.078-0.142,0.132-0.15c0.053-0.008,0.103-0.014,0.121-0.043c0.087-0.128-0.22-0.498-0.413-0.448
		c-0.2,0.051-0.36,0.343-0.427,0.339c-0.085-0.005-0.123-0.007-0.18,0.037c-0.044,0.034-0.049,0.09-0.082,0.13
		c-0.038,0.049-0.088,0.087-0.127,0.136c-0.033,0.04-0.045,0.075,0.001,0.117c0.034,0.03,0.052,0.046-0.047,0.175
		c-0.082,0.106-0.218,0.162-0.275,0.292c-0.02,0.047-0.017,0.141-0.011,0.178c0.026,0.136,0.236,0.081,0.363,0.026
		c0.115-0.05,0.222-0.119,0.344-0.152c0.001,0,0.003-0.001,0.003-0.001c0.169-0.046,0.316-0.001,0.366-0.064
		c0.049-0.063,0.134-0.177,0.174-0.269C32.005,18.497,31.957,18.433,32.017,18.4z M17.219,46.788
		c-0.082-0.656-2.174-3.052-2.767-3.498c-0.468-0.352-0.806-0.354-0.806-0.355c0.027-0.294-0.086-0.583-0.306-0.78
		c-0.083-0.074-0.144-0.173-0.206-0.272c-0.082-0.133-0.227-0.214-0.384-0.214c-0.157,0-0.302,0.081-0.384,0.214l0,0
		c0.141-0.469,0.147-0.491-0.224-0.946c-0.199-0.244-0.225-0.221,0.015-0.671c0.035-0.614-1.168-2.575-2.234-3.776
		c-0.035-0.039-0.086-0.06-0.149-0.048c-0.109-0.1-0.636-2.039-0.753-2.494c-0.005-0.022-0.001-0.045,0.014-0.062
		c0.093-0.112,0.13-0.259,0.102-0.401c-0.023-0.118-0.069-0.255-0.076-0.374c-0.013-0.221-0.221-0.402-0.258-0.376
		c-0.058,0.041-0.119,0.045-0.173,0.023c-0.055-0.023-0.097-0.071-0.108-0.14c-0.045-0.239-0.253-0.412-0.497-0.412
		c-0.097,0-0.116-0.021-0.132-0.091c-0.245,1.484-0.375,3.007-0.375,4.561c0,7.381,2.883,14.082,7.584,19.042
		c-0.213-0.277-0.442-0.768-0.444-0.842c-0.006-0.192-0.045-0.385-0.115-0.564c-0.06-0.152-0.129-0.302-0.198-0.452
		c-0.233-0.507,0.812-0.592,1.103-1.068l0-0.001c0.022-0.044,0.197-0.067,0.408,0.084c0.168,0.12,0.411-0.158,0.389-0.254
		c-0.07-0.311-0.07-0.362-0.032-0.644c0.065-0.483-0.066-1.679-0.123-1.841c-0.191-0.546-0.232-0.823-0.234-0.955
		c-0.002-0.097,0.258-0.171,0.305-0.333c0.095-0.327,0.653-0.934,0.826-1.226C17.135,47.367,17.255,47.08,17.219,46.788z
		 M22.543,12.599c-0.046-0.077-0.139-0.112-0.225-0.084c-0.06,0.02-0.173,0.058-0.208,0.006c-0.012-0.019-0.012-0.042-0.001-0.061
		c0.025-0.042,0.093-0.129,0.099-0.169c0.005-0.033,0.022-0.064,0.047-0.085c0.01-0.009,0.022-0.014,0.033-0.022
		c-2.704,1.427-5.144,3.287-7.224,5.49c0.009-0.002,0.017-0.002,0.026,0c0.329,0.092,0.304,0.02,0.586-0.32
		c0.163-0.197,0.46-0.271,0.624-0.329c0.164-0.058,0.437-0.084,0.437-0.084c0.159-0.03,0.613,0.073,0.745-0.034
		c0.111-0.09-0.031-0.12,0.034-0.218c0.062-0.093,0.115-0.192,0.158-0.296c0.036-0.088,0.145-0.114,0.225-0.163
		c0.137-0.084,0.005-0.084-0.022-0.129c-0.02-0.035,0.002-0.161,0.053-0.169c0,0,0.002,0,0.002,0.001
		c0.072,0.066,0.173,0.093,0.268,0.071c0.083-0.019,0.113-0.048,0.137-0.099c0.017-0.035,0.047-0.062,0.085-0.072l0.002-0.001
		c0.225-0.54-0.775-0.234-0.775-0.234c-0.041-0.081,0.527-0.262,0.616-0.288l0.001,0.001l0.002,0.001
		c0.054,0.014,0.102,0.007,0.147-0.011c0.27-0.106,0.575,0.027,0.682,0.297v0c0.029,0.073,0.09,0.127,0.166,0.147
		c0.089,0.024,0.177,0.049,0.272,0.014c0.485-0.181,0.626-0.026,1.031-0.205c0.001,0,0.003-0.001,0.004-0.002
		c0.528-0.236,0.551-1.406,1.269-2.049c0.07-0.063,0.147-0.121,0.227-0.171c0.131-0.083,0.217-0.211,0.308-0.333
		c0.044-0.058,0.093-0.115,0.143-0.167C22.577,12.77,22.588,12.674,22.543,12.599z M61.889,29.38
		c0.019,0.057,0.038,0.121,0.056,0.182c-2.259-8.531-8.482-15.439-16.584-18.637c0.056,0.045,0.087,0.116,0.075,0.19
		c-0.022,0.137-0.183,0.176-0.195,0.209c-0.038,0.101,0.221,0.233,0.297,0.309c0.042,0.042,0.043,0.11,0.004,0.154
		c-0.001,0.001-0.002,0.001-0.004,0.001c-0.128-0.031-0.263,0.002-0.363,0.088c-0.097,0.084-0.235,0.144-0.316,0.173
		c-0.048,0.017-0.092,0.045-0.13,0.08l0,0c-0.045-0.013-0.093-0.012-0.137,0.004c-0.181,0.067-0.285,0.41-0.247,0.536
		c0.014,0.049,0.004,0.104-0.029,0.145c-0.042,0.053-0.113,0.073-0.177,0.052c-0.038-0.013-0.143,0.077-0.092,0.117
		c0.061,0.046-0.023,0.08-0.085,0.123c-0.031,0.021-0.07,0.029-0.108,0.017c-0.221-0.067-0.208-0.122-0.275,0.05
		c-0.032,0.081-0.076,0.157-0.13,0.226c-0.035,0.043-0.031,0.106,0.01,0.145c0.325,0.314-0.143,0.263-0.311,0.187
		c-0.152-0.069-0.241,0.19,0.041,0.191c0.077,0.001,0.15,0.033,0.202,0.091l0,0c0.145,0.161-0.188,0.108-0.393,0.035
		c-0.174-0.062-0.34-0.153-0.486-0.268c-0.092-0.073-0.127-0.197-0.087-0.307c0.04-0.11,0.146-0.183,0.264-0.18
		c0.169,0.005,0.314-0.121,0.334-0.289c0.019-0.168-0.093-0.323-0.259-0.358c-0.408-0.085-0.86-0.033-1.238-0.207
		c-0.326-0.151-0.596-0.124-0.679-0.233c-0.036-0.048-0.051-0.108-0.041-0.166v0c-0.175-0.034-0.286-0.055-0.362-0.071
		c-0.072-0.015-0.293-0.018-0.594,0.076c-0.65,0.206-1.267,0.81-1.267,0.81h0c0,0-0.124,0.212-0.244,0.349
		c-0.109,0.125-0.192,0.276-0.314,0.39c-0.048,0.045-0.081,0.103-0.094,0.167l0,0.001l-0.002,0
		c-0.064,0.018-0.114,0.068-0.131,0.132c-0.079,0.282-0.301,0.702-1.491,1.203l0,0c-0.349,0.148-0.569,0.498-0.55,0.877
		c0.019,0.379,0.273,0.706,0.636,0.817c0.45,0.139,0.553-0.359,1.062-0.207c0.191,0.057,0.344,0.202,0.412,0.39
		c0.083,0.232,0.198,0.369,0.208,0.666c0.102,0.101,0.4,0.325,0.434,0.173c0.084-0.361,0.45-0.124,0.607-0.423
		c0.135-0.257-0.067-0.527,0.031-0.786c0.001-0.002,0.002-0.004,0.002-0.006c0.124-0.304,0.156-0.634,0.094-0.956
		c-0.029-0.15,0.009-0.378,0.081-0.81c0.029-0.169,0.36-0.256,0.439-0.381c0.138-0.215-0.092-0.626,0.251-0.703
		c0.172-0.038,0.48,0.041,0.521,0.219c0.014,0.063,0,0.129-0.041,0.18c-0.097,0.124-0.141,0.294-0.228,0.427
		c-0.175,0.268-0.213,0.604-0.101,0.904c0.096,0.259,0.252,0.493,0.499,0.512c0.071,0.006,0.142-0.012,0.202-0.051l0,0
		c0.001,0,0.001-0.001,0.001-0.001c0.001,0,0.001,0,0.001,0l0.355-0.124c0.293-0.103,0.61-0.123,0.913-0.057h0
		c0.029,0.006,0.052,0.028,0.059,0.057c0.008,0.029-0.002,0.059-0.024,0.079c-0.367,0.327-0.437,0.11-0.823,0.18
		c-0.132,0.024-0.233,0.13-0.25,0.263c-0.015,0.12,0.041,0.236,0.142,0.299c0.02,0.012,0.032,0.035,0.03,0.058l0,0.002
		c-0.008,0.117-0.081,0.219-0.189,0.264c-0.081,0.035-0.172,0.033-0.25-0.003c-0.061-0.027-0.131-0.021-0.186,0.015
		c-0.11,0.073-0.071,0.126-0.093,0.222c-0.034,0.154-0.026,0.315,0.026,0.465l0,0c0.084,0.246-0.37,0.686-0.554,0.652
		c-0.373-0.069-0.759-0.01-1.093,0.168c-0.158,0.084-0.352,0.059-0.484-0.062c-0.001-0.001-0.002-0.001-0.002-0.001
		c-0.089-0.081-0.005-0.117-0.116-0.187c-0.023-0.015-0.606,0.229-0.632,0.238c-0.027,0.01-0.056,0.007-0.08-0.009
		s-0.04-0.04-0.042-0.069c0-0.001,0-0.002,0-0.002c-0.02-0.169-0.777-0.147-0.187-0.802c0.001-0.001,0.002-0.002,0.003-0.003
		c0.061-0.067,0.089-0.159,0.074-0.249c-0.024-0.15,0.007-0.293-0.132-0.351l-0.002,0.002c-0.309,0.323-0.456,0.769-0.4,1.212
		c0.038,0.493-0.198,0.41-0.378,0.405c-0.076-0.002-0.148,0.03-0.197,0.087c0,0-0.001,0.002-0.002,0.002
		c-0.072,0-0.174,0-0.346,0.016c-0.074,0.007-0.141,0.044-0.185,0.103c-0.005,0.006-0.007,0.014-0.006,0.022
		c0.006,0.041-0.02,0.08-0.061,0.09c-0.133,0.031-0.254,0.095-0.355,0.186c-0.235,0.213-0.355,0.302-0.601,0.439
		c-0.173,0.096-0.324,0.22-0.453,0.369c-0.054,0.062-0.169,0.131-0.441,0.285c-0.025,0.014-0.043,0.038-0.05,0.066
		c-0.014,0.059-0.062,0.103-0.122,0.112c-0.242,0.035-0.312-0.024-0.451-0.115c-0.071-0.047-0.127,0.051-0.109,0.114
		c0,0.001,0.001,0.002,0.001,0.003c0.017,0.061,0.005,0.126-0.032,0.178c-0.037,0.051-0.096,0.083-0.159,0.086
		c-0.167,0.008-0.334-0.027-0.483-0.103c-0.013-0.007-0.029-0.008-0.042-0.003c-0.243,0.078-0.386,0.368-0.325,0.375
		c0.418,0.046,0.411,0.118,0.579,0.225c0.199,0.126,0.102,0.515,0.405,0.548c0.002,0,0.003,0,0.005,0.001
		c0.038,0.003,0.069,0.31,0.076,0.348c0.005,0.029-0.007,0.057-0.031,0.074h0c-0.091,0.06-0.151,0.156-0.165,0.263
		c-0.027,0.203-0.007,0.42-0.143,0.594c-0.058,0.074-0.19,0.209-0.344,0.15c-0.166-0.063-0.343-0.1-0.52-0.109
		c-0.731-0.034-1.16-0.19-1.374-0.299c-0.158-0.08-0.35-0.042-0.465,0.092l0,0c-0.051,0.002-0.113,0.005-0.173,0.008
		c-0.108,0.006-0.184,0.108-0.159,0.213c0.057,0.238,0.058,0.479-0.22,1.19c-0.011,0.028-0.026,0.065-0.04,0.091
		c-0.09,0.168-0.415,0.497-0.336,0.584c0.009,0.01,0.021,0.015,0.034,0.016c0.068,0.002,0.128,0.044,0.152,0.107
		c0.021,0.054,0.025,0.113,0.01,0.169c-0.023,0.093-0.124,0.416-0.083,0.496c0.023,0.045,0.063,0.078,0.112,0.092
		c0.071,0.021,0.119,0.077,0.179,0.114c0.046,0.027,0.193-0.038,0.282-0.076c0.065-0.028,0.106-0.046,0.25,0.121
		c0.134,0.153,0.03,0.508,0.313,0.514c0.077,0.001,0.121-0.074,0.14-0.119c0.02-0.05,0.02-0.05,0.566-0.168
		c0.242-0.053,0.476,0.1,0.718,0.027c0.186-0.057,0.195-0.302,0.384-0.356c0.126-0.036,0.259,0.034,0.383-0.03
		c0.067-0.036,0.006-0.239,0.079-0.304l0.001-0.001c0.113-0.097,0.157-0.251,0.113-0.393c-0.021-0.068-0.017-0.089-0.006-0.137
		c0.012-0.059,0.191-0.161,0.293-0.396c0.009-0.02,0.019-0.038,0.032-0.051c0.334-0.305,0.786-0.377,1.165-0.593
		c0.332-0.19,0.101-0.703,0.493-0.859c0.363-0.144,0.633,0.36,1.006,0.146c0.396-0.226,0.889-0.507,0.992-0.512
		c0.108-0.005,0.205,0.022,0.287,0.059c0.125,0.057,0.231,0.15,0.303,0.267c0.359,0.577,1.043,0.822,1.461,1.339
		c0.062,0.078,0.381,0.267,0.502,0.381c0.196,0.184,0.084-0.055,0.255,0.24c0.001,0.001,0.002,0.003,0.003,0.004
		c0.083,0.129,0.23,0.357,0.091,0.416c-0.097,0.04-0.097,0.07-0.095,0.104c0.002,0.075-0.061,0.144-0.015,0.221
		c0.013,0.022,0.062,0.089,0.167,0.038c0.124-0.064,0.078-0.087,0.128-0.183c0.122-0.245,0.118-0.259,0.115-0.258
		c0.042-0.03,0.121-0.006,0.134-0.077c0.032-0.171-0.087-0.228-0.166-0.265c-0.05-0.025-0.144-0.069-0.088-0.215
		c0.001-0.004,0.003-0.008,0.005-0.011c0.001-0.001,0.001-0.003,0.002-0.004c0.059-0.128,0.209-0.186,0.339-0.131
		c0.095,0.041,0.168,0.06,0.203,0.159c0.006,0.018,0.01,0.035,0.01,0.048c-0.002,0.043-0.003,0.083,0.016,0.1
		c0.026,0.024,0.116,0.004,0.141-0.042c0.015-0.027,0.032-0.115,0.031-0.142c0-0.001,0-0.001,0-0.001c0-0.002,0-0.003-0.001-0.004
		c0-0.004-0.002-0.008-0.005-0.012c-0.234-0.367-0.671-0.395-1.008-0.589c-0.038-0.022-0.061-0.06-0.065-0.1
		c-0.009-0.084-0.08-0.148-0.165-0.147c-0.207,0.002-0.401-0.099-0.519-0.269l-0.707-1.029c-0.03-0.043-0.058-0.088-0.083-0.134
		c-0.046-0.084-0.006-0.187,0.08-0.22c0.005-0.002,0.011-0.004,0.017-0.006c0.137-0.041,0.284,0.013,0.362,0.132
		c0.039,0.059,0.078,0.127,0.149,0.122c0.086-0.005,0.171,0.019,0.24,0.07l1.216,0.887c0,0,0.001,0.001,0.002,0.001
		c0,0,0.103,0.022,0.259,0.126c0.033,0.022,0.073,0.033,0.111,0.031c0.061-0.003,0.12,0.017,0.168,0.056
		c0.184,0.149,0.303,0.363,0.331,0.599c0.012,0.105,0.02,0.201,0.026,0.269v0c0.006,0.088,0.052,0.168,0.123,0.219
		c0.033,0.023,0.074,0.055,0.098,0.079c0.03,0.032,0.035,0.041,0.091,0.135c0.023,0.039,0.164,0.165,0.178,0.176
		c0,0,0.001,0.001,0.002,0.002c0.006,0.005,0.022,0.015,0.048,0.016c0.001,0,0.003,0,0.004,0c0.044,0.001,0.085-0.017,0.128-0.015
		c0.131,0.008,0.329,0.175,0.48,0.099c0.014-0.007,0.172-0.099,0.172-0.099l0.003-0.002c0.367-0.169-0.086-0.342-0.101-0.51
		c-0.005-0.061,0.017-0.105,0.057-0.133c0.038-0.026,0.087-0.032,0.136-0.009c0.028,0.012,0.06,0.009,0.085-0.009l0,0
		c0.03-0.021,0.051-0.053,0.058-0.089c0.04-0.193,0.238-0.249,0.433-0.249c0.163,0,0.323,0.041,0.465,0.12
		c0.058,0.032,0.124,0.048,0.191,0.044h0.001c0.127-0.007,0.247-0.051,0.349-0.126c0.048-0.035-0.061,0.095-0.301,0.186
		c-0.002,0.001-0.004,0.002-0.006,0.002c-0.1,0.041-0.156,0.148-0.131,0.253c0.049,0.212,0.49,0.421,0.201,0.693
		c-0.004,0.004-0.007,0.007-0.011,0.01l0.001,0.001c0.161,0.065,0.295,0.181,0.384,0.329c0.293,0.49,1.272,0.644,1.358,0.435
		c0,0,0.001-0.002,0.001-0.002c0.043-0.112,0.169-0.168,0.281-0.126c0.223,0.085,0.423,0.252,0.68,0.226
		c0.146-0.015,0.252-0.069,0.338-0.143c0.241-0.207,0.542-0.333,0.859-0.358h0c0.003,0,0.005,0.001,0.007,0.003
		c0.002,0.002,0.003,0.005,0.002,0.008c-0.159,0.935,0.882,1.973-0.145,2.822c-0.081,0.067-0.226,0.101-0.33,0.119
		c-0.926,0.164-1.864,0.017-2.794,0.08c-0.537,0.036-0.615-0.156-0.783-0.159h-0.003c-0.002,0-0.003,0-0.005,0
		c-0.181,0.004-0.216,0.004-0.486-0.058c-0.168-0.038-0.617-0.683-1.229-0.185c-0.175,0.143-0.28,0.329-0.275,0.435
		c0.076,1.53-1.807,0.405-1.947,0.237c-0.215-0.257-0.501-0.445-0.823-0.537c-0.354-0.102-0.781-0.241-1.05-0.382
		c-0.204-0.107-0.451-0.172-0.556-0.177c-0.038-0.006-0.056-0.192,0.059-0.308c0.304-0.307,0.399-0.43,0.303-0.593
		c-0.254-0.428-0.087-0.391-0.311-0.68c0,0-0.002-0.002-0.002-0.003c-0.079-0.102-0.204-0.158-0.332-0.15
		c-3.805,0.242-4.624,0.353-5.374,0.713c-0.066,0.031-0.202,0.096-0.414,0.003c-0.162-0.072-0.346-0.079-0.514-0.02h0
		c-0.246-0.163-0.569-0.146-0.797,0.039l-1.239,1.007c-0.125,0.102-0.235,0.225-0.321,0.361c-0.224,0.353-0.209,0.618-0.203,0.745
		c0.021,0.397-1.114,1.128-1.714,1.06c0,0-0.002,0-0.003,0v-0.001c-0.275,0.111-0.512,0.207-1.89,2.129
		c-0.757,1.055-0.757,1.055-0.605,1.348c0.082,0.157,0.25,0.477,0.123,1.353c-0.008,0.057-0.019,0.114-0.033,0.17
		c-0.007,0.026-0.014,0.054-0.022,0.08l-0.531,1.763c-0.148,0.493-0.051,1.029,0.262,1.438l0,0c0.002,0.003,0.003,0.005,0.004,0.007
		l0.116,0.218c0.019,0.036,0.038,0.074,0.054,0.112c0.114,0.258,0.272,1.698,0.698,2.352c0.067,0.102,0.144,0.197,0.232,0.283
		l1.342,1.32c0.236,0.232,0.704,0.39,1.029,0.452c0.958,0.184,1.974,0.191,2.916,0.547c0.046,0.017,0.107,0.041,0.156,0.043
		c1.091,0.074,1.985-0.834,3.042-0.908c0.248-0.017,0.754,0.145,0.882,0.884c0.095,0.551,0.945,0.377,1.346,0.259
		c0.182-0.053,0.376-0.043,0.552,0.028c0.001,0.001,0.002,0.002,0.003,0.004c0,0.001,0,0.003,0.001,0.004
		c0.012,0.12,0.118,0.207,0.238,0.197c0.004,0,0.007,0,0.011-0.001c0.069-0.007,0.136,0.025,0.174,0.082
		c0.218,0.33,0.176,0.544,0.143,0.704l0,0.001c0,0.002-0.001,0.004-0.001,0.006l-0.011,0.054c0,0.002-0.001,0.004-0.001,0.006
		c-0.009,0.04-0.016,0.081-0.021,0.121c-0.11,0.811-0.043,1.187-0.419,1.488c-0.04,0.033-0.072,0.074-0.093,0.122
		c0.407,0.835,1.295,1.259,1.295,1.259c0.13,0.138,0.895,1.458,0.977,2.04c0.124,0.886,0.124,0.718,0.147,0.756
		c0.391,0.639,0.049,0.941-0.19,1.063c-0.073,0.038-0.11,0.066-0.13,0.105c-0.036,0.07-0.078,0.14-0.122,0.205
		c-0.039,0.056-0.528,1.378-0.526,1.652v0.002c0.002,0.251,0.418,0.493,0.564,0.697l0.941,1.314
		c0.016,0.023,0.033,0.046,0.051,0.067c0.325,0.411-0.175,0.991,0.116,1.403c0.095,0.135,0.327,0.674,0.45,0.758
		c0.191,0.131,0.989,1.286,0.752,1.482c-0.025,0.021-0.022,0.077-0.011,0.108c0.071,0.206,1.039,0.534,1.397,0.382
		c0.531-0.227,1.645-0.404,2.099-0.401c0.628,0.005,3.648-2.161,3.41-2.907c-0.003-0.01-0.004-0.02-0.003-0.03l0.001-0.001
		c0.353-0.417,1.378-0.93,1.35-0.982c-0.001-0.001-0.001-0.002-0.001-0.002c0.132-0.296,0.178-0.54,0.18-0.734
		c0.006-0.528,0.26-1.022,0.684-1.335c0.362-0.268,0.889-0.65,1.663-1.21c0.483-0.35,0.726-0.598,0.685-2.105
		c-0.038-1.383-0.284-2.462-0.367-2.695c-0.116-0.327-0.083-0.388,0.047-0.631c0.388-0.717,0.914-1.349,1.285-2.076
		c0.59-1.157,1.315-1.837,1.713-2.205c0.017-0.016,0.033-0.033,0.049-0.051c0.719-0.843,1.132-1.982,1.394-3.05
		c0.055-0.227,0.143-0.442,0.21-0.664c0.05-0.168,0.123-0.313,0.212-1.184c0.016-0.149-0.067-0.282-0.06-0.43
		c0.033-0.574-0.164-0.068-0.332,0.013c-0.429,0.204-0.197,0.132-0.384,0.253c-0.091,0.057-0.783,0.302-0.867,0.379
		c-0.098,0.091-0.19,0.192-0.331,0.21c-0.853,0.107-1.004,0.126-1.154-0.014c-0.143-0.131-0.233-0.296-0.271-0.487
		c-0.039-0.2-0.141-0.385-0.294-0.528c-0.816-0.762-2.417-1.257-2.795-3.323c-0.058-0.311-2.332-3.595-2.798-4.259
		c-0.052-0.074-0.069-0.168-0.046-0.255c0,0,0-0.002,0.001-0.003c0.089,0.226,0.441,0.63,0.657,0.852
		c0.062,0.064,0.148,0.093,0.219,0.04c0.084-0.064,0.028-0.158,0.046-0.459c0.005-0.086,0.129-0.092,0.143-0.008
		c0.032,0.188,0.122,0.359,0.259,0.492c0.302,0.291,0.67,0.832,0.912,1.212c0.149,0.233,0.35,0.423,0.591,0.559
		c0.345,0.195,0.448,0.514,0.695,1.27c0.292,0.896,1.34,1.11,1.728,1.918c0.328,0.682,0.415,1.46,0.832,2.108
		c0.003,0.005,0.006,0.009,0.009,0.013c0.053,0.072,0.144,0.105,0.231,0.085c0.634-0.149,1.37-0.943,1.552-1.084
		c0.383-0.298,0.66-0.522,0.864-0.694c0.278-0.234,0.471-0.549,0.554-0.902c0.07-0.298,0.523-0.559,0.659-0.56
		c0.355-0.003,0.195-0.463,0.343-0.669c0.158-0.217,0.17-0.461,0.351-0.654c0.058-0.062,0.126-0.112,0.203-0.15
		c0.008-0.004,0.013-0.011,0.015-0.019c0.045-0.232-0.101-0.444-0.099-0.672c0.001-0.059,0.055-0.104,0.114-0.093
		c0.002,0,0.004,0,0.006-0.001c0.002-0.001,0.003-0.003,0.003-0.005c0.126-0.717,0.368-1.323-0.267-1.621
		c-0.25-0.119-0.553,0.068-0.788-0.134c-0.001-0.001-0.003-0.002-0.004-0.004c-0.129-0.111-0.302-0.156-0.468-0.121
		c-0.166,0.034-0.307,0.144-0.382,0.297c-0.001,0.001-0.002,0.003-0.002,0.004c-0.065,0.132-0.191,0.224-0.337,0.245
		c-0.236,0.033-0.21,0.076-0.391,0.212h-0.001c-0.384-0.202-0.623-0.219-1.981-2.244c-0.405-0.603,0.146-0.905,0.337-0.684l0.001,0
		l0.001,0c0.17,0.183,0.857,0.911,1.416,1.223c0.19,0.106,0.763,0.251,0.868,0.059c0.388-0.709,0.667-0.195,0.721-0.081
		c0.285,0.607,1.081,0.078,1.258,0.086c0.387,0.02,0.352-0.06,1.462-0.687c0.439-0.249,0.968-0.288,1.439-0.105
		C61.368,28.515,61.732,28.9,61.889,29.38z M39.441,26.122c0.013-0.099,0.091-0.172,0.109-0.269
		c0.009-0.044-0.006-0.067-0.044-0.071c-0.006-0.001-0.011,0-0.017,0.001c-0.025,0.005-0.048,0.019-0.074,0.023
		c-0.084,0.009-0.074-0.029-0.147,0.014c-0.037,0.022-0.071,0.05-0.115,0.061c-0.041,0.009-0.079-0.018-0.12-0.013
		c-0.057,0.005-0.092,0.063-0.151,0.062c-0.079-0.002-0.13-0.071-0.205-0.084c-0.048-0.009-0.075,0.045-0.12,0.041
		c-0.046-0.004-0.033-0.023-0.071-0.035c-0.058-0.02-0.126,0.191-0.114,0.211c0.018,0.032,0.046,0.036,0.062,0.038
		c0.001,0,0.003,0,0.004,0c0.032,0.003,0.057-0.021,0.089-0.023c0.089-0.006,0.375,0.192,0.473,0.234
		c0.032,0.014,0.067,0.019,0.097,0.037c0.057,0.034,0.098,0.089,0.158,0.118c0.02,0.01,0.054,0.025,0.101,0.017
		c0.034-0.006,0.084-0.015,0.137-0.189C39.516,26.223,39.432,26.187,39.441,26.122z"/>
	<path opacity="0.5" clip-path="url(#SVGID_2_)" fill="#FF9300" d="M40.945,68.779c-10.739,10.739-28.152,10.739-38.891,0
		c-10.739-10.739-10.739-28.151,0-38.891"/>
</g>
<path opacity="0.5" fill="#FDE5A3" d="M58.971,33.833c0.168-11.781-9.246-21.468-21.026-21.636L58.971,33.833"/>
</svg>
