<?xml version="1.0" encoding="utf-8"?>
<!-- Generator: Adobe Illustrator 17.0.0, SVG Export Plug-In . SVG Version: 6.00 Build 0)  -->
<!DOCTYPE svg PUBLIC "-//W3C//DTD SVG 1.1//EN" "http://www.w3.org/Graphics/SVG/1.1/DTD/svg11.dtd">
<svg version="1.1" id="Layer_1" xmlns="http://www.w3.org/2000/svg" xmlns:xlink="http://www.w3.org/1999/xlink" x="0px" y="0px"
	 width="72px" height="72px" viewBox="0 0 72 72" enable-background="new 0 0 72 72" xml:space="preserve">
<g>
	<path fill="#E33038" d="M13,25c0,1.657-1.344,3-3,3c-1.656,0-3-1.343-3-3c0-1.657,1.344-3,3-3C11.656,22,13,23.343,13,25"/>
	<path fill="#E33038" d="M67,25c0,1.657-1.344,3-3,3c-1.656,0-3-1.343-3-3c0-1.657,1.344-3,3-3C65.656,22,67,23.343,67,25"/>
	<path fill="#E33038" d="M13,53c0,1.657-1.344,3-3,3c-1.656,0-3-1.343-3-3c0-1.657,1.344-3,3-3C11.656,50,13,51.343,13,53"/>
	<rect x="7" y="24" fill="#E33038" width="6" height="29"/>
	<path fill="#E33038" d="M67,53c0,1.657-1.344,3-3,3c-1.656,0-3-1.343-3-3c0-1.657,1.344-3,3-3C65.656,50,67,51.343,67,53"/>
	<rect x="61" y="25" fill="#E33038" width="6" height="28"/>
	<rect x="10" y="22" fill="#E33038" width="54" height="34"/>
	<g opacity="0.1">
		<g>
			<defs>
				<rect id="SVGID_157_" x="22" y="32" width="30" height="14"/>
			</defs>
			<clipPath id="SVGID_2_">
				<use xlink:href="#SVGID_157_"  overflow="visible"/>
			</clipPath>
			<rect x="22" y="32" clip-path="url(#SVGID_2_)" width="30" height="14"/>
		</g>
	</g>
	<g opacity="0.2">
		<g>
			<defs>
				<rect id="SVGID_159_" x="58" y="25" width="6" height="6"/>
			</defs>
			<clipPath id="SVGID_4_">
				<use xlink:href="#SVGID_159_"  overflow="visible"/>
			</clipPath>
			<rect x="58" y="25" clip-path="url(#SVGID_4_)" width="6" height="6"/>
		</g>
	</g>
</g>
</svg>
