<?xml version="1.0" encoding="utf-8"?>
<!-- Generator: Adobe Illustrator 17.0.0, SVG Export Plug-In . SVG Version: 6.00 Build 0)  -->
<!DOCTYPE svg PUBLIC "-//W3C//DTD SVG 1.1//EN" "http://www.w3.org/Graphics/SVG/1.1/DTD/svg11.dtd">
<svg version="1.1" id="Layer_1" xmlns="http://www.w3.org/2000/svg" xmlns:xlink="http://www.w3.org/1999/xlink" x="0px" y="0px"
	 width="72px" height="72px" viewBox="0 0 72 72" enable-background="new 0 0 72 72" xml:space="preserve">
<g>
	<g>
		<path fill="#FDD05F" d="M13.983,32.94l3.772,5.335C20,40.909,23.12,40.933,25,38.909c0,0,0.983-0.97,0.983-2.97v-7L27,27.922
			V16.97c0-1.105-0.895-2-2-2l-13,3c-1.105,0-2,0.895-2,2V32.1C11.677,31.755,13.411,32.119,13.983,32.94z"/>
		<path fill="#FDD05F" d="M12,44.97h13c1.105,0,2-0.895,2-2V27.922l-1.017,1.017v7c0,2-0.983,2.97-0.983,2.97
			c-1.88,2.023-5,2-7.246-0.634l-3.772-5.335c-0.571-0.821-2.306-1.184-3.983-0.84v10.87C10,44.074,10.895,44.97,12,44.97z"/>
		<path fill="#FDD05F" d="M12,44.97h13c1.105,0,2-0.895,2-2V27.922l-1.017,1.017v7c0,2-0.983,2.97-0.983,2.97
			c-1.88,2.023-5,2-7.246-0.634l-3.772-5.335c-0.571-0.821-2.306-1.184-3.983-0.84v10.87C10,44.074,10.895,44.97,12,44.97z"/>
	</g>
	<path opacity="0.5" fill="#FF9300" d="M12,43.987h13c1.105,0,2-0.895,2-2V30.97l-1.017,1.017v2.97c0,2-0.983,2.97-0.983,2.97
		c-1.88,2.023-4.755,2.013-7-0.621l-3-4.335c-1.228-2-3.323-2.197-5-1.853v10.87C10,43.092,10.895,43.987,12,43.987z"/>
	<g>
		<path fill="#E33038" d="M66,49.97l-3.453-1L30,32.97l-4,3c0,0,0,4,0,5s-0.934,2.106-0.934,2.106
			c-1.879,2.023-5.043,2.14-7.066,0.26l-3.863-5.029c-2.023-1.88-4.92-1.763-6.8,0.26c-0.766,0.825-1.201,2.105-1.309,3.145v-0.083
			c-0.024,0.351-0.049,0.964,0,1.312v8.662c-0.159,1.511,0.468,3.075,1.667,4.188c1.198,1.113,2.305,1.24,4.289,1.24l1.09-0.001
			c0.189-0.612,0.753-1.059,1.427-1.059c0.673,0,1.235,0.446,1.425,1.056l2.15-0.003c0.191-0.608,0.753-1.053,1.425-1.053
			c0.67,0,1.231,0.443,1.424,1.05l2.154-0.003c0.193-0.605,0.753-1.047,1.423-1.047c0.668,0,1.228,0.44,1.422,1.044l2.157-0.003
			c0.195-0.602,0.754-1.041,1.421-1.041c0.666,0,1.224,0.437,1.42,1.038l2.161-0.003c0.197-0.599,0.754-1.035,1.419-1.035
			c0.664,0,1.22,0.434,1.418,1.032l2.165-0.003c0.198-0.596,0.754-1.029,1.417-1.029c0.661,0,1.217,0.431,1.416,1.026l2.169-0.003
			c0.2-0.593,0.755-1.023,1.415-1.023c0.659,0,1.213,0.428,1.414,1.019l2.172-0.003c0.202-0.59,0.755-1.017,1.413-1.017
			c0.657,0,1.209,0.425,1.412,1.013l2.176-0.003c0.204-0.587,0.755-1.011,1.412-1.011c0.655,0,1.206,0.422,1.41,1.007L62,56.97
			v-0.011c1.073,0,2.143-0.418,2.931-1.267c0.716-0.77,1.058-1.748,1.058-2.722H66V49.97z"/>
	</g>
	<g opacity="0.2">
		<path d="M66,49.97l-3.453-1L30,32.97l-4,3c0,0,0,4,0,5s-0.934,2.106-0.934,2.106c-1.879,2.023-5.043,2.14-7.066,0.26l-3.863-5.029
			c-2.023-1.88-4.92-1.763-6.8,0.26c-0.766,0.825-1.201,2.105-1.309,3.145v-0.083c-0.024,0.351-0.049,0.964,0,1.312v8.662
			c-0.159,1.511,0.468,3.075,1.667,4.188c1.198,1.113,2.305,1.24,4.289,1.24l1.09-0.001c0.189-0.612,0.753-1.059,1.427-1.059
			c0.673,0,1.235,0.446,1.425,1.056l2.15-0.003c0.191-0.608,0.753-1.053,1.425-1.053c0.67,0,1.231,0.443,1.424,1.05l2.154-0.003
			c0.193-0.605,0.753-1.047,1.423-1.047c0.668,0,1.228,0.44,1.422,1.044l2.157-0.003c0.195-0.602,0.754-1.041,1.421-1.041
			c0.666,0,1.224,0.437,1.42,1.038l2.161-0.003c0.197-0.599,0.754-1.035,1.419-1.035c0.664,0,1.22,0.434,1.418,1.032l2.165-0.003
			c0.198-0.596,0.754-1.029,1.417-1.029c0.661,0,1.217,0.431,1.416,1.026l2.169-0.003c0.2-0.593,0.755-1.023,1.415-1.023
			c0.659,0,1.213,0.428,1.414,1.019l2.172-0.003c0.202-0.59,0.755-1.017,1.413-1.017c0.657,0,1.209,0.425,1.412,1.013l2.176-0.003
			c0.204-0.587,0.755-1.011,1.412-1.011c0.655,0,1.206,0.422,1.41,1.007L62,56.97v-0.011c1.073,0,2.143-0.418,2.931-1.267
			c0.716-0.77,1.058-1.748,1.058-2.722H66V49.97z"/>
	</g>
	<path fill="#E33038" d="M63.983,46.94l-3.939-2.066l-1.061-0.557l-0.024-0.012l-0.949-0.498l-0.028-0.014l-4.27-2.114
		l-19.019-9.417l-6.711-3.323l-2,2v7c0,2-0.983,2.97-0.983,2.97c-1.88,2.023-5,2-7.246-0.634l-3.772-5.335
		c-0.909-1.307-4.766-1.456-6.645,0.567c-0.766,0.825-1.201,2.105-1.309,3.145v-0.083c-0.024,0.351-0.049,0.964,0,1.312v8.662
		c-0.159,1.511,0.468,3.075,1.667,4.188c1.198,1.113,2.059,1.24,4.043,1.24h40.078h1.031h8.907c1.073,0,2.143-0.49,2.931-1.338
		c0.669-0.721,1.15-1.736,1.28-2.722L63.983,46.94z"/>
	<path opacity="0.2" d="M30.078,41.356c0.118,0.283,0.359,0.496,0.655,0.578l18,5c0.088,0.024,0.178,0.036,0.268,0.036
		c0.299,0,0.588-0.135,0.781-0.375l3.932-4.915l-19.019-9.417l-4.568,8.222C29.977,40.752,29.959,41.073,30.078,41.356z"/>
	<circle fill="#E33038" cx="8" cy="35.97" r="2"/>
	<path fill="#FDD05F" d="M26.049,33.106"/>
	<circle fill="#E33038" cx="63.5" cy="49.47" r="2.5"/>
	<polygon fill="#E33038" points="8,36.97 11,36.97 12,33.97 8,33.97 	"/>
	<rect x="6" y="35.97" fill="#E33038" width="3" height="3"/>
	
		<line fill="none" stroke="#FDD05F" stroke-width="2" stroke-linecap="round" stroke-miterlimit="10" x1="36" y1="39.97" x2="42" y2="33.97"/>
	
		<line fill="none" stroke="#FDD05F" stroke-width="2" stroke-linecap="round" stroke-miterlimit="10" x1="41" y1="40.97" x2="46" y2="35.97"/>
	
		<line fill="none" stroke="#FDD05F" stroke-width="2" stroke-linecap="round" stroke-miterlimit="10" x1="45.875" y1="41.845" x2="49.625" y2="38.095"/>
	<path opacity="0.2" d="M11,33.97v4.499c-0.001,0.143-0.059,3.501-3.5,3.501H6v1h2v-0.026c3.145-0.265,4-2.993,4-4.474v-4.5H11z"/>
	<path opacity="0.2" d="M58.959,44.305c-3.603,2.011-6.265,5.511-7.143,9.665h1.031c0.912-4,3.603-7.32,7.196-9.096l-1.061-0.557
		L58.959,44.305z"/>
</g>
</svg>
