<?xml version="1.0" encoding="utf-8"?>
<!-- Generator: Adobe Illustrator 17.0.0, SVG Export Plug-In . SVG Version: 6.00 Build 0)  -->
<!DOCTYPE svg PUBLIC "-//W3C//DTD SVG 1.1//EN" "http://www.w3.org/Graphics/SVG/1.1/DTD/svg11.dtd">
<svg version="1.1" id="Layer_1" xmlns="http://www.w3.org/2000/svg" xmlns:xlink="http://www.w3.org/1999/xlink" x="0px" y="0px"
	 width="72px" height="72px" viewBox="0 0 72 72" enable-background="new 0 0 72 72" xml:space="preserve">
<g>
	<g>
		<path fill="#FFC95A" d="M21.016,5.113c0,1.657-1.344,3-3,3c-1.656,0-3-1.343-3-3c0-1.657,1.344-3,3-3
			C19.671,2.113,21.016,3.456,21.016,5.113"/>
		<path fill="#FFC95A" d="M67.016,5.113c0,1.657-1.344,3-3,3c-1.656,0-3-1.343-3-3c0-1.657,1.344-3,3-3
			C65.671,2.113,67.016,3.456,67.016,5.113"/>
		<path fill="#FFC95A" d="M21.016,65.113c0,1.657-1.344,3-3,3c-1.656,0-3-1.343-3-3c0-1.657,1.344-3,3-3
			C19.671,62.113,21.016,63.456,21.016,65.113"/>
		<path fill="#FFC95A" d="M67.016,65.113c0,1.657-1.344,3-3,3c-1.656,0-3-1.343-3-3c0-1.657,1.344-3,3-3
			C65.671,62.113,67.016,63.456,67.016,65.113"/>
		<rect x="15.016" y="5.113" fill="#FFC95A" width="6" height="60"/>
		<rect x="61.016" y="5.113" fill="#FFC95A" width="6" height="60"/>
		<rect x="18" y="2.113" fill="#FFC95A" width="46" height="66"/>
		
			<line fill="none" stroke="#FF9300" stroke-width="2" stroke-linejoin="round" stroke-miterlimit="10" x1="15.016" y1="11.34" x2="67.016" y2="11.34"/>
		
			<line fill="none" stroke="#FF9300" stroke-width="2" stroke-linejoin="round" stroke-miterlimit="10" x1="15.016" y1="18.34" x2="67.016" y2="18.34"/>
		
			<line fill="none" stroke="#FF9300" stroke-width="2" stroke-linejoin="round" stroke-miterlimit="10" x1="15.016" y1="25.34" x2="67.016" y2="25.34"/>
		
			<line fill="none" stroke="#FF9300" stroke-width="2" stroke-linejoin="round" stroke-miterlimit="10" x1="15.016" y1="32.34" x2="67.016" y2="32.34"/>
		
			<line fill="none" stroke="#FF9300" stroke-width="2" stroke-linejoin="round" stroke-miterlimit="10" x1="15.016" y1="39.34" x2="67.016" y2="39.34"/>
		
			<line fill="none" stroke="#FF9300" stroke-width="2" stroke-linejoin="round" stroke-miterlimit="10" x1="15.016" y1="46.34" x2="67.016" y2="46.34"/>
		
			<line fill="none" stroke="#FF9300" stroke-width="2" stroke-linejoin="round" stroke-miterlimit="10" x1="15.016" y1="53.34" x2="67.016" y2="53.34"/>
		
			<line fill="none" stroke="#FF9300" stroke-width="2" stroke-linejoin="round" stroke-miterlimit="10" x1="15.016" y1="60.34" x2="67.016" y2="60.34"/>
		<g>
			<g>
				
					<line fill="none" stroke="#D8182B" stroke-width="2" stroke-linecap="round" stroke-miterlimit="10" x1="38.015" y1="1.113" x2="32.015" y2="6.113"/>
				
					<line opacity="0.2" fill="none" stroke="#000000" stroke-width="2" stroke-linecap="round" stroke-miterlimit="10" x1="38.015" y1="1.113" x2="32.015" y2="6.113"/>
			</g>
			<g>
				
					<line fill="none" stroke="#D8182B" stroke-width="2" stroke-linecap="round" stroke-miterlimit="10" x1="44.015" y1="1.113" x2="38.015" y2="6.113"/>
				
					<line opacity="0.2" fill="none" stroke="#000000" stroke-width="2" stroke-linecap="round" stroke-miterlimit="10" x1="44.015" y1="1.113" x2="38.015" y2="6.113"/>
			</g>
			<g>
				
					<line fill="none" stroke="#D8182B" stroke-width="2" stroke-linecap="round" stroke-miterlimit="10" x1="50.015" y1="1.113" x2="44.015" y2="6.113"/>
				
					<line opacity="0.2" fill="none" stroke="#000000" stroke-width="2" stroke-linecap="round" stroke-miterlimit="10" x1="50.015" y1="1.113" x2="44.015" y2="6.113"/>
			</g>
			<g>
				
					<line fill="none" stroke="#D8182B" stroke-width="2" stroke-linecap="round" stroke-miterlimit="10" x1="56.015" y1="1.113" x2="50.015" y2="6.113"/>
				
					<line opacity="0.2" fill="none" stroke="#000000" stroke-width="2" stroke-linecap="round" stroke-miterlimit="10" x1="56.015" y1="1.113" x2="50.015" y2="6.113"/>
			</g>
			<g>
				
					<line fill="none" stroke="#D8182B" stroke-width="2" stroke-linecap="round" stroke-miterlimit="10" x1="62.015" y1="1.113" x2="56.015" y2="6.113"/>
				
					<line opacity="0.2" fill="none" stroke="#000000" stroke-width="2" stroke-linecap="round" stroke-miterlimit="10" x1="62.015" y1="1.113" x2="56.015" y2="6.113"/>
			</g>
			
				<line fill="none" stroke="#D8182B" stroke-width="2" stroke-linecap="round" stroke-miterlimit="10" x1="26.016" y1="1.113" x2="20.016" y2="6.113"/>
			
				<line opacity="0.2" fill="none" stroke="#000000" stroke-width="2" stroke-linecap="round" stroke-miterlimit="10" x1="26.016" y1="1.113" x2="20.016" y2="6.113"/>
			<g>
				
					<line fill="none" stroke="#D8182B" stroke-width="2" stroke-linecap="round" stroke-miterlimit="10" x1="32.015" y1="1.113" x2="26.016" y2="6.113"/>
				
					<line opacity="0.2" fill="none" stroke="#000000" stroke-width="2" stroke-linecap="round" stroke-miterlimit="10" x1="32.015" y1="1.113" x2="26.016" y2="6.113"/>
			</g>
			<circle fill="#FF9300" cx="32.016" cy="6.113" r="2"/>
			<circle fill="#FF9300" cx="38.016" cy="6.113" r="2"/>
			<circle fill="#FF9300" cx="44.016" cy="6.113" r="2"/>
			<circle fill="#FF9300" cx="50.016" cy="6.113" r="2"/>
			<circle fill="#FF9300" cx="56.016" cy="6.113" r="2"/>
			<circle fill="#FF9300" cx="62.016" cy="6.113" r="2"/>
			<circle fill="#FF9300" cx="26.016" cy="6.113" r="2"/>
			<circle fill="#FF9300" cx="20.016" cy="6.113" r="2"/>
			
				<line fill="none" stroke="#D8182B" stroke-width="2" stroke-linecap="round" stroke-miterlimit="10" x1="20.016" y1="1.113" x2="20.016" y2="6.113"/>
			
				<line fill="none" stroke="#D8182B" stroke-width="2" stroke-linecap="round" stroke-miterlimit="10" x1="32.015" y1="1.113" x2="32.015" y2="6.113"/>
			
				<line fill="none" stroke="#D8182B" stroke-width="2" stroke-linecap="round" stroke-miterlimit="10" x1="38.015" y1="1.113" x2="38.015" y2="6.113"/>
			
				<line fill="none" stroke="#D8182B" stroke-width="2" stroke-linecap="round" stroke-miterlimit="10" x1="44.015" y1="1.113" x2="44.015" y2="6.113"/>
			
				<line fill="none" stroke="#D8182B" stroke-width="2" stroke-linecap="round" stroke-miterlimit="10" x1="50.015" y1="1.113" x2="50.015" y2="6.113"/>
			
				<line fill="none" stroke="#D8182B" stroke-width="2" stroke-linecap="round" stroke-miterlimit="10" x1="56.015" y1="1.113" x2="56.015" y2="6.113"/>
			
				<line fill="none" stroke="#D8182B" stroke-width="2" stroke-linecap="round" stroke-miterlimit="10" x1="26.016" y1="1.113" x2="26.016" y2="6.113"/>
			
				<line fill="none" stroke="#D8182B" stroke-width="2" stroke-linecap="round" stroke-miterlimit="10" x1="62.015" y1="1.113" x2="62.015" y2="6.113"/>
		</g>
	</g>
	<g>
		
			<rect x="21.309" y="30.648" transform="matrix(0.7071 -0.7071 0.7071 0.7071 -29.7544 32.4628)" fill="#E33038" width="6.001" height="43"/>
		<g opacity="0.2">
			<g>
				<defs>
					<rect id="SVGID_173_" x="6.984" y="36.946" width="32.527" height="32.526"/>
				</defs>
				<clipPath id="SVGID_2_">
					<use xlink:href="#SVGID_173_"  overflow="visible"/>
				</clipPath>
				
					<rect x="21.748" y="31.709" transform="matrix(0.7071 -0.7071 0.7071 0.7071 -30.8151 32.0235)" clip-path="url(#SVGID_2_)" width="3.001" height="43"/>
			</g>
		</g>
		<polygon fill="#FFC95A" points="41.633,65.23 37.39,69.473 40.784,70.321 42.482,68.624 		"/>
		<g opacity="0.5">
			<g>
				<defs>
					<rect id="SVGID_175_" x="37.39" y="67.351" width="4.243" height="2.97"/>
				</defs>
				<clipPath id="SVGID_4_">
					<use xlink:href="#SVGID_175_"  overflow="visible"/>
				</clipPath>
				<polygon clip-path="url(#SVGID_4_)" fill="#FF9300" points="39.512,67.351 37.39,69.473 40.784,70.321 41.633,69.473 				"/>
			</g>
		</g>
		<polygon fill="#E33038" points="42.482,68.624 40.785,70.321 43.047,70.887 		"/>
		<path fill="#FFC95A" d="M8.399,34.824c0.781,0.781,0.781,2.047,0,2.829c-0.781,0.78-2.047,0.781-2.828,0
			c-0.781-0.782-0.781-2.048,0-2.829C6.352,34.043,7.618,34.043,8.399,34.824"/>
		<path fill="#FFC95A" d="M9.813,33.41c0.781,0.781,0.781,2.047,0,2.829c-0.78,0.78-2.048,0.78-2.828-0.001
			c-0.78-0.78-0.781-2.047,0-2.828C7.766,32.629,9.033,32.629,9.813,33.41"/>
		
			<rect x="5.985" y="33.824" transform="matrix(0.7071 -0.7071 0.7071 0.7071 -22.5784 15.1385)" fill="#FFC95A" width="2" height="2"/>
		
			<rect x="5.399" y="35.239" transform="matrix(0.707 -0.7072 0.7072 0.707 -23.1669 16.5566)" fill="#FFC95A" width="6" height="2"/>
		<g opacity="0.5">
			<g>
				<defs>
					<rect id="SVGID_177_" x="4.984" y="34.117" width="4.121" height="4.95"/>
				</defs>
				<clipPath id="SVGID_6_">
					<use xlink:href="#SVGID_177_"  overflow="visible"/>
				</clipPath>
				<path clip-path="url(#SVGID_6_)" fill="#FF9300" d="M6.277,34.117L5.57,34.824c-0.781,0.781-0.781,2.047,0,2.829l1.414,1.414
					l2.121-2.121"/>
			</g>
		</g>
	</g>
</g>
</svg>
