<?xml version="1.0" encoding="utf-8"?>
<!-- Generator: Adobe Illustrator 17.1.0, SVG Export Plug-In . SVG Version: 6.00 Build 0)  -->
<!DOCTYPE svg PUBLIC "-//W3C//DTD SVG 1.1//EN" "http://www.w3.org/Graphics/SVG/1.1/DTD/svg11.dtd">
<svg version="1.1" xmlns="http://www.w3.org/2000/svg" xmlns:xlink="http://www.w3.org/1999/xlink" x="0px" y="0px"
	 viewBox="0 0 32 32" enable-background="new 0 0 32 32" xml:space="preserve">
<g id="original" display="none">
	<g display="inline">
		
			<rect x="16.138" y="8.34" transform="matrix(-0.7071 0.7071 -0.7071 -0.7071 43.7813 17.749)" fill="#E42A33" width="4.152" height="19.204"/>
		<path fill="#E42A33" d="M24.27,27.667c1.013,1.014,2.656,1.014,3.67,0c1.014-1.014,1.013-2.656,0-3.67
			c-1.014-1.014-2.656-1.014-3.67,0C23.257,25.011,23.257,26.654,24.27,27.667z M25.494,26.444c-0.338-0.338-0.338-0.885,0-1.223
			s0.885-0.338,1.223,0s0.338,0.885,0,1.223S25.831,26.782,25.494,26.444z"/>
		<polygon fill="#E42A33" points="27.94,23.998 22.802,19.594 27.573,24.365 		"/>
		<polygon fill="#E42A33" points="24.27,27.667 19.866,22.53 24.637,27.301 		"/>
		<path opacity="0.1" fill="#E42A33" d="M24.27,27.667c1.013,1.014,2.656,1.014,3.67,0c1.014-1.014,1.013-2.656,0-3.67l-5.138-4.404
			l-9.909-9.909l-2.936,2.936l9.909,9.909L24.27,27.667z M26.483,23.274c-0.006-0.001-0.012-0.001-0.019-0.002l0.009-0.009
			L26.483,23.274z M25.494,26.444c-0.338-0.338-0.338-0.885,0-1.223s0.885-0.338,1.223,0s0.338,0.885,0,1.223
			S25.831,26.782,25.494,26.444z M23.536,26.2l0.008-0.008c0.002,0.006,0.001,0.012,0.002,0.018L23.536,26.2z"/>
		<path fill="#E42A33" d="M4.452,7.116l3.362,3.362l2.203-0.734l0.734-2.202L7.389,4.18c1.861-0.729,4.06-0.344,5.564,1.161
			c2.026,2.027,2.027,5.313,0,7.34c-2.026,2.027-5.313,2.027-7.34,0C4.108,11.176,3.723,8.978,4.452,7.116z"/>
	</g>
</g>
<g id="expanded">
	<path fill="#E42A33" d="M27.94,23.998l-5.133-4.399l-8.697-8.696c0.728-1.862,0.346-4.058-1.158-5.562
		C11.448,3.835,9.25,3.45,7.389,4.18l3.362,3.362l-0.734,2.202l-2.203,0.734L4.452,7.116c-0.729,1.862-0.344,4.06,1.161,5.564
		c1.504,1.504,3.701,1.886,5.562,1.158l8.691,8.691l4.404,5.138c1.013,1.014,2.656,1.014,3.67,0
		C28.954,26.654,28.954,25.011,27.94,23.998z M26.472,23.264l0.01,0.01c-0.006-0.001-0.012-0.001-0.018-0.002L26.472,23.264z
		 M23.544,26.192c0.002,0.006,0,0.012,0.002,0.018l-0.01-0.01L23.544,26.192z M26.717,26.444c-0.338,0.338-0.885,0.338-1.223,0
		c-0.338-0.338-0.338-0.885,0-1.223c0.338-0.338,0.885-0.338,1.223,0C27.054,25.559,27.054,26.106,26.717,26.444z"/>
</g>
</svg>
