<?xml version="1.0" encoding="utf-8"?>
<!-- Generator: Adobe Illustrator 17.1.0, SVG Export Plug-In . SVG Version: 6.00 Build 0)  -->
<!DOCTYPE svg PUBLIC "-//W3C//DTD SVG 1.1//EN" "http://www.w3.org/Graphics/SVG/1.1/DTD/svg11.dtd">
<svg version="1.1" xmlns="http://www.w3.org/2000/svg" xmlns:xlink="http://www.w3.org/1999/xlink" x="0px" y="0px"
	 viewBox="0 0 30 30" enable-background="new 0 0 30 30" xml:space="preserve">
<g id="original" display="none">
</g>
<g id="expanded">
	<g>
		<path fill="#E42A33" d="M25.645,9.678c-1.763,0-3.193,1.43-3.193,3.193c0,0.376,0.078,0.729,0.195,1.064H2.226
			c-0.588,0-1.064,0.477-1.064,1.064s0.477,1.064,1.064,1.064h23.419c1.763,0,3.193-1.43,3.193-3.193S27.408,9.678,25.645,9.678z"/>
		<path fill="#E42A33" d="M2.226,11.807H15c1.763,0,3.193-1.43,3.193-3.193S16.763,5.42,15,5.42c-1.763,0-3.193,1.43-3.193,3.193
			c0,0.376,0.078,0.729,0.195,1.064H2.226c-0.588,0-1.064,0.477-1.064,1.064S1.639,11.807,2.226,11.807z"/>
		<path fill="#E42A33" d="M19.258,18.193c-0.062,0-0.122,0.014-0.186,0.019c-0.042-0.003-0.076-0.019-0.118-0.019H2.531
			c-0.757,0-1.369,0.477-1.369,1.064s0.613,1.064,1.369,1.064H16.26c-0.118,0.335-0.195,0.69-0.195,1.064
			c0,1.763,1.43,3.193,3.193,3.193c1.763,0,3.193-1.43,3.193-3.193S21.021,18.193,19.258,18.193z"/>
	</g>
</g>
</svg>
