<?xml version="1.0" encoding="utf-8"?>
<!-- Generator: Adobe Illustrator 17.1.0, SVG Export Plug-In . SVG Version: 6.00 Build 0)  -->
<!DOCTYPE svg PUBLIC "-//W3C//DTD SVG 1.1//EN" "http://www.w3.org/Graphics/SVG/1.1/DTD/svg11.dtd">
<svg version="1.1" xmlns="http://www.w3.org/2000/svg" xmlns:xlink="http://www.w3.org/1999/xlink" x="0px" y="0px"
	 viewBox="0 0 30 30" enable-background="new 0 0 30 30" xml:space="preserve">
<g id="original" display="none">
</g>
<g id="expanded">
	<g>
		<path fill-rule="evenodd" clip-rule="evenodd" fill="#E42A33" d="M23.903,4.761c-1.326-1.358-3.158-2.144-5.071-2.144
			c-1.911,0-3.742,0.787-5.067,2.144c-2.92,0.135-5.253,2.552-5.253,5.503c0,3.039,2.472,5.512,5.511,5.512
			c0.322,0,0.641-0.028,0.955-0.083c1.146,0.747,2.483,1.152,3.855,1.152c1.374,0,2.712-0.404,3.857-1.152
			c0.316,0.055,0.633,0.083,0.956,0.083c3.037,0,5.507-2.473,5.507-5.512C29.152,7.314,26.82,4.895,23.903,4.761z M23.645,14.007
			c-0.46,0-0.905-0.083-1.327-0.246c-0.967,0.843-2.197,1.315-3.486,1.315c-1.285,0-2.515-0.472-3.483-1.315
			c-0.421,0.164-0.871,0.246-1.327,0.246c-2.063,0-3.742-1.679-3.742-3.743c0-2.062,1.679-3.741,3.742-3.741
			c0.176,0,0.352,0.014,0.526,0.038c1.001-1.359,2.573-2.176,4.283-2.176c1.71,0,3.286,0.817,4.284,2.176
			c0.173-0.024,0.349-0.038,0.529-0.038c2.063,0,3.738,1.679,3.738,3.741C27.383,12.328,25.707,14.007,23.645,14.007z"/>
		<path fill-rule="evenodd" clip-rule="evenodd" fill="#E42A33" d="M8.809,15.038H1.733c-0.488,0-0.884,0.395-0.884,0.884
			c0,0.489,0.396,0.884,0.884,0.884h7.076c0.488,0,0.884-0.395,0.884-0.884C9.693,15.433,9.297,15.038,8.809,15.038z"/>
		<path fill-rule="evenodd" clip-rule="evenodd" fill="#E42A33" d="M1.733,13.269h3.538c0.488,0,0.884-0.395,0.884-0.884
			c0-0.489-0.396-0.884-0.884-0.884H1.733c-0.488,0-0.884,0.395-0.884,0.884C0.848,12.874,1.244,13.269,1.733,13.269z"/>
		<path fill-rule="evenodd" clip-rule="evenodd" fill="#E42A33" d="M3.502,9.731H7.04c0.488,0,0.884-0.395,0.884-0.884
			c0-0.489-0.396-0.884-0.884-0.884H3.502c-0.488,0-0.884,0.395-0.884,0.884C2.617,9.336,3.013,9.731,3.502,9.731z"/>
		<path fill-rule="evenodd" clip-rule="evenodd" fill="#E42A33" d="M13.231,22.076c0,0.978,0.791,1.769,1.769,1.769
			s1.769-0.791,1.769-1.769c0-0.978-1.769-3.538-1.769-3.538S13.231,21.098,13.231,22.076z"/>
		<path fill-rule="evenodd" clip-rule="evenodd" fill="#E42A33" d="M20.307,25.614c0,0.978,0.791,1.769,1.769,1.769
			c0.978,0,1.769-0.791,1.769-1.769s-1.769-3.538-1.769-3.538S20.307,24.636,20.307,25.614z"/>
	</g>
</g>
</svg>
