<?xml version="1.0" encoding="utf-8"?>
<!-- Generator: Adobe Illustrator 17.1.0, SVG Export Plug-In . SVG Version: 6.00 Build 0)  -->
<!DOCTYPE svg PUBLIC "-//W3C//DTD SVG 1.1//EN" "http://www.w3.org/Graphics/SVG/1.1/DTD/svg11.dtd">
<svg version="1.1" xmlns="http://www.w3.org/2000/svg" xmlns:xlink="http://www.w3.org/1999/xlink" x="0px" y="0px"
	 viewBox="0 0 32 32" enable-background="new 0 0 32 32" xml:space="preserve">
<g id="original" display="none">
	<g display="inline">
		<defs>
			<rect id="SVGID_1_" x="7.604" width="17" height="10.5"/>
		</defs>
		<clipPath id="SVGID_2_">
			<use xlink:href="#SVGID_1_"  overflow="visible"/>
		</clipPath>
		<g clip-path="url(#SVGID_2_)">
			
				<line fill="none" stroke="#E42A33" stroke-width="2" stroke-linecap="round" stroke-linejoin="round" stroke-miterlimit="10" x1="11.344" y1="5" x2="16.802" y2="14.583"/>
			
				<line fill="none" stroke="#E42A33" stroke-width="2" stroke-linecap="round" stroke-linejoin="round" stroke-miterlimit="10" x1="19.646" y1="5" x2="14.187" y2="14.583"/>
		</g>
	</g>
	<path display="inline" fill="#E42A33" d="M28.479,9.083h-24c-1.104,0-2,0.896-2,2v15c0,1.103,0.896,2,2,2h24c1.104,0,2-0.896,2-2
		v-15C30.479,9.979,29.582,9.083,28.479,9.083z"/>
	<path display="inline" fill="#FFFFFF" d="M22.255,12.096H6.896c-0.775,0-1.404,0.629-1.404,1.404v10.167
		c0,0.775,0.629,1.404,1.404,1.404h15.359c0.775,0,1.404-0.629,1.404-1.404V13.5C23.659,12.724,23.029,12.096,22.255,12.096z"/>
	<circle display="inline" fill="#FFFFFF" cx="27.09" cy="13.428" r="1.245"/>
	<circle display="inline" fill="#FFFFFF" cx="27.09" cy="18.595" r="1.245"/>
	<circle display="inline" fill="#FFFFFF" cx="27.09" cy="23.762" r="1.245"/>
</g>
<g id="expanded">
	<g>
		<path fill="#E42A33" d="M28.479,9.083H18.471l2.044-3.588c0.273-0.48,0.105-1.091-0.374-1.364
			c-0.481-0.272-1.091-0.105-1.364,0.374l-2.608,4.578h-1.348l-2.608-4.578c-0.274-0.479-0.884-0.646-1.364-0.374
			c-0.479,0.273-0.647,0.884-0.374,1.364l2.044,3.588H4.479c-1.104,0-2,0.896-2,2v15c0,1.103,0.896,2,2,2h24c1.104,0,2-0.896,2-2
			v-15C30.479,9.979,29.583,9.083,28.479,9.083z M23.659,23.667c0,0.775-0.629,1.404-1.404,1.404H6.896
			c-0.776,0-1.404-0.629-1.404-1.404V13.5c0-0.775,0.629-1.404,1.404-1.404h15.359c0.775,0,1.404,0.629,1.404,1.404V23.667z
			 M27.09,25.007c-0.688,0-1.245-0.557-1.245-1.245c0-0.688,0.557-1.245,1.245-1.245s1.245,0.557,1.245,1.245
			C28.335,24.449,27.777,25.007,27.09,25.007z M27.09,19.84c-0.688,0-1.245-0.557-1.245-1.245c0-0.688,0.557-1.245,1.245-1.245
			s1.245,0.557,1.245,1.245C28.335,19.283,27.777,19.84,27.09,19.84z M27.09,14.674c-0.688,0-1.245-0.557-1.245-1.245
			c0-0.688,0.557-1.245,1.245-1.245s1.245,0.557,1.245,1.245C28.335,14.116,27.777,14.674,27.09,14.674z"/>
	</g>
</g>
</svg>
