<?xml version="1.0" encoding="utf-8"?>
<!-- Generator: Adobe Illustrator 17.1.0, SVG Export Plug-In . SVG Version: 6.00 Build 0)  -->
<!DOCTYPE svg PUBLIC "-//W3C//DTD SVG 1.1//EN" "http://www.w3.org/Graphics/SVG/1.1/DTD/svg11.dtd">
<svg version="1.1" xmlns="http://www.w3.org/2000/svg" xmlns:xlink="http://www.w3.org/1999/xlink" x="0px" y="0px"
	 viewBox="0 0 32 32" enable-background="new 0 0 32 32" xml:space="preserve">
<g id="original" display="none">
	<g display="inline">
		
			<line fill="none" stroke="#E42A33" stroke-width="3" stroke-linecap="round" stroke-miterlimit="10" x1="16" y1="9" x2="16" y2="23"/>
		
			<line fill="none" stroke="#E42A33" stroke-width="3" stroke-linecap="round" stroke-miterlimit="10" x1="23" y1="16" x2="9" y2="16"/>
	</g>
</g>
<g id="expanded">
	<path fill="#E42A33" d="M23,14.5h-5.5V9c0-0.829-0.671-1.5-1.5-1.5S14.5,8.171,14.5,9v5.5H9c-0.829,0-1.5,0.671-1.5,1.5
		s0.671,1.5,1.5,1.5h5.5V23c0,0.829,0.671,1.5,1.5,1.5s1.5-0.671,1.5-1.5v-5.5H23c0.829,0,1.5-0.671,1.5-1.5S23.829,14.5,23,14.5z"
		/>
</g>
</svg>
