<?xml version="1.0" encoding="utf-8"?>
<!-- Generator: Adobe Illustrator 17.1.0, SVG Export Plug-In . SVG Version: 6.00 Build 0)  -->
<!DOCTYPE svg PUBLIC "-//W3C//DTD SVG 1.1//EN" "http://www.w3.org/Graphics/SVG/1.1/DTD/svg11.dtd">
<svg version="1.1" xmlns="http://www.w3.org/2000/svg" xmlns:xlink="http://www.w3.org/1999/xlink" x="0px" y="0px"
	 viewBox="0 0 30 30" enable-background="new 0 0 30 30" xml:space="preserve">
<g id="original" display="none">
</g>
<g id="expanded">
	<g>
		<g>
			<path fill="#E42A33" d="M21.152,20.713c-3.27,3.272-8.593,3.272-11.865,0s-3.272-8.596,0-11.867
				c0.866-0.864,1.922-1.524,3.136-1.954c0.382-0.134,0.806-0.037,1.09,0.249c0.287,0.287,0.384,0.71,0.249,1.09
				c-0.822,2.319-0.262,4.829,1.459,6.55c1.718,1.719,4.228,2.278,6.55,1.459c0.38-0.135,0.804-0.038,1.09,0.249
				c0.287,0.284,0.382,0.709,0.247,1.09C22.679,18.792,22.018,19.847,21.152,20.713z M10.77,10.329c-2.454,2.454-2.454,6.448,0,8.9
				c2.622,2.624,7.088,2.387,9.374-0.535c-2.357,0.147-4.679-0.703-6.408-2.431c-1.729-1.728-2.578-4.049-2.431-6.407
				C11.117,10.004,10.938,10.162,10.77,10.329z"/>
		</g>
	</g>
</g>
</svg>
