<?xml version="1.0" encoding="utf-8"?>
<!-- Generator: Adobe Illustrator 17.1.0, SVG Export Plug-In . SVG Version: 6.00 Build 0)  -->
<!DOCTYPE svg PUBLIC "-//W3C//DTD SVG 1.1//EN" "http://www.w3.org/Graphics/SVG/1.1/DTD/svg11.dtd">
<svg version="1.1" xmlns="http://www.w3.org/2000/svg" xmlns:xlink="http://www.w3.org/1999/xlink" x="0px" y="0px"
	 viewBox="0 0 32 32" enable-background="new 0 0 32 32" xml:space="preserve">
<g id="original" display="none">
	<path id="_x3C_Compound_Path_x3E__1_" display="inline" fill="#E42A33" d="M21.415,25.724c-0.459,0-0.969-0.185-1.517-0.551
		l-3.671-2.449c-0.08-0.053-0.416-0.053-0.496,0l-3.67,2.449c-1.123,0.749-2.152,0.698-2.69-0.011
		c-0.37-0.49-0.432-1.187-0.182-2.075l1.196-4.247c0.036-0.129-0.048-0.389-0.153-0.472l-3.464-2.733
		c-1.188-0.938-1.139-1.776-1.004-2.192c0.135-0.416,0.588-1.123,2.101-1.184l4.409-0.175c0.134-0.005,0.355-0.167,0.401-0.292
		l1.529-4.138c0.524-1.42,1.337-1.633,1.774-1.633c0.438,0,1.25,0.212,1.775,1.632l1.529,4.139c0.046,0.125,0.268,0.287,0.401,0.292
		l4.409,0.175c1.513,0.06,1.966,0.768,2.101,1.184c0.135,0.416,0.184,1.254-1.004,2.192l-3.463,2.733
		c-0.106,0.083-0.19,0.344-0.154,0.472l1.196,4.247c0.25,0.887,0.188,1.585-0.182,2.074C22.312,25.525,21.896,25.724,21.415,25.724
		L21.415,25.724z"/>
</g>
<g id="expanded">
	<g id="_x3C_Compound_Path_x3E__2_">
		<path fill="#E42A33" d="M21.415,25.724c-0.459,0-0.969-0.185-1.517-0.551l-3.671-2.449c-0.08-0.053-0.416-0.053-0.496,0
			l-3.67,2.449c-1.123,0.749-2.152,0.698-2.69-0.011c-0.37-0.49-0.432-1.187-0.182-2.075l1.196-4.247
			c0.036-0.129-0.048-0.389-0.153-0.472l-3.464-2.733c-1.188-0.938-1.139-1.776-1.004-2.192c0.135-0.416,0.588-1.123,2.101-1.184
			l4.409-0.175c0.134-0.005,0.355-0.167,0.401-0.292l1.529-4.138c0.524-1.42,1.337-1.633,1.774-1.633
			c0.438,0,1.25,0.212,1.775,1.632l1.529,4.139c0.046,0.125,0.268,0.287,0.401,0.292l4.409,0.175
			c1.513,0.06,1.966,0.768,2.101,1.184c0.135,0.416,0.184,1.254-1.004,2.192l-3.463,2.733c-0.106,0.083-0.19,0.344-0.154,0.472
			l1.196,4.247c0.25,0.887,0.188,1.585-0.182,2.074C22.312,25.525,21.896,25.724,21.415,25.724L21.415,25.724z"/>
	</g>
</g>
</svg>
