<?xml version="1.0" encoding="utf-8"?>
<!-- Generator: Adobe Illustrator 17.1.0, SVG Export Plug-In . SVG Version: 6.00 Build 0)  -->
<!DOCTYPE svg PUBLIC "-//W3C//DTD SVG 1.1//EN" "http://www.w3.org/Graphics/SVG/1.1/DTD/svg11.dtd">
<svg version="1.1" xmlns="http://www.w3.org/2000/svg" xmlns:xlink="http://www.w3.org/1999/xlink" x="0px" y="0px"
	 viewBox="0 0 32 32" enable-background="new 0 0 32 32" xml:space="preserve">
<g id="original" display="none">
	<path display="inline" fill="#E42A33" d="M24.893,4H7.107c-1.657,0-3,1.343-3,3v18c0,1.657,1.343,3,3,3h17.785c1.657,0,3-1.343,3-3
		V7C27.893,5.343,26.55,4,24.893,4z M20.893,16c0,2.698-2.195,4.894-4.893,4.894c-2.698,0-4.894-2.195-4.894-4.894
		c0-0.812,0.201-1.575,0.552-2.25c0.816-1.569,2.454-2.644,4.341-2.644c1.887,0,3.525,1.075,4.341,2.644
		C20.692,14.425,20.893,15.188,20.893,16z M25.214,24.092c0,0.679-0.551,1.23-1.23,1.23H8.123c-0.679,0-1.23-0.55-1.23-1.23V13.75
		h2.029c-0.226,0.71-0.35,1.466-0.35,2.25c0,4.096,3.332,7.428,7.429,7.428c4.096,0,7.428-3.332,7.428-7.428
		c0-0.784-0.124-1.54-0.35-2.25h2.136V24.092z M25.214,9.878c0,0.679-0.551,1.23-1.23,1.23h-1.863c-0.679,0-1.229-0.551-1.229-1.23
		V7.845c0-0.539,0.349-0.992,0.832-1.158h2.26c0.679,0,1.23,0.55,1.23,1.23V9.878z"/>
</g>
<g id="expanded">
	<g>
		<path fill="#E42A33" d="M24.893,4H7.107c-1.657,0-3,1.343-3,3v18c0,1.657,1.343,3,3,3h17.785c1.657,0,3-1.343,3-3V7
			C27.893,5.343,26.55,4,24.893,4z M20.893,16c0,2.698-2.195,4.894-4.893,4.894c-2.698,0-4.894-2.195-4.894-4.894
			c0-0.812,0.201-1.575,0.552-2.25c0.816-1.569,2.454-2.644,4.341-2.644c1.887,0,3.525,1.075,4.341,2.644
			C20.692,14.425,20.893,15.188,20.893,16z M25.214,24.092c0,0.679-0.551,1.23-1.23,1.23H8.123c-0.679,0-1.23-0.55-1.23-1.23V13.75
			h2.029c-0.226,0.71-0.35,1.466-0.35,2.25c0,4.096,3.332,7.428,7.429,7.428c4.096,0,7.428-3.332,7.428-7.428
			c0-0.784-0.124-1.54-0.35-2.25h2.136V24.092z M25.214,9.878c0,0.679-0.551,1.23-1.23,1.23h-1.863c-0.679,0-1.229-0.551-1.229-1.23
			V7.845c0-0.539,0.349-0.992,0.832-1.158h2.26c0.679,0,1.23,0.55,1.23,1.23V9.878z"/>
	</g>
</g>
</svg>
