<?xml version="1.0" encoding="utf-8"?>
<!-- Generator: Adobe Illustrator 17.1.0, SVG Export Plug-In . SVG Version: 6.00 Build 0)  -->
<!DOCTYPE svg PUBLIC "-//W3C//DTD SVG 1.1//EN" "http://www.w3.org/Graphics/SVG/1.1/DTD/svg11.dtd">
<svg version="1.1" xmlns="http://www.w3.org/2000/svg" xmlns:xlink="http://www.w3.org/1999/xlink" x="0px" y="0px"
	 viewBox="0 0 32 32" enable-background="new 0 0 32 32" xml:space="preserve">
<g id="original" display="none">
	<path display="inline" fill="#E42A33" d="M17.044,4v5.551h5.55v4.282h-5.55v6.154c0,1.393,0.074,2.286,0.222,2.681
		c0.147,0.393,0.422,0.711,0.823,0.945c0.532,0.318,1.138,0.48,1.821,0.48c1.215,0,2.424-0.397,3.626-1.187v3.787
		c-1.024,0.482-1.954,0.822-2.785,1.017C19.918,27.903,19.019,28,18.053,28c-1.098,0-1.745-0.138-2.588-0.416
		c-0.843-0.276-1.561-0.673-2.158-1.184c-0.595-0.514-1.008-1.057-1.238-1.637c-0.23-0.578-0.345-1.414-0.345-2.511v-8.419H8.465
		v-3.396c0.943-0.308,2.037-0.745,2.708-1.318c0.673-0.571,1.212-1.259,1.619-2.059c0.406-0.802,0.687-1.823,0.84-3.059H17.044z"/>
</g>
<g id="expanded">
	<g>
		<path fill="#E42A33" d="M17.044,4v5.551h5.55v4.282h-5.55v6.154c0,1.393,0.074,2.286,0.222,2.681
			c0.147,0.393,0.422,0.711,0.823,0.945c0.532,0.318,1.138,0.48,1.821,0.48c1.215,0,2.424-0.397,3.626-1.187v3.787
			c-1.024,0.482-1.954,0.822-2.785,1.017C19.918,27.903,19.019,28,18.053,28c-1.098,0-1.745-0.138-2.588-0.416
			c-0.843-0.276-1.561-0.673-2.158-1.184c-0.595-0.514-1.008-1.057-1.238-1.637c-0.23-0.578-0.345-1.414-0.345-2.511v-8.419H8.465
			v-3.396c0.943-0.308,2.037-0.745,2.708-1.318c0.673-0.571,1.212-1.259,1.619-2.059c0.406-0.802,0.687-1.823,0.84-3.059H17.044z"/>
	</g>
</g>
</svg>
