<?xml version="1.0" encoding="utf-8"?>
<!-- Generator: Adobe Illustrator 17.1.0, SVG Export Plug-In . SVG Version: 6.00 Build 0)  -->
<!DOCTYPE svg PUBLIC "-//W3C//DTD SVG 1.1//EN" "http://www.w3.org/Graphics/SVG/1.1/DTD/svg11.dtd">
<svg version="1.1" xmlns="http://www.w3.org/2000/svg" xmlns:xlink="http://www.w3.org/1999/xlink" x="0px" y="0px"
	 viewBox="0 0 32 32" enable-background="new 0 0 32 32" xml:space="preserve">
<g id="original" display="none">
	
		<path id="light-bulb-12-icon_1_" display="inline" fill="#E42A33" stroke="#E42A33" stroke-linecap="round" stroke-linejoin="round" stroke-miterlimit="10" d="
		M11.951,21.274c0-3.891-4.24-5.549-4.24-10.479c0-10.596,16.579-10.607,16.579,0c0,4.93-4.24,6.588-4.24,10.479H11.951z"/>
	<rect x="10.62" y="20.307" display="inline" fill="#FFFFFF" width="11.375" height="2.625"/>
	<path fill="#E42A33" stroke="#E42A33" stroke-linecap="round" stroke-linejoin="round" stroke-miterlimit="10" d="M12.456,27.051
		c1.143,1.418,1.143,1.386,2.226,1.386h2.984c0.939,0,0.981,0.109,2.085-1.386H12.456z"/>
	
		<path id="light-bulb-12-icon_4_" fill="none" stroke="#E42A33" stroke-width="2" stroke-linecap="round" stroke-linejoin="round" stroke-miterlimit="10" d="
		M12.587,24.906H19.5"/>
	
		<path display="inline" fill="#E42A33" stroke="#E42A33" stroke-linecap="round" stroke-linejoin="round" stroke-miterlimit="10" d="
		M12.021,28.021c0,0.577,2.237,1.229,3.833,1.229s3.917-0.652,3.917-1.229H12.021z"/>
	
		<path display="inline" fill="none" stroke="#FFFFFF" stroke-width="2" stroke-linecap="round" stroke-linejoin="round" stroke-miterlimit="10" d="
		M14.653,6.9c-2.663,0.493-3.328,2.632-3.488,3.863"/>
	
		<path id="light-bulb-12-icon_3_" display="inline" fill="none" stroke="#E42A33" stroke-width="2" stroke-linecap="round" stroke-linejoin="round" stroke-miterlimit="10" d="
		M12.416,23h7"/>
	
		<path id="light-bulb-12-icon_7_" display="inline" fill="none" stroke="#E42A33" stroke-width="2" stroke-linecap="round" stroke-linejoin="round" stroke-miterlimit="10" d="
		M12.416,25.708h7"/>
	
		<path id="light-bulb-12-icon_6_" display="inline" fill="none" stroke="#E42A33" stroke-width="2" stroke-linecap="round" stroke-linejoin="round" stroke-miterlimit="10" d="
		M12.307,20.052h7.359"/>
</g>
<g id="expanded">
	<g>
		<path fill="#E42A33" d="M19.771,27.271h-7.75c-0.276,0-0.5,0.224-0.5,0.5c0,1.215,3.1,1.729,4.333,1.729
			c1.257,0,4.417-0.515,4.417-1.729C20.271,27.494,20.047,27.271,19.771,27.271z"/>
		<path fill="#E42A33" d="M16.003,1.792c-4.235,0-8.793,2.645-8.793,8.451c0,2.77,1.274,4.584,2.399,6.186
			c0.786,1.12,1.48,2.122,1.733,3.327h0.016c0.115,0.425,0.487,0.744,0.948,0.744h7.359c0.462,0,0.833-0.319,0.948-0.744h0.042
			c0.253-1.205,0.947-2.207,1.733-3.327c1.125-1.602,2.399-3.416,2.399-6.186C24.79,4.437,20.235,1.792,16.003,1.792z M14.835,7.332
			c-1.938,0.358-2.526,1.834-2.678,3.008c-0.065,0.504-0.496,0.871-0.99,0.871c-0.043,0-0.086-0.003-0.13-0.009
			c-0.547-0.07-0.934-0.572-0.863-1.12c0.332-2.553,1.897-4.272,4.297-4.717c0.543-0.106,1.064,0.258,1.166,0.802
			C15.737,6.71,15.378,7.231,14.835,7.332z"/>
		<path fill="#E42A33" d="M19.416,21.5h-7c-0.552,0-1,0.447-1,1s0.448,1,1,1h7c0.552,0,1-0.447,1-1S19.969,21.5,19.416,21.5z"/>
		<path fill="#E42A33" d="M19.416,24.5h-7c-0.552,0-1,0.447-1,1s0.448,1,1,1h7c0.552,0,1-0.447,1-1S19.969,24.5,19.416,24.5z"/>
	</g>
</g>
</svg>
