<?xml version="1.0" encoding="utf-8"?>
<!-- Generator: Adobe Illustrator 17.1.0, SVG Export Plug-In . SVG Version: 6.00 Build 0)  -->
<!DOCTYPE svg PUBLIC "-//W3C//DTD SVG 1.1//EN" "http://www.w3.org/Graphics/SVG/1.1/DTD/svg11.dtd">
<svg version="1.1" xmlns="http://www.w3.org/2000/svg" xmlns:xlink="http://www.w3.org/1999/xlink" x="0px" y="0px"
	 viewBox="0 0 32 32" enable-background="new 0 0 32 32" xml:space="preserve">
<g id="original" display="none">
	<g display="inline">
		<path fill-rule="evenodd" clip-rule="evenodd" fill="#E42A33" d="M13.425,5.641c0.994,0,1.799,0.798,1.799,1.781
			c0,0.984-0.805,1.781-1.799,1.781c-0.993,0-1.799-0.798-1.799-1.781C11.626,6.439,12.432,5.641,13.425,5.641z"/>
		
			<path fill-rule="evenodd" clip-rule="evenodd" fill="none" stroke="#E42A33" stroke-width="2" stroke-linecap="round" stroke-miterlimit="10" d="
			M19.651,23.851c-1.102,1.52-2.892,2.508-4.912,2.508c-3.349,0-6.063-2.715-6.063-6.063c0-1.865,0.842-3.533,2.166-4.645"/>
		
			<line fill-rule="evenodd" clip-rule="evenodd" fill="none" stroke="#EC1E24" stroke-width="2" stroke-linecap="round" stroke-linejoin="round" stroke-miterlimit="10" x1="21.968" y1="22.826" x2="24.074" y2="22.087"/>
		
			<polyline fill-rule="evenodd" clip-rule="evenodd" fill="none" stroke="#E42A33" stroke-width="2" stroke-linecap="round" stroke-linejoin="round" stroke-miterlimit="10" points="
			13.425,10.795 13.987,17.183 19.651,17.183 21.968,22.826 		"/>
		
			<line fill-rule="evenodd" clip-rule="evenodd" fill="none" stroke="#E42A33" stroke-width="2" stroke-linecap="round" stroke-linejoin="round" stroke-miterlimit="10" x1="13.708" y1="13.667" x2="18.03" y2="13.667"/>
	</g>
</g>
<g id="expanded">
	<g>
		<ellipse fill="#E42A33" cx="13.425" cy="7.422" rx="1.799" ry="1.781"/>
		<path fill="#E42A33" d="M18.841,23.264c-0.951,1.312-2.485,2.095-4.103,2.095c-2.792,0-5.063-2.271-5.063-5.062
			c0-1.5,0.66-2.914,1.809-3.879c0.423-0.355,0.478-0.986,0.123-1.409c-0.355-0.422-0.985-0.478-1.409-0.123
			c-1.604,1.347-2.523,3.319-2.523,5.411c0,3.895,3.168,7.062,7.063,7.062c2.256,0,4.395-1.092,5.722-2.921
			c0.324-0.447,0.225-1.072-0.223-1.396C19.791,22.716,19.167,22.817,18.841,23.264z"/>
		<path fill="#E42A33" d="M25.018,21.756c-0.183-0.522-0.754-0.798-1.274-0.612l-1.211,0.425l-1.956-4.765
			c-0.154-0.375-0.52-0.62-0.925-0.62h-4.748l-0.133-1.517h3.261c0.552,0,1-0.448,1-1s-0.448-1-1-1h-3.437l-0.172-1.959
			c-0.048-0.55-0.527-0.95-1.083-0.909c-0.55,0.048-0.957,0.534-0.909,1.083l0.562,6.388c0.045,0.517,0.478,0.913,0.996,0.913h4.994
			l2.062,5.023c0.02,0.049,0.053,0.088,0.08,0.132c0.022,0.037,0.04,0.078,0.067,0.111c0.037,0.047,0.083,0.083,0.127,0.122
			c0.031,0.027,0.057,0.059,0.091,0.081c0.053,0.036,0.112,0.059,0.17,0.084c0.033,0.014,0.062,0.034,0.096,0.045
			c0.091,0.028,0.187,0.043,0.284,0.044c0.003,0,0.007,0.002,0.01,0.002l0,0l0,0c0.001,0,0.002-0.001,0.003-0.001
			c0.109,0,0.219-0.017,0.328-0.056l2.106-0.739C24.926,22.848,25.201,22.277,25.018,21.756z"/>
	</g>
</g>
</svg>
