<?xml version="1.0" encoding="utf-8"?>
<!-- Generator: Adobe Illustrator 17.1.0, SVG Export Plug-In . SVG Version: 6.00 Build 0)  -->
<!DOCTYPE svg PUBLIC "-//W3C//DTD SVG 1.1//EN" "http://www.w3.org/Graphics/SVG/1.1/DTD/svg11.dtd">
<svg version="1.1" xmlns="http://www.w3.org/2000/svg" xmlns:xlink="http://www.w3.org/1999/xlink" x="0px" y="0px"
	 viewBox="0 0 32 32" enable-background="new 0 0 32 32" xml:space="preserve">
<g id="original" display="none">
	<g id="facebook-icon_1_" display="inline">
		<path fill="#E42A33" d="M12.974,11.847h-2.513v4.102h2.513V28h4.833V15.897h3.372l0.36-4.05h-3.732c0,0,0-1.512,0-2.308
			c0-0.956,0.192-1.333,1.114-1.333c0.743,0,2.617,0,2.617,0V4c0,0-2.759,0-3.348,0c-3.596,0-5.217,1.583-5.217,4.616
			C12.974,11.257,12.974,11.847,12.974,11.847z"/>
	</g>
</g>
<g id="expanded">
	<g id="facebook-icon_2_">
		<path fill="#E42A33" d="M12.974,11.847h-2.513v4.102h2.513V28h4.833V15.897h3.372l0.36-4.05h-3.732c0,0,0-1.512,0-2.308
			c0-0.956,0.192-1.333,1.114-1.333c0.743,0,2.617,0,2.617,0V4c0,0-2.759,0-3.348,0c-3.596,0-5.217,1.583-5.217,4.616
			C12.974,11.257,12.974,11.847,12.974,11.847z"/>
	</g>
</g>
</svg>
