<?xml version="1.0" encoding="utf-8"?>
<!-- Generator: Adobe Illustrator 17.1.0, SVG Export Plug-In . SVG Version: 6.00 Build 0)  -->
<!DOCTYPE svg PUBLIC "-//W3C//DTD SVG 1.1//EN" "http://www.w3.org/Graphics/SVG/1.1/DTD/svg11.dtd">
<svg version="1.1" xmlns="http://www.w3.org/2000/svg" xmlns:xlink="http://www.w3.org/1999/xlink" x="0px" y="0px"
	 viewBox="0 0 32 32" enable-background="new 0 0 32 32" xml:space="preserve">
<g id="original" display="none">
	<g display="inline">
		<path fill="#E42A33" d="M26.872,10.713c-0.341-0.434-0.97-0.509-1.404-0.167l-2.631,2.072l-2.518-2.551
			c-0.001-0.001-0.002-0.002-0.003-0.003L18.88,8.421C18.692,8.219,18.427,8,18.149,8h-4.5c-0.277,0-0.541,0.218-0.73,0.42
			l-3.083,3.343c-0.378,0.403-0.357,1.062,0.046,1.439c0.193,0.181,0.438,0.283,0.683,0.283c0.267,0,0.533-0.203,0.73-0.413
			L14.083,10h2.527l-3.471,3.909c-0.007,0.007-0.011,0.068-0.018,0.076c-0.007,0.009-0.016,0.187-0.023,0.196L10.17,18H6.649
			c-0.552,0-1,0.448-1,1s0.448,1,1,1h4c0.303,0,0.59-0.284,0.78-0.521l2.625-3.342l3.112,3.259l-2.717,5.868
			c-0.231,0.501-0.012,1.087,0.489,1.318c0.135,0.062,0.278,0.088,0.418,0.087c0.378,0,0.74-0.218,0.909-0.583l3-6.501
			c0.171-0.371,0.1-0.809-0.181-1.106l-2.236-2.369l3.187-3.485l2.007,2.033c0.194,0.197,0.453,0.297,0.712,0.297
			c0.218,0,0.436-0.071,0.618-0.214l3.333-2.625C27.139,11.776,27.214,11.147,26.872,10.713z"/>
		<path fill="#E42A33" d="M22.011,9.721c1.232,0,2.234-0.996,2.234-2.229c0-1.231-1.002-2.232-2.234-2.232
			c-1.231,0-2.233,1.003-2.233,2.232C19.779,8.725,20.78,9.721,22.011,9.721z"/>
	</g>
</g>
<g id="expanded">
	<g>
		<g>
			<path fill="#E42A33" d="M26.872,10.713c-0.341-0.434-0.97-0.509-1.404-0.167l-2.631,2.072l-2.518-2.551
				c-0.001-0.001-0.002-0.002-0.003-0.003L18.88,8.421C18.692,8.219,18.427,8,18.149,8h-4.5c-0.277,0-0.541,0.218-0.73,0.42
				l-3.083,3.343c-0.378,0.403-0.357,1.062,0.046,1.439c0.193,0.181,0.438,0.283,0.683,0.283c0.267,0,0.533-0.203,0.73-0.413
				L14.083,10h2.527l-3.471,3.909c-0.007,0.007-0.011,0.068-0.018,0.076c-0.007,0.009-0.016,0.187-0.023,0.196L10.17,18H6.649
				c-0.552,0-1,0.448-1,1s0.448,1,1,1h4c0.303,0,0.59-0.284,0.78-0.521l2.625-3.342l3.112,3.259l-2.717,5.868
				c-0.231,0.501-0.012,1.087,0.489,1.318c0.135,0.062,0.278,0.088,0.418,0.087c0.378,0,0.74-0.218,0.909-0.583l3-6.501
				c0.171-0.371,0.1-0.809-0.181-1.106l-2.236-2.369l3.187-3.485l2.007,2.033c0.194,0.197,0.453,0.297,0.712,0.297
				c0.218,0,0.436-0.071,0.618-0.214l3.333-2.625C27.139,11.776,27.214,11.147,26.872,10.713z"/>
		</g>
		<g>
			<path fill="#E42A33" d="M22.011,9.721c1.232,0,2.234-0.996,2.234-2.229c0-1.231-1.002-2.232-2.234-2.232
				c-1.231,0-2.233,1.003-2.233,2.232C19.779,8.725,20.78,9.721,22.011,9.721z"/>
		</g>
	</g>
</g>
</svg>
