<?xml version="1.0" encoding="utf-8"?>
<!-- Generator: Adobe Illustrator 17.1.0, SVG Export Plug-In . SVG Version: 6.00 Build 0)  -->
<!DOCTYPE svg PUBLIC "-//W3C//DTD SVG 1.1//EN" "http://www.w3.org/Graphics/SVG/1.1/DTD/svg11.dtd">
<svg version="1.1" xmlns="http://www.w3.org/2000/svg" xmlns:xlink="http://www.w3.org/1999/xlink" x="0px" y="0px"
	 viewBox="0 0 32 32" enable-background="new 0 0 32 32" xml:space="preserve">
<g id="original" display="none">
	<g id="twitter-icon_1_" display="inline">
		<path fill="#E42A33" d="M28,8.557c-0.883,0.391-1.832,0.655-2.827,0.775c1.016-0.608,1.797-1.574,2.165-2.725
			c-0.952,0.566-2.005,0.975-3.127,1.196c-0.898-0.957-2.176-1.555-3.593-1.555c-3.179,0-5.515,2.967-4.797,6.046
			c-4.093-0.206-7.72-2.165-10.149-5.145c-1.29,2.214-0.669,5.108,1.524,6.574c-0.807-0.025-1.567-0.248-2.23-0.616
			c-0.053,2.281,1.581,4.414,3.95,4.89c-0.694,0.186-1.453,0.231-2.225,0.083c0.627,1.957,2.446,3.38,4.6,3.419
			C9.219,23.123,6.611,23.848,4,23.539c2.179,1.398,4.768,2.214,7.548,2.214c9.141,0,14.307-7.722,13.996-14.647
			C26.505,10.412,27.342,9.543,28,8.557z"/>
	</g>
</g>
<g id="expanded">
	<g id="twitter-icon_2_">
		<path fill="#E42A33" d="M28,8.557c-0.883,0.391-1.832,0.655-2.827,0.775c1.016-0.608,1.797-1.574,2.165-2.725
			c-0.952,0.566-2.005,0.975-3.127,1.196c-0.898-0.957-2.176-1.555-3.593-1.555c-3.179,0-5.515,2.967-4.797,6.046
			c-4.093-0.206-7.72-2.165-10.149-5.145c-1.29,2.214-0.669,5.108,1.524,6.574c-0.807-0.025-1.567-0.248-2.23-0.616
			c-0.053,2.281,1.581,4.414,3.95,4.89c-0.694,0.186-1.453,0.231-2.225,0.083c0.627,1.957,2.446,3.38,4.6,3.419
			C9.219,23.123,6.611,23.848,4,23.539c2.179,1.398,4.768,2.214,7.548,2.214c9.141,0,14.307-7.722,13.996-14.647
			C26.505,10.412,27.342,9.543,28,8.557z"/>
	</g>
</g>
</svg>
