<?xml version="1.0" encoding="utf-8"?>
<!-- Generator: Adobe Illustrator 17.1.0, SVG Export Plug-In . SVG Version: 6.00 Build 0)  -->
<!DOCTYPE svg PUBLIC "-//W3C//DTD SVG 1.1//EN" "http://www.w3.org/Graphics/SVG/1.1/DTD/svg11.dtd">
<svg version="1.1" xmlns="http://www.w3.org/2000/svg" xmlns:xlink="http://www.w3.org/1999/xlink" x="0px" y="0px"
	 viewBox="0 0 30 30" enable-background="new 0 0 30 30" xml:space="preserve">
<g id="original" display="none">
</g>
<g id="expanded">
	<g>
		<path fill="#E42A33" d="M23.251,3.999c-0.304,0-0.605,0.022-0.905,0.064C20.634,1.731,17.933,0.332,15,0.332
			c-2.933,0-5.633,1.399-7.346,3.731c-0.3-0.043-0.6-0.064-0.905-0.064c-3.538,0-6.417,2.879-6.417,6.417s2.879,6.417,6.417,6.417
			c0.784,0,1.552-0.143,2.275-0.42c1.659,1.447,3.77,2.254,5.976,2.254c2.208,0,4.316-0.807,5.976-2.254
			c0.723,0.277,1.491,0.42,2.275,0.42c3.538,0,6.417-2.879,6.417-6.417S26.789,3.999,23.251,3.999z M23.251,15
			c-0.556,0-1.101-0.1-1.619-0.298l-1.031-0.396l-0.831,0.726c-1.332,1.163-3.026,1.802-4.77,1.802c-1.744,0-3.438-0.64-4.77-1.802
			l-0.831-0.726l-1.031,0.396C7.852,14.9,7.306,15,6.749,15c-2.528,0-4.584-2.057-4.584-4.584s2.056-4.584,4.584-4.584
			c0.217,0,0.43,0.016,0.645,0.045L8.48,6.035L9.131,5.15C10.524,3.253,12.663,2.166,15,2.166c2.338,0,4.476,1.086,5.868,2.983
			l0.652,0.887l1.089-0.158c0.213-0.03,0.425-0.045,0.642-0.045c2.528,0,4.584,2.057,4.584,4.584S25.779,15,23.251,15z"/>
		<circle fill="#E42A33" cx="5.833" cy="20.501" r="1.834"/>
		<circle fill="#E42A33" cx="15" cy="22.334" r="1.834"/>
		<circle fill="#E42A33" cx="24.168" cy="20.501" r="1.834"/>
		<circle fill="#E42A33" cx="20.5" cy="27.835" r="1.834"/>
		<circle fill="#E42A33" cx="9.499" cy="27.835" r="1.834"/>
	</g>
</g>
</svg>
