<?xml version="1.0" encoding="utf-8"?>
<!-- Generator: Adobe Illustrator 17.1.0, SVG Export Plug-In . SVG Version: 6.00 Build 0)  -->
<!DOCTYPE svg PUBLIC "-//W3C//DTD SVG 1.1//EN" "http://www.w3.org/Graphics/SVG/1.1/DTD/svg11.dtd">
<svg version="1.1" xmlns="http://www.w3.org/2000/svg" xmlns:xlink="http://www.w3.org/1999/xlink" x="0px" y="0px"
	 viewBox="0 0 32 32" enable-background="new 0 0 32 32" xml:space="preserve">
<g id="original" display="none">
	
		<polyline display="inline" fill="none" stroke="#E42A33" stroke-width="3.3" stroke-linecap="round" stroke-linejoin="round" stroke-miterlimit="10" points="
		9.086,25.891 12.992,20.586 20.857,20.586 24.664,25.891 	"/>
	
		<line display="inline" fill="none" stroke="#E42A33" stroke-width="2.2" stroke-linecap="round" stroke-linejoin="round" stroke-miterlimit="10" x1="10.72" y1="24.946" x2="23.072" y2="24.946"/>
	
		<rect x="10.729" y="6.109" display="inline" fill="#E42A33" stroke="#E42A33" stroke-width="3.3" stroke-linecap="round" stroke-linejoin="round" stroke-miterlimit="10" width="12.334" height="13.544"/>
	<circle display="inline" fill="#FFFFFF" cx="11.965" cy="17.997" r="1.245"/>
	<circle display="inline" fill="#FFFFFF" cx="21.827" cy="17.997" r="1.245"/>
	
		<line display="inline" fill="none" stroke="#FFFFFF" stroke-width="1.65" stroke-linecap="round" stroke-miterlimit="10" x1="13.21" y1="6.94" x2="20.582" y2="6.94"/>
	
		<line display="inline" fill="none" stroke="#FFFFFF" stroke-width="2.2" stroke-linecap="round" stroke-miterlimit="10" x1="12.584" y1="11.124" x2="21.166" y2="11.124"/>
	
		<line display="inline" fill="none" stroke="#FFFFFF" stroke-width="2.2" stroke-linecap="round" stroke-miterlimit="10" x1="12.584" y1="13.847" x2="21.166" y2="13.847"/>
	<rect x="11.479" y="11.124" display="inline" fill="#FFFFFF" width="10.781" height="2.723"/>
</g>
<g id="expanded">
	<g>
		<polygon fill="none" points="13.826,22.237 12.641,23.847 21.166,23.847 20.01,22.237 		"/>
		<path fill="#E42A33" d="M26.005,24.93l-2.626-3.659c0.76-0.148,1.334-0.816,1.334-1.618V6.108c0-0.911-0.739-1.65-1.65-1.65
			H10.729c-0.911,0-1.65,0.739-1.65,1.65v13.544c0,0.811,0.587,1.483,1.358,1.621l-2.681,3.64c-0.541,0.733-0.384,1.767,0.35,2.307
			c0.733,0.543,1.768,0.385,2.307-0.35l0.607-0.824h11.723l0.58,0.808c0.322,0.449,0.828,0.688,1.342,0.688
			c0.333,0,0.669-0.101,0.96-0.31C26.367,26.7,26.536,25.67,26.005,24.93z M13.21,6.114h7.372c0.456,0,0.825,0.369,0.825,0.825
			s-0.37,0.825-0.825,0.825H13.21c-0.456,0-0.825-0.369-0.825-0.825S12.754,6.114,13.21,6.114z M11.479,11.124h0.005v0
			c0-0.607,0.493-1.1,1.1-1.1h8.582c0.607,0,1.1,0.492,1.1,1.1c0,0.01-0.006,0.019-0.006,0.029v2.665
			c0,0.01,0.006,0.019,0.006,0.029c0,0.607-0.493,1.1-1.1,1.1h-8.582c-0.607,0-1.1-0.492-1.1-1.1v0h-0.005V11.124z M10.72,17.997
			c0-0.688,0.557-1.245,1.245-1.245c0.688,0,1.245,0.557,1.245,1.245c0,0.688-0.557,1.245-1.245,1.245
			C11.277,19.242,10.72,18.685,10.72,17.997z M12.641,23.847l1.185-1.609h6.184l1.155,1.609H12.641z M21.827,19.242
			c-0.688,0-1.245-0.557-1.245-1.245c0-0.688,0.557-1.245,1.245-1.245c0.688,0,1.245,0.557,1.245,1.245
			C23.072,18.685,22.514,19.242,21.827,19.242z"/>
	</g>
</g>
</svg>
