<?xml version="1.0" encoding="utf-8"?>
<!-- Generator: Adobe Illustrator 17.1.0, SVG Export Plug-In . SVG Version: 6.00 Build 0)  -->
<!DOCTYPE svg PUBLIC "-//W3C//DTD SVG 1.1//EN" "http://www.w3.org/Graphics/SVG/1.1/DTD/svg11.dtd">
<svg version="1.1" xmlns="http://www.w3.org/2000/svg" xmlns:xlink="http://www.w3.org/1999/xlink" x="0px" y="0px"
	 viewBox="0 0 32 32" enable-background="new 0 0 32 32" xml:space="preserve">
<g id="original" display="none">
	<g id="youtube-icon_1_" display="inline">
		<g>
			<path fill="#E42A33" d="M8.651,4h1.442l0.986,3.701L11.996,4h1.453l-1.663,5.504v3.758h-1.433V9.504L8.651,4z M13.384,11.558
				c0,1.202,0.63,1.831,1.863,1.831c1.021,0,1.825-0.684,1.825-1.831V8.209c0-1.07-0.795-1.836-1.825-1.836
				c-1.12,0-1.863,0.738-1.863,1.836V11.558z M14.692,8.321c0-0.374,0.172-0.652,0.528-0.652c0.39,0,0.557,0.271,0.557,0.652v3.178
				c0,0.371-0.19,0.647-0.53,0.647c-0.352,0-0.555-0.287-0.555-0.647V8.321z M20.505,6.428v5.186
				c-0.154,0.195-0.499,0.512-0.745,0.512c-0.273,0-0.338-0.184-0.338-0.46V6.428h-1.27v5.711c0,0.675,0.205,1.222,0.886,1.222
				c0.384,0,0.918-0.2,1.468-0.853v0.754h1.271V6.428H20.505z M18.637,20.435c0.086,0.114,0.13,0.28,0.13,0.5v3.359
				c0,0.208-0.035,0.356-0.105,0.449c-0.135,0.173-0.422,0.166-0.619,0.065c-0.093-0.046-0.188-0.123-0.287-0.229v-4.053
				c0.082-0.091,0.165-0.157,0.25-0.198C18.218,20.22,18.491,20.242,18.637,20.435z M22.71,20.287c-0.448,0-0.541,0.316-0.541,0.761
				v0.659h1.07v-0.659C23.239,20.61,23.145,20.287,22.71,20.287z M26.399,25.088c0,1.608-1.305,2.912-2.913,2.912H8.513
				c-1.608,0-2.913-1.303-2.913-2.912v-7.36c0-1.609,1.304-2.913,2.913-2.913h14.972c1.609,0,2.913,1.305,2.913,2.913V25.088
				L26.399,25.088z M10.509,18.28h1.41v-1.281H7.737v1.281h1.409v7.538h1.363V18.28L10.509,18.28z M15.354,19.312h-1.21v4.938
				c-0.147,0.186-0.475,0.488-0.71,0.488c-0.259,0-0.323-0.176-0.323-0.438v-4.988h-1.209v5.439c0,1.32,0.895,1.328,1.547,0.956
				c0.241-0.139,0.473-0.341,0.695-0.606v0.717h1.21V19.312z M20.011,20.862c0-0.884-0.293-1.632-1.18-1.632
				c-0.432,0-0.803,0.274-1.076,0.608v-2.84h-1.22v8.819h1.22v-0.499c0.337,0.421,0.706,0.582,1.15,0.582
				c0.805,0,1.106-0.625,1.106-1.428V20.862z M24.483,21.063c0-1.177-0.561-1.915-1.722-1.915c-1.09,0-1.837,0.784-1.837,1.915
				v2.919c0,1.172,0.591,2.014,1.747,2.014c1.274,0,1.813-0.76,1.813-2.014v-0.489h-1.244v0.452c0,0.567-0.031,0.91-0.541,0.91
				c-0.487,0-0.529-0.422-0.529-0.91v-1.227h2.315V21.063L24.483,21.063z"/>
		</g>
	</g>
</g>
<g id="expanded">
	<g id="youtube-icon_2_">
		<g>
			<path fill="#E42A33" d="M8.651,4h1.442l0.986,3.701L11.996,4h1.453l-1.663,5.504v3.758h-1.433V9.504L8.651,4z M13.384,11.558
				c0,1.202,0.63,1.831,1.863,1.831c1.021,0,1.825-0.684,1.825-1.831V8.209c0-1.07-0.795-1.836-1.825-1.836
				c-1.12,0-1.863,0.738-1.863,1.836V11.558z M14.692,8.321c0-0.374,0.172-0.652,0.528-0.652c0.39,0,0.557,0.271,0.557,0.652v3.178
				c0,0.371-0.19,0.647-0.53,0.647c-0.352,0-0.555-0.287-0.555-0.647V8.321z M20.505,6.428v5.186
				c-0.154,0.195-0.499,0.512-0.745,0.512c-0.273,0-0.338-0.184-0.338-0.46V6.428h-1.27v5.711c0,0.675,0.205,1.222,0.886,1.222
				c0.384,0,0.918-0.2,1.468-0.853v0.754h1.271V6.428H20.505z M18.637,20.435c0.086,0.114,0.13,0.28,0.13,0.5v3.359
				c0,0.208-0.035,0.356-0.105,0.449c-0.135,0.173-0.422,0.166-0.619,0.065c-0.093-0.046-0.188-0.123-0.287-0.229v-4.053
				c0.082-0.091,0.165-0.157,0.25-0.198C18.218,20.22,18.491,20.242,18.637,20.435z M22.71,20.287c-0.448,0-0.541,0.316-0.541,0.761
				v0.659h1.07v-0.659C23.239,20.61,23.145,20.287,22.71,20.287z M26.399,25.088c0,1.608-1.305,2.912-2.913,2.912H8.513
				c-1.608,0-2.913-1.303-2.913-2.912v-7.36c0-1.609,1.304-2.913,2.913-2.913h14.972c1.609,0,2.913,1.305,2.913,2.913V25.088
				L26.399,25.088z M10.509,18.28h1.41v-1.281H7.737v1.281h1.409v7.538h1.363V18.28L10.509,18.28z M15.354,19.312h-1.21v4.938
				c-0.147,0.186-0.475,0.488-0.71,0.488c-0.259,0-0.323-0.176-0.323-0.438v-4.988h-1.209v5.439c0,1.32,0.895,1.328,1.547,0.956
				c0.241-0.139,0.473-0.341,0.695-0.606v0.717h1.21V19.312z M20.011,20.862c0-0.884-0.293-1.632-1.18-1.632
				c-0.432,0-0.803,0.274-1.076,0.608v-2.84h-1.22v8.819h1.22v-0.499c0.337,0.421,0.706,0.582,1.15,0.582
				c0.805,0,1.106-0.625,1.106-1.428V20.862z M24.483,21.063c0-1.177-0.561-1.915-1.722-1.915c-1.09,0-1.837,0.784-1.837,1.915
				v2.919c0,1.172,0.591,2.014,1.747,2.014c1.274,0,1.813-0.76,1.813-2.014v-0.489h-1.244v0.452c0,0.567-0.031,0.91-0.541,0.91
				c-0.487,0-0.529-0.422-0.529-0.91v-1.227h2.315V21.063L24.483,21.063z"/>
		</g>
	</g>
</g>
</svg>
