<?xml version="1.0" encoding="utf-8"?>
<!-- Generator: Adobe Illustrator 17.1.0, SVG Export Plug-In . SVG Version: 6.00 Build 0)  -->
<!DOCTYPE svg PUBLIC "-//W3C//DTD SVG 1.1//EN" "http://www.w3.org/Graphics/SVG/1.1/DTD/svg11.dtd">
<svg version="1.1" xmlns="http://www.w3.org/2000/svg" xmlns:xlink="http://www.w3.org/1999/xlink" x="0px" y="0px"
	 viewBox="0 0 32 32" enable-background="new 0 0 32 32" xml:space="preserve">
<g id="original" display="none">
	<circle display="inline" fill="#E42A33" cx="15.667" cy="16.229" r="10"/>
	
		<polyline display="inline" fill="#E42A33" stroke="#E42A33" stroke-width="2" stroke-linecap="round" stroke-linejoin="round" stroke-miterlimit="10" points="
		9.833,17.104 4.667,25.229 15.552,25.229 	"/>
	<g display="inline">
		<circle fill="#FFFFFF" cx="15.433" cy="21.07" r="1.255"/>
		<g>
			<circle fill="#FFFFFF" cx="12.789" cy="14.451" r="0.996"/>
			<circle fill="#FFFFFF" cx="15.433" cy="18.309" r="1.016"/>
			<path fill="#FFFFFF" d="M16.45,18.198v0.222c0,0-1.787,0.233-1.971,0.233l-0.062-0.323c0-0.629,0.043-1.436,0.773-2.137
				c0.73-0.701,1.642-1.281,1.642-2.157c0-0.969-0.672-1.481-1.52-1.481c-1.412,0-1.493,1.573-1.528,1.895l-1.992-0.108
				c0.053-1.527,0.698-3.664,3.532-3.664c2.456,0,3.56,1.645,3.56,3.187C18.884,16.321,16.45,16.614,16.45,18.198z"/>
		</g>
	</g>
</g>
<g id="expanded">
	<g>
		<path fill="#E42A33" d="M15.667,6.229c-5.523,0-10,4.477-10,10c0,1.478,0.329,2.877,0.905,4.14l-2.749,4.323
			C3.627,25,3.614,25.391,3.79,25.71s0.512,0.519,0.876,0.519h10.885c0.008,0,0.014-0.004,0.022-0.005
			c0.031,0,0.061,0.005,0.093,0.005c5.523,0,10-4.477,10-10C25.667,10.706,21.19,6.229,15.667,6.229z M15.433,22.325
			c-0.693,0-1.255-0.562-1.255-1.255c0-0.693,0.562-1.255,1.255-1.255c0.693,0,1.255,0.562,1.255,1.255
			C16.688,21.763,16.127,22.325,15.433,22.325z M16.45,18.198v0.222c0,0-0.018,0.002-0.023,0.003
			c-0.059,0.505-0.473,0.902-0.993,0.902c-0.439,0-0.805-0.282-0.947-0.673c-0.001,0-0.006,0.001-0.007,0.001l-0.062-0.323
			c0-0.007,0-0.014,0-0.021c0,0,0-0.001,0-0.001c0-0.001,0-0.002,0-0.002c0.001-0.626,0.052-1.421,0.773-2.114
			c0.73-0.701,1.642-1.281,1.642-2.157c0-0.969-0.672-1.481-1.52-1.481c-1.412,0-1.493,1.573-1.528,1.896
			c0,0.55-0.446,0.996-0.996,0.996c-0.55,0-0.996-0.446-0.996-0.996c0-0.038,0.017-0.07,0.022-0.107l-0.022-0.001
			c0.053-1.527,0.698-3.664,3.532-3.664c2.456,0,3.56,1.644,3.56,3.187C18.884,16.321,16.45,16.614,16.45,18.198z"/>
	</g>
</g>
</svg>
