<?xml version="1.0" encoding="utf-8"?>
<!-- Generator: Adobe Illustrator 17.1.0, SVG Export Plug-In . SVG Version: 6.00 Build 0)  -->
<!DOCTYPE svg PUBLIC "-//W3C//DTD SVG 1.1//EN" "http://www.w3.org/Graphics/SVG/1.1/DTD/svg11.dtd">
<svg version="1.1" xmlns="http://www.w3.org/2000/svg" xmlns:xlink="http://www.w3.org/1999/xlink" x="0px" y="0px"
	 viewBox="0 0 32 32" enable-background="new 0 0 32 32" xml:space="preserve">
<g id="original" display="none">
	<g display="inline">
		
			<line fill="#E42A33" stroke="#E42A33" stroke-width="4" stroke-linecap="round" stroke-linejoin="round" stroke-miterlimit="10" x1="24.249" y1="4.263" x2="10.667" y2="17.845"/>
		
			<line fill="#E42A33" stroke="#E42A33" stroke-width="4" stroke-linecap="round" stroke-linejoin="round" stroke-miterlimit="10" x1="27.873" y1="7.887" x2="14.291" y2="21.469"/>
		
			<rect x="16.537" y="1.21" transform="matrix(0.7071 0.7071 -0.7071 0.7071 14.6934 -9.8333)" fill="#E42A33" width="5.359" height="23.219"/>
		
			<line fill="#FFFFFF" stroke="#FFFFFF" stroke-width="2" stroke-linecap="round" stroke-linejoin="round" stroke-miterlimit="10" x1="25.398" y1="6.826" x2="14.968" y2="17.256"/>
		<path fill="#FFFFFF" d="M15.475,24.432c-0.391,0.391-0.909,0.505-1.158,0.256l-6.817-6.817c-0.249-0.249-0.134-0.768,0.256-1.158
			l0,0c0.391-0.391,0.909-0.505,1.158-0.256l6.817,6.817C15.98,23.523,15.865,24.041,15.475,24.432L15.475,24.432z"/>
	</g>
	<g display="inline">
		<path fill="#E42A33" d="M5.778,27.4l6.276-1.442c0.253-0.059,0.457-0.164,0.607-0.314c0.314-0.314,0.399-0.864-0.121-1.384
			l-4.927-4.927c-0.52-0.52-1.07-0.435-1.384-0.121c-0.15,0.15-0.256,0.354-0.314,0.607l-1.442,6.275
			c-0.098,0.422-0.009,0.809,0.244,1.062S5.356,27.498,5.778,27.4z"/>
	</g>
</g>
<g id="expanded">
	<g>
		<path fill="#E42A33" d="M29.287,9.301c0.77-0.77,0.777-2.008,0.03-2.792l0.003-0.003l-3.79-3.79l-0.013,0.013
			c-0.786-0.65-1.947-0.617-2.682,0.119L9.253,16.432c-0.062,0.062-0.112,0.131-0.165,0.199l6.416,6.416
			c0.068-0.053,0.138-0.102,0.201-0.164L29.287,9.301z M14.968,18.256c-0.256,0-0.512-0.098-0.707-0.293
			c-0.391-0.391-0.391-1.023,0-1.414l10.43-10.43c0.391-0.391,1.023-0.391,1.414,0s0.391,1.023,0,1.414l-10.43,10.43
			C15.48,18.158,15.224,18.256,14.968,18.256z"/>
	</g>
	<g>
		<g>
			<path fill="#E42A33" d="M5.778,27.4l6.276-1.442c0.253-0.059,0.457-0.164,0.607-0.314c0.314-0.314,0.399-0.864-0.121-1.384
				l-4.927-4.927c-0.52-0.52-1.07-0.435-1.384-0.121c-0.15,0.15-0.256,0.354-0.314,0.607l-1.442,6.275
				c-0.098,0.422-0.009,0.809,0.244,1.062S5.356,27.498,5.778,27.4z"/>
		</g>
	</g>
</g>
</svg>
