<?xml version="1.0" encoding="utf-8"?>
<!-- Generator: Adobe Illustrator 17.1.0, SVG Export Plug-In . SVG Version: 6.00 Build 0)  -->
<!DOCTYPE svg PUBLIC "-//W3C//DTD SVG 1.1//EN" "http://www.w3.org/Graphics/SVG/1.1/DTD/svg11.dtd">
<svg version="1.1" xmlns="http://www.w3.org/2000/svg" xmlns:xlink="http://www.w3.org/1999/xlink" x="0px" y="0px"
	 viewBox="0 0 30 30" enable-background="new 0 0 30 30" xml:space="preserve">
<g id="original" display="none">
</g>
<g id="expanded">
	<g>
		<path fill-rule="evenodd" clip-rule="evenodd" fill="#E42A33" d="M24.139,9.897c-1.361-1.393-3.242-2.2-5.206-2.2
			c-1.961,0-3.841,0.808-5.202,2.2c-2.997,0.14-5.393,2.621-5.393,5.652c0,3.119,2.537,5.656,5.657,5.656
			c0.331,0,0.659-0.028,0.98-0.085c1.176,0.768,2.549,1.184,3.957,1.184c1.411,0,2.784-0.415,3.96-1.184
			c0.324,0.057,0.65,0.085,0.981,0.085c3.118,0,5.654-2.537,5.654-5.656C29.528,12.518,27.134,10.037,24.139,9.897z M23.875,19.389
			c-0.472,0-0.929-0.085-1.362-0.251c-0.993,0.865-2.256,1.349-3.579,1.349c-1.319,0-2.582-0.484-3.575-1.349
			c-0.433,0.166-0.894,0.251-1.362,0.251c-2.118,0-3.841-1.724-3.841-3.84c0-2.118,1.724-3.841,3.841-3.841
			c0.181,0,0.362,0.013,0.54,0.039c1.027-1.395,2.641-2.233,4.397-2.233c1.756,0,3.373,0.838,4.398,2.233
			c0.177-0.026,0.358-0.039,0.543-0.039c2.118,0,3.838,1.724,3.838,3.841C27.712,17.665,25.992,19.389,23.875,19.389z"/>
		<path fill-rule="evenodd" clip-rule="evenodd" fill="#E42A33" d="M8.644,20.448H1.38c-0.501,0-0.908,0.407-0.908,0.908
			s0.407,0.908,0.908,0.908h7.264c0.501,0,0.908-0.407,0.908-0.908S9.145,20.448,8.644,20.448z"/>
		<path fill-rule="evenodd" clip-rule="evenodd" fill="#E42A33" d="M1.38,18.632h3.632c0.501,0,0.908-0.407,0.908-0.908
			c0-0.501-0.407-0.908-0.908-0.908H1.38c-0.501,0-0.908,0.407-0.908,0.908C0.472,18.225,0.878,18.632,1.38,18.632z"/>
		<path fill-rule="evenodd" clip-rule="evenodd" fill="#E42A33" d="M3.196,15h3.632c0.501,0,0.908-0.407,0.908-0.908
			c0-0.501-0.407-0.908-0.908-0.908H3.196c-0.501,0-0.908,0.407-0.908,0.908C2.288,14.593,2.694,15,3.196,15z"/>
	</g>
</g>
</svg>
