<?xml version="1.0" encoding="utf-8"?>
<!-- Generator: Adobe Illustrator 17.1.0, SVG Export Plug-In . SVG Version: 6.00 Build 0)  -->
<!DOCTYPE svg PUBLIC "-//W3C//DTD SVG 1.1//EN" "http://www.w3.org/Graphics/SVG/1.1/DTD/svg11.dtd">
<svg version="1.1" xmlns="http://www.w3.org/2000/svg" xmlns:xlink="http://www.w3.org/1999/xlink" x="0px" y="0px"
	 viewBox="0 0 30 30" enable-background="new 0 0 30 30" xml:space="preserve">
<g id="original" display="none">
</g>
<g id="expanded">
	<g>
		<path fill-rule="evenodd" clip-rule="evenodd" fill="#E42A33" d="M15,7.667c-4.043,0-7.333,3.29-7.333,7.333
			s3.29,7.333,7.333,7.333s7.333-3.29,7.333-7.333S19.043,7.667,15,7.667z M15,20.238c-2.893,0-5.238-2.345-5.238-5.238
			S12.107,9.762,15,9.762s5.238,2.345,5.238,5.238S17.893,20.238,15,20.238z"/>
		<g>
			<path fill-rule="evenodd" clip-rule="evenodd" fill="#E42A33" d="M15,1.382c-0.578,0-1.048,0.469-1.048,1.048v2.095
				c0,0.578,0.469,1.048,1.048,1.048c0.578,0,1.048-0.469,1.048-1.048V2.43C16.048,1.852,15.578,1.382,15,1.382z"/>
			<path fill-rule="evenodd" clip-rule="evenodd" fill="#E42A33" d="M15,24.428c-0.578,0-1.048,0.469-1.048,1.048v2.095
				c0,0.578,0.469,1.048,1.048,1.048c0.578,0,1.048-0.469,1.048-1.048v-2.095C16.048,24.897,15.578,24.428,15,24.428z"/>
		</g>
		<g>
			<path fill-rule="evenodd" clip-rule="evenodd" fill="#E42A33" d="M24.628,5.371c-0.409-0.409-1.072-0.409-1.481,0l-1.481,1.481
				c-0.409,0.409-0.409,1.072,0,1.481c0.409,0.409,1.072,0.409,1.481,0l1.481-1.481C25.037,6.443,25.037,5.78,24.628,5.371z"/>
			<path fill-rule="evenodd" clip-rule="evenodd" fill="#E42A33" d="M8.334,21.667c-0.409-0.409-1.072-0.411-1.481,0l-1.481,1.481
				c-0.409,0.409-0.409,1.072,0,1.481c0.409,0.409,1.072,0.409,1.481,0l1.481-1.481C8.744,22.738,8.744,22.076,8.334,21.667z"/>
		</g>
		<g>
			<path fill-rule="evenodd" clip-rule="evenodd" fill="#E42A33" d="M1.382,15c0,0.578,0.469,1.048,1.048,1.048h2.095
				c0.578,0,1.048-0.469,1.048-1.048c0-0.578-0.469-1.048-1.048-1.048H2.43C1.852,13.952,1.382,14.422,1.382,15z"/>
			<path fill-rule="evenodd" clip-rule="evenodd" fill="#E42A33" d="M24.428,15c0,0.578,0.469,1.048,1.048,1.048h2.095
				c0.578,0,1.048-0.469,1.048-1.048c0-0.578-0.469-1.048-1.048-1.048h-2.095C24.897,13.952,24.428,14.422,24.428,15z"/>
		</g>
		<g>
			<path fill-rule="evenodd" clip-rule="evenodd" fill="#E42A33" d="M5.371,5.371c-0.409,0.409-0.409,1.072,0,1.481l1.481,1.481
				c0.409,0.409,1.072,0.409,1.481,0c0.409-0.409,0.409-1.072,0-1.481L6.852,5.371C6.443,4.961,5.78,4.961,5.371,5.371z"/>
			<path fill-rule="evenodd" clip-rule="evenodd" fill="#E42A33" d="M21.667,21.666c-0.409,0.409-0.411,1.072,0,1.481l1.481,1.481
				c0.409,0.409,1.072,0.409,1.481,0c0.409-0.409,0.409-1.072,0-1.481l-1.481-1.481C22.738,21.256,22.076,21.256,21.667,21.666z"/>
		</g>
	</g>
</g>
</svg>
