<?xml version="1.0" encoding="utf-8"?>
<!-- Generator: Adobe Illustrator 17.1.0, SVG Export Plug-In . SVG Version: 6.00 Build 0)  -->
<!DOCTYPE svg PUBLIC "-//W3C//DTD SVG 1.1//EN" "http://www.w3.org/Graphics/SVG/1.1/DTD/svg11.dtd">
<svg version="1.1" xmlns="http://www.w3.org/2000/svg" xmlns:xlink="http://www.w3.org/1999/xlink" x="0px" y="0px"
	 viewBox="0 0 32 32" enable-background="new 0 0 32 32" xml:space="preserve">
<g id="original" display="none">
	<g display="inline">
		
			<polyline fill="none" stroke="#E42A33" stroke-width="3" stroke-linecap="round" stroke-linejoin="round" stroke-miterlimit="10" points="
			9,16 16,9 23,16 		"/>
		
			<line fill="none" stroke="#E42A33" stroke-width="3" stroke-linecap="round" stroke-linejoin="round" stroke-miterlimit="10" x1="16" y1="23" x2="16" y2="9"/>
	</g>
</g>
<g id="expanded">
	<path fill="#E42A33" d="M24.061,14.939l-6.998-6.998c-0.139-0.14-0.307-0.251-0.493-0.328c-0.007-0.003-0.015-0.004-0.022-0.007
		C16.378,7.54,16.194,7.5,16,7.5s-0.378,0.04-0.548,0.107c-0.007,0.003-0.015,0.004-0.022,0.007
		c-0.186,0.076-0.353,0.188-0.493,0.328l-6.998,6.998c-0.586,0.585-0.586,1.536,0,2.121c0.586,0.586,1.535,0.586,2.121,0
		l4.439-4.439V23c0,0.829,0.671,1.5,1.5,1.5s1.5-0.671,1.5-1.5V12.621l4.439,4.439C22.232,17.354,22.616,17.5,23,17.5
		s0.768-0.146,1.061-0.439C24.646,16.475,24.646,15.525,24.061,14.939z"/>
</g>
</svg>
