<?xml version="1.0" encoding="utf-8"?>
<!-- Generator: Adobe Illustrator 17.1.0, SVG Export Plug-In . SVG Version: 6.00 Build 0)  -->
<!DOCTYPE svg PUBLIC "-//W3C//DTD SVG 1.1//EN" "http://www.w3.org/Graphics/SVG/1.1/DTD/svg11.dtd">
<svg version="1.1" xmlns="http://www.w3.org/2000/svg" xmlns:xlink="http://www.w3.org/1999/xlink" x="0px" y="0px"
	 viewBox="0 0 32 32" enable-background="new 0 0 32 32" xml:space="preserve">
<g id="original" display="none">
	<g display="inline">
		
			<polyline fill="none" stroke="#E42A33" stroke-width="3" stroke-linecap="round" stroke-linejoin="round" stroke-miterlimit="10" points="
			20.204,3.841 25.431,9.068 20.033,14.467 		"/>
	</g>
	<path display="inline" fill="none" stroke="#E42A33" stroke-width="3" stroke-miterlimit="10" d="M15.867,28.125
		c-5.262,0-9.528-4.266-9.528-9.528s4.266-9.528,9.528-9.528"/>
	<path display="inline" fill="none" stroke="#E42A33" stroke-width="3" stroke-miterlimit="10" d="M15.867,28.125"/>
	<path display="inline" fill="none" stroke="#E42A33" stroke-width="3" stroke-miterlimit="10" d="M15.867,9.068"/>
	
		<line display="inline" fill="none" stroke="#E42A33" stroke-width="3" stroke-linecap="round" stroke-miterlimit="10" x1="18.543" y1="28.125" x2="15.867" y2="28.125"/>
	
		<line display="inline" fill="none" stroke="#E42A33" stroke-width="3" stroke-miterlimit="10" x1="23.891" y1="9.068" x2="15.867" y2="9.068"/>
</g>
<g id="expanded">
	<path fill="#E42A33" d="M18.658,29.642h-2.676c-6.081,0-11.028-4.947-11.028-11.028S9.901,7.585,15.982,7.585h5.943l-2.666-2.666
		c-0.586-0.586-0.586-1.535,0-2.121s1.535-0.586,2.121,0l5.227,5.227c0.586,0.586,0.586,1.535,0,2.121l-5.398,5.398
		c-0.586,0.586-1.535,0.586-2.121,0s-0.586-1.535,0-2.121l2.838-2.838h-5.943c-4.427,0-8.028,3.602-8.028,8.028
		s3.602,8.028,8.028,8.028h2.676c0.829,0,1.5,0.672,1.5,1.5S19.487,29.642,18.658,29.642z"/>
</g>
</svg>
