<?xml version="1.0" encoding="utf-8"?>
<!-- Generator: Adobe Illustrator 17.1.0, SVG Export Plug-In . SVG Version: 6.00 Build 0)  -->
<!DOCTYPE svg PUBLIC "-//W3C//DTD SVG 1.1//EN" "http://www.w3.org/Graphics/SVG/1.1/DTD/svg11.dtd">
<svg version="1.1" xmlns="http://www.w3.org/2000/svg" xmlns:xlink="http://www.w3.org/1999/xlink" x="0px" y="0px"
	 viewBox="0 0 32 32" enable-background="new 0 0 32 32" xml:space="preserve">
<g id="original" display="none">
	
		<rect x="6.604" y="11.392" display="inline" fill="#E42A33" stroke="#E42A33" stroke-width="3" stroke-linecap="round" stroke-linejoin="round" stroke-miterlimit="10" width="19.408" height="12.654"/>
	<g display="inline">
		<path fill="#FFFFFF" d="M24.833,14.026H7.736c-0.338,0-0.61-0.224-0.61-0.5c0-0.276,0.273-0.5,0.61-0.5h17.097
			c0.338,0,0.61,0.224,0.61,0.5C25.444,13.803,25.171,14.026,24.833,14.026z"/>
	</g>
	<g display="inline">
		<path fill="#FFFFFF" d="M24.833,18.219H7.736c-0.338,0-0.61-0.224-0.61-0.5c0-0.276,0.273-0.5,0.61-0.5h17.097
			c0.338,0,0.61,0.224,0.61,0.5C25.444,17.995,25.171,18.219,24.833,18.219z"/>
	</g>
	<g display="inline">
		<path fill="#FFFFFF" d="M24.833,22.411H7.736c-0.338,0-0.61-0.224-0.61-0.5c0-0.276,0.273-0.5,0.61-0.5h17.097
			c0.338,0,0.61,0.224,0.61,0.5C25.444,22.187,25.171,22.411,24.833,22.411z"/>
	</g>
	
		<polyline display="inline" fill="none" stroke="#E42A33" stroke-width="2" stroke-linecap="round" stroke-linejoin="round" stroke-miterlimit="10" points="
		13.059,10.817 13.059,7.954 19.559,7.954 19.559,10.817 	"/>
</g>
<g id="expanded">
	<g>
		<rect x="14.059" y="8.954" fill="none" width="4.5" height="0.938"/>
		<path fill="#E42A33" d="M26.013,9.892h-5.454V7.954c0-0.552-0.448-1-1-1h-6.5c-0.552,0-1,0.448-1,1v1.938H6.604
			c-0.829,0-1.5,0.671-1.5,1.5v12.654c0,0.828,0.671,1.5,1.5,1.5h19.408c0.829,0,1.5-0.672,1.5-1.5V11.392
			C27.513,10.563,26.841,9.892,26.013,9.892z M14.059,8.954h4.5v0.938h-4.5V8.954z M24.833,22H7.736c-0.338,0-0.61-0.224-0.61-0.5
			c0-0.276,0.273-0.5,0.61-0.5h17.097c0.338,0,0.61,0.224,0.61,0.5C25.444,21.776,25.171,22,24.833,22z M24.833,18H7.736
			c-0.338,0-0.61-0.224-0.61-0.5S7.398,17,7.736,17h17.097c0.338,0,0.61,0.224,0.61,0.5S25.171,18,24.833,18z M24.833,14H7.736
			c-0.338,0-0.61-0.224-0.61-0.5c0-0.276,0.273-0.5,0.61-0.5h17.097c0.338,0,0.61,0.224,0.61,0.5C25.444,13.776,25.171,14,24.833,14
			z"/>
	</g>
</g>
</svg>
