<?xml version="1.0" encoding="utf-8"?>
<!-- Generator: Adobe Illustrator 17.1.0, SVG Export Plug-In . SVG Version: 6.00 Build 0)  -->
<!DOCTYPE svg PUBLIC "-//W3C//DTD SVG 1.1//EN" "http://www.w3.org/Graphics/SVG/1.1/DTD/svg11.dtd">
<svg version="1.1" xmlns="http://www.w3.org/2000/svg" xmlns:xlink="http://www.w3.org/1999/xlink" x="0px" y="0px"
	 viewBox="0 0 32 32" enable-background="new 0 0 32 32" xml:space="preserve">
<g id="original" display="none">
	<g display="inline">
		<g>
			<path fill="#E42A33" d="M26,22.365c-0.553,0-1-0.439-1-0.982v-3.574c0-4.876-4.037-8.844-9-8.844c-4.963,0-9,3.968-9,8.844v3.574
				c0,0.543-0.447,0.982-1,0.982c-0.553,0-1-0.439-1-0.982v-3.574C5,11.849,9.935,7,16,7c6.065,0,11,4.849,11,10.809v3.574
				C27,21.926,26.553,22.365,26,22.365z"/>
		</g>
		<g>
			<path fill="#E42A33" d="M10,25c-2.209,0-4-1.76-4-3.931c0-2.171,1.791-3.931,4-3.931"/>
		</g>
		<g>
			<path fill="#E42A33" d="M11,25c-0.553,0-1-0.439-1-0.982v-5.896c0-0.544,0.447-0.983,1-0.983c0.553,0,1,0.439,1,0.983v5.896
				C12,24.561,11.553,25,11,25z"/>
		</g>
		<g>
			<path fill="#E42A33" d="M22,17.139c2.209,0,4,1.76,4,3.931C26,23.24,24.209,25,22,25"/>
		</g>
		<g>
			<path fill="#E42A33" d="M21,25c-0.553,0-1-0.439-1-0.982v-5.896c0-0.544,0.447-0.983,1-0.983c0.553,0,1,0.439,1,0.983v5.896
				C22,24.561,21.553,25,21,25z"/>
		</g>
	</g>
</g>
<g id="expanded">
	<path fill="#E42A33" d="M16,7C9.935,7,5,11.849,5,17.809v3.574c0,0.543,0.447,0.982,1,0.982c0.08,0,0.151-0.027,0.226-0.045
		C6.76,23.874,8.239,25,10,25v-0.982C10,24.561,10.447,25,11,25c0.553,0,1-0.439,1-0.982v-5.896c0-0.544-0.447-0.983-1-0.983
		c-0.553,0-1,0.439-1,0.983v-0.983c-1.202,0-2.267,0.531-3,1.356v-0.686c0-4.876,4.037-8.844,9-8.844s9,3.968,9,8.844v0.686
		c-0.733-0.824-1.798-1.356-3-1.356v0.983c0-0.544-0.447-0.983-1-0.983c-0.553,0-1,0.439-1,0.983v5.896C20,24.561,20.447,25,21,25
		c0.553,0,1-0.439,1-0.982V25c1.761,0,3.24-1.126,3.774-2.68c0.075,0.018,0.146,0.045,0.226,0.045c0.553,0,1-0.439,1-0.982v-3.574
		C27,11.849,22.065,7,16,7z"/>
</g>
</svg>
