<?xml version="1.0" encoding="utf-8"?>
<!-- Generator: Adobe Illustrator 17.1.0, SVG Export Plug-In . SVG Version: 6.00 Build 0)  -->
<!DOCTYPE svg PUBLIC "-//W3C//DTD SVG 1.1//EN" "http://www.w3.org/Graphics/SVG/1.1/DTD/svg11.dtd">
<svg version="1.1" xmlns="http://www.w3.org/2000/svg" xmlns:xlink="http://www.w3.org/1999/xlink" x="0px" y="0px"
	 viewBox="0 0 30 30" enable-background="new 0 0 30 30" xml:space="preserve">
<g id="original" display="none">
</g>
<g id="expanded">
	<g>
		<polygon fill="#E42A33" points="11.333,22.334 13.167,24.168 11.333,29.668 16.834,24.168 15,22.334 16.834,18.667 		"/>
		<path fill="#E42A33" d="M29.668,8.058c0-2.816-2.292-5.107-5.109-5.107c-0.137,0-0.273,0.005-0.409,0.015
			c-1.325-1.652-3.322-2.634-5.483-2.634c-2.159,0-4.158,0.982-5.483,2.634c-0.136-0.011-0.273-0.015-0.412-0.015
			c-2.815,0-5.107,2.291-5.107,5.107c0,0.295,0.039,0.58,0.086,0.862C7.721,8.96,7.684,8.997,7.654,9.039
			c-0.3-0.043-0.6-0.064-0.905-0.064c-3.538,0-6.417,2.879-6.417,6.417c0,3.538,2.879,6.417,6.417,6.417
			c0.784,0,1.552-0.143,2.275-0.42c0.063,0.055,0.138,0.093,0.203,0.147l1.622-1.082c-0.541-0.383-1.046-0.809-1.468-1.318
			c-0.745,0.524-1.651,0.839-2.632,0.839c-2.532,0-4.584-2.051-4.584-4.584c0-2.531,2.052-4.584,4.584-4.584
			c0.62,0,1.207,0.127,1.744,0.349c0.032-0.062,0.072-0.115,0.104-0.174c0.322-0.588,0.72-1.127,1.184-1.607
			C11.104,8.006,12.942,7.141,15,7.141c2.848,0,5.29,1.643,6.506,4.016c0.323-0.134,0.668-0.22,1.024-0.277l0.721-0.072
			c0.707,0,1.368,0.174,1.966,0.458c0.648,0.31,1.204,0.766,1.641,1.33c0.602,0.775,0.976,1.738,0.976,2.796
			c0,2.533-2.052,4.584-4.584,4.584c-0.981,0-1.886-0.315-2.632-0.839c-0.802,0.967-1.859,1.694-3.045,2.152l-0.343,0.684
			l1.046,1.046c0.978-0.381,1.892-0.927,2.699-1.629c0.723,0.277,1.491,0.42,2.275,0.42c3.538,0,6.417-2.879,6.417-6.417
			c0-1.471-0.518-2.812-1.356-3.896C29.148,10.586,29.668,9.386,29.668,8.058z M27.007,10.213c-1.059-0.77-2.349-1.239-3.757-1.239
			c-0.304,0-0.605,0.022-0.905,0.064C20.634,6.707,17.933,5.307,15,5.307c-1.955,0-3.8,0.634-5.325,1.739
			c0.429-1.309,1.646-2.262,3.098-2.262c0.444,0,0.863,0.089,1.246,0.248c0.87-1.695,2.614-2.867,4.648-2.867
			c2.034,0,3.779,1.172,4.646,2.867c0.386-0.159,0.807-0.248,1.246-0.248c1.81,0,3.275,1.466,3.275,3.273
			C27.835,8.888,27.516,9.637,27.007,10.213z"/>
	</g>
</g>
</svg>
