<?xml version="1.0" encoding="utf-8"?>
<!-- Generator: Adobe Illustrator 17.1.0, SVG Export Plug-In . SVG Version: 6.00 Build 0)  -->
<!DOCTYPE svg PUBLIC "-//W3C//DTD SVG 1.1//EN" "http://www.w3.org/Graphics/SVG/1.1/DTD/svg11.dtd">
<svg version="1.1" xmlns="http://www.w3.org/2000/svg" xmlns:xlink="http://www.w3.org/1999/xlink" x="0px" y="0px"
	 viewBox="0 0 32 32" enable-background="new 0 0 32 32" xml:space="preserve">
<g id="original" display="none">
	<g display="inline">
		
			<line fill="none" stroke="#E42A33" stroke-width="3" stroke-linecap="round" stroke-linejoin="round" stroke-miterlimit="10" x1="22" y1="11" x2="9.979" y2="23.021"/>
		
			<line fill="none" stroke="#E42A33" stroke-width="3" stroke-linecap="round" stroke-linejoin="round" stroke-miterlimit="10" x1="22" y1="23.021" x2="9.979" y2="11"/>
	</g>
</g>
<g id="expanded">
	<path fill="#E42A33" d="M18.111,17.01l4.95-4.95c0.586-0.585,0.586-1.536,0-2.121c-0.586-0.586-1.535-0.586-2.121,0l-4.95,4.95
		l-4.95-4.95c-0.586-0.586-1.535-0.586-2.121,0c-0.586,0.585-0.586,1.536,0,2.121l4.95,4.95l-4.95,4.95
		c-0.586,0.585-0.586,1.536,0,2.121c0.293,0.293,0.677,0.439,1.061,0.439s0.768-0.146,1.061-0.439l4.95-4.95l4.95,4.95
		c0.293,0.293,0.677,0.439,1.061,0.439s0.768-0.146,1.061-0.439c0.586-0.585,0.586-1.536,0-2.121L18.111,17.01z"/>
</g>
</svg>
