<?xml version="1.0" encoding="utf-8"?>
<!-- Generator: Adobe Illustrator 17.1.0, SVG Export Plug-In . SVG Version: 6.00 Build 0)  -->
<!DOCTYPE svg PUBLIC "-//W3C//DTD SVG 1.1//EN" "http://www.w3.org/Graphics/SVG/1.1/DTD/svg11.dtd">
<svg version="1.1" xmlns="http://www.w3.org/2000/svg" xmlns:xlink="http://www.w3.org/1999/xlink" x="0px" y="0px"
	 viewBox="0 0 32 32" enable-background="new 0 0 32 32" xml:space="preserve">
<g id="original" display="none">
	<g display="inline">
		<path fill="#E42A33" d="M7.408,7.988l-4.203,6.71c-0.169,0.271-0.254,0.54-0.254,0.801c0,0.547,0.405,1.099,1.308,1.099h8.568
			c0.904,0,1.308-0.552,1.308-1.099c0-0.26-0.085-0.53-0.254-0.801l-4.203-6.71C9.396,7.536,8.983,7.277,8.543,7.277
			C8.103,7.277,7.69,7.536,7.408,7.988z"/>
		
			<line fill="none" stroke="#E42A33" stroke-width="3" stroke-linecap="round" stroke-linejoin="round" stroke-miterlimit="10" x1="8.499" y1="14.132" x2="8.499" y2="23.883"/>
		
			<line fill="none" stroke="#E42A33" stroke-width="3" stroke-linecap="round" stroke-linejoin="round" stroke-miterlimit="10" x1="15.505" y1="23.901" x2="8.516" y2="23.901"/>
		<path fill="#E42A33" d="M24.592,24.762l4.203-6.71c0.169-0.271,0.254-0.54,0.254-0.801c0-0.547-0.405-1.099-1.308-1.099h-8.568
			c-0.904,0-1.308,0.552-1.308,1.099c0,0.26,0.085,0.53,0.254,0.801l4.203,6.71c0.282,0.452,0.695,0.711,1.135,0.711
			C23.897,25.473,24.31,25.214,24.592,24.762z"/>
		
			<line fill="none" stroke="#E42A33" stroke-width="3" stroke-linecap="round" stroke-linejoin="round" stroke-miterlimit="10" x1="23.501" y1="18.368" x2="23.501" y2="8.617"/>
		
			<line fill="none" stroke="#E42A33" stroke-width="3" stroke-linecap="round" stroke-linejoin="round" stroke-miterlimit="10" x1="16.495" y1="8.599" x2="23.484" y2="8.599"/>
	</g>
</g>
<g id="expanded">
	<g>
		<path fill="#E42A33" d="M15.505,22.4H9.999v-5.803h2.828c0.904,0,1.308-0.552,1.308-1.099c0-0.26-0.085-0.53-0.254-0.801
			l-4.203-6.71C9.396,7.536,8.983,7.277,8.543,7.277c-0.44,0-0.853,0.259-1.135,0.711l-4.203,6.71
			c-0.169,0.271-0.254,0.54-0.254,0.801c0,0.547,0.405,1.099,1.308,1.099h2.74v7.286c0,0.42,0.173,0.798,0.451,1.071
			C7.722,25.229,8.099,25.4,8.517,25.4h6.988c0.829,0,1.5-0.672,1.5-1.5S16.333,22.4,15.505,22.4z"/>
		<path fill="#E42A33" d="M27.741,16.153H25V8.616c0-0.418-0.172-0.796-0.449-1.068C24.28,7.272,23.902,7.1,23.484,7.1h-6.989
			c-0.829,0-1.5,0.672-1.5,1.5s0.671,1.5,1.5,1.5H22v6.053h-2.827c-0.904,0-1.308,0.552-1.308,1.099c0,0.26,0.085,0.53,0.254,0.801
			l4.203,6.71c0.282,0.452,0.695,0.711,1.135,0.711c0.44,0,0.853-0.259,1.135-0.711l4.203-6.71c0.169-0.271,0.254-0.54,0.254-0.801
			C29.049,16.705,28.645,16.153,27.741,16.153z"/>
	</g>
</g>
</svg>
