<?xml version="1.0" encoding="utf-8"?>
<!-- Generator: Adobe Illustrator 17.1.0, SVG Export Plug-In . SVG Version: 6.00 Build 0)  -->
<!DOCTYPE svg PUBLIC "-//W3C//DTD SVG 1.1//EN" "http://www.w3.org/Graphics/SVG/1.1/DTD/svg11.dtd">
<svg version="1.1" xmlns="http://www.w3.org/2000/svg" xmlns:xlink="http://www.w3.org/1999/xlink" x="0px" y="0px"
	 viewBox="0 0 32 32" enable-background="new 0 0 32 32" xml:space="preserve">
<g id="original" display="none">
	<path id="smartphone-4-icon" display="inline" fill="#E42A33" d="M21.483,1.673H10.517c-1.268,0-2.295,1.028-2.295,2.295v24.064
		c0,1.268,1.027,2.295,2.295,2.295h10.965c1.268,0,2.295-1.028,2.295-2.295V3.968C23.778,2.7,22.75,1.673,21.483,1.673z
		 M16.07,29.01c-0.615,0-1.113-0.498-1.113-1.113s0.498-1.113,1.113-1.113c0.614,0,1.113,0.498,1.113,1.113
		S16.684,29.01,16.07,29.01z M22.033,25.58H9.967V6.42h12.067V25.58z"/>
	
		<line display="inline" fill="none" stroke="#FFFFFF" stroke-linecap="round" stroke-linejoin="round" stroke-miterlimit="10" x1="14.229" y1="4.039" x2="17.979" y2="4.039"/>
</g>
<g id="expanded">
	<g>
		<g>
			<path fill="#E42A33" d="M2.178,9.708"/>
		</g>
	</g>
	<g>
		<path fill="#E42A33" d="M21.483,1.673H10.517c-1.268,0-2.295,1.028-2.295,2.295v24.064c0,1.268,1.027,2.295,2.295,2.295h10.965
			c1.268,0,2.295-1.028,2.295-2.295V3.968C23.778,2.7,22.75,1.673,21.483,1.673z M16.07,29.01c-0.615,0-1.113-0.498-1.113-1.113
			c0-0.615,0.498-1.113,1.113-1.113c0.614,0,1.113,0.498,1.113,1.113C17.182,28.511,16.684,29.01,16.07,29.01z M22.033,25.58H9.967
			V6.42h12.067V25.58z"/>
	</g>
</g>
</svg>
