<?xml version="1.0" encoding="utf-8"?>
<!-- Generator: Adobe Illustrator 17.1.0, SVG Export Plug-In . SVG Version: 6.00 Build 0)  -->
<!DOCTYPE svg PUBLIC "-//W3C//DTD SVG 1.1//EN" "http://www.w3.org/Graphics/SVG/1.1/DTD/svg11.dtd">
<svg version="1.1" xmlns="http://www.w3.org/2000/svg" xmlns:xlink="http://www.w3.org/1999/xlink" x="0px" y="0px"
	 viewBox="0 0 32 32" enable-background="new 0 0 32 32" xml:space="preserve">
<g id="original" display="none">
	<g display="inline">
		<path fill="#E42A33" d="M23.268,16.116c0.079,0.02,0.158,0.028,0.236,0.028c0.451,0,0.86-0.307,0.971-0.764
			c0.13-0.537-0.199-1.078-0.736-1.208l-3.745-0.908l-3.096-4.653c-0.068-0.102-0.154-0.185-0.248-0.254
			c-0.168-0.223-0.419-0.37-0.699-0.397c-0.312-0.028-0.617,0.088-0.829,0.318L9.57,14.3c-0.206,0.223-0.299,0.526-0.254,0.826
			c0.045,0.3,0.224,0.563,0.486,0.715L9.85,15.87c0.057,0.053,0.118,0.103,0.188,0.143l5.622,3.212l0.007,5.72
			c0.001,0.552,0.448,1.055,1,1.055c0,0,0.001,0,0.001,0c0.552,0,1-0.505,0.999-1.058l-0.008-6.271c0-0.358-0.193-0.703-0.504-0.881
			l-3.545-2.033l3.192-3.677l1.743,2.619c0.139,0.209,0.353,0.358,0.597,0.417L23.268,16.116z"/>
		<path fill="#E42A33" d="M19.553,9.117c1.232,0,2.234-0.996,2.234-2.229c0-1.231-1.002-2.232-2.234-2.232
			c-1.231,0-2.233,1.003-2.233,2.232C17.321,8.121,18.322,9.117,19.553,9.117z"/>
		<path fill="#E42A33" d="M28.278,18.926c-1.023-1.023-2.383-1.586-3.83-1.586c-1.447,0-2.807,0.563-3.83,1.586
			s-1.587,2.383-1.587,3.83s0.563,2.807,1.587,3.83s2.383,1.586,3.83,1.586c1.447,0,2.807-0.563,3.83-1.586
			c1.023-1.023,1.587-2.383,1.587-3.83S29.301,19.949,28.278,18.926z M27.218,25.525c-0.74,0.74-1.723,1.147-2.77,1.147
			c-1.046,0-2.03-0.407-2.77-1.147s-1.147-1.723-1.147-2.77s0.407-2.03,1.147-2.77s1.723-1.147,2.77-1.147
			c1.046,0,2.03,0.407,2.77,1.147s1.147,1.723,1.147,2.77S27.957,24.786,27.218,25.525z"/>
		<path fill="#E42A33" d="M8.566,17.291c-2.987,0-5.417,2.43-5.417,5.417s2.43,5.417,5.417,5.417s5.417-2.43,5.417-5.417
			S11.553,17.291,8.566,17.291z M8.566,26.624c-2.16,0-3.917-1.757-3.917-3.917s1.757-3.917,3.917-3.917s3.917,1.757,3.917,3.917
			S10.726,26.624,8.566,26.624z"/>
	</g>
</g>
<g id="expanded">
	<g>
		<g>
			<path fill="#E42A33" d="M23.268,16.116c0.079,0.02,0.158,0.028,0.236,0.028c0.451,0,0.86-0.307,0.971-0.764
				c0.13-0.537-0.199-1.078-0.736-1.208l-3.745-0.908l-3.096-4.653c-0.068-0.102-0.154-0.185-0.248-0.254
				c-0.168-0.223-0.419-0.37-0.699-0.397c-0.312-0.028-0.617,0.088-0.829,0.318L9.57,14.3c-0.206,0.223-0.299,0.526-0.254,0.826
				c0.045,0.3,0.224,0.563,0.486,0.715L9.85,15.87c0.057,0.053,0.118,0.103,0.188,0.143l5.622,3.212l0.007,5.72
				c0.001,0.552,0.448,1.055,1,1.055c0,0,0.001,0,0.001,0c0.552,0,1-0.505,0.999-1.058l-0.008-6.271
				c0-0.358-0.193-0.703-0.504-0.881l-3.545-2.033l3.192-3.677l1.743,2.619c0.139,0.209,0.353,0.358,0.597,0.417L23.268,16.116z"/>
		</g>
		<g>
			<path fill="#E42A33" d="M19.553,9.117c1.232,0,2.234-0.996,2.234-2.229c0-1.231-1.002-2.232-2.234-2.232
				c-1.231,0-2.233,1.003-2.233,2.232C17.321,8.121,18.322,9.117,19.553,9.117z"/>
		</g>
		<g>
			<path fill="#E42A33" d="M28.278,18.926c-1.023-1.023-2.383-1.586-3.83-1.586c-1.447,0-2.807,0.563-3.83,1.586
				s-1.587,2.383-1.587,3.83s0.563,2.807,1.587,3.83s2.383,1.586,3.83,1.586c1.447,0,2.807-0.563,3.83-1.586
				c1.023-1.023,1.587-2.383,1.587-3.83S29.301,19.949,28.278,18.926z M27.218,25.525c-0.74,0.74-1.723,1.147-2.77,1.147
				c-1.046,0-2.03-0.407-2.77-1.147s-1.147-1.723-1.147-2.77s0.407-2.03,1.147-2.77s1.723-1.147,2.77-1.147
				c1.046,0,2.03,0.407,2.77,1.147s1.147,1.723,1.147,2.77S27.957,24.786,27.218,25.525z"/>
		</g>
		<g>
			<path fill="#E42A33" d="M8.566,17.291c-2.987,0-5.417,2.43-5.417,5.417s2.43,5.417,5.417,5.417s5.417-2.43,5.417-5.417
				S11.553,17.291,8.566,17.291z M8.566,26.624c-2.16,0-3.917-1.757-3.917-3.917s1.757-3.917,3.917-3.917s3.917,1.757,3.917,3.917
				S10.726,26.624,8.566,26.624z"/>
		</g>
	</g>
</g>
</svg>
