<?xml version="1.0" encoding="utf-8"?>
<!-- Generator: Adobe Illustrator 17.1.0, SVG Export Plug-In . SVG Version: 6.00 Build 0)  -->
<!DOCTYPE svg PUBLIC "-//W3C//DTD SVG 1.1//EN" "http://www.w3.org/Graphics/SVG/1.1/DTD/svg11.dtd">
<svg version="1.1" xmlns="http://www.w3.org/2000/svg" xmlns:xlink="http://www.w3.org/1999/xlink" x="0px" y="0px"
	 viewBox="0 0 32 32" enable-background="new 0 0 32 32" xml:space="preserve">
<g id="original" display="none">
	<g display="inline">
		
			<polyline fill="none" stroke="#E42A33" stroke-width="3" stroke-linecap="round" stroke-linejoin="round" stroke-miterlimit="10" points="
			22.896,16 15.896,23 8.896,16 		"/>
		
			<line fill="none" stroke="#E42A33" stroke-width="3" stroke-linecap="round" stroke-linejoin="round" stroke-miterlimit="10" x1="15.896" y1="9" x2="15.896" y2="23"/>
	</g>
</g>
<g id="expanded">
	<path fill="#E42A33" d="M23.956,14.939c-0.586-0.586-1.535-0.586-2.121,0l-4.439,4.439V9c0-0.829-0.671-1.5-1.5-1.5
		s-1.5,0.671-1.5,1.5v10.379l-4.439-4.439c-0.586-0.586-1.535-0.586-2.121,0c-0.586,0.585-0.586,1.536,0,2.121l6.998,6.998
		c0.139,0.14,0.307,0.251,0.493,0.328c0.007,0.003,0.015,0.004,0.022,0.007c0.17,0.067,0.354,0.107,0.548,0.107
		s0.378-0.04,0.548-0.107c0.007-0.003,0.015-0.004,0.022-0.007c0.186-0.076,0.353-0.188,0.493-0.328l6.998-6.998
		C24.542,16.475,24.542,15.525,23.956,14.939z"/>
</g>
</svg>
