<?xml version="1.0" encoding="utf-8"?>
<!-- Generator: Adobe Illustrator 17.1.0, SVG Export Plug-In . SVG Version: 6.00 Build 0)  -->
<!DOCTYPE svg PUBLIC "-//W3C//DTD SVG 1.1//EN" "http://www.w3.org/Graphics/SVG/1.1/DTD/svg11.dtd">
<svg version="1.1" xmlns="http://www.w3.org/2000/svg" xmlns:xlink="http://www.w3.org/1999/xlink" x="0px" y="0px"
	 viewBox="0 0 32 32" enable-background="new 0 0 32 32" xml:space="preserve">
<g id="original" display="none">
	<g id="linkedin-icon_2_" display="inline">
		<g>
			<path fill="#E42A33" d="M9.863,6.953c0,1.629-1.31,2.954-2.928,2.954c-1.617,0-2.928-1.325-2.928-2.954
				C4.007,5.323,5.318,4,6.935,4C8.552,4,9.863,5.323,9.863,6.953z M9.433,12.001H4.481V28h4.952V12.001z M17.349,12.001H12.6V28
				h4.749c0,0,0-5.934,0-8.399c0-2.25,1.037-3.59,3.018-3.59c1.822,0,2.698,1.287,2.698,3.59c0,2.304,0,8.399,0,8.399h4.928
				c0,0,0-5.845,0-10.13c0-4.286-2.429-6.358-5.822-6.358s-4.822,2.644-4.822,2.644V12.001L17.349,12.001z"/>
		</g>
	</g>
</g>
<g id="expanded">
	<g id="linkedin-icon_1_">
		<g>
			<path fill="#E42A33" d="M9.863,6.953c0,1.629-1.31,2.954-2.928,2.954c-1.617,0-2.928-1.325-2.928-2.954
				C4.007,5.323,5.318,4,6.935,4C8.552,4,9.863,5.323,9.863,6.953z M9.433,12.001H4.481V28h4.952V12.001z M17.349,12.001H12.6V28
				h4.749c0,0,0-5.934,0-8.399c0-2.25,1.037-3.59,3.018-3.59c1.822,0,2.698,1.287,2.698,3.59c0,2.304,0,8.399,0,8.399h4.928
				c0,0,0-5.845,0-10.13c0-4.286-2.429-6.358-5.822-6.358s-4.822,2.644-4.822,2.644V12.001L17.349,12.001z"/>
		</g>
	</g>
</g>
</svg>
