<?xml version="1.0" encoding="utf-8"?>
<!-- Generator: Adobe Illustrator 17.1.0, SVG Export Plug-In . SVG Version: 6.00 Build 0)  -->
<!DOCTYPE svg PUBLIC "-//W3C//DTD SVG 1.1//EN" "http://www.w3.org/Graphics/SVG/1.1/DTD/svg11.dtd">
<svg version="1.1" xmlns="http://www.w3.org/2000/svg" xmlns:xlink="http://www.w3.org/1999/xlink" x="0px" y="0px"
	 viewBox="0 0 32 32" enable-background="new 0 0 32 32" xml:space="preserve">
<g id="original" display="none">
	<g display="inline">
		<g>
			<path fill="#E42A33" d="M8.382,19.205c-2.438-0.196-4.553,1.282-4.715,3.294c-0.162,2.012,1.69,3.809,4.129,4.005
				c2.438,0.196,4.553-1.282,4.715-3.294S10.82,19.4,8.382,19.205z"/>
		</g>
		
			<line fill="none" stroke="#E42A33" stroke-width="3" stroke-linecap="round" stroke-linejoin="round" stroke-miterlimit="10" x1="11.032" y1="23.241" x2="11.032" y2="4.637"/>
		<g>
			<path fill="#E42A33" d="M20.494,22.847c-2.438-0.196-4.553,1.282-4.715,3.294c-0.162,2.012,1.69,3.809,4.129,4.005
				c2.438,0.196,4.553-1.282,4.715-3.294S22.932,23.043,20.494,22.847z"/>
		</g>
		
			<line fill="none" stroke="#E42A33" stroke-width="3" stroke-linecap="round" stroke-linejoin="round" stroke-miterlimit="10" x1="23.127" y1="26.931" x2="23.127" y2="8.326"/>
		
			<line fill="none" stroke="#E42A33" stroke-width="5" stroke-linejoin="round" stroke-miterlimit="10" x1="22.75" y1="9.266" x2="10.594" y2="5.562"/>
	</g>
</g>
<g id="expanded">
	<path fill="#E42A33" d="M24.627,8.326c0-0.729-0.521-1.336-1.21-1.471L11.639,3.267c-0.186-0.083-0.391-0.131-0.608-0.131
		c-0.829,0-1.5,0.672-1.5,1.5v14.805c-0.366-0.114-0.745-0.205-1.149-0.237c-2.438-0.196-4.553,1.282-4.715,3.294
		c-0.162,2.012,1.69,3.809,4.129,4.005c2.144,0.172,4.036-0.951,4.571-2.593c0.102-0.202,0.164-0.427,0.164-0.669V8.766l9.096,2.771
		v11.542c-0.361-0.111-0.735-0.2-1.134-0.232c-2.438-0.196-4.553,1.282-4.715,3.294c-0.162,2.012,1.69,3.809,4.129,4.005
		c2.126,0.171,4.005-0.932,4.559-2.551c0.1-0.201,0.161-0.424,0.161-0.664V8.326z"/>
</g>
</svg>
