<?xml version="1.0" encoding="utf-8"?>
<!-- Generator: Adobe Illustrator 17.1.0, SVG Export Plug-In . SVG Version: 6.00 Build 0)  -->
<!DOCTYPE svg PUBLIC "-//W3C//DTD SVG 1.1//EN" "http://www.w3.org/Graphics/SVG/1.1/DTD/svg11.dtd">
<svg version="1.1" xmlns="http://www.w3.org/2000/svg" xmlns:xlink="http://www.w3.org/1999/xlink" x="0px" y="0px"
	 viewBox="0 0 32 32" enable-background="new 0 0 32 32" xml:space="preserve">
<g id="original" display="none">
	
		<rect x="10.345" y="9.97" display="inline" fill="#E42A33" stroke="#E42A33" stroke-width="4.3041" stroke-linecap="round" stroke-linejoin="round" stroke-miterlimit="10" width="12.061" height="12.061"/>
	
		<text transform="matrix(1 0 0 1 12.5 20.3247)" display="inline" fill="#FFFFFF" font-family="'ArialRoundedMTBold'" font-size="12">P</text>
</g>
<g id="expanded">
	<g>
		<path fill="#E42A33" d="M16.35,13.042h-1.172v2.625h1.172c0.41,0,0.753-0.043,1.028-0.129s0.485-0.227,0.63-0.422
			s0.217-0.451,0.217-0.768c0-0.379-0.111-0.688-0.334-0.926C17.641,13.168,17.127,13.042,16.35,13.042z"/>
		<path fill="#E42A33" d="M22.405,7.818H10.345c-1.188,0-2.152,0.963-2.152,2.152V22.03c0,1.188,0.963,2.152,2.152,2.152h12.061
			c1.188,0,2.152-0.964,2.152-2.152V9.97C24.557,8.781,23.594,7.818,22.405,7.818z M19.18,16.302
			c-0.539,0.451-1.342,0.677-2.408,0.677h-1.594v2.432c0,0.348-0.082,0.611-0.246,0.791s-0.371,0.27-0.621,0.27
			c-0.262,0-0.473-0.089-0.633-0.267s-0.24-0.438-0.24-0.782v-6.621c0-0.383,0.088-0.656,0.264-0.82s0.455-0.246,0.838-0.246h2.232
			c0.66,0,1.168,0.051,1.523,0.152c0.352,0.098,0.655,0.26,0.911,0.486s0.45,0.504,0.583,0.832s0.199,0.697,0.199,1.107
			C19.988,15.188,19.719,15.851,19.18,16.302z"/>
	</g>
</g>
</svg>
