<?xml version="1.0" encoding="utf-8"?>
<!-- Generator: Adobe Illustrator 17.1.0, SVG Export Plug-In . SVG Version: 6.00 Build 0)  -->
<!DOCTYPE svg PUBLIC "-//W3C//DTD SVG 1.1//EN" "http://www.w3.org/Graphics/SVG/1.1/DTD/svg11.dtd">
<svg version="1.1" xmlns="http://www.w3.org/2000/svg" xmlns:xlink="http://www.w3.org/1999/xlink" x="0px" y="0px"
	 viewBox="0 0 32 32" enable-background="new 0 0 32 32" xml:space="preserve">
<g id="original" display="none">
	
		<line display="inline" fill="none" stroke="#E42A33" stroke-width="3" stroke-linecap="round" stroke-linejoin="round" stroke-miterlimit="10" x1="11.746" y1="6.65" x2="11.746" y2="8.048"/>
	
		<line display="inline" fill="none" stroke="#E42A33" stroke-width="3" stroke-linecap="round" stroke-linejoin="round" stroke-miterlimit="10" x1="20.296" y1="6.65" x2="20.296" y2="8.048"/>
	
		<polyline display="inline" fill="none" stroke="#E42A33" stroke-width="2" stroke-linecap="round" stroke-linejoin="round" stroke-miterlimit="10" points="
		24.571,8.075 24.571,25.333 7.471,25.333 7.471,8.075 	"/>
	
		<line display="inline" fill="none" stroke="#E42A33" stroke-width="2" stroke-linecap="round" stroke-linejoin="round" stroke-miterlimit="10" x1="7.471" y1="8.075" x2="24.571" y2="8.075"/>
	<rect x="7.875" y="8.125" display="inline" fill="#E42A33" width="16.5" height="4"/>
	
		<text transform="matrix(1 0 0 1 13.5833 22.5)" display="inline" fill="#E42A33" font-family="'GothamRounded-Bold'" font-size="12">1</text>
</g>
<g id="expanded">
	<g>
		<path fill="#E42A33" d="M14.747,16.071c0.096,0,0.228-0.024,0.324-0.048l0.647-0.168v5.805c0,0.503,0.408,0.911,0.912,0.911
			c0.503,0,0.912-0.408,0.912-0.911v-6.765c0-0.503-0.408-0.911-0.912-0.911h-0.024c-0.252,0-0.516,0.06-0.864,0.156l-1.187,0.348
			c-0.372,0.108-0.612,0.42-0.612,0.792C13.943,15.712,14.315,16.071,14.747,16.071z"/>
		<path fill="#E42A33" d="M24.571,7.075h-2.775V6.65c0-0.829-0.671-1.5-1.5-1.5s-1.5,0.671-1.5,1.5v0.425h-5.55V6.65
			c0-0.829-0.671-1.5-1.5-1.5s-1.5,0.671-1.5,1.5v0.425H7.471c-0.552,0-1,0.448-1,1v17.258c0,0.552,0.448,1,1,1h17.1
			c0.552,0,1-0.448,1-1V8.075C25.571,7.523,25.123,7.075,24.571,7.075z M23.571,24.333h-15.1V12.125h15.1V24.333z"/>
	</g>
</g>
</svg>
