<?xml version="1.0" encoding="utf-8"?>
<!-- Generator: Adobe Illustrator 17.1.0, SVG Export Plug-In . SVG Version: 6.00 Build 0)  -->
<!DOCTYPE svg PUBLIC "-//W3C//DTD SVG 1.1//EN" "http://www.w3.org/Graphics/SVG/1.1/DTD/svg11.dtd">
<svg version="1.1" xmlns="http://www.w3.org/2000/svg" xmlns:xlink="http://www.w3.org/1999/xlink" x="0px" y="0px"
	 viewBox="0 0 32 32" enable-background="new 0 0 32 32" xml:space="preserve">
<g id="original" display="none">
	
		<line display="inline" fill-rule="evenodd" clip-rule="evenodd" fill="none" stroke="#EC1E24" stroke-width="2" stroke-linecap="round" stroke-linejoin="round" stroke-miterlimit="10" x1="9.837" y1="13.94" x2="22.22" y2="13.94"/>
	
		<line display="inline" fill-rule="evenodd" clip-rule="evenodd" fill="none" stroke="#EC1E24" stroke-linecap="round" stroke-linejoin="round" stroke-miterlimit="10" x1="9.865" y1="17.328" x2="22.178" y2="19.005"/>
	<polygon display="inline" fill-rule="evenodd" clip-rule="evenodd" fill="#EC1E24" points="23.078,18.944 8.859,17.389 
		8.859,13.94 23.078,13.94 	"/>
	
		<line display="inline" fill-rule="evenodd" clip-rule="evenodd" fill="none" stroke="#EC1E24" stroke-width="2" stroke-linecap="round" stroke-linejoin="round" stroke-miterlimit="10" x1="9.865" y1="16.604" x2="9.865" y2="23.276"/>
	
		<line display="inline" fill-rule="evenodd" clip-rule="evenodd" fill="none" stroke="#EC1E24" stroke-width="2" stroke-linecap="round" stroke-linejoin="round" stroke-miterlimit="10" x1="22.094" y1="16" x2="22.094" y2="23.287"/>
	
		<line display="inline" fill-rule="evenodd" clip-rule="evenodd" fill="none" stroke="#EC1E24" stroke-width="2" stroke-linecap="round" stroke-linejoin="round" stroke-miterlimit="10" x1="9.837" y1="13.759" x2="7.752" y2="11.674"/>
	
		<line display="inline" fill-rule="evenodd" clip-rule="evenodd" fill="none" stroke="#FFFFFF" stroke-linecap="round" stroke-linejoin="round" stroke-miterlimit="10" x1="20.159" y1="12.319" x2="24.282" y2="16.442"/>
	
		<line display="inline" fill-rule="evenodd" clip-rule="evenodd" fill="none" stroke="#EC1E24" stroke-width="4" stroke-linecap="round" stroke-linejoin="round" stroke-miterlimit="10" x1="22.741" y1="11.607" x2="24.909" y2="13.639"/>
	
		<line display="inline" fill-rule="evenodd" clip-rule="evenodd" fill="none" stroke="#EC1E24" stroke-width="1.5" stroke-linecap="round" stroke-linejoin="round" stroke-miterlimit="10" x1="22.783" y1="8.68" x2="22.955" y2="10.607"/>
</g>
<g id="expanded">
	<g>
		<path fill="#EC1E24" d="M10.433,12.94l-1.973-1.973c-0.391-0.391-1.023-0.391-1.414,0s-0.391,1.023,0,1.414l1.814,1.814v3.195
			l0.005,0.001v5.886c0,0.553,0.448,1,1,1c0.552,0,1-0.447,1-1V17.97l10.229,1.393v3.925c0,0.553,0.448,1,1,1s1-0.447,1-1V16
			c0-0.017-0.005-0.033-0.01-0.049l-3.011-3.011H10.433z"/>
	</g>
	<path fill="#EC1E24" d="M26.277,12.18l-2.167-2.032c-0.143-0.134-0.305-0.235-0.472-0.319L23.53,8.613
		c-0.037-0.413-0.405-0.717-0.813-0.681C22.304,7.969,22,8.333,22.036,8.746l0.086,0.968c-0.309,0.101-0.601,0.27-0.839,0.524
		c-0.755,0.806-0.715,2.071,0.091,2.827l2.167,2.032c0.386,0.362,0.877,0.541,1.368,0.541c0.534,0,1.065-0.212,1.459-0.632
		C27.123,14.201,27.083,12.936,26.277,12.18z"/>
</g>
</svg>
