<?xml version="1.0" encoding="utf-8"?>
<!-- Generator: Adobe Illustrator 17.1.0, SVG Export Plug-In . SVG Version: 6.00 Build 0)  -->
<!DOCTYPE svg PUBLIC "-//W3C//DTD SVG 1.1//EN" "http://www.w3.org/Graphics/SVG/1.1/DTD/svg11.dtd">
<svg version="1.1" xmlns="http://www.w3.org/2000/svg" xmlns:xlink="http://www.w3.org/1999/xlink" x="0px" y="0px"
	 viewBox="0 0 32 32" enable-background="new 0 0 32 32" xml:space="preserve">
<g id="original" display="none">
	<g display="inline">
		
			<line fill="none" stroke="#E42A33" stroke-width="3" stroke-linecap="round" stroke-linejoin="round" stroke-miterlimit="10" x1="9" y1="9" x2="23" y2="9"/>
		
			<line fill="none" stroke="#E42A33" stroke-width="3" stroke-linecap="round" stroke-linejoin="round" stroke-miterlimit="10" x1="9" y1="16" x2="23" y2="16"/>
		
			<line fill="none" stroke="#E42A33" stroke-width="3" stroke-linecap="round" stroke-linejoin="round" stroke-miterlimit="10" x1="9" y1="23" x2="23" y2="23"/>
	</g>
</g>
<g id="expanded">
	<g>
		<g>
			<path fill="#E42A33" d="M23,11H9c-0.829,0-1.5-0.671-1.5-1.5S8.171,8,9,8h14c0.829,0,1.5,0.671,1.5,1.5S23.829,11,23,11z"/>
		</g>
		<g>
			<path fill="#E42A33" d="M23,18H9c-0.829,0-1.5-0.671-1.5-1.5S8.171,15,9,15h14c0.829,0,1.5,0.671,1.5,1.5S23.829,18,23,18z"/>
		</g>
		<g>
			<path fill="#E42A33" d="M23,25H9c-0.829,0-1.5-0.671-1.5-1.5S8.171,22,9,22h14c0.829,0,1.5,0.671,1.5,1.5S23.829,25,23,25z"/>
		</g>
	</g>
</g>
</svg>
