<?xml version="1.0" encoding="utf-8"?>
<!-- Generator: Adobe Illustrator 17.1.0, SVG Export Plug-In . SVG Version: 6.00 Build 0)  -->
<!DOCTYPE svg PUBLIC "-//W3C//DTD SVG 1.1//EN" "http://www.w3.org/Graphics/SVG/1.1/DTD/svg11.dtd">
<svg version="1.1" xmlns="http://www.w3.org/2000/svg" xmlns:xlink="http://www.w3.org/1999/xlink" x="0px" y="0px"
	 viewBox="0 0 32 32" enable-background="new 0 0 32 32" xml:space="preserve">
<g id="original" display="none">
	<g display="inline">
		<g>
			<path fill="none" d="M23.722,17.135H8.278c-0.268,0-0.483,0.282-0.483,0.631c0,0.349,0.216,0.631,0.483,0.631h15.444
				c0.268,0,0.483-0.282,0.483-0.631C24.205,17.418,23.99,17.135,23.722,17.135z"/>
			<path fill="none" d="M23.722,24.709H8.278c-0.268,0-0.483,0.282-0.483,0.631c0,0.349,0.216,0.631,0.483,0.631h15.444
				c0.268,0,0.483-0.282,0.483-0.631C24.205,24.992,23.99,24.709,23.722,24.709z"/>
			<polygon fill="none" points="19.787,8.299 24.836,8.299 26.099,8.299 24.836,7.037 21.049,3.249 19.787,1.987 19.787,3.249 			
				"/>
			<path fill="none" d="M23.722,20.922H8.278c-0.268,0-0.483,0.282-0.483,0.631c0,0.349,0.216,0.631,0.483,0.631h15.444
				c0.268,0,0.483-0.282,0.483-0.631C24.205,21.205,23.99,20.922,23.722,20.922z"/>
			<path fill="none" d="M23.722,13.348H8.278c-0.268,0-0.483,0.282-0.483,0.631c0,0.349,0.216,0.631,0.483,0.631h15.444
				c0.268,0,0.483-0.282,0.483-0.631C24.205,13.631,23.99,13.348,23.722,13.348z"/>
			<g>
				<path fill="#E42A33" d="M24.836,4.512l-1.262-1.262l-2.525-2.525h-1.262H7.164c-1.394,0-2.525,1.132-2.525,2.525v25.247
					c0,1.394,1.132,2.525,2.525,2.525h17.673c1.393,0,2.525-1.13,2.525-2.525V8.299V7.037L24.836,4.512z M24.836,8.299h-5.049V3.249
					V1.987l1.262,1.262l3.787,3.787l1.262,1.262H24.836z"/>
			</g>
		</g>
	</g>
	
		<text transform="matrix(1 0 0 1 8.8094 18.7362)" display="inline" fill="#FFFFFF" font-family="'GothamRounded-Bold'" font-size="7">PDF</text>
</g>
<g id="expanded">
	<g>
		<polygon fill="none" points="21.049,3.25 19.787,1.987 19.787,3.25 19.787,8.299 24.836,8.299 26.099,8.299 24.836,7.036 		"/>
		<path fill="#E42A33" d="M11.31,14.808h-0.833v1.498h0.854c0.539,0,0.854-0.322,0.854-0.742V15.55
			C12.185,15.066,11.849,14.808,11.31,14.808z"/>
		<path fill="#E42A33" d="M15.986,14.808h-0.833v2.955h0.833c0.882,0,1.478-0.596,1.478-1.464v-0.014
			C17.463,15.417,16.868,14.808,15.986,14.808z"/>
		<path fill="#E42A33" d="M24.836,4.512L23.574,3.25l-2.525-2.525h-1.262H7.164c-1.394,0-2.525,1.132-2.525,2.525v25.247
			c0,1.394,1.132,2.525,2.525,2.525h17.673c1.393,0,2.525-1.13,2.525-2.525V8.299V7.036L24.836,4.512z M13.278,15.543
			c0,1.134-0.882,1.723-1.982,1.723h-0.819v0.974c0,0.301-0.238,0.539-0.54,0.539c-0.301,0-0.539-0.238-0.539-0.539v-3.866
			c0-0.301,0.238-0.539,0.539-0.539h1.464c1.17,0,1.877,0.693,1.877,1.694V15.543z M18.591,16.285c0,1.38-1.065,2.451-2.605,2.451
			h-1.373c-0.301,0-0.539-0.238-0.539-0.539v-3.824c0-0.301,0.238-0.539,0.539-0.539h1.373c1.541,0,2.605,1.058,2.605,2.437V16.285z
			 M22.832,14.814h-2.206v1.043h1.891c0.273,0,0.49,0.218,0.49,0.49c0,0.273-0.217,0.49-0.49,0.49h-1.891v1.401
			c0,0.301-0.238,0.539-0.54,0.539c-0.301,0-0.539-0.238-0.539-0.539v-3.866c0-0.301,0.238-0.539,0.539-0.539h2.746
			c0.273,0,0.49,0.217,0.49,0.49C23.322,14.597,23.106,14.814,22.832,14.814z M24.836,8.299h-5.049V3.25V1.987l1.262,1.262
			l3.787,3.787l1.262,1.262H24.836z"/>
	</g>
</g>
</svg>
